<?xml version="1.0" encoding="UTF-8" standalone="no"?>
<!DOCTYPE svg PUBLIC "-//W3C//DTD SVG 1.1//EN"
 "http://www.w3.org/Graphics/SVG/1.1/DTD/svg11.dtd">
<!-- Generated by graphviz version 9.0.0 (20230911.1827)
 -->
<!-- Title: qOS::input::digitalChannel Pages: 1 -->
<svg width="177pt" height="140pt"
 viewBox="0.00 0.00 177.00 139.75" xmlns="http://www.w3.org/2000/svg" xmlns:xlink="http://www.w3.org/1999/xlink">
<g id="graph0" class="graph" transform="scale(1 1) rotate(0) translate(4 135.75)">
<title>qOS::input::digitalChannel</title>
<!-- Node1 -->
<g id="Node000001" class="node">
<title>Node1</title>
<g id="a_Node000001"><a xlink:title="A digital input&#45;channel object.">
<polygon fill="#999999" stroke="#666666" points="126.25,-19.25 0,-19.25 0,0 126.25,0 126.25,-19.25"/>
<text text-anchor="middle" x="63.12" y="-5.75" font-family="Helvetica,sans-Serif" font-size="10.00">qOS::input::digitalChannel</text>
</a>
</g>
</g>
<!-- Node2 -->
<g id="Node000002" class="node">
<title>Node2</title>
<g id="a_Node000002"><a xlink:href="classq_o_s_1_1input_1_1channel.html" target="_top" xlink:title=" ">
<polygon fill="white" stroke="#666666" points="112.75,-75.5 13.5,-75.5 13.5,-56.25 112.75,-56.25 112.75,-75.5"/>
<text text-anchor="middle" x="63.12" y="-62" font-family="Helvetica,sans-Serif" font-size="10.00">qOS::input::channel</text>
</a>
</g>
</g>
<!-- Node2&#45;&gt;Node1 -->
<g id="edge1_Node000001_Node000002" class="edge">
<title>Node2&#45;&gt;Node1</title>
<g id="a_edge1_Node000001_Node000002"><a xlink:title=" ">
<path fill="none" stroke="#63b8ff" d="M63.12,-44.69C63.12,-35.98 63.12,-26.24 63.12,-19.42"/>
<polygon fill="#63b8ff" stroke="#63b8ff" points="59.63,-44.4 63.13,-54.4 66.63,-44.4 59.63,-44.4"/>
</a>
</g>
</g>
<!-- Node2&#45;&gt;Node2 -->
<g id="edge3_Node000002_Node000002" class="edge">
<title>Node2&#45;&gt;Node2</title>
<g id="a_edge3_Node000002_Node000002"><a xlink:title=" ">
<path fill="none" stroke="#9a32cd" stroke-dasharray="5,2" d="M124.17,-69.67C128.26,-68.79 130.75,-67.53 130.75,-65.88 130.75,-63.02 123.31,-61.32 112.96,-60.79"/>
<polygon fill="#9a32cd" stroke="#9a32cd" points="124,-66.16 114.47,-70.79 124.8,-73.12 124,-66.16"/>
</a>
</g>
<text text-anchor="middle" x="149.88" y="-62" font-family="Helvetica,sans-Serif" font-size="10.00" fill="grey"> callback</text>
</g>
<!-- Node3 -->
<g id="Node000003" class="node">
<title>Node3</title>
<g id="a_Node000003"><a xlink:href="classq_o_s_1_1node.html" target="_top" xlink:title="A list&#45;node object (Used internally)">
<polygon fill="white" stroke="#666666" points="93.62,-131.75 32.62,-131.75 32.62,-112.5 93.62,-112.5 93.62,-131.75"/>
<text text-anchor="middle" x="63.12" y="-118.25" font-family="Helvetica,sans-Serif" font-size="10.00">qOS::node</text>
</a>
</g>
</g>
<!-- Node3&#45;&gt;Node2 -->
<g id="edge2_Node000002_Node000003" class="edge">
<title>Node3&#45;&gt;Node2</title>
<g id="a_edge2_Node000002_Node000003"><a xlink:title=" ">
<path fill="none" stroke="darkgreen" d="M63.12,-100.94C63.12,-92.23 63.12,-82.49 63.12,-75.67"/>
<polygon fill="darkgreen" stroke="darkgreen" points="59.63,-100.65 63.13,-110.65 66.63,-100.65 59.63,-100.65"/>
</a>
</g>
</g>
</g>
</svg>
