<?xml version="1.0" encoding="UTF-8" standalone="no"?>
<!DOCTYPE svg PUBLIC "-//W3C//DTD SVG 1.1//EN"
 "http://www.w3.org/Graphics/SVG/1.1/DTD/svg11.dtd">
<!-- Generated by graphviz version 9.0.0 (20230911.1827)
 -->
<!-- Title: qOS::node Pages: 1 -->
<svg width="370pt" height="83pt"
 viewBox="0.00 0.00 369.88 82.50" xmlns="http://www.w3.org/2000/svg" xmlns:xlink="http://www.w3.org/1999/xlink">
<g id="graph0" class="graph" transform="scale(1 1) rotate(0) translate(4 78.5)">
<title>qOS::node</title>
<!-- Node1 -->
<g id="Node000001" class="node">
<title>Node1</title>
<g id="a_Node000001"><a xlink:title="A list&#45;node object (Used internally)">
<polygon fill="#999999" stroke="#666666" points="242,-74.5 181,-74.5 181,-55.25 242,-55.25 242,-74.5"/>
<text text-anchor="middle" x="211.5" y="-61" font-family="Helvetica,sans-Serif" font-size="10.00">qOS::node</text>
</a>
</g>
</g>
<!-- Node2 -->
<g id="Node000002" class="node">
<title>Node2</title>
<g id="a_Node000002"><a xlink:href="classq_o_s_1_1cli_1_1command.html" target="_top" xlink:title="An AT&#45;Command object.">
<polygon fill="white" stroke="#666666" points="97,-19.25 0,-19.25 0,0 97,0 97,-19.25"/>
<text text-anchor="middle" x="48.5" y="-5.75" font-family="Helvetica,sans-Serif" font-size="10.00">qOS::cli::command</text>
</a>
</g>
</g>
<!-- Node1&#45;&gt;Node2 -->
<g id="edge1_Node000001_Node000002" class="edge">
<title>Node1&#45;&gt;Node2</title>
<g id="a_edge1_Node000001_Node000002"><a xlink:title=" ">
<path fill="none" stroke="darkgreen" d="M173.04,-51.31C143.32,-41.6 102.91,-28.4 76.29,-19.7"/>
<polygon fill="darkgreen" stroke="darkgreen" points="171.82,-54.59 182.41,-54.37 173.99,-47.94 171.82,-54.59"/>
</a>
</g>
</g>
<!-- Node3 -->
<g id="Node000003" class="node">
<title>Node3</title>
<g id="a_Node000003"><a xlink:href="classq_o_s_1_1input_1_1channel.html" target="_top" xlink:title="An input channel object.">
<polygon fill="white" stroke="#666666" points="214.12,-19.25 114.88,-19.25 114.88,0 214.12,0 214.12,-19.25"/>
<text text-anchor="middle" x="164.5" y="-5.75" font-family="Helvetica,sans-Serif" font-size="10.00">qOS::input::channel</text>
</a>
</g>
</g>
<!-- Node1&#45;&gt;Node3 -->
<g id="edge2_Node000001_Node000003" class="edge">
<title>Node1&#45;&gt;Node3</title>
<g id="a_edge2_Node000001_Node000003"><a xlink:title=" ">
<path fill="none" stroke="darkgreen" d="M196.17,-46.51C188.25,-37.53 178.9,-26.95 172.43,-19.61"/>
<polygon fill="darkgreen" stroke="darkgreen" points="193.5,-48.77 202.74,-53.95 198.74,-44.13 193.5,-48.77"/>
</a>
</g>
</g>
<!-- Node4 -->
<g id="Node000004" class="node">
<title>Node4</title>
<g id="a_Node000004"><a xlink:href="classq_o_s_1_1list.html" target="_top" xlink:title="A list object (Generic double&#45;linked)">
<polygon fill="white" stroke="#666666" points="284.88,-19.25 232.12,-19.25 232.12,0 284.88,0 284.88,-19.25"/>
<text text-anchor="middle" x="258.5" y="-5.75" font-family="Helvetica,sans-Serif" font-size="10.00">qOS::list</text>
</a>
</g>
</g>
<!-- Node1&#45;&gt;Node4 -->
<g id="edge3_Node000001_Node000004" class="edge">
<title>Node1&#45;&gt;Node4</title>
<g id="a_edge3_Node000001_Node000004"><a xlink:title=" ">
<path fill="none" stroke="darkgreen" d="M226.83,-46.51C234.75,-37.53 244.1,-26.95 250.57,-19.61"/>
<polygon fill="darkgreen" stroke="darkgreen" points="224.26,-44.13 220.26,-53.95 229.5,-48.77 224.26,-44.13"/>
</a>
</g>
</g>
<!-- Node5 -->
<g id="Node000005" class="node">
<title>Node5</title>
<g id="a_Node000005"><a xlink:href="classq_o_s_1_1task.html" target="_top" xlink:title="A task node object.">
<polygon fill="white" stroke="#666666" points="361.88,-19.25 303.12,-19.25 303.12,0 361.88,0 361.88,-19.25"/>
<text text-anchor="middle" x="332.5" y="-5.75" font-family="Helvetica,sans-Serif" font-size="10.00">qOS::task</text>
</a>
</g>
</g>
<!-- Node1&#45;&gt;Node5 -->
<g id="edge4_Node000001_Node000005" class="edge">
<title>Node1&#45;&gt;Node5</title>
<g id="a_edge4_Node000001_Node000005"><a xlink:title=" ">
<path fill="none" stroke="darkgreen" d="M242.41,-50.27C264.21,-40.68 292.81,-28.09 311.87,-19.7"/>
<polygon fill="darkgreen" stroke="darkgreen" points="241.15,-47 233.41,-54.23 243.97,-53.41 241.15,-47"/>
</a>
</g>
</g>
</g>
</svg>
