<?xml version="1.0" encoding="UTF-8" standalone="no"?>
<!DOCTYPE svg PUBLIC "-//W3C//DTD SVG 1.1//EN"
 "http://www.w3.org/Graphics/SVG/1.1/DTD/svg11.dtd">
<!-- Generated by graphviz version 12.2.1 (20241206.2353)
 -->
<!-- Title: qOS::core Pages: 1 -->
<svg width="158pt" height="83pt"
 viewBox="0.00 0.00 157.50 82.50" xmlns="http://www.w3.org/2000/svg" xmlns:xlink="http://www.w3.org/1999/xlink">
<g id="graph0" class="graph" transform="scale(1 1) rotate(0) translate(4 78.5)">
<title>qOS::core</title>
<!-- Node1 -->
<g id="Node000001" class="node">
<title>Node1</title>
<g id="a_Node000001"><a xlink:title="The class to interface the OS.">
<polygon fill="#999999" stroke="#666666" points="101.12,-19.25 42.38,-19.25 42.38,0 101.12,0 101.12,-19.25"/>
<text text-anchor="middle" x="71.75" y="-5.75" font-family="Helvetica,sans-Serif" font-size="10.00">qOS::core</text>
</a>
</g>
</g>
<!-- Node2 -->
<g id="Node000002" class="node">
<title>Node2</title>
<g id="a_Node000002"><a xlink:title=" ">
<polygon fill="white" stroke="#666666" points="59.5,-74.5 0,-74.5 0,-55.25 59.5,-55.25 59.5,-74.5"/>
<text text-anchor="middle" x="29.75" y="-61" font-family="Helvetica,sans-Serif" font-size="10.00">taskEvent</text>
</a>
</g>
</g>
<!-- Node2&#45;&gt;Node1 -->
<g id="edge1_Node000001_Node000002" class="edge">
<title>Node2&#45;&gt;Node1</title>
<g id="a_edge1_Node000001_Node000002"><a xlink:title=" ">
<path fill="none" stroke="darkgreen" d="M43.67,-46.22C50.71,-37.31 58.94,-26.87 64.66,-19.61"/>
<polygon fill="darkgreen" stroke="darkgreen" points="41.07,-43.87 37.62,-53.89 46.56,-48.21 41.07,-43.87"/>
</a>
</g>
</g>
<!-- Node3 -->
<g id="Node000003" class="node">
<title>Node3</title>
<g id="a_Node000003"><a xlink:title=" ">
<polygon fill="white" stroke="#666666" points="149.5,-74.5 78,-74.5 78,-55.25 149.5,-55.25 149.5,-74.5"/>
<text text-anchor="middle" x="113.75" y="-61" font-family="Helvetica,sans-Serif" font-size="10.00">nonCopyable</text>
</a>
</g>
</g>
<!-- Node3&#45;&gt;Node1 -->
<g id="edge2_Node000001_Node000003" class="edge">
<title>Node3&#45;&gt;Node1</title>
<g id="a_edge2_Node000001_Node000003"><a xlink:title=" ">
<path fill="none" stroke="#8b1a1a" d="M99.83,-46.22C92.79,-37.31 84.56,-26.87 78.84,-19.61"/>
<polygon fill="#8b1a1a" stroke="#8b1a1a" points="96.94,-48.21 105.88,-53.89 102.43,-43.87 96.94,-48.21"/>
</a>
</g>
</g>
</g>
</svg>
