<?xml version="1.0" encoding="UTF-8" standalone="no"?>
<!DOCTYPE svg PUBLIC "-//W3C//DTD SVG 1.1//EN"
 "http://www.w3.org/Graphics/SVG/1.1/DTD/svg11.dtd">
<!-- Generated by graphviz version 2.49.3 (20211027.1534)
 -->
<!-- Title: qOS::stateMachine Pages: 1 -->
<svg width="206pt" height="117pt"
 viewBox="0.00 0.00 205.50 117.00" xmlns="http://www.w3.org/2000/svg" xmlns:xlink="http://www.w3.org/1999/xlink">
<g id="graph0" class="graph" transform="scale(1 1) rotate(0) translate(4 113)">
<title>qOS::stateMachine</title>
<polygon fill="white" stroke="transparent" points="-4,4 -4,-113 201.5,-113 201.5,4 -4,4"/>
<!-- Node1 -->
<g id="node1" class="node">
<title>Node1</title>
<g id="a_node1"><a xlink:title="A FSM(Finite State Machine) object.">
<polygon fill="#bfbfbf" stroke="black" points="0,-89.5 0,-108.5 99,-108.5 99,-89.5 0,-89.5"/>
<text text-anchor="middle" x="49.5" y="-96.5" font-family="Helvetica,sans-Serif" font-size="10.00">qOS::stateMachine</text>
</a>
</g>
</g>
<!-- Node2 -->
<g id="node2" class="node">
<title>Node2</title>
<g id="a_node2"><a xlink:href="classq_o_s_1_1sm_1_1___handler.html" target="_top" xlink:title=" ">
<polygon fill="white" stroke="black" points="55.5,-0.5 55.5,-19.5 153.5,-19.5 153.5,-0.5 55.5,-0.5"/>
<text text-anchor="middle" x="104.5" y="-7.5" font-family="Helvetica,sans-Serif" font-size="10.00">qOS::sm::_Handler</text>
</a>
</g>
</g>
<!-- Node1&#45;&gt;Node2 -->
<g id="edge3" class="edge">
<title>Node1&#45;&gt;Node2</title>
<path fill="none" stroke="#9a32cd" stroke-dasharray="5,2" d="M43.32,-79.58C40.27,-66.92 38.69,-50.24 46.5,-38 51.93,-29.48 60.83,-23.6 70.05,-19.57"/>
<polygon fill="#9a32cd" stroke="#9a32cd" points="40.04,-80.83 46.2,-89.46 46.77,-78.88 40.04,-80.83"/>
<text text-anchor="middle" x="66.5" y="-52" font-family="Helvetica,sans-Serif" font-size="10.00"> Machine</text>
</g>
<!-- Node2&#45;&gt;Node1 -->
<g id="edge1" class="edge">
<title>Node2&#45;&gt;Node1</title>
<path fill="none" stroke="darkgreen" d="M103.69,-29.83C102.34,-42.45 98.93,-58.91 90.5,-71 85.04,-78.83 76.51,-84.98 68.64,-89.41"/>
<polygon fill="darkgreen" stroke="darkgreen" points="107.21,-29.78 104.44,-19.55 100.23,-29.27 107.21,-29.78"/>
</g>
<!-- Node3 -->
<g id="node3" class="node">
<title>Node3</title>
<g id="a_node3"><a xlink:href="classq_o_s_1_1sm_1_1state.html" target="_top" xlink:title="A state object.">
<polygon fill="white" stroke="black" points="117.5,-89.5 117.5,-108.5 197.5,-108.5 197.5,-89.5 117.5,-89.5"/>
<text text-anchor="middle" x="157.5" y="-96.5" font-family="Helvetica,sans-Serif" font-size="10.00">qOS::sm::state</text>
</a>
</g>
</g>
<!-- Node3&#45;&gt;Node2 -->
<g id="edge2" class="edge">
<title>Node3&#45;&gt;Node2</title>
<path fill="none" stroke="#9a32cd" stroke-dasharray="5,2" d="M146.99,-80.74C135.75,-62.3 118.39,-33.8 109.75,-19.62"/>
<polygon fill="#9a32cd" stroke="#9a32cd" points="144.03,-82.62 152.22,-89.34 150.01,-78.98 144.03,-82.62"/>
<text text-anchor="middle" x="162.5" y="-63" font-family="Helvetica,sans-Serif" font-size="10.00"> NextState</text>
<text text-anchor="middle" x="162.5" y="-52" font-family="Helvetica,sans-Serif" font-size="10.00">StartState</text>
<text text-anchor="middle" x="162.5" y="-41" font-family="Helvetica,sans-Serif" font-size="10.00">State</text>
</g>
</g>
</svg>
