<?xml version="1.0" encoding="UTF-8" standalone="no"?>
<!DOCTYPE svg PUBLIC "-//W3C//DTD SVG 1.1//EN"
 "http://www.w3.org/Graphics/SVG/1.1/DTD/svg11.dtd">
<!-- Generated by graphviz version 12.2.1 (20241206.2353)
 -->
<!-- Title: qOS::cli::command Pages: 1 -->
<svg width="158pt" height="83pt"
 viewBox="0.00 0.00 158.25 82.50" xmlns="http://www.w3.org/2000/svg" xmlns:xlink="http://www.w3.org/1999/xlink">
<g id="graph0" class="graph" transform="scale(1 1) rotate(0) translate(4 78.5)">
<title>qOS::cli::command</title>
<!-- Node1 -->
<g id="Node000001" class="node">
<title>Node1</title>
<g id="a_Node000001"><a xlink:title="An AT&#45;Command object.">
<polygon fill="#999999" stroke="#666666" points="121,-19.25 24,-19.25 24,0 121,0 121,-19.25"/>
<text text-anchor="middle" x="72.5" y="-5.75" font-family="Helvetica,sans-Serif" font-size="10.00">qOS::cli::command</text>
</a>
</g>
</g>
<!-- Node2 -->
<g id="Node000002" class="node">
<title>Node2</title>
<g id="a_Node000002"><a xlink:href="classq_o_s_1_1node.html" target="_top" xlink:title="A list&#45;node object (Used internally)">
<polygon fill="white" stroke="#666666" points="61,-74.5 0,-74.5 0,-55.25 61,-55.25 61,-74.5"/>
<text text-anchor="middle" x="30.5" y="-61" font-family="Helvetica,sans-Serif" font-size="10.00">qOS::node</text>
</a>
</g>
</g>
<!-- Node2&#45;&gt;Node1 -->
<g id="edge1_Node000001_Node000002" class="edge">
<title>Node2&#45;&gt;Node1</title>
<g id="a_edge1_Node000001_Node000002"><a xlink:title=" ">
<path fill="none" stroke="darkgreen" d="M44.42,-46.22C51.46,-37.31 59.69,-26.87 65.41,-19.61"/>
<polygon fill="darkgreen" stroke="darkgreen" points="41.82,-43.87 38.37,-53.89 47.31,-48.21 41.82,-43.87"/>
</a>
</g>
</g>
<!-- Node3 -->
<g id="Node000003" class="node">
<title>Node3</title>
<g id="a_Node000003"><a xlink:title=" ">
<polygon fill="white" stroke="#666666" points="150.25,-74.5 78.75,-74.5 78.75,-55.25 150.25,-55.25 150.25,-74.5"/>
<text text-anchor="middle" x="114.5" y="-61" font-family="Helvetica,sans-Serif" font-size="10.00">nonCopyable</text>
</a>
</g>
</g>
<!-- Node3&#45;&gt;Node1 -->
<g id="edge2_Node000001_Node000003" class="edge">
<title>Node3&#45;&gt;Node1</title>
<g id="a_edge2_Node000001_Node000003"><a xlink:title=" ">
<path fill="none" stroke="#8b1a1a" d="M100.58,-46.22C93.54,-37.31 85.31,-26.87 79.59,-19.61"/>
<polygon fill="#8b1a1a" stroke="#8b1a1a" points="97.69,-48.21 106.63,-53.89 103.18,-43.87 97.69,-48.21"/>
</a>
</g>
</g>
</g>
</svg>
