<?xml version="1.0" encoding="UTF-8" standalone="no"?>
<!DOCTYPE svg PUBLIC "-//W3C//DTD SVG 1.1//EN"
 "http://www.w3.org/Graphics/SVG/1.1/DTD/svg11.dtd">
<!-- Generated by graphviz version 2.49.3 (20211027.1534)
 -->
<!-- Title: qOS::node Pages: 1 -->
<svg width="359pt" height="84pt"
 viewBox="0.00 0.00 358.50 84.00" xmlns="http://www.w3.org/2000/svg" xmlns:xlink="http://www.w3.org/1999/xlink">
<g id="graph0" class="graph" transform="scale(1 1) rotate(0) translate(4 80)">
<title>qOS::node</title>
<polygon fill="white" stroke="transparent" points="-4,4 -4,-80 354.5,-80 354.5,4 -4,4"/>
<!-- Node1 -->
<g id="node1" class="node">
<title>Node1</title>
<g id="a_node1"><a xlink:title="A list&#45;node object (Used internally)">
<polygon fill="#bfbfbf" stroke="black" points="172,-56.5 172,-75.5 234,-75.5 234,-56.5 172,-56.5"/>
<text text-anchor="middle" x="203" y="-63.5" font-family="Helvetica,sans-Serif" font-size="10.00">qOS::node</text>
</a>
</g>
</g>
<!-- Node2 -->
<g id="node2" class="node">
<title>Node2</title>
<g id="a_node2"><a xlink:href="classq_o_s_1_1cli_1_1command.html" target="_top" xlink:title="An AT&#45;Command object.">
<polygon fill="white" stroke="black" points="0,-0.5 0,-19.5 98,-19.5 98,-0.5 0,-0.5"/>
<text text-anchor="middle" x="49" y="-7.5" font-family="Helvetica,sans-Serif" font-size="10.00">qOS::cli::command</text>
</a>
</g>
</g>
<!-- Node1&#45;&gt;Node2 -->
<g id="edge1" class="edge">
<title>Node1&#45;&gt;Node2</title>
<path fill="none" stroke="darkgreen" d="M168.89,-53.04C139.91,-42.88 99.04,-28.55 73.29,-19.52"/>
<polygon fill="darkgreen" stroke="darkgreen" points="168,-56.44 178.6,-56.44 170.32,-49.83 168,-56.44"/>
</g>
<!-- Node3 -->
<g id="node3" class="node">
<title>Node3</title>
<g id="a_node3"><a xlink:href="classq_o_s_1_1ec_1_1in_node.html" target="_top" xlink:title="An input node object for edge checking.">
<polygon fill="white" stroke="black" points="116,-0.5 116,-19.5 202,-19.5 202,-0.5 116,-0.5"/>
<text text-anchor="middle" x="159" y="-7.5" font-family="Helvetica,sans-Serif" font-size="10.00">qOS::ec::inNode</text>
</a>
</g>
</g>
<!-- Node1&#45;&gt;Node3 -->
<g id="edge2" class="edge">
<title>Node1&#45;&gt;Node3</title>
<path fill="none" stroke="darkgreen" d="M189.27,-48.14C181.6,-38.74 172.37,-27.4 166.13,-19.75"/>
<polygon fill="darkgreen" stroke="darkgreen" points="186.7,-50.54 195.73,-56.08 192.13,-46.12 186.7,-50.54"/>
</g>
<!-- Node4 -->
<g id="node4" class="node">
<title>Node4</title>
<g id="a_node4"><a xlink:href="classq_o_s_1_1list.html" target="_top" xlink:title="A list object (Generic double&#45;linked)">
<polygon fill="white" stroke="black" points="220.5,-0.5 220.5,-19.5 273.5,-19.5 273.5,-0.5 220.5,-0.5"/>
<text text-anchor="middle" x="247" y="-7.5" font-family="Helvetica,sans-Serif" font-size="10.00">qOS::list</text>
</a>
</g>
</g>
<!-- Node1&#45;&gt;Node4 -->
<g id="edge3" class="edge">
<title>Node1&#45;&gt;Node4</title>
<path fill="none" stroke="darkgreen" d="M216.73,-48.14C224.4,-38.74 233.63,-27.4 239.87,-19.75"/>
<polygon fill="darkgreen" stroke="darkgreen" points="213.87,-46.12 210.27,-56.08 219.3,-50.54 213.87,-46.12"/>
</g>
<!-- Node5 -->
<g id="node5" class="node">
<title>Node5</title>
<g id="a_node5"><a xlink:href="classq_o_s_1_1task.html" target="_top" xlink:title="A task node object.">
<polygon fill="white" stroke="black" points="291.5,-0.5 291.5,-19.5 350.5,-19.5 350.5,-0.5 291.5,-0.5"/>
<text text-anchor="middle" x="321" y="-7.5" font-family="Helvetica,sans-Serif" font-size="10.00">qOS::task</text>
</a>
</g>
</g>
<!-- Node1&#45;&gt;Node5 -->
<g id="edge4" class="edge">
<title>Node1&#45;&gt;Node5</title>
<path fill="none" stroke="darkgreen" d="M230.9,-52.23C252.97,-42.13 283.18,-28.31 302.39,-19.52"/>
<polygon fill="darkgreen" stroke="darkgreen" points="229.33,-49.1 221.7,-56.44 232.25,-55.46 229.33,-49.1"/>
</g>
</g>
</svg>
