<?xml version="1.0" encoding="UTF-8" standalone="no"?>
<!DOCTYPE svg PUBLIC "-//W3C//DTD SVG 1.1//EN"
 "http://www.w3.org/Graphics/SVG/1.1/DTD/svg11.dtd">
<!-- Generated by graphviz version 11.0.0 (20240428.1522)
 -->
<!-- Title: qOS::input::digitalChannel Pages: 1 -->
<svg width="134pt" height="138pt"
 viewBox="0.00 0.00 134.25 137.75" xmlns="http://www.w3.org/2000/svg" xmlns:xlink="http://www.w3.org/1999/xlink">
<g id="graph0" class="graph" transform="scale(1 1) rotate(0) translate(4 133.75)">
<title>qOS::input::digitalChannel</title>
<!-- Node1 -->
<g id="Node000001" class="node">
<title>Node1</title>
<g id="a_Node000001"><a xlink:title="A digital input&#45;channel object.">
<polygon fill="#999999" stroke="#666666" points="126.25,-19.25 0,-19.25 0,0 126.25,0 126.25,-19.25"/>
<text text-anchor="middle" x="63.12" y="-5.75" font-family="Helvetica,sans-Serif" font-size="10.00">qOS::input::digitalChannel</text>
</a>
</g>
</g>
<!-- Node2 -->
<g id="Node000002" class="node">
<title>Node2</title>
<g id="a_Node000002"><a xlink:href="classq_o_s_1_1input_1_1channel.html" target="_top" xlink:title=" ">
<polygon fill="white" stroke="#666666" points="112.75,-74.5 13.5,-74.5 13.5,-55.25 112.75,-55.25 112.75,-74.5"/>
<text text-anchor="middle" x="63.12" y="-61" font-family="Helvetica,sans-Serif" font-size="10.00">qOS::input::channel</text>
</a>
</g>
</g>
<!-- Node2&#45;&gt;Node1 -->
<g id="edge1_Node000001_Node000002" class="edge">
<title>Node2&#45;&gt;Node1</title>
<g id="a_edge1_Node000001_Node000002"><a xlink:title=" ">
<path fill="none" stroke="#63b8ff" d="M63.12,-43.63C63.12,-35.34 63.12,-26.17 63.12,-19.61"/>
<polygon fill="#63b8ff" stroke="#63b8ff" points="59.63,-43.57 63.13,-53.57 66.63,-43.57 59.63,-43.57"/>
</a>
</g>
</g>
<!-- Node3 -->
<g id="Node000003" class="node">
<title>Node3</title>
<g id="a_Node000003"><a xlink:href="classq_o_s_1_1node.html" target="_top" xlink:title="A list&#45;node object (Used internally)">
<polygon fill="white" stroke="#666666" points="93.62,-129.75 32.62,-129.75 32.62,-110.5 93.62,-110.5 93.62,-129.75"/>
<text text-anchor="middle" x="63.12" y="-116.25" font-family="Helvetica,sans-Serif" font-size="10.00">qOS::node</text>
</a>
</g>
</g>
<!-- Node3&#45;&gt;Node2 -->
<g id="edge2_Node000002_Node000003" class="edge">
<title>Node3&#45;&gt;Node2</title>
<g id="a_edge2_Node000002_Node000003"><a xlink:title=" ">
<path fill="none" stroke="darkgreen" d="M63.12,-98.88C63.12,-90.59 63.12,-81.42 63.12,-74.86"/>
<polygon fill="darkgreen" stroke="darkgreen" points="59.63,-98.82 63.13,-108.82 66.63,-98.82 59.63,-98.82"/>
</a>
</g>
</g>
</g>
</svg>
