<?xml version="1.0" encoding="UTF-8" standalone="no"?>
<!DOCTYPE svg PUBLIC "-//W3C//DTD SVG 1.1//EN"
 "http://www.w3.org/Graphics/SVG/1.1/DTD/svg11.dtd">
<!-- Generated by graphviz version 9.0.0 (20230911.1827)
 -->
<!-- Title: qOS::input::channel Pages: 1 -->
<svg width="164pt" height="84pt"
 viewBox="0.00 0.00 163.50 83.50" xmlns="http://www.w3.org/2000/svg" xmlns:xlink="http://www.w3.org/1999/xlink">
<g id="graph0" class="graph" transform="scale(1 1) rotate(0) translate(4 79.5)">
<title>qOS::input::channel</title>
<!-- Node1 -->
<g id="Node000001" class="node">
<title>Node1</title>
<g id="a_Node000001"><a xlink:title=" ">
<polygon fill="#999999" stroke="#666666" points="99.25,-19.25 0,-19.25 0,0 99.25,0 99.25,-19.25"/>
<text text-anchor="middle" x="49.62" y="-5.75" font-family="Helvetica,sans-Serif" font-size="10.00">qOS::input::channel</text>
</a>
</g>
</g>
<!-- Node1&#45;&gt;Node1 -->
<g id="edge2_Node000001_Node000001" class="edge">
<title>Node1&#45;&gt;Node1</title>
<g id="a_edge2_Node000001_Node000001"><a xlink:title=" ">
<path fill="none" stroke="#9a32cd" stroke-dasharray="5,2" d="M110.67,-13.42C114.76,-12.54 117.25,-11.28 117.25,-9.62 117.25,-6.77 109.81,-5.07 99.46,-4.54"/>
<polygon fill="#9a32cd" stroke="#9a32cd" points="110.5,-9.91 100.97,-14.54 111.3,-16.87 110.5,-9.91"/>
</a>
</g>
<text text-anchor="middle" x="136.38" y="-5.75" font-family="Helvetica,sans-Serif" font-size="10.00" fill="grey"> callback</text>
</g>
<!-- Node2 -->
<g id="Node000002" class="node">
<title>Node2</title>
<g id="a_Node000002"><a xlink:href="classq_o_s_1_1node.html" target="_top" xlink:title="A list&#45;node object (Used internally)">
<polygon fill="white" stroke="#666666" points="80.12,-75.5 19.13,-75.5 19.13,-56.25 80.12,-56.25 80.12,-75.5"/>
<text text-anchor="middle" x="49.62" y="-62" font-family="Helvetica,sans-Serif" font-size="10.00">qOS::node</text>
</a>
</g>
</g>
<!-- Node2&#45;&gt;Node1 -->
<g id="edge1_Node000001_Node000002" class="edge">
<title>Node2&#45;&gt;Node1</title>
<g id="a_edge1_Node000001_Node000002"><a xlink:title=" ">
<path fill="none" stroke="darkgreen" d="M49.62,-44.69C49.62,-35.98 49.62,-26.24 49.62,-19.42"/>
<polygon fill="darkgreen" stroke="darkgreen" points="46.13,-44.4 49.63,-54.4 53.13,-44.4 46.13,-44.4"/>
</a>
</g>
</g>
</g>
</svg>
