<?xml version="1.0" encoding="UTF-8" standalone="no"?>
<!DOCTYPE svg PUBLIC "-//W3C//DTD SVG 1.1//EN"
 "http://www.w3.org/Graphics/SVG/1.1/DTD/svg11.dtd">
<!-- Generated by graphviz version 2.49.3 (20211027.1534)
 -->
<!-- Title: qOS::core Pages: 1 -->
<svg width="99pt" height="209pt"
 viewBox="0.00 0.00 98.50 209.00" xmlns="http://www.w3.org/2000/svg" xmlns:xlink="http://www.w3.org/1999/xlink">
<g id="graph0" class="graph" transform="scale(1 1) rotate(0) translate(4 205)">
<title>qOS::core</title>
<polygon fill="white" stroke="transparent" points="-4,4 -4,-205 94.5,-205 94.5,4 -4,4"/>
<!-- Node1 -->
<g id="node1" class="node">
<title>Node1</title>
<g id="a_node1"><a xlink:title=" ">
<polygon fill="#bfbfbf" stroke="black" points="6,-0.5 6,-19.5 65,-19.5 65,-0.5 6,-0.5"/>
<text text-anchor="middle" x="35.5" y="-7.5" font-family="Helvetica,sans-Serif" font-size="10.00">qOS::core</text>
</a>
</g>
</g>
<!-- Node2 -->
<g id="node2" class="node">
<title>Node2</title>
<g id="a_node2"><a xlink:href="classq_o_s_1_1___event.html" target="_top" xlink:title="The task argument with all the regarding information of the task execution.">
<polygon fill="white" stroke="black" points="0,-57.5 0,-76.5 71,-76.5 71,-57.5 0,-57.5"/>
<text text-anchor="middle" x="35.5" y="-64.5" font-family="Helvetica,sans-Serif" font-size="10.00">qOS::_Event</text>
</a>
</g>
</g>
<!-- Node2&#45;&gt;Node1 -->
<g id="edge1" class="edge">
<title>Node2&#45;&gt;Node1</title>
<path fill="none" stroke="darkgreen" d="M35.5,-47.12C35.5,-37.82 35.5,-27.06 35.5,-19.71"/>
<polygon fill="darkgreen" stroke="darkgreen" points="32,-47.41 35.5,-57.41 39,-47.41 32,-47.41"/>
</g>
<!-- Node3 -->
<g id="node3" class="node">
<title>Node3</title>
<g id="a_node3"><a xlink:href="classq_o_s_1_1task.html" target="_top" xlink:title="A task node object.">
<polygon fill="white" stroke="black" points="6,-124.5 6,-143.5 65,-143.5 65,-124.5 6,-124.5"/>
<text text-anchor="middle" x="35.5" y="-131.5" font-family="Helvetica,sans-Serif" font-size="10.00">qOS::task</text>
</a>
</g>
</g>
<!-- Node3&#45;&gt;Node2 -->
<g id="edge2" class="edge">
<title>Node3&#45;&gt;Node2</title>
<path fill="none" stroke="#9a32cd" stroke-dasharray="5,2" d="M35.5,-114.04C35.5,-101.67 35.5,-86.12 35.5,-76.63"/>
<polygon fill="#9a32cd" stroke="#9a32cd" points="32,-114.23 35.5,-124.23 39,-114.23 32,-114.23"/>
<text text-anchor="middle" x="63" y="-98" font-family="Helvetica,sans-Serif" font-size="10.00"> currentTask</text>
</g>
<!-- Node4 -->
<g id="node4" class="node">
<title>Node4</title>
<g id="a_node4"><a xlink:href="classq_o_s_1_1node.html" target="_top" xlink:title="A list&#45;node object (Used internally)">
<polygon fill="white" stroke="black" points="4.5,-181.5 4.5,-200.5 66.5,-200.5 66.5,-181.5 4.5,-181.5"/>
<text text-anchor="middle" x="35.5" y="-188.5" font-family="Helvetica,sans-Serif" font-size="10.00">qOS::node</text>
</a>
</g>
</g>
<!-- Node4&#45;&gt;Node3 -->
<g id="edge3" class="edge">
<title>Node4&#45;&gt;Node3</title>
<path fill="none" stroke="darkgreen" d="M35.5,-171.12C35.5,-161.82 35.5,-151.06 35.5,-143.71"/>
<polygon fill="darkgreen" stroke="darkgreen" points="32,-171.41 35.5,-181.41 39,-171.41 32,-171.41"/>
</g>
</g>
</svg>
