<?xml version="1.0" encoding="UTF-8" standalone="no"?>
<!DOCTYPE svg PUBLIC "-//W3C//DTD SVG 1.1//EN"
 "http://www.w3.org/Graphics/SVG/1.1/DTD/svg11.dtd">
<!-- Generated by graphviz version 9.0.0 (20230911.1827)
 -->
<!-- Title: qOS::input::analogChannel Pages: 1 -->
<svg width="179pt" height="140pt"
 viewBox="0.00 0.00 178.50 139.75" xmlns="http://www.w3.org/2000/svg" xmlns:xlink="http://www.w3.org/1999/xlink">
<g id="graph0" class="graph" transform="scale(1 1) rotate(0) translate(4 135.75)">
<title>qOS::input::analogChannel</title>
<!-- Node1 -->
<g id="Node000001" class="node">
<title>Node1</title>
<g id="a_Node000001"><a xlink:title="An analog input&#45;channel object.">
<polygon fill="#999999" stroke="#666666" points="129.25,-19.25 0,-19.25 0,0 129.25,0 129.25,-19.25"/>
<text text-anchor="middle" x="64.62" y="-5.75" font-family="Helvetica,sans-Serif" font-size="10.00">qOS::input::analogChannel</text>
</a>
</g>
</g>
<!-- Node2 -->
<g id="Node000002" class="node">
<title>Node2</title>
<g id="a_Node000002"><a xlink:href="classq_o_s_1_1input_1_1channel.html" target="_top" xlink:title=" ">
<polygon fill="white" stroke="#666666" points="114.25,-75.5 15,-75.5 15,-56.25 114.25,-56.25 114.25,-75.5"/>
<text text-anchor="middle" x="64.62" y="-62" font-family="Helvetica,sans-Serif" font-size="10.00">qOS::input::channel</text>
</a>
</g>
</g>
<!-- Node2&#45;&gt;Node1 -->
<g id="edge1_Node000001_Node000002" class="edge">
<title>Node2&#45;&gt;Node1</title>
<g id="a_edge1_Node000001_Node000002"><a xlink:title=" ">
<path fill="none" stroke="#63b8ff" d="M64.62,-44.69C64.62,-35.98 64.62,-26.24 64.62,-19.42"/>
<polygon fill="#63b8ff" stroke="#63b8ff" points="61.13,-44.4 64.63,-54.4 68.13,-44.4 61.13,-44.4"/>
</a>
</g>
</g>
<!-- Node2&#45;&gt;Node2 -->
<g id="edge3_Node000002_Node000002" class="edge">
<title>Node2&#45;&gt;Node2</title>
<g id="a_edge3_Node000002_Node000002"><a xlink:title=" ">
<path fill="none" stroke="#9a32cd" stroke-dasharray="5,2" d="M125.67,-69.67C129.76,-68.79 132.25,-67.53 132.25,-65.88 132.25,-63.02 124.81,-61.32 114.46,-60.79"/>
<polygon fill="#9a32cd" stroke="#9a32cd" points="125.5,-66.16 115.97,-70.79 126.3,-73.12 125.5,-66.16"/>
</a>
</g>
<text text-anchor="middle" x="151.38" y="-62" font-family="Helvetica,sans-Serif" font-size="10.00" fill="grey"> callback</text>
</g>
<!-- Node3 -->
<g id="Node000003" class="node">
<title>Node3</title>
<g id="a_Node000003"><a xlink:href="classq_o_s_1_1node.html" target="_top" xlink:title="A list&#45;node object (Used internally)">
<polygon fill="white" stroke="#666666" points="95.12,-131.75 34.12,-131.75 34.12,-112.5 95.12,-112.5 95.12,-131.75"/>
<text text-anchor="middle" x="64.62" y="-118.25" font-family="Helvetica,sans-Serif" font-size="10.00">qOS::node</text>
</a>
</g>
</g>
<!-- Node3&#45;&gt;Node2 -->
<g id="edge2_Node000002_Node000003" class="edge">
<title>Node3&#45;&gt;Node2</title>
<g id="a_edge2_Node000002_Node000003"><a xlink:title=" ">
<path fill="none" stroke="darkgreen" d="M64.62,-100.94C64.62,-92.23 64.62,-82.49 64.62,-75.67"/>
<polygon fill="darkgreen" stroke="darkgreen" points="61.13,-100.65 64.63,-110.65 68.13,-100.65 61.13,-100.65"/>
</a>
</g>
</g>
</g>
</svg>
