<?xml version="1.0" encoding="UTF-8" standalone="no"?>
<!DOCTYPE svg PUBLIC "-//W3C//DTD SVG 1.1//EN"
 "http://www.w3.org/Graphics/SVG/1.1/DTD/svg11.dtd">
<!-- Generated by graphviz version 12.1.2 (20240928.0832)
 -->
<!-- Title: qOS::input::analogChannel Pages: 1 -->
<svg width="137pt" height="138pt"
 viewBox="0.00 0.00 137.25 137.75" xmlns="http://www.w3.org/2000/svg" xmlns:xlink="http://www.w3.org/1999/xlink">
<g id="graph0" class="graph" transform="scale(1 1) rotate(0) translate(4 133.75)">
<title>qOS::input::analogChannel</title>
<!-- Node1 -->
<g id="Node000001" class="node">
<title>Node1</title>
<g id="a_Node000001"><a xlink:title="An analog input&#45;channel object.">
<polygon fill="#999999" stroke="#666666" points="129.25,-19.25 0,-19.25 0,0 129.25,0 129.25,-19.25"/>
<text text-anchor="middle" x="64.62" y="-5.75" font-family="Helvetica,sans-Serif" font-size="10.00">qOS::input::analogChannel</text>
</a>
</g>
</g>
<!-- Node2 -->
<g id="Node000002" class="node">
<title>Node2</title>
<g id="a_Node000002"><a xlink:href="classq_o_s_1_1input_1_1channel.html" target="_top" xlink:title=" ">
<polygon fill="white" stroke="#666666" points="114.25,-74.5 15,-74.5 15,-55.25 114.25,-55.25 114.25,-74.5"/>
<text text-anchor="middle" x="64.62" y="-61" font-family="Helvetica,sans-Serif" font-size="10.00">qOS::input::channel</text>
</a>
</g>
</g>
<!-- Node2&#45;&gt;Node1 -->
<g id="edge1_Node000001_Node000002" class="edge">
<title>Node2&#45;&gt;Node1</title>
<g id="a_edge1_Node000001_Node000002"><a xlink:title=" ">
<path fill="none" stroke="#63b8ff" d="M64.62,-43.63C64.62,-35.34 64.62,-26.17 64.62,-19.61"/>
<polygon fill="#63b8ff" stroke="#63b8ff" points="61.13,-43.57 64.63,-53.57 68.13,-43.57 61.13,-43.57"/>
</a>
</g>
</g>
<!-- Node3 -->
<g id="Node000003" class="node">
<title>Node3</title>
<g id="a_Node000003"><a xlink:href="classq_o_s_1_1node.html" target="_top" xlink:title="A list&#45;node object (Used internally)">
<polygon fill="white" stroke="#666666" points="95.12,-129.75 34.12,-129.75 34.12,-110.5 95.12,-110.5 95.12,-129.75"/>
<text text-anchor="middle" x="64.62" y="-116.25" font-family="Helvetica,sans-Serif" font-size="10.00">qOS::node</text>
</a>
</g>
</g>
<!-- Node3&#45;&gt;Node2 -->
<g id="edge2_Node000002_Node000003" class="edge">
<title>Node3&#45;&gt;Node2</title>
<g id="a_edge2_Node000002_Node000003"><a xlink:title=" ">
<path fill="none" stroke="darkgreen" d="M64.62,-98.88C64.62,-90.59 64.62,-81.42 64.62,-74.86"/>
<polygon fill="darkgreen" stroke="darkgreen" points="61.13,-98.82 64.63,-108.82 68.13,-98.82 61.13,-98.82"/>
</a>
</g>
</g>
</g>
</svg>
