<?xml version="1.0" encoding="UTF-8" standalone="no"?>
<!DOCTYPE svg PUBLIC "-//W3C//DTD SVG 1.1//EN"
 "http://www.w3.org/Graphics/SVG/1.1/DTD/svg11.dtd">
<!-- Generated by graphviz version 12.2.1 (20241206.2353)
 -->
<!-- Title: qOS::node Pages: 1 -->
<svg width="370pt" height="138pt"
 viewBox="0.00 0.00 369.88 137.75" xmlns="http://www.w3.org/2000/svg" xmlns:xlink="http://www.w3.org/1999/xlink">
<g id="graph0" class="graph" transform="scale(1 1) rotate(0) translate(4 133.75)">
<title>qOS::node</title>
<!-- Node1 -->
<g id="Node000001" class="node">
<title>Node1</title>
<g id="a_Node000001"><a xlink:title="A list&#45;node object (Used internally)">
<polygon fill="#999999" stroke="#666666" points="242,-129.75 181,-129.75 181,-110.5 242,-110.5 242,-129.75"/>
<text text-anchor="middle" x="211.5" y="-116.25" font-family="Helvetica,sans-Serif" font-size="10.00">qOS::node</text>
</a>
</g>
</g>
<!-- Node2 -->
<g id="Node000002" class="node">
<title>Node2</title>
<g id="a_Node000002"><a xlink:href="classq_o_s_1_1cli_1_1command.html" target="_top" xlink:title="An AT&#45;Command object.">
<polygon fill="white" stroke="#666666" points="97,-74.5 0,-74.5 0,-55.25 97,-55.25 97,-74.5"/>
<text text-anchor="middle" x="48.5" y="-61" font-family="Helvetica,sans-Serif" font-size="10.00">qOS::cli::command</text>
</a>
</g>
</g>
<!-- Node1&#45;&gt;Node2 -->
<g id="edge1_Node000001_Node000002" class="edge">
<title>Node1&#45;&gt;Node2</title>
<g id="a_edge1_Node000001_Node000002"><a xlink:title=" ">
<path fill="none" stroke="darkgreen" d="M173.04,-106.56C143.32,-96.85 102.91,-83.65 76.29,-74.95"/>
<polygon fill="darkgreen" stroke="darkgreen" points="171.82,-109.84 182.41,-109.62 173.99,-103.19 171.82,-109.84"/>
</a>
</g>
</g>
<!-- Node3 -->
<g id="Node000003" class="node">
<title>Node3</title>
<g id="a_Node000003"><a xlink:href="classq_o_s_1_1input_1_1channel.html" target="_top" xlink:title=" ">
<polygon fill="white" stroke="#666666" points="214.12,-74.5 114.88,-74.5 114.88,-55.25 214.12,-55.25 214.12,-74.5"/>
<text text-anchor="middle" x="164.5" y="-61" font-family="Helvetica,sans-Serif" font-size="10.00">qOS::input::channel</text>
</a>
</g>
</g>
<!-- Node1&#45;&gt;Node3 -->
<g id="edge2_Node000001_Node000003" class="edge">
<title>Node1&#45;&gt;Node3</title>
<g id="a_edge2_Node000001_Node000003"><a xlink:title=" ">
<path fill="none" stroke="darkgreen" d="M196.17,-101.76C188.25,-92.78 178.9,-82.2 172.43,-74.86"/>
<polygon fill="darkgreen" stroke="darkgreen" points="193.5,-104.02 202.74,-109.2 198.74,-99.38 193.5,-104.02"/>
</a>
</g>
</g>
<!-- Node6 -->
<g id="Node000006" class="node">
<title>Node6</title>
<g id="a_Node000006"><a xlink:href="classq_o_s_1_1list.html" target="_top" xlink:title="A list object (Generic double&#45;linked)">
<polygon fill="white" stroke="#666666" points="284.88,-74.5 232.12,-74.5 232.12,-55.25 284.88,-55.25 284.88,-74.5"/>
<text text-anchor="middle" x="258.5" y="-61" font-family="Helvetica,sans-Serif" font-size="10.00">qOS::list</text>
</a>
</g>
</g>
<!-- Node1&#45;&gt;Node6 -->
<g id="edge5_Node000001_Node000006" class="edge">
<title>Node1&#45;&gt;Node6</title>
<g id="a_edge5_Node000001_Node000006"><a xlink:title=" ">
<path fill="none" stroke="darkgreen" d="M226.83,-101.76C234.75,-92.78 244.1,-82.2 250.57,-74.86"/>
<polygon fill="darkgreen" stroke="darkgreen" points="224.26,-99.38 220.26,-109.2 229.5,-104.02 224.26,-99.38"/>
</a>
</g>
</g>
<!-- Node7 -->
<g id="Node000007" class="node">
<title>Node7</title>
<g id="a_Node000007"><a xlink:href="classq_o_s_1_1task.html" target="_top" xlink:title="A task node object.">
<polygon fill="white" stroke="#666666" points="361.88,-74.5 303.12,-74.5 303.12,-55.25 361.88,-55.25 361.88,-74.5"/>
<text text-anchor="middle" x="332.5" y="-61" font-family="Helvetica,sans-Serif" font-size="10.00">qOS::task</text>
</a>
</g>
</g>
<!-- Node1&#45;&gt;Node7 -->
<g id="edge6_Node000001_Node000007" class="edge">
<title>Node1&#45;&gt;Node7</title>
<g id="a_edge6_Node000001_Node000007"><a xlink:title=" ">
<path fill="none" stroke="darkgreen" d="M242.41,-105.52C264.21,-95.93 292.81,-83.34 311.87,-74.95"/>
<polygon fill="darkgreen" stroke="darkgreen" points="241.15,-102.25 233.41,-109.48 243.97,-108.66 241.15,-102.25"/>
</a>
</g>
</g>
<!-- Node4 -->
<g id="Node000004" class="node">
<title>Node4</title>
<g id="a_Node000004"><a xlink:href="classq_o_s_1_1input_1_1analog_channel.html" target="_top" xlink:title="An analog input&#45;channel object.">
<polygon fill="white" stroke="#666666" points="156.12,-19.25 26.88,-19.25 26.88,0 156.12,0 156.12,-19.25"/>
<text text-anchor="middle" x="91.5" y="-5.75" font-family="Helvetica,sans-Serif" font-size="10.00">qOS::input::analogChannel</text>
</a>
</g>
</g>
<!-- Node3&#45;&gt;Node4 -->
<g id="edge3_Node000003_Node000004" class="edge">
<title>Node3&#45;&gt;Node4</title>
<g id="a_edge3_Node000003_Node000004"><a xlink:title=" ">
<path fill="none" stroke="#63b8ff" d="M143.03,-48.22C130.22,-38.87 114.4,-27.33 103.7,-19.52"/>
<polygon fill="#63b8ff" stroke="#63b8ff" points="140.75,-50.88 150.89,-53.95 144.88,-45.23 140.75,-50.88"/>
</a>
</g>
</g>
<!-- Node5 -->
<g id="Node000005" class="node">
<title>Node5</title>
<g id="a_Node000005"><a xlink:href="classq_o_s_1_1input_1_1digital_channel.html" target="_top" xlink:title="A digital input&#45;channel object.">
<polygon fill="white" stroke="#666666" points="300.62,-19.25 174.38,-19.25 174.38,0 300.62,0 300.62,-19.25"/>
<text text-anchor="middle" x="237.5" y="-5.75" font-family="Helvetica,sans-Serif" font-size="10.00">qOS::input::digitalChannel</text>
</a>
</g>
</g>
<!-- Node3&#45;&gt;Node5 -->
<g id="edge4_Node000003_Node000005" class="edge">
<title>Node3&#45;&gt;Node5</title>
<g id="a_edge4_Node000003_Node000005"><a xlink:title=" ">
<path fill="none" stroke="#63b8ff" d="M185.97,-48.22C198.78,-38.87 214.6,-27.33 225.3,-19.52"/>
<polygon fill="#63b8ff" stroke="#63b8ff" points="184.12,-45.23 178.11,-53.95 188.25,-50.88 184.12,-45.23"/>
</a>
</g>
</g>
</g>
</svg>
