<?xml version="1.0" encoding="UTF-8" standalone="no"?>
<!DOCTYPE svg PUBLIC "-//W3C//DTD SVG 1.1//EN"
 "http://www.w3.org/Graphics/SVG/1.1/DTD/svg11.dtd">
<!-- Generated by graphviz version 9.0.0 (20230911.1827)
 -->
<!-- Title: qOS::node Pages: 1 -->
<svg width="356pt" height="83pt"
 viewBox="0.00 0.00 355.88 82.50" xmlns="http://www.w3.org/2000/svg" xmlns:xlink="http://www.w3.org/1999/xlink">
<g id="graph0" class="graph" transform="scale(1 1) rotate(0) translate(4 78.5)">
<title>qOS::node</title>
<!-- Node1 -->
<g id="Node000001" class="node">
<title>Node1</title>
<g id="a_Node000001"><a xlink:title="A list&#45;node object (Used internally)">
<polygon fill="#999999" stroke="#666666" points="231,-74.5 170,-74.5 170,-55.25 231,-55.25 231,-74.5"/>
<text text-anchor="middle" x="200.5" y="-61" font-family="Helvetica,sans-Serif" font-size="10.00">qOS::node</text>
</a>
</g>
</g>
<!-- Node2 -->
<g id="Node000002" class="node">
<title>Node2</title>
<g id="a_Node000002"><a xlink:href="classq_o_s_1_1cli_1_1command.html" target="_top" xlink:title="An AT&#45;Command object.">
<polygon fill="white" stroke="#666666" points="97,-19.25 0,-19.25 0,0 97,0 97,-19.25"/>
<text text-anchor="middle" x="48.5" y="-5.75" font-family="Helvetica,sans-Serif" font-size="10.00">qOS::cli::command</text>
</a>
</g>
</g>
<!-- Node1&#45;&gt;Node2 -->
<g id="edge1_Node000001_Node000002" class="edge">
<title>Node1&#45;&gt;Node2</title>
<g id="a_edge1_Node000001_Node000002"><a xlink:title=" ">
<path fill="none" stroke="darkgreen" d="M163.9,-51.05C136.26,-41.37 99.02,-28.32 74.41,-19.7"/>
<polygon fill="darkgreen" stroke="darkgreen" points="162.69,-54.34 173.29,-54.34 165.01,-47.73 162.69,-54.34"/>
</a>
</g>
</g>
<!-- Node3 -->
<g id="Node000003" class="node">
<title>Node3</title>
<g id="a_Node000003"><a xlink:href="classq_o_s_1_1ec_1_1in_node.html" target="_top" xlink:title="An input node object for edge checking.">
<polygon fill="white" stroke="#666666" points="200.38,-19.25 114.62,-19.25 114.62,0 200.38,0 200.38,-19.25"/>
<text text-anchor="middle" x="157.5" y="-5.75" font-family="Helvetica,sans-Serif" font-size="10.00">qOS::ec::inNode</text>
</a>
</g>
</g>
<!-- Node1&#45;&gt;Node3 -->
<g id="edge2_Node000001_Node000003" class="edge">
<title>Node1&#45;&gt;Node3</title>
<g id="a_edge2_Node000001_Node000003"><a xlink:title=" ">
<path fill="none" stroke="darkgreen" d="M186.25,-46.22C179.05,-37.31 170.62,-26.87 164.75,-19.61"/>
<polygon fill="darkgreen" stroke="darkgreen" points="183.44,-48.32 192.45,-53.9 188.89,-43.93 183.44,-48.32"/>
</a>
</g>
</g>
<!-- Node4 -->
<g id="Node000004" class="node">
<title>Node4</title>
<g id="a_Node000004"><a xlink:href="classq_o_s_1_1list.html" target="_top" xlink:title="A list object (Generic double&#45;linked)">
<polygon fill="white" stroke="#666666" points="270.88,-19.25 218.12,-19.25 218.12,0 270.88,0 270.88,-19.25"/>
<text text-anchor="middle" x="244.5" y="-5.75" font-family="Helvetica,sans-Serif" font-size="10.00">qOS::list</text>
</a>
</g>
</g>
<!-- Node1&#45;&gt;Node4 -->
<g id="edge3_Node000001_Node000004" class="edge">
<title>Node1&#45;&gt;Node4</title>
<g id="a_edge3_Node000001_Node000004"><a xlink:title=" ">
<path fill="none" stroke="darkgreen" d="M215.08,-46.22C222.45,-37.31 231.08,-26.87 237.08,-19.61"/>
<polygon fill="darkgreen" stroke="darkgreen" points="212.4,-43.98 208.73,-53.92 217.8,-48.44 212.4,-43.98"/>
</a>
</g>
</g>
<!-- Node5 -->
<g id="Node000005" class="node">
<title>Node5</title>
<g id="a_Node000005"><a xlink:href="classq_o_s_1_1task.html" target="_top" xlink:title="A task node object.">
<polygon fill="white" stroke="#666666" points="347.88,-19.25 289.12,-19.25 289.12,0 347.88,0 347.88,-19.25"/>
<text text-anchor="middle" x="318.5" y="-5.75" font-family="Helvetica,sans-Serif" font-size="10.00">qOS::task</text>
</a>
</g>
</g>
<!-- Node1&#45;&gt;Node5 -->
<g id="edge4_Node000001_Node000005" class="edge">
<title>Node1&#45;&gt;Node5</title>
<g id="a_edge4_Node000001_Node000005"><a xlink:title=" ">
<path fill="none" stroke="darkgreen" d="M230.94,-50.14C252.16,-40.56 279.87,-28.06 298.38,-19.7"/>
<polygon fill="darkgreen" stroke="darkgreen" points="229.57,-46.92 221.9,-54.22 232.45,-53.3 229.57,-46.92"/>
</a>
</g>
</g>
</g>
</svg>
