<?xml version="1.0" encoding="UTF-8" standalone="no"?>
<!DOCTYPE svg PUBLIC "-//W3C//DTD SVG 1.1//EN"
 "http://www.w3.org/Graphics/SVG/1.1/DTD/svg11.dtd">
<!-- Generated by graphviz version 12.2.1 (20241206.2353)
 -->
<!-- Title: qOS::commandLineInterface Pages: 1 -->
<svg width="154pt" height="83pt"
 viewBox="0.00 0.00 153.62 82.50" xmlns="http://www.w3.org/2000/svg" xmlns:xlink="http://www.w3.org/1999/xlink">
<g id="graph0" class="graph" transform="scale(1 1) rotate(0) translate(4 78.5)">
<title>qOS::commandLineInterface</title>
<!-- Node1 -->
<g id="Node000001" class="node">
<title>Node1</title>
<g id="a_Node000001"><a xlink:title="An AT Command Line Interface (CLI) object.">
<polygon fill="#999999" stroke="#666666" points="139.75,-19.25 0,-19.25 0,0 139.75,0 139.75,-19.25"/>
<text text-anchor="middle" x="69.88" y="-5.75" font-family="Helvetica,sans-Serif" font-size="10.00">qOS::commandLineInterface</text>
</a>
</g>
</g>
<!-- Node2 -->
<g id="Node000002" class="node">
<title>Node2</title>
<g id="a_Node000002"><a xlink:title=" ">
<polygon fill="white" stroke="#666666" points="56.5,-74.5 5.25,-74.5 5.25,-55.25 56.5,-55.25 56.5,-74.5"/>
<text text-anchor="middle" x="30.88" y="-61" font-family="Helvetica,sans-Serif" font-size="10.00">cli::input</text>
</a>
</g>
</g>
<!-- Node2&#45;&gt;Node1 -->
<g id="edge1_Node000001_Node000002" class="edge">
<title>Node2&#45;&gt;Node1</title>
<g id="a_edge1_Node000001_Node000002"><a xlink:title=" ">
<path fill="none" stroke="darkgreen" d="M44.01,-45.94C50.5,-37.09 58.04,-26.79 63.3,-19.61"/>
<polygon fill="darkgreen" stroke="darkgreen" points="41.29,-43.73 38.21,-53.86 46.94,-47.86 41.29,-43.73"/>
</a>
</g>
</g>
<!-- Node3 -->
<g id="Node000003" class="node">
<title>Node3</title>
<g id="a_Node000003"><a xlink:title=" ">
<polygon fill="white" stroke="#666666" points="145.62,-74.5 74.12,-74.5 74.12,-55.25 145.62,-55.25 145.62,-74.5"/>
<text text-anchor="middle" x="109.88" y="-61" font-family="Helvetica,sans-Serif" font-size="10.00">nonCopyable</text>
</a>
</g>
</g>
<!-- Node3&#45;&gt;Node1 -->
<g id="edge2_Node000001_Node000003" class="edge">
<title>Node3&#45;&gt;Node1</title>
<g id="a_edge2_Node000001_Node000003"><a xlink:title=" ">
<path fill="none" stroke="#8b1a1a" d="M96.4,-45.94C89.75,-37.09 82.02,-26.79 76.62,-19.61"/>
<polygon fill="#8b1a1a" stroke="#8b1a1a" points="93.56,-47.98 102.36,-53.87 99.15,-43.77 93.56,-47.98"/>
</a>
</g>
</g>
</g>
</svg>
