<?xml version="1.0" encoding="UTF-8" standalone="no"?>
<!DOCTYPE svg PUBLIC "-//W3C//DTD SVG 1.1//EN"
 "http://www.w3.org/Graphics/SVG/1.1/DTD/svg11.dtd">
<!-- Generated by graphviz version 2.49.3 (20211027.1534)
 -->
<!-- Title: qOS::sm::_Handler Pages: 1 -->
<svg width="107pt" height="184pt"
 viewBox="0.00 0.00 107.00 184.00" xmlns="http://www.w3.org/2000/svg" xmlns:xlink="http://www.w3.org/1999/xlink">
<g id="graph0" class="graph" transform="scale(1 1) rotate(0) translate(4 180)">
<title>qOS::sm::_Handler</title>
<polygon fill="white" stroke="transparent" points="-4,4 -4,-180 103,-180 103,4 -4,4"/>
<!-- Node1 -->
<g id="node1" class="node">
<title>Node1</title>
<g id="a_node1"><a xlink:title=" ">
<polygon fill="#bfbfbf" stroke="black" points="0.5,-67.5 0.5,-86.5 98.5,-86.5 98.5,-67.5 0.5,-67.5"/>
<text text-anchor="middle" x="49.5" y="-74.5" font-family="Helvetica,sans-Serif" font-size="10.00">qOS::sm::_Handler</text>
</a>
</g>
</g>
<!-- Node3 -->
<g id="node3" class="node">
<title>Node3</title>
<g id="a_node3"><a xlink:href="classq_o_s_1_1state_machine.html" target="_top" xlink:title="A FSM(Finite State Machine) object.">
<polygon fill="white" stroke="black" points="0,-0.5 0,-19.5 99,-19.5 99,-0.5 0,-0.5"/>
<text text-anchor="middle" x="49.5" y="-7.5" font-family="Helvetica,sans-Serif" font-size="10.00">qOS::stateMachine</text>
</a>
</g>
</g>
<!-- Node1&#45;&gt;Node3 -->
<g id="edge3" class="edge">
<title>Node1&#45;&gt;Node3</title>
<path fill="none" stroke="darkgreen" d="M47.94,-57.38C47.76,-54.58 47.6,-51.71 47.5,-49 47.13,-38.97 47.9,-27.45 48.59,-19.75"/>
<polygon fill="darkgreen" stroke="darkgreen" points="44.46,-57.79 48.71,-67.5 51.44,-57.26 44.46,-57.79"/>
</g>
<!-- Node2 -->
<g id="node2" class="node">
<title>Node2</title>
<g id="a_node2"><a xlink:href="classq_o_s_1_1sm_1_1state.html" target="_top" xlink:title="A state object.">
<polygon fill="white" stroke="black" points="9.5,-156.5 9.5,-175.5 89.5,-175.5 89.5,-156.5 9.5,-156.5"/>
<text text-anchor="middle" x="49.5" y="-163.5" font-family="Helvetica,sans-Serif" font-size="10.00">qOS::sm::state</text>
</a>
</g>
</g>
<!-- Node2&#45;&gt;Node1 -->
<g id="edge1" class="edge">
<title>Node2&#45;&gt;Node1</title>
<path fill="none" stroke="#9a32cd" stroke-dasharray="5,2" d="M49.5,-146.19C49.5,-127.74 49.5,-100.41 49.5,-86.62"/>
<polygon fill="#9a32cd" stroke="#9a32cd" points="46,-146.34 49.5,-156.34 53,-146.34 46,-146.34"/>
<text text-anchor="middle" x="72.5" y="-130" font-family="Helvetica,sans-Serif" font-size="10.00"> NextState</text>
<text text-anchor="middle" x="72.5" y="-119" font-family="Helvetica,sans-Serif" font-size="10.00">StartState</text>
<text text-anchor="middle" x="72.5" y="-108" font-family="Helvetica,sans-Serif" font-size="10.00">State</text>
</g>
<!-- Node3&#45;&gt;Node1 -->
<g id="edge2" class="edge">
<title>Node3&#45;&gt;Node1</title>
<path fill="none" stroke="#9a32cd" stroke-dasharray="5,2" d="M49.5,-29.78C49.5,-42.12 49.5,-57.68 49.5,-67.23"/>
<polygon fill="#9a32cd" stroke="#9a32cd" points="53,-29.63 49.5,-19.63 46,-29.63 53,-29.63"/>
<text text-anchor="middle" x="69.5" y="-41" font-family="Helvetica,sans-Serif" font-size="10.00"> Machine</text>
</g>
</g>
</svg>
