<?xml version="1.0" encoding="UTF-8" standalone="no"?>
<!DOCTYPE svg PUBLIC "-//W3C//DTD SVG 1.1//EN"
 "http://www.w3.org/Graphics/SVG/1.1/DTD/svg11.dtd">
<!-- Generated by graphviz version 9.0.0 (20230911.1827)
 -->
<!-- Title: qOS::node Pages: 1 -->
<svg width="488pt" height="83pt"
 viewBox="0.00 0.00 487.88 82.50" xmlns="http://www.w3.org/2000/svg" xmlns:xlink="http://www.w3.org/1999/xlink">
<g id="graph0" class="graph" transform="scale(1 1) rotate(0) translate(4 78.5)">
<title>qOS::node</title>
<!-- Node1 -->
<g id="Node000001" class="node">
<title>Node1</title>
<g id="a_Node000001"><a xlink:title="A list&#45;node object (Used internally)">
<polygon fill="#999999" stroke="#666666" points="313,-74.5 252,-74.5 252,-55.25 313,-55.25 313,-74.5"/>
<text text-anchor="middle" x="282.5" y="-61" font-family="Helvetica,sans-Serif" font-size="10.00">qOS::node</text>
</a>
</g>
</g>
<!-- Node2 -->
<g id="Node000002" class="node">
<title>Node2</title>
<g id="a_Node000002"><a xlink:href="classq_o_s_1_1cli_1_1command.html" target="_top" xlink:title="An AT&#45;Command object.">
<polygon fill="white" stroke="#666666" points="97,-19.25 0,-19.25 0,0 97,0 97,-19.25"/>
<text text-anchor="middle" x="48.5" y="-5.75" font-family="Helvetica,sans-Serif" font-size="10.00">qOS::cli::command</text>
</a>
</g>
</g>
<!-- Node1&#45;&gt;Node2 -->
<g id="edge1_Node000001_Node000002" class="edge">
<title>Node1&#45;&gt;Node2</title>
<g id="a_edge1_Node000001_Node000002"><a xlink:title=" ">
<path fill="none" stroke="darkgreen" d="M240.69,-54.36C197.6,-44.56 130.91,-29.38 88.5,-19.73"/>
<polygon fill="darkgreen" stroke="darkgreen" points="239.91,-57.77 250.43,-56.58 241.46,-50.95 239.91,-57.77"/>
</a>
</g>
</g>
<!-- Node3 -->
<g id="Node000003" class="node">
<title>Node3</title>
<g id="a_Node000003"><a xlink:href="classq_o_s_1_1input_1_1channel.html" target="_top" xlink:title="An digital input&#45;channel object.">
<polygon fill="white" stroke="#666666" points="214.12,-19.25 114.88,-19.25 114.88,0 214.12,0 214.12,-19.25"/>
<text text-anchor="middle" x="164.5" y="-5.75" font-family="Helvetica,sans-Serif" font-size="10.00">qOS::input::channel</text>
</a>
</g>
</g>
<!-- Node1&#45;&gt;Node3 -->
<g id="edge2_Node000001_Node000003" class="edge">
<title>Node1&#45;&gt;Node3</title>
<g id="a_edge2_Node000001_Node000003"><a xlink:title=" ">
<path fill="none" stroke="darkgreen" d="M252.06,-50.14C230.84,-40.56 203.13,-28.06 184.62,-19.7"/>
<polygon fill="darkgreen" stroke="darkgreen" points="250.55,-53.3 261.1,-54.22 253.43,-46.92 250.55,-53.3"/>
</a>
</g>
</g>
<!-- Node4 -->
<g id="Node000004" class="node">
<title>Node4</title>
<g id="a_Node000004"><a xlink:href="classq_o_s_1_1input_1_1watcher.html" target="_top" xlink:title="The digital input&#45;channel watcher class.">
<polygon fill="white" stroke="#666666" points="332.5,-19.25 232.5,-19.25 232.5,0 332.5,0 332.5,-19.25"/>
<text text-anchor="middle" x="282.5" y="-5.75" font-family="Helvetica,sans-Serif" font-size="10.00">qOS::input::watcher</text>
</a>
</g>
</g>
<!-- Node1&#45;&gt;Node4 -->
<g id="edge3_Node000001_Node000004" class="edge">
<title>Node1&#45;&gt;Node4</title>
<g id="a_edge3_Node000001_Node000004"><a xlink:title=" ">
<path fill="none" stroke="darkgreen" d="M282.5,-43.63C282.5,-35.34 282.5,-26.17 282.5,-19.61"/>
<polygon fill="darkgreen" stroke="darkgreen" points="279,-43.57 282.5,-53.57 286,-43.57 279,-43.57"/>
</a>
</g>
</g>
<!-- Node5 -->
<g id="Node000005" class="node">
<title>Node5</title>
<g id="a_Node000005"><a xlink:href="classq_o_s_1_1list.html" target="_top" xlink:title="A list object (Generic double&#45;linked)">
<polygon fill="white" stroke="#666666" points="402.88,-19.25 350.12,-19.25 350.12,0 402.88,0 402.88,-19.25"/>
<text text-anchor="middle" x="376.5" y="-5.75" font-family="Helvetica,sans-Serif" font-size="10.00">qOS::list</text>
</a>
</g>
</g>
<!-- Node1&#45;&gt;Node5 -->
<g id="edge4_Node000001_Node000005" class="edge">
<title>Node1&#45;&gt;Node5</title>
<g id="a_edge4_Node000001_Node000005"><a xlink:title=" ">
<path fill="none" stroke="darkgreen" d="M308.15,-49.34C324.86,-39.88 346.14,-27.83 360.48,-19.7"/>
<polygon fill="darkgreen" stroke="darkgreen" points="306.74,-46.12 299.76,-54.1 310.19,-52.21 306.74,-46.12"/>
</a>
</g>
</g>
<!-- Node6 -->
<g id="Node000006" class="node">
<title>Node6</title>
<g id="a_Node000006"><a xlink:href="classq_o_s_1_1task.html" target="_top" xlink:title="A task node object.">
<polygon fill="white" stroke="#666666" points="479.88,-19.25 421.12,-19.25 421.12,0 479.88,0 479.88,-19.25"/>
<text text-anchor="middle" x="450.5" y="-5.75" font-family="Helvetica,sans-Serif" font-size="10.00">qOS::task</text>
</a>
</g>
</g>
<!-- Node1&#45;&gt;Node6 -->
<g id="edge5_Node000001_Node000006" class="edge">
<title>Node1&#45;&gt;Node6</title>
<g id="a_edge5_Node000001_Node000006"><a xlink:title=" ">
<path fill="none" stroke="darkgreen" d="M321.74,-51.44C352.4,-41.72 394.3,-28.44 421.86,-19.7"/>
<polygon fill="darkgreen" stroke="darkgreen" points="320.92,-48.03 312.44,-54.38 323.03,-54.7 320.92,-48.03"/>
</a>
</g>
</g>
</g>
</svg>
