<?xml version="1.0" encoding="UTF-8" standalone="no"?>
<!DOCTYPE svg PUBLIC "-//W3C//DTD SVG 1.1//EN"
 "http://www.w3.org/Graphics/SVG/1.1/DTD/svg11.dtd">
<!-- Generated by graphviz version 2.49.3 (20211027.1534)
 -->
<!-- Title: I/O Utils Pages: 1 -->
<svg width="341pt" height="446pt"
 viewBox="0.00 0.00 341.00 446.00" xmlns="http://www.w3.org/2000/svg" xmlns:xlink="http://www.w3.org/1999/xlink">
<g id="graph0" class="graph" transform="scale(1 1) rotate(0) translate(4 442)">
<title>I/O Utils</title>
<polygon fill="white" stroke="transparent" points="-4,4 -4,-442 337,-442 337,4 -4,4"/>
<!-- Node4 -->
<g id="node1" class="node">
<title>Node4</title>
<g id="a_node1"><a xlink:href="group__qatcli.html" target="_top" xlink:title="API for the AT Command Line Interface extension.">
<polygon fill="white" stroke="black" points="333,-438 196,-438 196,-419 333,-419 333,-438"/>
<text text-anchor="middle" x="264.5" y="-426" font-family="Helvetica,sans-Serif" font-size="10.00">AT Command Line Interface</text>
</a>
</g>
</g>
<!-- Node3 -->
<g id="node2" class="node">
<title>Node3</title>
<g id="a_node2"><a xlink:href="group__qbsbuffers.html" target="_top" xlink:title="An interrupt&#45;safe byte&#45;sized ring buffer interface.">
<polygon fill="white" stroke="black" points="312,-401 217,-401 217,-382 312,-382 312,-401"/>
<text text-anchor="middle" x="264.5" y="-389" font-family="Helvetica,sans-Serif" font-size="10.00">Byte&#45;Sized buffers</text>
</a>
</g>
</g>
<!-- Node5 -->
<g id="node3" class="node">
<title>Node5</title>
<g id="a_node3"><a xlink:href="group__qclock.html" target="_top" xlink:title="Clock and time manipulation interface used by the entire OS.">
<polygon fill="white" stroke="black" points="285,-364 244,-364 244,-345 285,-345 285,-364"/>
<text text-anchor="middle" x="264.5" y="-352" font-family="Helvetica,sans-Serif" font-size="10.00">Clock</text>
</a>
</g>
</g>
<!-- Node6 -->
<g id="node4" class="node">
<title>Node6</title>
<g id="a_node4"><a xlink:href="group__qcoroutines.html" target="_top" xlink:title="API interface for the Co&#45;Routines extension.">
<polygon fill="white" stroke="black" points="299.5,-327 229.5,-327 229.5,-308 299.5,-308 299.5,-327"/>
<text text-anchor="middle" x="264.5" y="-315" font-family="Helvetica,sans-Serif" font-size="10.00">Co&#45;Routines</text>
</a>
</g>
</g>
<!-- Node7 -->
<g id="node5" class="node">
<title>Node7</title>
<g id="a_node5"><a xlink:href="group__qcritical.html" target="_top" xlink:title="APIs to handle entry/exit actions in Critical sections.">
<polygon fill="white" stroke="black" points="288,-290 241,-290 241,-271 288,-271 288,-290"/>
<text text-anchor="middle" x="264.5" y="-278" font-family="Helvetica,sans-Serif" font-size="10.00">Critical</text>
</a>
</g>
</g>
<!-- Node8 -->
<g id="node6" class="node">
<title>Node8</title>
<g id="a_node6"><a xlink:href="group__qedgecheck.html" target="_top" xlink:title="An interface to manage and simplify the value(with edge&#45;checking) of incoming digital&#45;signal groups.">
<polygon fill="white" stroke="black" points="315,-252.5 214,-252.5 214,-222.5 315,-222.5 315,-252.5"/>
<text text-anchor="start" x="222" y="-240.5" font-family="Helvetica,sans-Serif" font-size="10.00">I/O Groups for edge</text>
<text text-anchor="middle" x="264.5" y="-229.5" font-family="Helvetica,sans-Serif" font-size="10.00"> checking</text>
</a>
</g>
</g>
<!-- Node9 -->
<g id="node7" class="node">
<title>Node9</title>
<g id="a_node7"><a xlink:href="group__qfsm.html" target="_top" xlink:title="API interface of the Finite State Machines (FSM) extension.">
<polygon fill="white" stroke="black" points="319.5,-204 209.5,-204 209.5,-185 319.5,-185 319.5,-204"/>
<text text-anchor="middle" x="264.5" y="-192" font-family="Helvetica,sans-Serif" font-size="10.00">Finite State Machines</text>
</a>
</g>
</g>
<!-- Node1 -->
<g id="node8" class="node">
<title>Node1</title>
<g id="a_node8"><a xlink:title="API for input/output utilities and safe string interfaces.">
<polygon fill="#bfbfbf" stroke="black" points="140,-225 87,-225 87,-206 140,-206 140,-225"/>
<text text-anchor="middle" x="113.5" y="-213" font-family="Helvetica,sans-Serif" font-size="10.00">I/O Utils</text>
</a>
</g>
</g>
<!-- Node1&#45;&gt;Node4 -->
<g id="edge3" class="edge">
<title>Node1&#45;&gt;Node4</title>
<path fill="none" stroke="blueviolet" stroke-dasharray="5,2" d="M115.21,-225.33C117.52,-251.7 126.55,-325.48 158,-376.5 169.89,-395.79 176.06,-399.73 196,-410.5 202.3,-413.9 209.28,-416.69 216.29,-418.97"/>
<text text-anchor="middle" x="168" y="-401.5" font-family="Helvetica,sans-Serif" font-size="10.00">qOS</text>
</g>
<!-- Node1&#45;&gt;Node3 -->
<g id="edge2" class="edge">
<title>Node1&#45;&gt;Node3</title>
<path fill="none" stroke="blueviolet" stroke-dasharray="5,2" d="M116.31,-225.05C120.71,-246.55 133.45,-299.82 158,-337.5 170.7,-356.99 175.69,-362.15 196,-373.5 202.46,-377.11 209.67,-380.02 216.91,-382.36"/>
<text text-anchor="middle" x="168" y="-364.5" font-family="Helvetica,sans-Serif" font-size="10.00">qOS</text>
</g>
<!-- Node1&#45;&gt;Node5 -->
<g id="edge4" class="edge">
<title>Node1&#45;&gt;Node5</title>
<path fill="none" stroke="blueviolet" stroke-dasharray="5,2" d="M117.48,-225.06C125.54,-249.08 150.32,-311.82 196,-336.5 211.05,-344.63 229.99,-349.26 243.98,-351.79"/>
<text text-anchor="middle" x="168" y="-325.5" font-family="Helvetica,sans-Serif" font-size="10.00">qOS</text>
</g>
<!-- Node1&#45;&gt;Node6 -->
<g id="edge5" class="edge">
<title>Node1&#45;&gt;Node6</title>
<path fill="none" stroke="blueviolet" stroke-dasharray="5,2" d="M120.75,-225.25C132.86,-243.24 161.4,-281.48 196,-299.5 206.33,-304.88 218.4,-308.76 229.46,-311.5"/>
<text text-anchor="middle" x="168" y="-290.5" font-family="Helvetica,sans-Serif" font-size="10.00">qOS</text>
</g>
<!-- Node1&#45;&gt;Node7 -->
<g id="edge6" class="edge">
<title>Node1&#45;&gt;Node7</title>
<path fill="none" stroke="blueviolet" stroke-dasharray="5,2" d="M130.99,-225.06C139.1,-229.75 149.05,-235.45 158,-240.5 174.81,-249.97 178.15,-254.17 196,-261.5 210.53,-267.47 227.55,-272.24 240.87,-275.52"/>
<text text-anchor="middle" x="168" y="-255.5" font-family="Helvetica,sans-Serif" font-size="10.00">qOS</text>
</g>
<!-- Node1&#45;&gt;Node8 -->
<g id="edge7" class="edge">
<title>Node1&#45;&gt;Node8</title>
<path fill="none" stroke="blueviolet" stroke-dasharray="5,2" d="M140.11,-219.28C160.33,-222.27 189.15,-226.52 213.86,-230.17"/>
<text text-anchor="middle" x="168" y="-228.5" font-family="Helvetica,sans-Serif" font-size="10.00">qOS</text>
</g>
<!-- Node1&#45;&gt;Node9 -->
<g id="edge8" class="edge">
<title>Node1&#45;&gt;Node9</title>
<path fill="none" stroke="blueviolet" stroke-dasharray="5,2" d="M140.12,-208.33C145.96,-206.89 152.17,-205.51 158,-204.5 174.59,-201.63 192.8,-199.54 209.35,-198.03"/>
<text text-anchor="middle" x="168" y="-207.5" font-family="Helvetica,sans-Serif" font-size="10.00">qOS</text>
</g>
<!-- Node11 -->
<g id="node9" class="node">
<title>Node11</title>
<g id="a_node9"><a xlink:href="group__qqueues.html" target="_top" xlink:title="API interface to create and handle Queues.">
<polygon fill="white" stroke="black" points="289.5,-167 239.5,-167 239.5,-148 289.5,-148 289.5,-167"/>
<text text-anchor="middle" x="264.5" y="-155" font-family="Helvetica,sans-Serif" font-size="10.00">Queues</text>
</a>
</g>
</g>
<!-- Node1&#45;&gt;Node11 -->
<g id="edge10" class="edge">
<title>Node1&#45;&gt;Node11</title>
<path fill="none" stroke="blueviolet" stroke-dasharray="5,2" d="M127.3,-205.97C135.7,-200.05 147.11,-192.61 158,-187.5 184.55,-175.04 217.33,-166.71 239.24,-162.06"/>
<text text-anchor="middle" x="168" y="-190.5" font-family="Helvetica,sans-Serif" font-size="10.00">qOS</text>
</g>
<!-- Node12 -->
<g id="node10" class="node">
<title>Node12</title>
<g id="a_node10"><a xlink:href="group__qresponse.html" target="_top" xlink:title="API to simplify the handling of requested responses from terminal interfaces.">
<polygon fill="white" stroke="black" points="311.5,-130 217.5,-130 217.5,-111 311.5,-111 311.5,-130"/>
<text text-anchor="middle" x="264.5" y="-118" font-family="Helvetica,sans-Serif" font-size="10.00">Response handler</text>
</a>
</g>
</g>
<!-- Node1&#45;&gt;Node12 -->
<g id="edge11" class="edge">
<title>Node1&#45;&gt;Node12</title>
<path fill="none" stroke="blueviolet" stroke-dasharray="5,2" d="M121.52,-205.81C129.61,-195.03 143.63,-177.42 158,-164.5 173.22,-150.82 177.4,-147.04 196,-138.5 203.27,-135.16 211.29,-132.35 219.17,-130.01"/>
<text text-anchor="middle" x="168" y="-167.5" font-family="Helvetica,sans-Serif" font-size="10.00">qOS</text>
</g>
<!-- Node14 -->
<g id="node11" class="node">
<title>Node14</title>
<g id="a_node11"><a xlink:href="group__qstimers.html" target="_top" xlink:title="API interface for the STimers extension.">
<polygon fill="white" stroke="black" points="309,-93 220,-93 220,-74 309,-74 309,-93"/>
<text text-anchor="middle" x="264.5" y="-81" font-family="Helvetica,sans-Serif" font-size="10.00">Software&#45;Timers</text>
</a>
</g>
</g>
<!-- Node1&#45;&gt;Node14 -->
<g id="edge13" class="edge">
<title>Node1&#45;&gt;Node14</title>
<path fill="none" stroke="blueviolet" stroke-dasharray="5,2" d="M118.15,-205.95C124.58,-189.89 139.07,-156.95 158,-133.5 171.87,-116.32 176.42,-111.7 196,-101.5 203.42,-97.63 211.75,-94.54 219.95,-92.09"/>
<text text-anchor="middle" x="168" y="-136.5" font-family="Helvetica,sans-Serif" font-size="10.00">qOS</text>
</g>
<!-- Node10 -->
<g id="node12" class="node">
<title>Node10</title>
<g id="a_node12"><a xlink:href="group__qtaskcreation.html" target="_top" xlink:title="Kernel API interface to create/remove tasks and perform special OS operations.">
<polygon fill="white" stroke="black" points="315,-56 214,-56 214,-37 315,-37 315,-56"/>
<text text-anchor="middle" x="264.5" y="-44" font-family="Helvetica,sans-Serif" font-size="10.00">Scheduler Interface</text>
</a>
</g>
</g>
<!-- Node1&#45;&gt;Node10 -->
<g id="edge9" class="edge">
<title>Node1&#45;&gt;Node10</title>
<path fill="none" stroke="blueviolet" stroke-dasharray="5,2" d="M116.4,-205.98C120.9,-185.07 133.71,-134.13 158,-98.5 170.77,-79.78 176.06,-75.27 196,-64.5 202.3,-61.1 209.28,-58.31 216.29,-56.03"/>
<text text-anchor="middle" x="168" y="-101.5" font-family="Helvetica,sans-Serif" font-size="10.00">qOS</text>
</g>
<!-- Node13 -->
<g id="node13" class="node">
<title>Node13</title>
<g id="a_node13"><a xlink:href="group__qtaskmanip.html" target="_top" xlink:title="API interface to manage tasks.">
<polygon fill="white" stroke="black" points="307,-19 222,-19 222,0 307,0 307,-19"/>
<text text-anchor="middle" x="264.5" y="-7" font-family="Helvetica,sans-Serif" font-size="10.00">Managing tasks</text>
</a>
</g>
</g>
<!-- Node1&#45;&gt;Node13 -->
<g id="edge12" class="edge">
<title>Node1&#45;&gt;Node13</title>
<path fill="none" stroke="blueviolet" stroke-dasharray="5,2" d="M115.36,-205.73C117.99,-180.18 127.69,-110.05 158,-61.5 170,-42.28 176.06,-38.27 196,-27.5 204,-23.18 213.11,-19.84 221.99,-17.29"/>
<text text-anchor="middle" x="168" y="-64.5" font-family="Helvetica,sans-Serif" font-size="10.00">qOS</text>
</g>
<!-- Node2 -->
<g id="node14" class="node">
<title>Node2</title>
<g id="a_node14"><a xlink:href="group__qutility.html" target="_top" xlink:title=" ">
<polygon fill="white" stroke="black" points="50,-225 0,-225 0,-206 50,-206 50,-225"/>
<text text-anchor="middle" x="25" y="-213" font-family="Helvetica,sans-Serif" font-size="10.00">Utilities</text>
</a>
</g>
</g>
<!-- Node2&#45;&gt;Node1 -->
<g id="edge1" class="edge">
<title>Node2&#45;&gt;Node1</title>
<path fill="none" stroke="black" d="M60.15,-215.5C69,-215.5 78.38,-215.5 86.72,-215.5"/>
<polygon fill="black" stroke="black" points="60.1,-212 50.1,-215.5 60.1,-219 60.1,-212"/>
</g>
</g>
</svg>
