<?xml version="1.0" encoding="UTF-8" standalone="no"?>
<!DOCTYPE svg PUBLIC "-//W3C//DTD SVG 1.1//EN"
 "http://www.w3.org/Graphics/SVG/1.1/DTD/svg11.dtd">
<!-- Generated by graphviz version 11.0.0 (20240428.1522)
 -->
<!-- Title: Scheduler Interface Pages: 1 -->
<svg width="343pt" height="64pt"
 viewBox="0.00 0.00 343.25 64.25" xmlns="http://www.w3.org/2000/svg" xmlns:xlink="http://www.w3.org/1999/xlink">
<g id="graph0" class="graph" transform="scale(1 1) rotate(0) translate(4 60.25)">
<title>Scheduler Interface</title>
<!-- Node4 -->
<g id="Node000004" class="node">
<title>Node4</title>
<g id="a_Node000004"><a xlink:href="group__qeventflags.html" target="_top" xlink:title="API interface for the built&#45;in&#45;task Event Flags.">
<polygon fill="white" stroke="#666666" points="333.75,-56.25 266.75,-56.25 266.75,-37 333.75,-37 333.75,-56.25"/>
<text text-anchor="middle" x="300.25" y="-42.75" font-family="Helvetica,sans-Serif" font-size="10.00">Event Flags</text>
</a>
</g>
</g>
<!-- Node3 -->
<g id="Node000003" class="node">
<title>Node3</title>
<g id="a_Node000003"><a xlink:href="group__qnot.html" target="_top" xlink:title="API interface for task Notifications.">
<polygon fill="white" stroke="#666666" points="335.25,-19.25 265.25,-19.25 265.25,0 335.25,0 335.25,-19.25"/>
<text text-anchor="middle" x="300.25" y="-5.75" font-family="Helvetica,sans-Serif" font-size="10.00">Notifications</text>
</a>
</g>
</g>
<!-- Node2 -->
<g id="Node000002" class="node">
<title>Node2</title>
<g id="a_Node000002"><a xlink:href="group__qos.html" target="_top" xlink:title=" ">
<polygon fill="white" stroke="#666666" points="93.25,-37.25 0,-37.25 0,-18 93.25,-18 93.25,-37.25"/>
<text text-anchor="middle" x="46.62" y="-23.75" font-family="Helvetica,sans-Serif" font-size="10.00">Operative System</text>
</a>
</g>
</g>
<!-- Node1 -->
<g id="Node000001" class="node">
<title>Node1</title>
<g id="a_Node000001"><a xlink:title="Kernel API interface to create/remove tasks and perform special OS operations.">
<polygon fill="#999999" stroke="#666666" points="229.25,-37.25 129.25,-37.25 129.25,-18 229.25,-18 229.25,-37.25"/>
<text text-anchor="middle" x="179.25" y="-23.75" font-family="Helvetica,sans-Serif" font-size="10.00">Scheduler Interface</text>
</a>
</g>
</g>
<!-- Node2&#45;&gt;Node1 -->
<g id="edge1" class="edge">
<title>Node2&#45;&gt;Node1</title>
<path fill="none" stroke="black" d="M105.18,-27.62C113.15,-27.62 121.27,-27.62 129.07,-27.62"/>
<polygon fill="black" stroke="black" points="105.19,-24.13 95.19,-27.63 105.19,-31.13 105.19,-24.13"/>
</g>
<!-- Node1&#45;&gt;Node4 -->
<g id="edge3" class="edge">
<title>Node1&#45;&gt;Node4</title>
<path fill="none" stroke="black" d="M240.82,-37.3C249.64,-38.7 258.43,-40.11 266.41,-41.38"/>
<polygon fill="black" stroke="black" points="241.6,-33.88 231.18,-35.76 240.5,-40.79 241.6,-33.88"/>
</g>
<!-- Node1&#45;&gt;Node3 -->
<g id="edge2" class="edge">
<title>Node1&#45;&gt;Node3</title>
<path fill="none" stroke="black" d="M240.92,-18.45C249.19,-17.2 257.43,-15.95 265,-14.81"/>
<polygon fill="black" stroke="black" points="240.54,-14.97 231.18,-19.92 241.59,-21.89 240.54,-14.97"/>
</g>
</g>
</svg>
