<?xml version="1.0" encoding="UTF-8" standalone="no"?>
<!DOCTYPE svg PUBLIC "-//W3C//DTD SVG 1.1//EN"
 "http://www.w3.org/Graphics/SVG/1.1/DTD/svg11.dtd">
<!-- Generated by graphviz version 2.49.3 (20211027.1534)
 -->
<!-- Title: Clock Pages: 1 -->
<svg width="373pt" height="446pt"
 viewBox="0.00 0.00 373.00 446.00" xmlns="http://www.w3.org/2000/svg" xmlns:xlink="http://www.w3.org/1999/xlink">
<g id="graph0" class="graph" transform="scale(1 1) rotate(0) translate(4 442)">
<title>Clock</title>
<polygon fill="white" stroke="transparent" points="-4,4 -4,-442 369,-442 369,4 -4,4"/>
<!-- Node4 -->
<g id="node1" class="node">
<title>Node4</title>
<g id="a_node1"><a xlink:href="group__qatcli.html" target="_top" xlink:title="API for the AT Command Line Interface extension.">
<polygon fill="white" stroke="black" points="365,-438 228,-438 228,-419 365,-419 365,-438"/>
<text text-anchor="middle" x="296.5" y="-426" font-family="Helvetica,sans-Serif" font-size="10.00">AT Command Line Interface</text>
</a>
</g>
</g>
<!-- Node3 -->
<g id="node2" class="node">
<title>Node3</title>
<g id="a_node2"><a xlink:href="group__qbsbuffers.html" target="_top" xlink:title="An interrupt&#45;safe byte&#45;sized ring buffer interface.">
<polygon fill="white" stroke="black" points="344,-401 249,-401 249,-382 344,-382 344,-401"/>
<text text-anchor="middle" x="296.5" y="-389" font-family="Helvetica,sans-Serif" font-size="10.00">Byte&#45;Sized buffers</text>
</a>
</g>
</g>
<!-- Node1 -->
<g id="node3" class="node">
<title>Node1</title>
<g id="a_node3"><a xlink:title="Clock and time manipulation interface used by the entire OS.">
<polygon fill="#bfbfbf" stroke="black" points="172,-222 131,-222 131,-203 172,-203 172,-222"/>
<text text-anchor="middle" x="151.5" y="-210" font-family="Helvetica,sans-Serif" font-size="10.00">Clock</text>
</a>
</g>
</g>
<!-- Node1&#45;&gt;Node4 -->
<g id="edge3" class="edge">
<title>Node1&#45;&gt;Node4</title>
<path fill="none" stroke="blueviolet" stroke-dasharray="5,2" d="M152.71,-222.12C153.67,-248.61 159.14,-324.17 190,-376.5 201.51,-396.02 208.06,-399.73 228,-410.5 234.3,-413.9 241.28,-416.69 248.29,-418.97"/>
<text text-anchor="middle" x="200" y="-402.5" font-family="Helvetica,sans-Serif" font-size="10.00">qOS</text>
</g>
<!-- Node1&#45;&gt;Node3 -->
<g id="edge2" class="edge">
<title>Node1&#45;&gt;Node3</title>
<path fill="none" stroke="blueviolet" stroke-dasharray="5,2" d="M153.69,-222.29C156.72,-244.33 166.24,-298.91 190,-337.5 202.2,-357.31 207.69,-362.15 228,-373.5 234.46,-377.11 241.67,-380.02 248.91,-382.36"/>
<text text-anchor="middle" x="200" y="-364.5" font-family="Helvetica,sans-Serif" font-size="10.00">qOS</text>
</g>
<!-- Node5 -->
<g id="node4" class="node">
<title>Node5</title>
<g id="a_node4"><a xlink:href="group__qcoroutines.html" target="_top" xlink:title="API interface for the Co&#45;Routines extension.">
<polygon fill="white" stroke="black" points="331.5,-364 261.5,-364 261.5,-345 331.5,-345 331.5,-364"/>
<text text-anchor="middle" x="296.5" y="-352" font-family="Helvetica,sans-Serif" font-size="10.00">Co&#45;Routines</text>
</a>
</g>
</g>
<!-- Node1&#45;&gt;Node5 -->
<g id="edge4" class="edge">
<title>Node1&#45;&gt;Node5</title>
<path fill="none" stroke="blueviolet" stroke-dasharray="5,2" d="M154.97,-222.23C161.75,-246.7 183.24,-310.69 228,-336.5 238.09,-342.32 250.1,-346.3 261.18,-349.01"/>
<text text-anchor="middle" x="200" y="-325.5" font-family="Helvetica,sans-Serif" font-size="10.00">qOS</text>
</g>
<!-- Node6 -->
<g id="node5" class="node">
<title>Node6</title>
<g id="a_node5"><a xlink:href="group__qcritical.html" target="_top" xlink:title="APIs to handle entry/exit actions in Critical sections.">
<polygon fill="white" stroke="black" points="320,-327 273,-327 273,-308 320,-308 320,-327"/>
<text text-anchor="middle" x="296.5" y="-315" font-family="Helvetica,sans-Serif" font-size="10.00">Critical</text>
</a>
</g>
</g>
<!-- Node1&#45;&gt;Node6 -->
<g id="edge5" class="edge">
<title>Node1&#45;&gt;Node6</title>
<path fill="none" stroke="blueviolet" stroke-dasharray="5,2" d="M157.96,-222.04C168.8,-240.08 194.91,-279.12 228,-298.5 241.76,-306.56 259.11,-311.35 272.78,-314.1"/>
<text text-anchor="middle" x="200" y="-286.5" font-family="Helvetica,sans-Serif" font-size="10.00">qOS</text>
</g>
<!-- Node7 -->
<g id="node6" class="node">
<title>Node7</title>
<g id="a_node6"><a xlink:href="group__qedgecheck.html" target="_top" xlink:title="An interface to manage and simplify the value(with edge&#45;checking) of incoming digital&#45;signal groups.">
<polygon fill="white" stroke="black" points="347,-289.5 246,-289.5 246,-259.5 347,-259.5 347,-289.5"/>
<text text-anchor="start" x="254" y="-277.5" font-family="Helvetica,sans-Serif" font-size="10.00">I/O Groups for edge</text>
<text text-anchor="middle" x="296.5" y="-266.5" font-family="Helvetica,sans-Serif" font-size="10.00"> checking</text>
</a>
</g>
</g>
<!-- Node1&#45;&gt;Node7 -->
<g id="edge6" class="edge">
<title>Node1&#45;&gt;Node7</title>
<path fill="none" stroke="blueviolet" stroke-dasharray="5,2" d="M166.77,-222.06C173.63,-226.45 182.07,-231.54 190,-235.5 208.43,-244.7 229.59,-252.94 248.1,-259.45"/>
<text text-anchor="middle" x="200" y="-248.5" font-family="Helvetica,sans-Serif" font-size="10.00">qOS</text>
</g>
<!-- Node8 -->
<g id="node7" class="node">
<title>Node8</title>
<g id="a_node7"><a xlink:href="group__qfsm.html" target="_top" xlink:title="API interface of the Finite State Machines (FSM) extension.">
<polygon fill="white" stroke="black" points="351.5,-241 241.5,-241 241.5,-222 351.5,-222 351.5,-241"/>
<text text-anchor="middle" x="296.5" y="-229" font-family="Helvetica,sans-Serif" font-size="10.00">Finite State Machines</text>
</a>
</g>
</g>
<!-- Node1&#45;&gt;Node8 -->
<g id="edge7" class="edge">
<title>Node1&#45;&gt;Node8</title>
<path fill="none" stroke="blueviolet" stroke-dasharray="5,2" d="M172.08,-215.1C189.91,-217.47 217.07,-221.08 241.37,-224.31"/>
<text text-anchor="middle" x="200" y="-223.5" font-family="Helvetica,sans-Serif" font-size="10.00">qOS</text>
</g>
<!-- Node14 -->
<g id="node8" class="node">
<title>Node14</title>
<g id="a_node8"><a xlink:href="group__qioutils.html" target="_top" xlink:title="API for input/output utilities and safe string interfaces.">
<polygon fill="white" stroke="black" points="323,-204 270,-204 270,-185 323,-185 323,-204"/>
<text text-anchor="middle" x="296.5" y="-192" font-family="Helvetica,sans-Serif" font-size="10.00">I/O Utils</text>
</a>
</g>
</g>
<!-- Node1&#45;&gt;Node14 -->
<g id="edge13" class="edge">
<title>Node1&#45;&gt;Node14</title>
<path fill="none" stroke="blueviolet" stroke-dasharray="5,2" d="M172.01,-203.88C177.7,-201.73 184,-199.7 190,-198.5 216.78,-193.14 248.12,-192.66 269.65,-193.2"/>
<text text-anchor="middle" x="200" y="-201.5" font-family="Helvetica,sans-Serif" font-size="10.00">qOS</text>
</g>
<!-- Node10 -->
<g id="node10" class="node">
<title>Node10</title>
<g id="a_node10"><a xlink:href="group__qqueues.html" target="_top" xlink:title="API interface to create and handle Queues.">
<polygon fill="white" stroke="black" points="321.5,-167 271.5,-167 271.5,-148 321.5,-148 321.5,-167"/>
<text text-anchor="middle" x="296.5" y="-155" font-family="Helvetica,sans-Serif" font-size="10.00">Queues</text>
</a>
</g>
</g>
<!-- Node1&#45;&gt;Node10 -->
<g id="edge9" class="edge">
<title>Node1&#45;&gt;Node10</title>
<path fill="none" stroke="blueviolet" stroke-dasharray="5,2" d="M161.12,-202.93C168.18,-195.68 178.81,-186.05 190,-180.5 216.03,-167.59 249.21,-161.88 271.35,-159.39"/>
<text text-anchor="middle" x="200" y="-183.5" font-family="Helvetica,sans-Serif" font-size="10.00">qOS</text>
</g>
<!-- Node11 -->
<g id="node11" class="node">
<title>Node11</title>
<g id="a_node11"><a xlink:href="group__qresponse.html" target="_top" xlink:title="API to simplify the handling of requested responses from terminal interfaces.">
<polygon fill="white" stroke="black" points="343.5,-130 249.5,-130 249.5,-111 343.5,-111 343.5,-130"/>
<text text-anchor="middle" x="296.5" y="-118" font-family="Helvetica,sans-Serif" font-size="10.00">Response handler</text>
</a>
</g>
</g>
<!-- Node1&#45;&gt;Node11 -->
<g id="edge10" class="edge">
<title>Node1&#45;&gt;Node11</title>
<path fill="none" stroke="blueviolet" stroke-dasharray="5,2" d="M157.43,-202.66C163.7,-190.95 175.47,-171.35 190,-158.5 206.62,-143.8 229.36,-134.65 249.48,-129.03"/>
<text text-anchor="middle" x="200" y="-161.5" font-family="Helvetica,sans-Serif" font-size="10.00">qOS</text>
</g>
<!-- Node13 -->
<g id="node12" class="node">
<title>Node13</title>
<g id="a_node12"><a xlink:href="group__qstimers.html" target="_top" xlink:title="API interface for the STimers extension.">
<polygon fill="white" stroke="black" points="341,-93 252,-93 252,-74 341,-74 341,-93"/>
<text text-anchor="middle" x="296.5" y="-81" font-family="Helvetica,sans-Serif" font-size="10.00">Software&#45;Timers</text>
</a>
</g>
</g>
<!-- Node1&#45;&gt;Node13 -->
<g id="edge12" class="edge">
<title>Node1&#45;&gt;Node13</title>
<path fill="none" stroke="blueviolet" stroke-dasharray="5,2" d="M155.22,-202.83C160.14,-186.58 171.73,-153.37 190,-130.5 203.26,-113.9 208.93,-110.86 228,-101.5 235.4,-97.87 243.64,-94.89 251.74,-92.49"/>
<text text-anchor="middle" x="200" y="-133.5" font-family="Helvetica,sans-Serif" font-size="10.00">qOS</text>
</g>
<!-- Node9 -->
<g id="node13" class="node">
<title>Node9</title>
<g id="a_node13"><a xlink:href="group__qtaskcreation.html" target="_top" xlink:title="Kernel API interface to create/remove tasks and perform special OS operations.">
<polygon fill="white" stroke="black" points="347,-56 246,-56 246,-37 347,-37 347,-56"/>
<text text-anchor="middle" x="296.5" y="-44" font-family="Helvetica,sans-Serif" font-size="10.00">Scheduler Interface</text>
</a>
</g>
</g>
<!-- Node1&#45;&gt;Node9 -->
<g id="edge8" class="edge">
<title>Node1&#45;&gt;Node9</title>
<path fill="none" stroke="blueviolet" stroke-dasharray="5,2" d="M153.8,-202.69C156.97,-181.65 166.62,-131.28 190,-96.5 202.32,-78.18 208.42,-74.7 228,-64.5 234.45,-61.14 241.59,-58.36 248.73,-56.09"/>
<text text-anchor="middle" x="200" y="-99.5" font-family="Helvetica,sans-Serif" font-size="10.00">qOS</text>
</g>
<!-- Node12 -->
<g id="node14" class="node">
<title>Node12</title>
<g id="a_node14"><a xlink:href="group__qtaskmanip.html" target="_top" xlink:title="API interface to manage tasks.">
<polygon fill="white" stroke="black" points="339,-19 254,-19 254,0 339,0 339,-19"/>
<text text-anchor="middle" x="296.5" y="-7" font-family="Helvetica,sans-Serif" font-size="10.00">Managing tasks</text>
</a>
</g>
</g>
<!-- Node1&#45;&gt;Node12 -->
<g id="edge11" class="edge">
<title>Node1&#45;&gt;Node12</title>
<path fill="none" stroke="blueviolet" stroke-dasharray="5,2" d="M152.89,-202.84C154.31,-177.58 160.79,-108.27 190,-60.5 201.67,-41.42 208.24,-37.98 228,-27.5 235.93,-23.29 244.91,-20.01 253.68,-17.48"/>
<text text-anchor="middle" x="200" y="-63.5" font-family="Helvetica,sans-Serif" font-size="10.00">qOS</text>
</g>
<!-- Node2 -->
<g id="node9" class="node">
<title>Node2</title>
<g id="a_node9"><a xlink:href="group__qos.html" target="_top" xlink:title=" ">
<polygon fill="white" stroke="black" points="94,-222 0,-222 0,-203 94,-203 94,-222"/>
<text text-anchor="middle" x="47" y="-210" font-family="Helvetica,sans-Serif" font-size="10.00">Operative System</text>
</a>
</g>
</g>
<!-- Node2&#45;&gt;Node1 -->
<g id="edge1" class="edge">
<title>Node2&#45;&gt;Node1</title>
<path fill="none" stroke="black" d="M104.43,-212.5C113.87,-212.5 123.08,-212.5 130.75,-212.5"/>
<polygon fill="black" stroke="black" points="104.15,-209 94.15,-212.5 104.15,-216 104.15,-209"/>
</g>
</g>
</svg>
