<?xml version="1.0" encoding="UTF-8" standalone="no"?>
<!DOCTYPE svg PUBLIC "-//W3C//DTD SVG 1.1//EN"
 "http://www.w3.org/Graphics/SVG/1.1/DTD/svg11.dtd">
<!-- Generated by graphviz version 2.49.3 (20211027.1534)
 -->
<!-- Title: AT Command Line Interface Pages: 1 -->
<svg width="441pt" height="446pt"
 viewBox="0.00 0.00 441.00 446.00" xmlns="http://www.w3.org/2000/svg" xmlns:xlink="http://www.w3.org/1999/xlink">
<g id="graph0" class="graph" transform="scale(1 1) rotate(0) translate(4 442)">
<title>AT Command Line Interface</title>
<polygon fill="white" stroke="transparent" points="-4,4 -4,-442 437,-442 437,4 -4,4"/>
<!-- Node1 -->
<g id="node1" class="node">
<title>Node1</title>
<g id="a_node1"><a xlink:title="API for the AT Command Line Interface extension.">
<polygon fill="#bfbfbf" stroke="black" points="267,-222 130,-222 130,-203 267,-203 267,-222"/>
<text text-anchor="middle" x="198.5" y="-210" font-family="Helvetica,sans-Serif" font-size="10.00">AT Command Line Interface</text>
</a>
</g>
</g>
<!-- Node3 -->
<g id="node2" class="node">
<title>Node3</title>
<g id="a_node2"><a xlink:href="group__qbsbuffers.html" target="_top" xlink:title="An interrupt&#45;safe byte&#45;sized ring buffer interface.">
<polygon fill="white" stroke="black" points="425.5,-438 330.5,-438 330.5,-419 425.5,-419 425.5,-438"/>
<text text-anchor="middle" x="378" y="-426" font-family="Helvetica,sans-Serif" font-size="10.00">Byte&#45;Sized buffers</text>
</a>
</g>
</g>
<!-- Node1&#45;&gt;Node3 -->
<g id="edge2" class="edge">
<title>Node1&#45;&gt;Node3</title>
<path fill="none" stroke="blueviolet" stroke-dasharray="5,2" d="M203.43,-222.09C214.23,-247.84 246.17,-320.13 285,-372.5 299.23,-391.68 302.68,-397.94 323,-410.5 328.38,-413.83 334.44,-416.61 340.52,-418.92"/>
<text text-anchor="middle" x="295" y="-399.5" font-family="Helvetica,sans-Serif" font-size="10.00">qOS</text>
</g>
<!-- Node4 -->
<g id="node3" class="node">
<title>Node4</title>
<g id="a_node3"><a xlink:href="group__qclock.html" target="_top" xlink:title="Clock and time manipulation interface used by the entire OS.">
<polygon fill="white" stroke="black" points="398.5,-401 357.5,-401 357.5,-382 398.5,-382 398.5,-401"/>
<text text-anchor="middle" x="378" y="-389" font-family="Helvetica,sans-Serif" font-size="10.00">Clock</text>
</a>
</g>
</g>
<!-- Node1&#45;&gt;Node4 -->
<g id="edge3" class="edge">
<title>Node1&#45;&gt;Node4</title>
<path fill="none" stroke="blueviolet" stroke-dasharray="5,2" d="M203.7,-222.13C216.69,-250.69 259.25,-335.28 323,-373.5 333.59,-379.85 346.72,-384.29 357.37,-387.17"/>
<text text-anchor="middle" x="295" y="-360.5" font-family="Helvetica,sans-Serif" font-size="10.00">qOS</text>
</g>
<!-- Node5 -->
<g id="node4" class="node">
<title>Node5</title>
<g id="a_node4"><a xlink:href="group__qcoroutines.html" target="_top" xlink:title="API interface for the Co&#45;Routines extension.">
<polygon fill="white" stroke="black" points="413,-364 343,-364 343,-345 413,-345 413,-364"/>
<text text-anchor="middle" x="378" y="-352" font-family="Helvetica,sans-Serif" font-size="10.00">Co&#45;Routines</text>
</a>
</g>
</g>
<!-- Node1&#45;&gt;Node5 -->
<g id="edge4" class="edge">
<title>Node1&#45;&gt;Node5</title>
<path fill="none" stroke="blueviolet" stroke-dasharray="5,2" d="M206.36,-222.21C223.35,-245.55 269.88,-305.16 323,-336.5 329.13,-340.12 336.08,-343.12 342.91,-345.57"/>
<text text-anchor="middle" x="295" y="-325.5" font-family="Helvetica,sans-Serif" font-size="10.00">qOS</text>
</g>
<!-- Node6 -->
<g id="node5" class="node">
<title>Node6</title>
<g id="a_node5"><a xlink:href="group__qcritical.html" target="_top" xlink:title="APIs to handle entry/exit actions in Critical sections.">
<polygon fill="white" stroke="black" points="401.5,-327 354.5,-327 354.5,-308 401.5,-308 401.5,-327"/>
<text text-anchor="middle" x="378" y="-315" font-family="Helvetica,sans-Serif" font-size="10.00">Critical</text>
</a>
</g>
</g>
<!-- Node1&#45;&gt;Node6 -->
<g id="edge5" class="edge">
<title>Node1&#45;&gt;Node6</title>
<path fill="none" stroke="blueviolet" stroke-dasharray="5,2" d="M211.08,-222.19C232.19,-239.46 278.82,-275.87 323,-298.5 332.91,-303.57 344.48,-307.84 354.37,-311.04"/>
<text text-anchor="middle" x="295" y="-289.5" font-family="Helvetica,sans-Serif" font-size="10.00">qOS</text>
</g>
<!-- Node7 -->
<g id="node6" class="node">
<title>Node7</title>
<g id="a_node6"><a xlink:href="group__qedgecheck.html" target="_top" xlink:title="An interface to manage and simplify the value(with edge&#45;checking) of incoming digital&#45;signal groups.">
<polygon fill="white" stroke="black" points="428.5,-289.5 327.5,-289.5 327.5,-259.5 428.5,-259.5 428.5,-289.5"/>
<text text-anchor="start" x="335.5" y="-277.5" font-family="Helvetica,sans-Serif" font-size="10.00">I/O Groups for edge</text>
<text text-anchor="middle" x="378" y="-266.5" font-family="Helvetica,sans-Serif" font-size="10.00"> checking</text>
</a>
</g>
</g>
<!-- Node1&#45;&gt;Node7 -->
<g id="edge6" class="edge">
<title>Node1&#45;&gt;Node7</title>
<path fill="none" stroke="blueviolet" stroke-dasharray="5,2" d="M226.85,-222.05C255.34,-232 300.39,-247.74 333.72,-259.38"/>
<text text-anchor="middle" x="295" y="-251.5" font-family="Helvetica,sans-Serif" font-size="10.00">qOS</text>
</g>
<!-- Node8 -->
<g id="node7" class="node">
<title>Node8</title>
<g id="a_node7"><a xlink:href="group__qfsm.html" target="_top" xlink:title="API interface of the Finite State Machines (FSM) extension.">
<polygon fill="white" stroke="black" points="433,-241 323,-241 323,-222 433,-222 433,-241"/>
<text text-anchor="middle" x="378" y="-229" font-family="Helvetica,sans-Serif" font-size="10.00">Finite State Machines</text>
</a>
</g>
</g>
<!-- Node1&#45;&gt;Node8 -->
<g id="edge7" class="edge">
<title>Node1&#45;&gt;Node8</title>
<path fill="none" stroke="blueviolet" stroke-dasharray="5,2" d="M267.11,-219.74C285.53,-221.71 305.24,-223.82 322.81,-225.7"/>
<text text-anchor="middle" x="295" y="-227.5" font-family="Helvetica,sans-Serif" font-size="10.00">qOS</text>
</g>
<!-- Node14 -->
<g id="node8" class="node">
<title>Node14</title>
<g id="a_node8"><a xlink:href="group__qioutils.html" target="_top" xlink:title="API for input/output utilities and safe string interfaces.">
<polygon fill="white" stroke="black" points="404.5,-204 351.5,-204 351.5,-185 404.5,-185 404.5,-204"/>
<text text-anchor="middle" x="378" y="-192" font-family="Helvetica,sans-Serif" font-size="10.00">I/O Utils</text>
</a>
</g>
</g>
<!-- Node1&#45;&gt;Node14 -->
<g id="edge13" class="edge">
<title>Node1&#45;&gt;Node14</title>
<path fill="none" stroke="blueviolet" stroke-dasharray="5,2" d="M251.36,-202.99C262.43,-201.25 274.08,-199.63 285,-198.5 307.26,-196.2 332.69,-195.22 351.16,-194.8"/>
<text text-anchor="middle" x="295" y="-201.5" font-family="Helvetica,sans-Serif" font-size="10.00">qOS</text>
</g>
<!-- Node10 -->
<g id="node10" class="node">
<title>Node10</title>
<g id="a_node10"><a xlink:href="group__qqueues.html" target="_top" xlink:title="API interface to create and handle Queues.">
<polygon fill="white" stroke="black" points="403,-167 353,-167 353,-148 403,-148 403,-167"/>
<text text-anchor="middle" x="378" y="-155" font-family="Helvetica,sans-Serif" font-size="10.00">Queues</text>
</a>
</g>
</g>
<!-- Node1&#45;&gt;Node10 -->
<g id="edge9" class="edge">
<title>Node1&#45;&gt;Node10</title>
<path fill="none" stroke="blueviolet" stroke-dasharray="5,2" d="M225.16,-202.95C242.05,-196.8 264.72,-188.8 285,-182.5 307.76,-175.42 334.02,-168.4 352.65,-163.61"/>
<text text-anchor="middle" x="295" y="-185.5" font-family="Helvetica,sans-Serif" font-size="10.00">qOS</text>
</g>
<!-- Node11 -->
<g id="node11" class="node">
<title>Node11</title>
<g id="a_node11"><a xlink:href="group__qresponse.html" target="_top" xlink:title="API to simplify the handling of requested responses from terminal interfaces.">
<polygon fill="white" stroke="black" points="425,-130 331,-130 331,-111 425,-111 425,-130"/>
<text text-anchor="middle" x="378" y="-118" font-family="Helvetica,sans-Serif" font-size="10.00">Response handler</text>
</a>
</g>
</g>
<!-- Node1&#45;&gt;Node11 -->
<g id="edge10" class="edge">
<title>Node1&#45;&gt;Node11</title>
<path fill="none" stroke="blueviolet" stroke-dasharray="5,2" d="M213.4,-202.79C235.69,-187.53 281.21,-157.71 323,-138.5 329.82,-135.36 337.36,-132.5 344.57,-130.03"/>
<text text-anchor="middle" x="295" y="-159.5" font-family="Helvetica,sans-Serif" font-size="10.00">qOS</text>
</g>
<!-- Node13 -->
<g id="node12" class="node">
<title>Node13</title>
<g id="a_node12"><a xlink:href="group__qstimers.html" target="_top" xlink:title="API interface for the STimers extension.">
<polygon fill="white" stroke="black" points="422.5,-93 333.5,-93 333.5,-74 422.5,-74 422.5,-93"/>
<text text-anchor="middle" x="378" y="-81" font-family="Helvetica,sans-Serif" font-size="10.00">Software&#45;Timers</text>
</a>
</g>
</g>
<!-- Node1&#45;&gt;Node13 -->
<g id="edge12" class="edge">
<title>Node1&#45;&gt;Node13</title>
<path fill="none" stroke="blueviolet" stroke-dasharray="5,2" d="M207.45,-202.99C225.71,-181.75 272.92,-130.07 323,-101.5 328.75,-98.22 335.19,-95.42 341.56,-93.08"/>
<text text-anchor="middle" x="295" y="-130.5" font-family="Helvetica,sans-Serif" font-size="10.00">qOS</text>
</g>
<!-- Node9 -->
<g id="node13" class="node">
<title>Node9</title>
<g id="a_node13"><a xlink:href="group__qtaskcreation.html" target="_top" xlink:title="Kernel API interface to create/remove tasks and perform special OS operations.">
<polygon fill="white" stroke="black" points="428.5,-56 327.5,-56 327.5,-37 428.5,-37 428.5,-56"/>
<text text-anchor="middle" x="378" y="-44" font-family="Helvetica,sans-Serif" font-size="10.00">Scheduler Interface</text>
</a>
</g>
</g>
<!-- Node1&#45;&gt;Node9 -->
<g id="edge8" class="edge">
<title>Node1&#45;&gt;Node9</title>
<path fill="none" stroke="blueviolet" stroke-dasharray="5,2" d="M204.34,-202.92C218.47,-176.04 262.51,-99.61 323,-64.5 328.73,-61.18 335.15,-58.36 341.52,-56.01"/>
<text text-anchor="middle" x="295" y="-96.5" font-family="Helvetica,sans-Serif" font-size="10.00">qOS</text>
</g>
<!-- Node12 -->
<g id="node14" class="node">
<title>Node12</title>
<g id="a_node14"><a xlink:href="group__qtaskmanip.html" target="_top" xlink:title="API interface to manage tasks.">
<polygon fill="white" stroke="black" points="420.5,-19 335.5,-19 335.5,0 420.5,0 420.5,-19"/>
<text text-anchor="middle" x="378" y="-7" font-family="Helvetica,sans-Serif" font-size="10.00">Managing tasks</text>
</a>
</g>
</g>
<!-- Node1&#45;&gt;Node12 -->
<g id="edge11" class="edge">
<title>Node1&#45;&gt;Node12</title>
<path fill="none" stroke="blueviolet" stroke-dasharray="5,2" d="M202.68,-202.67C213.54,-170.88 252.41,-70.48 323,-27.5 328.49,-24.16 334.67,-21.35 340.84,-19.03"/>
<text text-anchor="middle" x="295" y="-61.5" font-family="Helvetica,sans-Serif" font-size="10.00">qOS</text>
</g>
<!-- Node2 -->
<g id="node9" class="node">
<title>Node2</title>
<g id="a_node9"><a xlink:href="group__qmodules.html" target="_top" xlink:title=" ">
<polygon fill="white" stroke="black" points="93,-222 0,-222 0,-203 93,-203 93,-222"/>
<text text-anchor="middle" x="46.5" y="-210" font-family="Helvetica,sans-Serif" font-size="10.00">Kernel extensions</text>
</a>
</g>
</g>
<!-- Node2&#45;&gt;Node1 -->
<g id="edge1" class="edge">
<title>Node2&#45;&gt;Node1</title>
<path fill="none" stroke="black" d="M103.57,-212.5C112.15,-212.5 121.08,-212.5 129.87,-212.5"/>
<polygon fill="black" stroke="black" points="103.32,-209 93.32,-212.5 103.32,-216 103.32,-209"/>
</g>
</g>
</svg>
