<?xml version="1.0" encoding="UTF-8" standalone="no"?>
<!DOCTYPE svg PUBLIC "-//W3C//DTD SVG 1.1//EN"
 "http://www.w3.org/Graphics/SVG/1.1/DTD/svg11.dtd">
<!-- Generated by graphviz version 2.49.3 (20211027.1534)
 -->
<!-- Title: Critical Pages: 1 -->
<svg width="379pt" height="446pt"
 viewBox="0.00 0.00 379.00 446.00" xmlns="http://www.w3.org/2000/svg" xmlns:xlink="http://www.w3.org/1999/xlink">
<g id="graph0" class="graph" transform="scale(1 1) rotate(0) translate(4 442)">
<title>Critical</title>
<polygon fill="white" stroke="transparent" points="-4,4 -4,-442 375,-442 375,4 -4,4"/>
<!-- Node4 -->
<g id="node1" class="node">
<title>Node4</title>
<g id="a_node1"><a xlink:href="group__qatcli.html" target="_top" xlink:title="API for the AT Command Line Interface extension.">
<polygon fill="white" stroke="black" points="371,-438 234,-438 234,-419 371,-419 371,-438"/>
<text text-anchor="middle" x="302.5" y="-426" font-family="Helvetica,sans-Serif" font-size="10.00">AT Command Line Interface</text>
</a>
</g>
</g>
<!-- Node3 -->
<g id="node2" class="node">
<title>Node3</title>
<g id="a_node2"><a xlink:href="group__qbsbuffers.html" target="_top" xlink:title="An interrupt&#45;safe byte&#45;sized ring buffer interface.">
<polygon fill="white" stroke="black" points="350,-401 255,-401 255,-382 350,-382 350,-401"/>
<text text-anchor="middle" x="302.5" y="-389" font-family="Helvetica,sans-Serif" font-size="10.00">Byte&#45;Sized buffers</text>
</a>
</g>
</g>
<!-- Node5 -->
<g id="node3" class="node">
<title>Node5</title>
<g id="a_node3"><a xlink:href="group__qclock.html" target="_top" xlink:title="Clock and time manipulation interface used by the entire OS.">
<polygon fill="white" stroke="black" points="323,-364 282,-364 282,-345 323,-345 323,-364"/>
<text text-anchor="middle" x="302.5" y="-352" font-family="Helvetica,sans-Serif" font-size="10.00">Clock</text>
</a>
</g>
</g>
<!-- Node6 -->
<g id="node4" class="node">
<title>Node6</title>
<g id="a_node4"><a xlink:href="group__qcoroutines.html" target="_top" xlink:title="API interface for the Co&#45;Routines extension.">
<polygon fill="white" stroke="black" points="337.5,-327 267.5,-327 267.5,-308 337.5,-308 337.5,-327"/>
<text text-anchor="middle" x="302.5" y="-315" font-family="Helvetica,sans-Serif" font-size="10.00">Co&#45;Routines</text>
</a>
</g>
</g>
<!-- Node1 -->
<g id="node5" class="node">
<title>Node1</title>
<g id="a_node5"><a xlink:title="APIs to handle entry/exit actions in Critical sections.">
<polygon fill="#bfbfbf" stroke="black" points="178,-222 131,-222 131,-203 178,-203 178,-222"/>
<text text-anchor="middle" x="154.5" y="-210" font-family="Helvetica,sans-Serif" font-size="10.00">Critical</text>
</a>
</g>
</g>
<!-- Node1&#45;&gt;Node4 -->
<g id="edge3" class="edge">
<title>Node1&#45;&gt;Node4</title>
<path fill="none" stroke="blueviolet" stroke-dasharray="5,2" d="M155.92,-222.12C157.47,-248.63 164.56,-324.23 196,-376.5 207.68,-395.92 214.06,-399.73 234,-410.5 240.3,-413.9 247.28,-416.69 254.29,-418.97"/>
<text text-anchor="middle" x="206" y="-401.5" font-family="Helvetica,sans-Serif" font-size="10.00">qOS</text>
</g>
<!-- Node1&#45;&gt;Node3 -->
<g id="edge2" class="edge">
<title>Node1&#45;&gt;Node3</title>
<path fill="none" stroke="blueviolet" stroke-dasharray="5,2" d="M156.97,-222.29C160.63,-244.32 171.65,-298.91 196,-337.5 208.41,-357.18 213.69,-362.15 234,-373.5 240.46,-377.11 247.67,-380.02 254.91,-382.36"/>
<text text-anchor="middle" x="206" y="-364.5" font-family="Helvetica,sans-Serif" font-size="10.00">qOS</text>
</g>
<!-- Node1&#45;&gt;Node5 -->
<g id="edge4" class="edge">
<title>Node1&#45;&gt;Node5</title>
<path fill="none" stroke="blueviolet" stroke-dasharray="5,2" d="M158.18,-222.27C165.49,-246.83 188.4,-311.02 234,-336.5 248.93,-344.84 267.89,-349.45 281.91,-351.92"/>
<text text-anchor="middle" x="206" y="-325.5" font-family="Helvetica,sans-Serif" font-size="10.00">qOS</text>
</g>
<!-- Node1&#45;&gt;Node6 -->
<g id="edge5" class="edge">
<title>Node1&#45;&gt;Node6</title>
<path fill="none" stroke="blueviolet" stroke-dasharray="5,2" d="M161.51,-222.22C173.16,-240.21 200.64,-278.67 234,-298.5 244.15,-304.53 256.3,-308.72 267.48,-311.6"/>
<text text-anchor="middle" x="206" y="-288.5" font-family="Helvetica,sans-Serif" font-size="10.00">qOS</text>
</g>
<!-- Node7 -->
<g id="node6" class="node">
<title>Node7</title>
<g id="a_node6"><a xlink:href="group__qedgecheck.html" target="_top" xlink:title="An interface to manage and simplify the value(with edge&#45;checking) of incoming digital&#45;signal groups.">
<polygon fill="white" stroke="black" points="353,-289.5 252,-289.5 252,-259.5 353,-259.5 353,-289.5"/>
<text text-anchor="start" x="260" y="-277.5" font-family="Helvetica,sans-Serif" font-size="10.00">I/O Groups for edge</text>
<text text-anchor="middle" x="302.5" y="-266.5" font-family="Helvetica,sans-Serif" font-size="10.00"> checking</text>
</a>
</g>
</g>
<!-- Node1&#45;&gt;Node7 -->
<g id="edge6" class="edge">
<title>Node1&#45;&gt;Node7</title>
<path fill="none" stroke="blueviolet" stroke-dasharray="5,2" d="M171.38,-222.21C178.74,-226.53 187.68,-231.52 196,-235.5 214.85,-244.52 236.37,-252.81 255.04,-259.41"/>
<text text-anchor="middle" x="206" y="-247.5" font-family="Helvetica,sans-Serif" font-size="10.00">qOS</text>
</g>
<!-- Node8 -->
<g id="node7" class="node">
<title>Node8</title>
<g id="a_node7"><a xlink:href="group__qfsm.html" target="_top" xlink:title="API interface of the Finite State Machines (FSM) extension.">
<polygon fill="white" stroke="black" points="357.5,-241 247.5,-241 247.5,-222 357.5,-222 357.5,-241"/>
<text text-anchor="middle" x="302.5" y="-229" font-family="Helvetica,sans-Serif" font-size="10.00">Finite State Machines</text>
</a>
</g>
</g>
<!-- Node1&#45;&gt;Node8 -->
<g id="edge7" class="edge">
<title>Node1&#45;&gt;Node8</title>
<path fill="none" stroke="blueviolet" stroke-dasharray="5,2" d="M178.31,-215.47C196.76,-217.87 223.49,-221.35 247.34,-224.45"/>
<text text-anchor="middle" x="206" y="-223.5" font-family="Helvetica,sans-Serif" font-size="10.00">qOS</text>
</g>
<!-- Node14 -->
<g id="node8" class="node">
<title>Node14</title>
<g id="a_node8"><a xlink:href="group__qioutils.html" target="_top" xlink:title="API for input/output utilities and safe string interfaces.">
<polygon fill="white" stroke="black" points="329,-204 276,-204 276,-185 329,-185 329,-204"/>
<text text-anchor="middle" x="302.5" y="-192" font-family="Helvetica,sans-Serif" font-size="10.00">I/O Utils</text>
</a>
</g>
</g>
<!-- Node1&#45;&gt;Node14 -->
<g id="edge13" class="edge">
<title>Node1&#45;&gt;Node14</title>
<path fill="none" stroke="blueviolet" stroke-dasharray="5,2" d="M178.31,-203.3C184,-201.38 190.15,-199.6 196,-198.5 222.84,-193.47 254.18,-192.94 275.68,-193.37"/>
<text text-anchor="middle" x="206" y="-201.5" font-family="Helvetica,sans-Serif" font-size="10.00">qOS</text>
</g>
<!-- Node10 -->
<g id="node10" class="node">
<title>Node10</title>
<g id="a_node10"><a xlink:href="group__qqueues.html" target="_top" xlink:title="API interface to create and handle Queues.">
<polygon fill="white" stroke="black" points="327.5,-167 277.5,-167 277.5,-148 327.5,-148 327.5,-167"/>
<text text-anchor="middle" x="302.5" y="-155" font-family="Helvetica,sans-Serif" font-size="10.00">Queues</text>
</a>
</g>
</g>
<!-- Node1&#45;&gt;Node10 -->
<g id="edge9" class="edge">
<title>Node1&#45;&gt;Node10</title>
<path fill="none" stroke="blueviolet" stroke-dasharray="5,2" d="M165.34,-203C173.08,-196.05 184.46,-186.91 196,-181.5 222.19,-169.22 255.05,-163.03 277.07,-160.04"/>
<text text-anchor="middle" x="206" y="-184.5" font-family="Helvetica,sans-Serif" font-size="10.00">qOS</text>
</g>
<!-- Node11 -->
<g id="node11" class="node">
<title>Node11</title>
<g id="a_node11"><a xlink:href="group__qresponse.html" target="_top" xlink:title="API to simplify the handling of requested responses from terminal interfaces.">
<polygon fill="white" stroke="black" points="349.5,-130 255.5,-130 255.5,-111 349.5,-111 349.5,-130"/>
<text text-anchor="middle" x="302.5" y="-118" font-family="Helvetica,sans-Serif" font-size="10.00">Response handler</text>
</a>
</g>
</g>
<!-- Node1&#45;&gt;Node11 -->
<g id="edge10" class="edge">
<title>Node1&#45;&gt;Node11</title>
<path fill="none" stroke="blueviolet" stroke-dasharray="5,2" d="M161.09,-202.93C168.12,-191.51 181.09,-172.36 196,-159.5 212.79,-145.03 235.42,-135.72 255.43,-129.85"/>
<text text-anchor="middle" x="206" y="-162.5" font-family="Helvetica,sans-Serif" font-size="10.00">qOS</text>
</g>
<!-- Node13 -->
<g id="node12" class="node">
<title>Node13</title>
<g id="a_node12"><a xlink:href="group__qstimers.html" target="_top" xlink:title="API interface for the STimers extension.">
<polygon fill="white" stroke="black" points="347,-93 258,-93 258,-74 347,-74 347,-93"/>
<text text-anchor="middle" x="302.5" y="-81" font-family="Helvetica,sans-Serif" font-size="10.00">Software&#45;Timers</text>
</a>
</g>
</g>
<!-- Node1&#45;&gt;Node13 -->
<g id="edge12" class="edge">
<title>Node1&#45;&gt;Node13</title>
<path fill="none" stroke="blueviolet" stroke-dasharray="5,2" d="M158.86,-202.89C164.69,-187.07 177.85,-155.06 196,-132.5 209.66,-115.52 214.59,-111.42 234,-101.5 241.45,-97.69 249.79,-94.63 258,-92.19"/>
<text text-anchor="middle" x="206" y="-135.5" font-family="Helvetica,sans-Serif" font-size="10.00">qOS</text>
</g>
<!-- Node9 -->
<g id="node13" class="node">
<title>Node9</title>
<g id="a_node13"><a xlink:href="group__qtaskcreation.html" target="_top" xlink:title="Kernel API interface to create/remove tasks and perform special OS operations.">
<polygon fill="white" stroke="black" points="353,-56 252,-56 252,-37 353,-37 353,-56"/>
<text text-anchor="middle" x="302.5" y="-44" font-family="Helvetica,sans-Serif" font-size="10.00">Scheduler Interface</text>
</a>
</g>
</g>
<!-- Node1&#45;&gt;Node9 -->
<g id="edge8" class="edge">
<title>Node1&#45;&gt;Node9</title>
<path fill="none" stroke="blueviolet" stroke-dasharray="5,2" d="M157.17,-202.8C161.09,-182 172.43,-132.16 196,-97.5 208.58,-79 214.24,-74.98 234,-64.5 240.32,-61.15 247.31,-58.38 254.33,-56.11"/>
<text text-anchor="middle" x="206" y="-100.5" font-family="Helvetica,sans-Serif" font-size="10.00">qOS</text>
</g>
<!-- Node12 -->
<g id="node14" class="node">
<title>Node12</title>
<g id="a_node14"><a xlink:href="group__qtaskmanip.html" target="_top" xlink:title="API interface to manage tasks.">
<polygon fill="white" stroke="black" points="345,-19 260,-19 260,0 345,0 345,-19"/>
<text text-anchor="middle" x="302.5" y="-7" font-family="Helvetica,sans-Serif" font-size="10.00">Managing tasks</text>
</a>
</g>
</g>
<!-- Node1&#45;&gt;Node12 -->
<g id="edge11" class="edge">
<title>Node1&#45;&gt;Node12</title>
<path fill="none" stroke="blueviolet" stroke-dasharray="5,2" d="M156.12,-202.83C158.14,-177.57 166.21,-108.22 196,-60.5 207.84,-41.53 214.24,-37.98 234,-27.5 241.93,-23.29 250.91,-20.01 259.68,-17.48"/>
<text text-anchor="middle" x="206" y="-63.5" font-family="Helvetica,sans-Serif" font-size="10.00">qOS</text>
</g>
<!-- Node2 -->
<g id="node9" class="node">
<title>Node2</title>
<g id="a_node9"><a xlink:href="group__qos.html" target="_top" xlink:title=" ">
<polygon fill="white" stroke="black" points="94,-222 0,-222 0,-203 94,-203 94,-222"/>
<text text-anchor="middle" x="47" y="-210" font-family="Helvetica,sans-Serif" font-size="10.00">Operative System</text>
</a>
</g>
</g>
<!-- Node2&#45;&gt;Node1 -->
<g id="edge1" class="edge">
<title>Node2&#45;&gt;Node1</title>
<path fill="none" stroke="black" d="M104.47,-212.5C113.87,-212.5 123.1,-212.5 130.98,-212.5"/>
<polygon fill="black" stroke="black" points="104.27,-209 94.27,-212.5 104.27,-216 104.27,-209"/>
</g>
</g>
</svg>
