<?xml version="1.0" encoding="UTF-8" standalone="no"?>
<!DOCTYPE svg PUBLIC "-//W3C//DTD SVG 1.1//EN"
 "http://www.w3.org/Graphics/SVG/1.1/DTD/svg11.dtd">
<!-- Generated by graphviz version 2.49.3 (20211027.1534)
 -->
<!-- Title: I/O Utils Pages: 1 -->
<svg width="341pt" height="409pt"
 viewBox="0.00 0.00 341.00 409.00" xmlns="http://www.w3.org/2000/svg" xmlns:xlink="http://www.w3.org/1999/xlink">
<g id="graph0" class="graph" transform="scale(1 1) rotate(0) translate(4 405)">
<title>I/O Utils</title>
<polygon fill="white" stroke="transparent" points="-4,4 -4,-405 337,-405 337,4 -4,4"/>
<!-- Node4 -->
<g id="node1" class="node">
<title>Node4</title>
<g id="a_node1"><a xlink:href="group__qatcli.html" target="_top" xlink:title="API for the AT Command Line Interface extension.">
<polygon fill="white" stroke="black" points="333,-401 196,-401 196,-382 333,-382 333,-401"/>
<text text-anchor="middle" x="264.5" y="-389" font-family="Helvetica,sans-Serif" font-size="10.00">AT Command Line Interface</text>
</a>
</g>
</g>
<!-- Node3 -->
<g id="node2" class="node">
<title>Node3</title>
<g id="a_node2"><a xlink:href="group__qbsbuffers.html" target="_top" xlink:title="An interrupt&#45;safe byte&#45;sized ring buffer interface.">
<polygon fill="white" stroke="black" points="312,-364 217,-364 217,-345 312,-345 312,-364"/>
<text text-anchor="middle" x="264.5" y="-352" font-family="Helvetica,sans-Serif" font-size="10.00">Byte&#45;Sized buffers</text>
</a>
</g>
</g>
<!-- Node5 -->
<g id="node3" class="node">
<title>Node5</title>
<g id="a_node3"><a xlink:href="group__qclock.html" target="_top" xlink:title="Clock and time manipulation interface used by the entire OS.">
<polygon fill="white" stroke="black" points="285,-327 244,-327 244,-308 285,-308 285,-327"/>
<text text-anchor="middle" x="264.5" y="-315" font-family="Helvetica,sans-Serif" font-size="10.00">Clock</text>
</a>
</g>
</g>
<!-- Node6 -->
<g id="node4" class="node">
<title>Node6</title>
<g id="a_node4"><a xlink:href="group__qcoroutines.html" target="_top" xlink:title="API interface for the Co&#45;Routines extension.">
<polygon fill="white" stroke="black" points="299.5,-290 229.5,-290 229.5,-271 299.5,-271 299.5,-290"/>
<text text-anchor="middle" x="264.5" y="-278" font-family="Helvetica,sans-Serif" font-size="10.00">Co&#45;Routines</text>
</a>
</g>
</g>
<!-- Node7 -->
<g id="node5" class="node">
<title>Node7</title>
<g id="a_node5"><a xlink:href="group__qcritical.html" target="_top" xlink:title="APIs to handle entry/exit actions in Critical sections.">
<polygon fill="white" stroke="black" points="288,-253 241,-253 241,-234 288,-234 288,-253"/>
<text text-anchor="middle" x="264.5" y="-241" font-family="Helvetica,sans-Serif" font-size="10.00">Critical</text>
</a>
</g>
</g>
<!-- Node8 -->
<g id="node6" class="node">
<title>Node8</title>
<g id="a_node6"><a xlink:href="group__qedgecheck.html" target="_top" xlink:title="An interface to manage and simplify the value(with edge&#45;checking) of incoming digital&#45;signal groups.">
<polygon fill="white" stroke="black" points="315,-215.5 214,-215.5 214,-185.5 315,-185.5 315,-215.5"/>
<text text-anchor="start" x="222" y="-203.5" font-family="Helvetica,sans-Serif" font-size="10.00">I/O Groups for edge</text>
<text text-anchor="middle" x="264.5" y="-192.5" font-family="Helvetica,sans-Serif" font-size="10.00"> checking</text>
</a>
</g>
</g>
<!-- Node9 -->
<g id="node7" class="node">
<title>Node9</title>
<g id="a_node7"><a xlink:href="group__qfsm.html" target="_top" xlink:title="API interface of the Finite State Machines (FSM) extension.">
<polygon fill="white" stroke="black" points="319.5,-167 209.5,-167 209.5,-148 319.5,-148 319.5,-167"/>
<text text-anchor="middle" x="264.5" y="-155" font-family="Helvetica,sans-Serif" font-size="10.00">Finite State Machines</text>
</a>
</g>
</g>
<!-- Node1 -->
<g id="node8" class="node">
<title>Node1</title>
<g id="a_node8"><a xlink:title="API for input/output utilities and safe string interfaces.">
<polygon fill="#bfbfbf" stroke="black" points="140,-210 87,-210 87,-191 140,-191 140,-210"/>
<text text-anchor="middle" x="113.5" y="-198" font-family="Helvetica,sans-Serif" font-size="10.00">I/O Utils</text>
</a>
</g>
</g>
<!-- Node1&#45;&gt;Node4 -->
<g id="edge3" class="edge">
<title>Node1&#45;&gt;Node4</title>
<path fill="none" stroke="blueviolet" stroke-dasharray="5,2" d="M115.81,-210.26C119.33,-233.9 130.66,-295.46 158,-338.5 170.31,-357.88 175.88,-362.44 196,-373.5 202.16,-376.89 209,-379.66 215.89,-381.93"/>
<text text-anchor="middle" x="168" y="-364.5" font-family="Helvetica,sans-Serif" font-size="10.00">qOS</text>
</g>
<!-- Node1&#45;&gt;Node3 -->
<g id="edge2" class="edge">
<title>Node1&#45;&gt;Node3</title>
<path fill="none" stroke="blueviolet" stroke-dasharray="5,2" d="M117.3,-210.25C122.95,-228.94 137.03,-270.58 158,-300.5 171.35,-319.55 175.69,-325.15 196,-336.5 202.46,-340.11 209.67,-343.02 216.91,-345.36"/>
<text text-anchor="middle" x="168" y="-326.5" font-family="Helvetica,sans-Serif" font-size="10.00">qOS</text>
</g>
<!-- Node1&#45;&gt;Node5 -->
<g id="edge4" class="edge">
<title>Node1&#45;&gt;Node5</title>
<path fill="none" stroke="blueviolet" stroke-dasharray="5,2" d="M119.16,-210.26C129.6,-230.92 157.06,-278.84 196,-299.5 211,-307.46 229.78,-312.1 243.72,-314.66"/>
<text text-anchor="middle" x="168" y="-288.5" font-family="Helvetica,sans-Serif" font-size="10.00">qOS</text>
</g>
<!-- Node1&#45;&gt;Node6 -->
<g id="edge5" class="edge">
<title>Node1&#45;&gt;Node6</title>
<path fill="none" stroke="blueviolet" stroke-dasharray="5,2" d="M124.09,-210.12C138.44,-223.92 166.92,-249.15 196,-262.5 206.47,-267.31 218.47,-271.02 229.41,-273.8"/>
<text text-anchor="middle" x="168" y="-254.5" font-family="Helvetica,sans-Serif" font-size="10.00">qOS</text>
</g>
<!-- Node1&#45;&gt;Node7 -->
<g id="edge6" class="edge">
<title>Node1&#45;&gt;Node7</title>
<path fill="none" stroke="blueviolet" stroke-dasharray="5,2" d="M140.16,-209.69C146,-211.69 152.19,-213.73 158,-215.5 186.28,-224.12 219.27,-232.63 240.73,-237.96"/>
<text text-anchor="middle" x="168" y="-224.5" font-family="Helvetica,sans-Serif" font-size="10.00">qOS</text>
</g>
<!-- Node1&#45;&gt;Node8 -->
<g id="edge7" class="edge">
<title>Node1&#45;&gt;Node8</title>
<path fill="none" stroke="blueviolet" stroke-dasharray="5,2" d="M140.11,-200.5C160.33,-200.5 189.15,-200.5 213.86,-200.5"/>
<text text-anchor="middle" x="168" y="-203.5" font-family="Helvetica,sans-Serif" font-size="10.00">qOS</text>
</g>
<!-- Node1&#45;&gt;Node9 -->
<g id="edge8" class="edge">
<title>Node1&#45;&gt;Node9</title>
<path fill="none" stroke="blueviolet" stroke-dasharray="5,2" d="M140.16,-191.31C146,-189.31 152.19,-187.27 158,-185.5 179.93,-178.82 204.7,-172.2 224.73,-167.07"/>
<text text-anchor="middle" x="168" y="-188.5" font-family="Helvetica,sans-Serif" font-size="10.00">qOS</text>
</g>
<!-- Node10 -->
<g id="node9" class="node">
<title>Node10</title>
<g id="a_node9"><a xlink:href="group__qqueues.html" target="_top" xlink:title="API interface to create and handle Queues.">
<polygon fill="white" stroke="black" points="289.5,-130 239.5,-130 239.5,-111 289.5,-111 289.5,-130"/>
<text text-anchor="middle" x="264.5" y="-118" font-family="Helvetica,sans-Serif" font-size="10.00">Queues</text>
</a>
</g>
</g>
<!-- Node1&#45;&gt;Node10 -->
<g id="edge9" class="edge">
<title>Node1&#45;&gt;Node10</title>
<path fill="none" stroke="blueviolet" stroke-dasharray="5,2" d="M124.13,-190.95C138.51,-177.23 167.04,-152.11 196,-138.5 209.72,-132.05 226.14,-127.61 239.34,-124.75"/>
<text text-anchor="middle" x="168" y="-165.5" font-family="Helvetica,sans-Serif" font-size="10.00">qOS</text>
</g>
<!-- Node11 -->
<g id="node10" class="node">
<title>Node11</title>
<g id="a_node10"><a xlink:href="group__qresponse.html" target="_top" xlink:title="API to simplify the handling of requested responses from terminal interfaces.">
<polygon fill="white" stroke="black" points="311.5,-93 217.5,-93 217.5,-74 311.5,-74 311.5,-93"/>
<text text-anchor="middle" x="264.5" y="-81" font-family="Helvetica,sans-Serif" font-size="10.00">Response handler</text>
</a>
</g>
</g>
<!-- Node1&#45;&gt;Node11 -->
<g id="edge10" class="edge">
<title>Node1&#45;&gt;Node11</title>
<path fill="none" stroke="blueviolet" stroke-dasharray="5,2" d="M119.16,-190.74C129.6,-170.08 157.06,-122.16 196,-101.5 202.64,-97.98 210.03,-95.1 217.4,-92.77"/>
<text text-anchor="middle" x="168" y="-135.5" font-family="Helvetica,sans-Serif" font-size="10.00">qOS</text>
</g>
<!-- Node13 -->
<g id="node11" class="node">
<title>Node13</title>
<g id="a_node11"><a xlink:href="group__qstimers.html" target="_top" xlink:title="API interface for the STimers extension.">
<polygon fill="white" stroke="black" points="309,-56 220,-56 220,-37 309,-37 309,-56"/>
<text text-anchor="middle" x="264.5" y="-44" font-family="Helvetica,sans-Serif" font-size="10.00">Software&#45;Timers</text>
</a>
</g>
</g>
<!-- Node1&#45;&gt;Node13 -->
<g id="edge12" class="edge">
<title>Node1&#45;&gt;Node13</title>
<path fill="none" stroke="blueviolet" stroke-dasharray="5,2" d="M117.3,-190.75C122.95,-172.06 137.03,-130.42 158,-100.5 171.35,-81.45 175.69,-75.85 196,-64.5 203.31,-60.42 211.58,-57.23 219.76,-54.75"/>
<text text-anchor="middle" x="168" y="-103.5" font-family="Helvetica,sans-Serif" font-size="10.00">qOS</text>
</g>
<!-- Node12 -->
<g id="node12" class="node">
<title>Node12</title>
<g id="a_node12"><a xlink:href="group__qtaskmanip.html" target="_top" xlink:title="API interface to manage tasks.">
<polygon fill="white" stroke="black" points="307,-19 222,-19 222,0 307,0 307,-19"/>
<text text-anchor="middle" x="264.5" y="-7" font-family="Helvetica,sans-Serif" font-size="10.00">Managing tasks</text>
</a>
</g>
</g>
<!-- Node1&#45;&gt;Node12 -->
<g id="edge11" class="edge">
<title>Node1&#45;&gt;Node12</title>
<path fill="none" stroke="blueviolet" stroke-dasharray="5,2" d="M115.81,-190.74C119.33,-167.1 130.66,-105.54 158,-62.5 170.31,-43.12 175.88,-38.56 196,-27.5 203.97,-23.12 213.07,-19.76 221.94,-17.2"/>
<text text-anchor="middle" x="168" y="-65.5" font-family="Helvetica,sans-Serif" font-size="10.00">qOS</text>
</g>
<!-- Node2 -->
<g id="node13" class="node">
<title>Node2</title>
<g id="a_node13"><a xlink:href="group__qutility.html" target="_top" xlink:title=" ">
<polygon fill="white" stroke="black" points="50,-210 0,-210 0,-191 50,-191 50,-210"/>
<text text-anchor="middle" x="25" y="-198" font-family="Helvetica,sans-Serif" font-size="10.00">Utilities</text>
</a>
</g>
</g>
<!-- Node2&#45;&gt;Node1 -->
<g id="edge1" class="edge">
<title>Node2&#45;&gt;Node1</title>
<path fill="none" stroke="black" d="M60.15,-200.5C69,-200.5 78.38,-200.5 86.72,-200.5"/>
<polygon fill="black" stroke="black" points="60.1,-197 50.1,-200.5 60.1,-204 60.1,-197"/>
</g>
</g>
</svg>
