<?xml version="1.0" encoding="UTF-8" standalone="no"?>
<!DOCTYPE svg PUBLIC "-//W3C//DTD SVG 1.1//EN"
 "http://www.w3.org/Graphics/SVG/1.1/DTD/svg11.dtd">
<!-- Generated by graphviz version 2.49.3 (20211027.1534)
 -->
<!-- Title: Queues Pages: 1 -->
<svg width="417pt" height="446pt"
 viewBox="0.00 0.00 417.00 446.00" xmlns="http://www.w3.org/2000/svg" xmlns:xlink="http://www.w3.org/1999/xlink">
<g id="graph0" class="graph" transform="scale(1 1) rotate(0) translate(4 442)">
<title>Queues</title>
<polygon fill="white" stroke="transparent" points="-4,4 -4,-442 413,-442 413,4 -4,4"/>
<!-- Node4 -->
<g id="node1" class="node">
<title>Node4</title>
<g id="a_node1"><a xlink:href="group__qatcli.html" target="_top" xlink:title="API for the AT Command Line Interface extension.">
<polygon fill="white" stroke="black" points="409,-438 272,-438 272,-419 409,-419 409,-438"/>
<text text-anchor="middle" x="340.5" y="-426" font-family="Helvetica,sans-Serif" font-size="10.00">AT Command Line Interface</text>
</a>
</g>
</g>
<!-- Node3 -->
<g id="node2" class="node">
<title>Node3</title>
<g id="a_node2"><a xlink:href="group__qbsbuffers.html" target="_top" xlink:title="An interrupt&#45;safe byte&#45;sized ring buffer interface.">
<polygon fill="white" stroke="black" points="388,-401 293,-401 293,-382 388,-382 388,-401"/>
<text text-anchor="middle" x="340.5" y="-389" font-family="Helvetica,sans-Serif" font-size="10.00">Byte&#45;Sized buffers</text>
</a>
</g>
</g>
<!-- Node5 -->
<g id="node3" class="node">
<title>Node5</title>
<g id="a_node3"><a xlink:href="group__qclock.html" target="_top" xlink:title="Clock and time manipulation interface used by the entire OS.">
<polygon fill="white" stroke="black" points="361,-364 320,-364 320,-345 361,-345 361,-364"/>
<text text-anchor="middle" x="340.5" y="-352" font-family="Helvetica,sans-Serif" font-size="10.00">Clock</text>
</a>
</g>
</g>
<!-- Node6 -->
<g id="node4" class="node">
<title>Node6</title>
<g id="a_node4"><a xlink:href="group__qcoroutines.html" target="_top" xlink:title="API interface for the Co&#45;Routines extension.">
<polygon fill="white" stroke="black" points="375.5,-327 305.5,-327 305.5,-308 375.5,-308 375.5,-327"/>
<text text-anchor="middle" x="340.5" y="-315" font-family="Helvetica,sans-Serif" font-size="10.00">Co&#45;Routines</text>
</a>
</g>
</g>
<!-- Node7 -->
<g id="node5" class="node">
<title>Node7</title>
<g id="a_node5"><a xlink:href="group__qcritical.html" target="_top" xlink:title="APIs to handle entry/exit actions in Critical sections.">
<polygon fill="white" stroke="black" points="364,-290 317,-290 317,-271 364,-271 364,-290"/>
<text text-anchor="middle" x="340.5" y="-278" font-family="Helvetica,sans-Serif" font-size="10.00">Critical</text>
</a>
</g>
</g>
<!-- Node8 -->
<g id="node6" class="node">
<title>Node8</title>
<g id="a_node6"><a xlink:href="group__qedgecheck.html" target="_top" xlink:title="An interface to manage and simplify the value(with edge&#45;checking) of incoming digital&#45;signal groups.">
<polygon fill="white" stroke="black" points="391,-252.5 290,-252.5 290,-222.5 391,-222.5 391,-252.5"/>
<text text-anchor="start" x="298" y="-240.5" font-family="Helvetica,sans-Serif" font-size="10.00">I/O Groups for edge</text>
<text text-anchor="middle" x="340.5" y="-229.5" font-family="Helvetica,sans-Serif" font-size="10.00"> checking</text>
</a>
</g>
</g>
<!-- Node9 -->
<g id="node7" class="node">
<title>Node9</title>
<g id="a_node7"><a xlink:href="group__qfsm.html" target="_top" xlink:title="API interface of the Finite State Machines (FSM) extension.">
<polygon fill="white" stroke="black" points="395.5,-204 285.5,-204 285.5,-185 395.5,-185 395.5,-204"/>
<text text-anchor="middle" x="340.5" y="-192" font-family="Helvetica,sans-Serif" font-size="10.00">Finite State Machines</text>
</a>
</g>
</g>
<!-- Node14 -->
<g id="node8" class="node">
<title>Node14</title>
<g id="a_node8"><a xlink:href="group__qioutils.html" target="_top" xlink:title="API for input/output utilities and safe string interfaces.">
<polygon fill="white" stroke="black" points="367,-167 314,-167 314,-148 367,-148 367,-167"/>
<text text-anchor="middle" x="340.5" y="-155" font-family="Helvetica,sans-Serif" font-size="10.00">I/O Utils</text>
</a>
</g>
</g>
<!-- Node2 -->
<g id="node9" class="node">
<title>Node2</title>
<g id="a_node9"><a xlink:href="group__qpriv.html" target="_top" xlink:title="Inter&#45;Task communication primitives : Queues, Notifications and Event&#45;flags.">
<polygon fill="white" stroke="black" points="129,-225 0,-225 0,-206 129,-206 129,-225"/>
<text text-anchor="middle" x="64.5" y="-213" font-family="Helvetica,sans-Serif" font-size="10.00">Inter&#45;Task communication</text>
</a>
</g>
</g>
<!-- Node1 -->
<g id="node10" class="node">
<title>Node1</title>
<g id="a_node10"><a xlink:title="API interface to create and handle Queues.">
<polygon fill="#bfbfbf" stroke="black" points="216,-225 166,-225 166,-206 216,-206 216,-225"/>
<text text-anchor="middle" x="191" y="-213" font-family="Helvetica,sans-Serif" font-size="10.00">Queues</text>
</a>
</g>
</g>
<!-- Node2&#45;&gt;Node1 -->
<g id="edge1" class="edge">
<title>Node2&#45;&gt;Node1</title>
<path fill="none" stroke="black" d="M139.24,-215.5C148.77,-215.5 157.94,-215.5 165.79,-215.5"/>
<polygon fill="black" stroke="black" points="139.21,-212 129.21,-215.5 139.21,-219 139.21,-212"/>
</g>
<!-- Node1&#45;&gt;Node4 -->
<g id="edge3" class="edge">
<title>Node1&#45;&gt;Node4</title>
<path fill="none" stroke="blueviolet" stroke-dasharray="5,2" d="M192.6,-225.33C194.61,-251.7 202.85,-325.46 234,-376.5 245.81,-395.84 252.06,-399.73 272,-410.5 278.3,-413.9 285.28,-416.69 292.29,-418.97"/>
<text text-anchor="middle" x="244" y="-401.5" font-family="Helvetica,sans-Serif" font-size="10.00">qOS</text>
</g>
<!-- Node1&#45;&gt;Node3 -->
<g id="edge2" class="edge">
<title>Node1&#45;&gt;Node3</title>
<path fill="none" stroke="blueviolet" stroke-dasharray="5,2" d="M193.67,-225.05C197.76,-246.56 209.75,-299.83 234,-337.5 246.59,-357.06 251.69,-362.15 272,-373.5 278.46,-377.11 285.67,-380.02 292.91,-382.36"/>
<text text-anchor="middle" x="244" y="-364.5" font-family="Helvetica,sans-Serif" font-size="10.00">qOS</text>
</g>
<!-- Node1&#45;&gt;Node5 -->
<g id="edge4" class="edge">
<title>Node1&#45;&gt;Node5</title>
<path fill="none" stroke="blueviolet" stroke-dasharray="5,2" d="M194.85,-225.07C202.6,-249.13 226.58,-311.96 272,-336.5 287.05,-344.63 305.99,-349.26 319.98,-351.79"/>
<text text-anchor="middle" x="244" y="-325.5" font-family="Helvetica,sans-Serif" font-size="10.00">qOS</text>
</g>
<!-- Node1&#45;&gt;Node6 -->
<g id="edge5" class="edge">
<title>Node1&#45;&gt;Node6</title>
<path fill="none" stroke="blueviolet" stroke-dasharray="5,2" d="M198.07,-225.28C209.85,-243.32 237.71,-281.64 272,-299.5 282.33,-304.88 294.4,-308.76 305.46,-311.5"/>
<text text-anchor="middle" x="244" y="-290.5" font-family="Helvetica,sans-Serif" font-size="10.00">qOS</text>
</g>
<!-- Node1&#45;&gt;Node7 -->
<g id="edge6" class="edge">
<title>Node1&#45;&gt;Node7</title>
<path fill="none" stroke="blueviolet" stroke-dasharray="5,2" d="M207.88,-225.12C215.71,-229.82 225.31,-235.52 234,-240.5 250.74,-250.1 254.15,-254.17 272,-261.5 286.53,-267.47 303.55,-272.24 316.87,-275.52"/>
<text text-anchor="middle" x="244" y="-255.5" font-family="Helvetica,sans-Serif" font-size="10.00">qOS</text>
</g>
<!-- Node1&#45;&gt;Node8 -->
<g id="edge7" class="edge">
<title>Node1&#45;&gt;Node8</title>
<path fill="none" stroke="blueviolet" stroke-dasharray="5,2" d="M216.03,-219.08C235.95,-222.05 264.92,-226.38 289.8,-230.09"/>
<text text-anchor="middle" x="244" y="-228.5" font-family="Helvetica,sans-Serif" font-size="10.00">qOS</text>
</g>
<!-- Node1&#45;&gt;Node9 -->
<g id="edge8" class="edge">
<title>Node1&#45;&gt;Node9</title>
<path fill="none" stroke="blueviolet" stroke-dasharray="5,2" d="M216.28,-208.43C222.05,-206.95 228.21,-205.53 234,-204.5 250.58,-201.56 268.78,-199.45 285.33,-197.94"/>
<text text-anchor="middle" x="244" y="-207.5" font-family="Helvetica,sans-Serif" font-size="10.00">qOS</text>
</g>
<!-- Node1&#45;&gt;Node14 -->
<g id="edge13" class="edge">
<title>Node1&#45;&gt;Node14</title>
<path fill="none" stroke="blueviolet" stroke-dasharray="5,2" d="M204.31,-205.94C212.4,-200.01 223.41,-192.58 234,-187.5 259.93,-175.07 291.98,-166.87 313.9,-162.23"/>
<text text-anchor="middle" x="244" y="-190.5" font-family="Helvetica,sans-Serif" font-size="10.00">qOS</text>
</g>
<!-- Node11 -->
<g id="node11" class="node">
<title>Node11</title>
<g id="a_node11"><a xlink:href="group__qresponse.html" target="_top" xlink:title="API to simplify the handling of requested responses from terminal interfaces.">
<polygon fill="white" stroke="black" points="387.5,-130 293.5,-130 293.5,-111 387.5,-111 387.5,-130"/>
<text text-anchor="middle" x="340.5" y="-118" font-family="Helvetica,sans-Serif" font-size="10.00">Response handler</text>
</a>
</g>
</g>
<!-- Node1&#45;&gt;Node11 -->
<g id="edge10" class="edge">
<title>Node1&#45;&gt;Node11</title>
<path fill="none" stroke="blueviolet" stroke-dasharray="5,2" d="M198.71,-205.79C206.46,-194.98 219.95,-177.35 234,-164.5 249.1,-150.69 253.4,-147.04 272,-138.5 279.27,-135.16 287.29,-132.35 295.17,-130.01"/>
<text text-anchor="middle" x="244" y="-167.5" font-family="Helvetica,sans-Serif" font-size="10.00">qOS</text>
</g>
<!-- Node13 -->
<g id="node12" class="node">
<title>Node13</title>
<g id="a_node12"><a xlink:href="group__qstimers.html" target="_top" xlink:title="API interface for the STimers extension.">
<polygon fill="white" stroke="black" points="385,-93 296,-93 296,-74 385,-74 385,-93"/>
<text text-anchor="middle" x="340.5" y="-81" font-family="Helvetica,sans-Serif" font-size="10.00">Software&#45;Timers</text>
</a>
</g>
</g>
<!-- Node1&#45;&gt;Node13 -->
<g id="edge12" class="edge">
<title>Node1&#45;&gt;Node13</title>
<path fill="none" stroke="blueviolet" stroke-dasharray="5,2" d="M195.45,-205.94C201.55,-189.87 215.38,-156.9 234,-133.5 247.75,-116.22 252.42,-111.7 272,-101.5 279.42,-97.63 287.75,-94.54 295.95,-92.09"/>
<text text-anchor="middle" x="244" y="-136.5" font-family="Helvetica,sans-Serif" font-size="10.00">qOS</text>
</g>
<!-- Node10 -->
<g id="node13" class="node">
<title>Node10</title>
<g id="a_node13"><a xlink:href="group__qtaskcreation.html" target="_top" xlink:title="Kernel API interface to create/remove tasks and perform special OS operations.">
<polygon fill="white" stroke="black" points="391,-56 290,-56 290,-37 391,-37 391,-56"/>
<text text-anchor="middle" x="340.5" y="-44" font-family="Helvetica,sans-Serif" font-size="10.00">Scheduler Interface</text>
</a>
</g>
</g>
<!-- Node1&#45;&gt;Node10 -->
<g id="edge9" class="edge">
<title>Node1&#45;&gt;Node10</title>
<path fill="none" stroke="blueviolet" stroke-dasharray="5,2" d="M193.75,-205.98C197.94,-185.06 210.01,-134.12 234,-98.5 246.66,-79.7 252.06,-75.27 272,-64.5 278.3,-61.1 285.28,-58.31 292.29,-56.03"/>
<text text-anchor="middle" x="244" y="-101.5" font-family="Helvetica,sans-Serif" font-size="10.00">qOS</text>
</g>
<!-- Node12 -->
<g id="node14" class="node">
<title>Node12</title>
<g id="a_node14"><a xlink:href="group__qtaskmanip.html" target="_top" xlink:title="API interface to manage tasks.">
<polygon fill="white" stroke="black" points="383,-19 298,-19 298,0 383,0 383,-19"/>
<text text-anchor="middle" x="340.5" y="-7" font-family="Helvetica,sans-Serif" font-size="10.00">Managing tasks</text>
</a>
</g>
</g>
<!-- Node1&#45;&gt;Node12 -->
<g id="edge11" class="edge">
<title>Node1&#45;&gt;Node12</title>
<path fill="none" stroke="blueviolet" stroke-dasharray="5,2" d="M192.75,-205.73C195.08,-180.19 203.99,-110.06 234,-61.5 245.91,-42.22 252.06,-38.27 272,-27.5 280,-23.18 289.11,-19.84 297.99,-17.29"/>
<text text-anchor="middle" x="244" y="-64.5" font-family="Helvetica,sans-Serif" font-size="10.00">qOS</text>
</g>
</g>
</svg>
