<?xml version="1.0" encoding="UTF-8" standalone="no"?>
<!DOCTYPE svg PUBLIC "-//W3C//DTD SVG 1.1//EN"
 "http://www.w3.org/Graphics/SVG/1.1/DTD/svg11.dtd">
<!-- Generated by graphviz version 9.0.0 (20230911.1827)
 -->
<!-- Title: Utilities Pages: 1 -->
<svg width="202pt" height="273pt"
 viewBox="0.00 0.00 202.00 273.25" xmlns="http://www.w3.org/2000/svg" xmlns:xlink="http://www.w3.org/1999/xlink">
<g id="graph0" class="graph" transform="scale(1 1) rotate(0) translate(4 269.25)">
<title>Utilities</title>
<!-- Node3 -->
<g id="Node000003" class="node">
<title>Node3</title>
<g id="a_Node000003"><a xlink:href="group__qbsbuffers.html" target="_top" xlink:title="An interrupt&#45;safe byte&#45;sized ring buffer interface.">
<polygon fill="white" stroke="#666666" points="186.5,-265.25 92.5,-265.25 92.5,-246 186.5,-246 186.5,-265.25"/>
<text text-anchor="middle" x="139.5" y="-251.75" font-family="Helvetica,sans-Serif" font-size="10.00">Byte&#45;Sized buffers</text>
</a>
</g>
</g>
<!-- Node4 -->
<g id="Node000004" class="node">
<title>Node4</title>
<g id="a_Node000004"><a xlink:href="group__qedgecheck.html" target="_top" xlink:title="An interface to manage and simplify the value(with edge&#45;checking) of incoming digital&#45;signal groups.">
<polygon fill="white" stroke="#666666" points="189.5,-227.88 89.5,-227.88 89.5,-197.38 189.5,-197.38 189.5,-227.88"/>
<text text-anchor="start" x="97.5" y="-214.38" font-family="Helvetica,sans-Serif" font-size="10.00">I/O Groups for edge</text>
<text text-anchor="middle" x="139.5" y="-203.12" font-family="Helvetica,sans-Serif" font-size="10.00"> checking</text>
</a>
</g>
</g>
<!-- Node8 -->
<g id="Node000008" class="node">
<title>Node8</title>
<g id="a_Node000008"><a xlink:href="group__qflm.html" target="_top" xlink:title=" ">
<polygon fill="white" stroke="#666666" points="182.75,-179.25 96.25,-179.25 96.25,-160 182.75,-160 182.75,-179.25"/>
<text text-anchor="middle" x="139.5" y="-165.75" font-family="Helvetica,sans-Serif" font-size="10.00">Helper functions</text>
</a>
</g>
</g>
<!-- Node5 -->
<g id="Node000005" class="node">
<title>Node5</title>
<g id="a_Node000005"><a xlink:href="group__qioutils.html" target="_top" xlink:title="API for input/output utilities and safe string interfaces.">
<polygon fill="white" stroke="#666666" points="165.5,-142.25 113.5,-142.25 113.5,-123 165.5,-123 165.5,-142.25"/>
<text text-anchor="middle" x="139.5" y="-128.75" font-family="Helvetica,sans-Serif" font-size="10.00">I/O Utils</text>
</a>
</g>
</g>
<!-- Node2 -->
<g id="Node000002" class="node">
<title>Node2</title>
<g id="a_Node000002"><a xlink:href="group__qlists.html" target="_top" xlink:title="The provided list implementation uses a generic doubly&#45;linked approach in which each node,...">
<polygon fill="white" stroke="#666666" points="194,-104.88 85,-104.88 85,-74.38 194,-74.38 194,-104.88"/>
<text text-anchor="start" x="93" y="-91.38" font-family="Helvetica,sans-Serif" font-size="10.00">Generic double&#45;linked</text>
<text text-anchor="middle" x="139.5" y="-80.12" font-family="Helvetica,sans-Serif" font-size="10.00"> lists</text>
</a>
</g>
</g>
<!-- Node6 -->
<g id="Node000006" class="node">
<title>Node6</title>
<g id="a_Node000006"><a xlink:href="group__qresponse.html" target="_top" xlink:title="API to simplify the handling of requested responses from terminal interfaces.">
<polygon fill="white" stroke="#666666" points="186.12,-56.25 92.88,-56.25 92.88,-37 186.12,-37 186.12,-56.25"/>
<text text-anchor="middle" x="139.5" y="-42.75" font-family="Helvetica,sans-Serif" font-size="10.00">Response handler</text>
</a>
</g>
</g>
<!-- Node7 -->
<g id="Node000007" class="node">
<title>Node7</title>
<g id="a_Node000007"><a xlink:href="group__qtrace.html" target="_top" xlink:title=" ">
<polygon fill="white" stroke="#666666" points="159.88,-19.25 119.12,-19.25 119.12,0 159.88,0 159.88,-19.25"/>
<text text-anchor="middle" x="139.5" y="-5.75" font-family="Helvetica,sans-Serif" font-size="10.00">Trace</text>
</a>
</g>
</g>
<!-- Node1 -->
<g id="Node000001" class="node">
<title>Node1</title>
<g id="a_Node000001"><a xlink:title=" ">
<polygon fill="#999999" stroke="#666666" points="49,-142.25 0,-142.25 0,-123 49,-123 49,-142.25"/>
<text text-anchor="middle" x="24.5" y="-128.75" font-family="Helvetica,sans-Serif" font-size="10.00">Utilities</text>
</a>
</g>
</g>
<!-- Node1&#45;&gt;Node3 -->
<g id="edge2" class="edge">
<title>Node1&#45;&gt;Node3</title>
<path fill="none" stroke="black" d="M32.29,-153.2C40.99,-176.54 58.22,-214.25 85,-236.62 89.31,-240.23 94.35,-243.17 99.59,-245.56"/>
<polygon fill="black" stroke="black" points="35.64,-152.16 29.02,-143.89 29.03,-154.49 35.64,-152.16"/>
</g>
<!-- Node1&#45;&gt;Node4 -->
<g id="edge3" class="edge">
<title>Node1&#45;&gt;Node4</title>
<path fill="none" stroke="black" d="M41.62,-150.67C52.92,-162.55 68.83,-177.83 85,-188.62 89.49,-191.62 94.41,-194.4 99.4,-196.93"/>
<polygon fill="black" stroke="black" points="44.35,-148.46 34.99,-143.49 39.21,-153.21 44.35,-148.46"/>
</g>
<!-- Node1&#45;&gt;Node8 -->
<g id="edge7" class="edge">
<title>Node1&#45;&gt;Node8</title>
<path fill="none" stroke="black" d="M60.01,-143.93C75.22,-148.9 92.94,-154.71 107.69,-159.54"/>
<polygon fill="black" stroke="black" points="61.5,-140.73 50.9,-140.94 59.32,-147.38 61.5,-140.73"/>
</g>
<!-- Node1&#45;&gt;Node5 -->
<g id="edge4" class="edge">
<title>Node1&#45;&gt;Node5</title>
<path fill="none" stroke="black" d="M60.71,-132.62C77.78,-132.62 97.9,-132.62 113.4,-132.62"/>
<polygon fill="black" stroke="black" points="60.98,-129.13 50.98,-132.63 60.98,-136.13 60.98,-129.13"/>
</g>
<!-- Node1&#45;&gt;Node2 -->
<g id="edge1" class="edge">
<title>Node1&#45;&gt;Node2</title>
<path fill="none" stroke="black" d="M60.15,-119.44C71.86,-114.98 85.05,-109.97 97.21,-105.34"/>
<polygon fill="black" stroke="black" points="58.98,-116.14 50.88,-122.97 61.47,-122.68 58.98,-116.14"/>
</g>
<!-- Node1&#45;&gt;Node6 -->
<g id="edge5" class="edge">
<title>Node1&#45;&gt;Node6</title>
<path fill="none" stroke="black" d="M38.53,-113.25C49.4,-98.39 66.13,-78.34 85,-65.62 90.23,-62.1 96.19,-59.15 102.19,-56.71"/>
<polygon fill="black" stroke="black" points="35.74,-111.12 32.85,-121.32 41.47,-115.15 35.74,-111.12"/>
</g>
<!-- Node1&#45;&gt;Node7 -->
<g id="edge6" class="edge">
<title>Node1&#45;&gt;Node7</title>
<path fill="none" stroke="black" d="M32.17,-111.77C40.76,-88.14 57.89,-50 85,-27.62 94.6,-19.7 107.84,-15.21 118.75,-12.7"/>
<polygon fill="black" stroke="black" points="28.87,-110.62 28.94,-121.22 35.49,-112.89 28.87,-110.62"/>
</g>
</g>
</svg>
