<?xml version="1.0" encoding="UTF-8" standalone="no"?>
<!DOCTYPE svg PUBLIC "-//W3C//DTD SVG 1.1//EN"
 "http://www.w3.org/Graphics/SVG/1.1/DTD/svg11.dtd">
<!-- Generated by graphviz version 2.49.3 (20211027.1534)
 -->
<!-- Title: Co&#45;Routines Pages: 1 -->
<svg width="401pt" height="446pt"
 viewBox="0.00 0.00 401.00 446.00" xmlns="http://www.w3.org/2000/svg" xmlns:xlink="http://www.w3.org/1999/xlink">
<g id="graph0" class="graph" transform="scale(1 1) rotate(0) translate(4 442)">
<title>Co&#45;Routines</title>
<polygon fill="white" stroke="transparent" points="-4,4 -4,-442 397,-442 397,4 -4,4"/>
<!-- Node4 -->
<g id="node1" class="node">
<title>Node4</title>
<g id="a_node1"><a xlink:href="group__qatcli.html" target="_top" xlink:title="API for the AT Command Line Interface extension.">
<polygon fill="white" stroke="black" points="393,-438 256,-438 256,-419 393,-419 393,-438"/>
<text text-anchor="middle" x="324.5" y="-426" font-family="Helvetica,sans-Serif" font-size="10.00">AT Command Line Interface</text>
</a>
</g>
</g>
<!-- Node3 -->
<g id="node2" class="node">
<title>Node3</title>
<g id="a_node2"><a xlink:href="group__qbsbuffers.html" target="_top" xlink:title="An interrupt&#45;safe byte&#45;sized ring buffer interface.">
<polygon fill="white" stroke="black" points="372,-401 277,-401 277,-382 372,-382 372,-401"/>
<text text-anchor="middle" x="324.5" y="-389" font-family="Helvetica,sans-Serif" font-size="10.00">Byte&#45;Sized buffers</text>
</a>
</g>
</g>
<!-- Node5 -->
<g id="node3" class="node">
<title>Node5</title>
<g id="a_node3"><a xlink:href="group__qclock.html" target="_top" xlink:title="Clock and time manipulation interface used by the entire OS.">
<polygon fill="white" stroke="black" points="345,-364 304,-364 304,-345 345,-345 345,-364"/>
<text text-anchor="middle" x="324.5" y="-352" font-family="Helvetica,sans-Serif" font-size="10.00">Clock</text>
</a>
</g>
</g>
<!-- Node1 -->
<g id="node4" class="node">
<title>Node1</title>
<g id="a_node4"><a xlink:title="API interface for the Co&#45;Routines extension.">
<polygon fill="#bfbfbf" stroke="black" points="200,-222 130,-222 130,-203 200,-203 200,-222"/>
<text text-anchor="middle" x="165" y="-210" font-family="Helvetica,sans-Serif" font-size="10.00">Co&#45;Routines</text>
</a>
</g>
</g>
<!-- Node1&#45;&gt;Node4 -->
<g id="edge3" class="edge">
<title>Node1&#45;&gt;Node4</title>
<path fill="none" stroke="blueviolet" stroke-dasharray="5,2" d="M167.3,-222.05C171.22,-248.36 184.78,-323.41 218,-375.5 230.34,-394.86 235.88,-399.44 256,-410.5 262.16,-413.89 269,-416.66 275.89,-418.93"/>
<text text-anchor="middle" x="228" y="-401.5" font-family="Helvetica,sans-Serif" font-size="10.00">qOS</text>
</g>
<!-- Node1&#45;&gt;Node3 -->
<g id="edge2" class="edge">
<title>Node1&#45;&gt;Node3</title>
<path fill="none" stroke="blueviolet" stroke-dasharray="5,2" d="M168.6,-222.17C174.76,-243.93 191.72,-297.91 218,-336.5 231.27,-355.98 235.5,-361.86 256,-373.5 262.43,-377.15 269.63,-380.09 276.87,-382.44"/>
<text text-anchor="middle" x="228" y="-363.5" font-family="Helvetica,sans-Serif" font-size="10.00">qOS</text>
</g>
<!-- Node1&#45;&gt;Node5 -->
<g id="edge4" class="edge">
<title>Node1&#45;&gt;Node5</title>
<path fill="none" stroke="blueviolet" stroke-dasharray="5,2" d="M169.65,-222.1C179.39,-246.26 208.58,-309.58 256,-336.5 270.87,-344.94 289.84,-349.55 303.88,-351.98"/>
<text text-anchor="middle" x="228" y="-324.5" font-family="Helvetica,sans-Serif" font-size="10.00">qOS</text>
</g>
<!-- Node6 -->
<g id="node5" class="node">
<title>Node6</title>
<g id="a_node5"><a xlink:href="group__qcritical.html" target="_top" xlink:title="APIs to handle entry/exit actions in Critical sections.">
<polygon fill="white" stroke="black" points="348,-327 301,-327 301,-308 348,-308 348,-327"/>
<text text-anchor="middle" x="324.5" y="-315" font-family="Helvetica,sans-Serif" font-size="10.00">Critical</text>
</a>
</g>
</g>
<!-- Node1&#45;&gt;Node6 -->
<g id="edge5" class="edge">
<title>Node1&#45;&gt;Node6</title>
<path fill="none" stroke="blueviolet" stroke-dasharray="5,2" d="M173.31,-222.08C187.36,-239.84 219.96,-277.94 256,-298.5 269.85,-306.4 287.2,-311.19 300.84,-313.99"/>
<text text-anchor="middle" x="228" y="-287.5" font-family="Helvetica,sans-Serif" font-size="10.00">qOS</text>
</g>
<!-- Node7 -->
<g id="node6" class="node">
<title>Node7</title>
<g id="a_node6"><a xlink:href="group__qedgecheck.html" target="_top" xlink:title="An interface to manage and simplify the value(with edge&#45;checking) of incoming digital&#45;signal groups.">
<polygon fill="white" stroke="black" points="375,-289.5 274,-289.5 274,-259.5 375,-259.5 375,-289.5"/>
<text text-anchor="start" x="282" y="-277.5" font-family="Helvetica,sans-Serif" font-size="10.00">I/O Groups for edge</text>
<text text-anchor="middle" x="324.5" y="-266.5" font-family="Helvetica,sans-Serif" font-size="10.00"> checking</text>
</a>
</g>
</g>
<!-- Node1&#45;&gt;Node7 -->
<g id="edge6" class="edge">
<title>Node1&#45;&gt;Node7</title>
<path fill="none" stroke="blueviolet" stroke-dasharray="5,2" d="M186.08,-222.22C195.67,-226.74 207.34,-232.09 218,-236.5 237.69,-244.66 259.84,-252.79 278.74,-259.42"/>
<text text-anchor="middle" x="228" y="-247.5" font-family="Helvetica,sans-Serif" font-size="10.00">qOS</text>
</g>
<!-- Node8 -->
<g id="node7" class="node">
<title>Node8</title>
<g id="a_node7"><a xlink:href="group__qfsm.html" target="_top" xlink:title="API interface of the Finite State Machines (FSM) extension.">
<polygon fill="white" stroke="black" points="379.5,-241 269.5,-241 269.5,-222 379.5,-222 379.5,-241"/>
<text text-anchor="middle" x="324.5" y="-229" font-family="Helvetica,sans-Serif" font-size="10.00">Finite State Machines</text>
</a>
</g>
</g>
<!-- Node1&#45;&gt;Node8 -->
<g id="edge7" class="edge">
<title>Node1&#45;&gt;Node8</title>
<path fill="none" stroke="blueviolet" stroke-dasharray="5,2" d="M200.18,-216.62C220.35,-219.06 246.35,-222.19 269.26,-224.96"/>
<text text-anchor="middle" x="228" y="-224.5" font-family="Helvetica,sans-Serif" font-size="10.00">qOS</text>
</g>
<!-- Node14 -->
<g id="node8" class="node">
<title>Node14</title>
<g id="a_node8"><a xlink:href="group__qioutils.html" target="_top" xlink:title="API for input/output utilities and safe string interfaces.">
<polygon fill="white" stroke="black" points="351,-204 298,-204 298,-185 351,-185 351,-204"/>
<text text-anchor="middle" x="324.5" y="-192" font-family="Helvetica,sans-Serif" font-size="10.00">I/O Utils</text>
</a>
</g>
</g>
<!-- Node1&#45;&gt;Node14 -->
<g id="edge13" class="edge">
<title>Node1&#45;&gt;Node14</title>
<path fill="none" stroke="blueviolet" stroke-dasharray="5,2" d="M196.83,-202.98C203.73,-201.19 211.07,-199.55 218,-198.5 245,-194.41 276.31,-193.72 297.77,-193.87"/>
<text text-anchor="middle" x="228" y="-201.5" font-family="Helvetica,sans-Serif" font-size="10.00">qOS</text>
</g>
<!-- Node10 -->
<g id="node10" class="node">
<title>Node10</title>
<g id="a_node10"><a xlink:href="group__qqueues.html" target="_top" xlink:title="API interface to create and handle Queues.">
<polygon fill="white" stroke="black" points="349.5,-167 299.5,-167 299.5,-148 349.5,-148 349.5,-167"/>
<text text-anchor="middle" x="324.5" y="-155" font-family="Helvetica,sans-Serif" font-size="10.00">Queues</text>
</a>
</g>
</g>
<!-- Node1&#45;&gt;Node10 -->
<g id="edge9" class="edge">
<title>Node1&#45;&gt;Node10</title>
<path fill="none" stroke="blueviolet" stroke-dasharray="5,2" d="M179.51,-202.83C189.66,-195.98 204.14,-187.04 218,-181.5 244.86,-170.75 277.58,-164.25 299.39,-160.78"/>
<text text-anchor="middle" x="228" y="-184.5" font-family="Helvetica,sans-Serif" font-size="10.00">qOS</text>
</g>
<!-- Node11 -->
<g id="node11" class="node">
<title>Node11</title>
<g id="a_node11"><a xlink:href="group__qresponse.html" target="_top" xlink:title="API to simplify the handling of requested responses from terminal interfaces.">
<polygon fill="white" stroke="black" points="371.5,-130 277.5,-130 277.5,-111 371.5,-111 371.5,-130"/>
<text text-anchor="middle" x="324.5" y="-118" font-family="Helvetica,sans-Serif" font-size="10.00">Response handler</text>
</a>
</g>
</g>
<!-- Node1&#45;&gt;Node11 -->
<g id="edge10" class="edge">
<title>Node1&#45;&gt;Node11</title>
<path fill="none" stroke="blueviolet" stroke-dasharray="5,2" d="M174.18,-202.92C183.91,-191.88 200.99,-173.57 218,-160.5 233.48,-148.61 237.97,-145.97 256,-138.5 263.84,-135.25 272.44,-132.43 280.8,-130.05"/>
<text text-anchor="middle" x="228" y="-163.5" font-family="Helvetica,sans-Serif" font-size="10.00">qOS</text>
</g>
<!-- Node13 -->
<g id="node12" class="node">
<title>Node13</title>
<g id="a_node12"><a xlink:href="group__qstimers.html" target="_top" xlink:title="API interface for the STimers extension.">
<polygon fill="white" stroke="black" points="369,-93 280,-93 280,-74 369,-74 369,-93"/>
<text text-anchor="middle" x="324.5" y="-81" font-family="Helvetica,sans-Serif" font-size="10.00">Software&#45;Timers</text>
</a>
</g>
</g>
<!-- Node1&#45;&gt;Node13 -->
<g id="edge12" class="edge">
<title>Node1&#45;&gt;Node13</title>
<path fill="none" stroke="blueviolet" stroke-dasharray="5,2" d="M170.37,-202.81C181.14,-180.23 211.37,-124.31 256,-101.5 263.45,-97.69 271.79,-94.63 280,-92.19"/>
<text text-anchor="middle" x="228" y="-133.5" font-family="Helvetica,sans-Serif" font-size="10.00">qOS</text>
</g>
<!-- Node9 -->
<g id="node13" class="node">
<title>Node9</title>
<g id="a_node13"><a xlink:href="group__qtaskcreation.html" target="_top" xlink:title="Kernel API interface to create/remove tasks and perform special OS operations.">
<polygon fill="white" stroke="black" points="375,-56 274,-56 274,-37 375,-37 375,-56"/>
<text text-anchor="middle" x="324.5" y="-44" font-family="Helvetica,sans-Serif" font-size="10.00">Scheduler Interface</text>
</a>
</g>
</g>
<!-- Node1&#45;&gt;Node9 -->
<g id="edge8" class="edge">
<title>Node1&#45;&gt;Node9</title>
<path fill="none" stroke="blueviolet" stroke-dasharray="5,2" d="M169.03,-202.74C175.67,-182.27 192.97,-133.9 218,-99.5 231.51,-80.93 235.88,-75.56 256,-64.5 262.16,-61.11 269,-58.34 275.89,-56.07"/>
<text text-anchor="middle" x="228" y="-102.5" font-family="Helvetica,sans-Serif" font-size="10.00">qOS</text>
</g>
<!-- Node12 -->
<g id="node14" class="node">
<title>Node12</title>
<g id="a_node14"><a xlink:href="group__qtaskmanip.html" target="_top" xlink:title="API interface to manage tasks.">
<polygon fill="white" stroke="black" points="367,-19 282,-19 282,0 367,0 367,-19"/>
<text text-anchor="middle" x="324.5" y="-7" font-family="Helvetica,sans-Serif" font-size="10.00">Managing tasks</text>
</a>
</g>
</g>
<!-- Node1&#45;&gt;Node12 -->
<g id="edge11" class="edge">
<title>Node1&#45;&gt;Node12</title>
<path fill="none" stroke="blueviolet" stroke-dasharray="5,2" d="M167.56,-202.91C171.99,-177.86 186.4,-109.08 218,-61.5 230.54,-42.62 236.06,-38.27 256,-27.5 264,-23.18 273.11,-19.84 281.99,-17.29"/>
<text text-anchor="middle" x="228" y="-64.5" font-family="Helvetica,sans-Serif" font-size="10.00">qOS</text>
</g>
<!-- Node2 -->
<g id="node9" class="node">
<title>Node2</title>
<g id="a_node9"><a xlink:href="group__qmodules.html" target="_top" xlink:title=" ">
<polygon fill="white" stroke="black" points="93,-222 0,-222 0,-203 93,-203 93,-222"/>
<text text-anchor="middle" x="46.5" y="-210" font-family="Helvetica,sans-Serif" font-size="10.00">Kernel extensions</text>
</a>
</g>
</g>
<!-- Node2&#45;&gt;Node1 -->
<g id="edge1" class="edge">
<title>Node2&#45;&gt;Node1</title>
<path fill="none" stroke="black" d="M103.38,-212.5C112.45,-212.5 121.6,-212.5 129.95,-212.5"/>
<polygon fill="black" stroke="black" points="103.21,-209 93.21,-212.5 103.21,-216 103.21,-209"/>
</g>
</g>
</svg>
