<?xml version="1.0" encoding="UTF-8" standalone="no"?>
<!DOCTYPE svg PUBLIC "-//W3C//DTD SVG 1.1//EN"
 "http://www.w3.org/Graphics/SVG/1.1/DTD/svg11.dtd">
<!-- Generated by graphviz version 2.49.3 (20211027.1534)
 -->
<!-- Title: Scheduler Interface Pages: 1 -->
<svg width="433pt" height="446pt"
 viewBox="0.00 0.00 433.00 446.00" xmlns="http://www.w3.org/2000/svg" xmlns:xlink="http://www.w3.org/1999/xlink">
<g id="graph0" class="graph" transform="scale(1 1) rotate(0) translate(4 442)">
<title>Scheduler Interface</title>
<polygon fill="white" stroke="transparent" points="-4,4 -4,-442 429,-442 429,4 -4,4"/>
<!-- Node4 -->
<g id="node1" class="node">
<title>Node4</title>
<g id="a_node1"><a xlink:href="group__qatcli.html" target="_top" xlink:title="API for the AT Command Line Interface extension.">
<polygon fill="white" stroke="black" points="425,-438 288,-438 288,-419 425,-419 425,-438"/>
<text text-anchor="middle" x="356.5" y="-426" font-family="Helvetica,sans-Serif" font-size="10.00">AT Command Line Interface</text>
</a>
</g>
</g>
<!-- Node3 -->
<g id="node2" class="node">
<title>Node3</title>
<g id="a_node2"><a xlink:href="group__qbsbuffers.html" target="_top" xlink:title="An interrupt&#45;safe byte&#45;sized ring buffer interface.">
<polygon fill="white" stroke="black" points="404,-401 309,-401 309,-382 404,-382 404,-401"/>
<text text-anchor="middle" x="356.5" y="-389" font-family="Helvetica,sans-Serif" font-size="10.00">Byte&#45;Sized buffers</text>
</a>
</g>
</g>
<!-- Node5 -->
<g id="node3" class="node">
<title>Node5</title>
<g id="a_node3"><a xlink:href="group__qclock.html" target="_top" xlink:title="Clock and time manipulation interface used by the entire OS.">
<polygon fill="white" stroke="black" points="377,-364 336,-364 336,-345 377,-345 377,-364"/>
<text text-anchor="middle" x="356.5" y="-352" font-family="Helvetica,sans-Serif" font-size="10.00">Clock</text>
</a>
</g>
</g>
<!-- Node6 -->
<g id="node4" class="node">
<title>Node6</title>
<g id="a_node4"><a xlink:href="group__qcoroutines.html" target="_top" xlink:title="API interface for the Co&#45;Routines extension.">
<polygon fill="white" stroke="black" points="391.5,-327 321.5,-327 321.5,-308 391.5,-308 391.5,-327"/>
<text text-anchor="middle" x="356.5" y="-315" font-family="Helvetica,sans-Serif" font-size="10.00">Co&#45;Routines</text>
</a>
</g>
</g>
<!-- Node7 -->
<g id="node5" class="node">
<title>Node7</title>
<g id="a_node5"><a xlink:href="group__qcritical.html" target="_top" xlink:title="APIs to handle entry/exit actions in Critical sections.">
<polygon fill="white" stroke="black" points="380,-290 333,-290 333,-271 380,-271 380,-290"/>
<text text-anchor="middle" x="356.5" y="-278" font-family="Helvetica,sans-Serif" font-size="10.00">Critical</text>
</a>
</g>
</g>
<!-- Node8 -->
<g id="node6" class="node">
<title>Node8</title>
<g id="a_node6"><a xlink:href="group__qedgecheck.html" target="_top" xlink:title="An interface to manage and simplify the value(with edge&#45;checking) of incoming digital&#45;signal groups.">
<polygon fill="white" stroke="black" points="407,-252.5 306,-252.5 306,-222.5 407,-222.5 407,-252.5"/>
<text text-anchor="start" x="314" y="-240.5" font-family="Helvetica,sans-Serif" font-size="10.00">I/O Groups for edge</text>
<text text-anchor="middle" x="356.5" y="-229.5" font-family="Helvetica,sans-Serif" font-size="10.00"> checking</text>
</a>
</g>
</g>
<!-- Node9 -->
<g id="node7" class="node">
<title>Node9</title>
<g id="a_node7"><a xlink:href="group__qfsm.html" target="_top" xlink:title="API interface of the Finite State Machines (FSM) extension.">
<polygon fill="white" stroke="black" points="411.5,-204 301.5,-204 301.5,-185 411.5,-185 411.5,-204"/>
<text text-anchor="middle" x="356.5" y="-192" font-family="Helvetica,sans-Serif" font-size="10.00">Finite State Machines</text>
</a>
</g>
</g>
<!-- Node14 -->
<g id="node8" class="node">
<title>Node14</title>
<g id="a_node8"><a xlink:href="group__qioutils.html" target="_top" xlink:title="API for input/output utilities and safe string interfaces.">
<polygon fill="white" stroke="black" points="383,-167 330,-167 330,-148 383,-148 383,-167"/>
<text text-anchor="middle" x="356.5" y="-155" font-family="Helvetica,sans-Serif" font-size="10.00">I/O Utils</text>
</a>
</g>
</g>
<!-- Node2 -->
<g id="node9" class="node">
<title>Node2</title>
<g id="a_node9"><a xlink:href="group__qos.html" target="_top" xlink:title=" ">
<polygon fill="white" stroke="black" points="94,-225 0,-225 0,-206 94,-206 94,-225"/>
<text text-anchor="middle" x="47" y="-213" font-family="Helvetica,sans-Serif" font-size="10.00">Operative System</text>
</a>
</g>
</g>
<!-- Node1 -->
<g id="node13" class="node">
<title>Node1</title>
<g id="a_node13"><a xlink:title="Kernel API interface to create/remove tasks and perform special OS operations.">
<polygon fill="#bfbfbf" stroke="black" points="232,-225 131,-225 131,-206 232,-206 232,-225"/>
<text text-anchor="middle" x="181.5" y="-213" font-family="Helvetica,sans-Serif" font-size="10.00">Scheduler Interface</text>
</a>
</g>
</g>
<!-- Node2&#45;&gt;Node1 -->
<g id="edge1" class="edge">
<title>Node2&#45;&gt;Node1</title>
<path fill="none" stroke="black" d="M104.47,-215.5C113.23,-215.5 122.21,-215.5 130.8,-215.5"/>
<polygon fill="black" stroke="black" points="104.34,-212 94.34,-215.5 104.34,-219 104.34,-212"/>
</g>
<!-- Node10 -->
<g id="node10" class="node">
<title>Node10</title>
<g id="a_node10"><a xlink:href="group__qqueues.html" target="_top" xlink:title="API interface to create and handle Queues.">
<polygon fill="white" stroke="black" points="381.5,-130 331.5,-130 331.5,-111 381.5,-111 381.5,-130"/>
<text text-anchor="middle" x="356.5" y="-118" font-family="Helvetica,sans-Serif" font-size="10.00">Queues</text>
</a>
</g>
</g>
<!-- Node11 -->
<g id="node11" class="node">
<title>Node11</title>
<g id="a_node11"><a xlink:href="group__qresponse.html" target="_top" xlink:title="API to simplify the handling of requested responses from terminal interfaces.">
<polygon fill="white" stroke="black" points="403.5,-93 309.5,-93 309.5,-74 403.5,-74 403.5,-93"/>
<text text-anchor="middle" x="356.5" y="-81" font-family="Helvetica,sans-Serif" font-size="10.00">Response handler</text>
</a>
</g>
</g>
<!-- Node13 -->
<g id="node12" class="node">
<title>Node13</title>
<g id="a_node12"><a xlink:href="group__qstimers.html" target="_top" xlink:title="API interface for the STimers extension.">
<polygon fill="white" stroke="black" points="401,-56 312,-56 312,-37 401,-37 401,-56"/>
<text text-anchor="middle" x="356.5" y="-44" font-family="Helvetica,sans-Serif" font-size="10.00">Software&#45;Timers</text>
</a>
</g>
</g>
<!-- Node1&#45;&gt;Node4 -->
<g id="edge3" class="edge">
<title>Node1&#45;&gt;Node4</title>
<path fill="none" stroke="blueviolet" stroke-dasharray="5,2" d="M185.13,-225.05C192.5,-250.7 215.07,-322.58 250,-373.5 263.33,-392.94 267.5,-398.86 288,-410.5 294.01,-413.91 300.69,-416.7 307.45,-418.97"/>
<text text-anchor="middle" x="260" y="-400.5" font-family="Helvetica,sans-Serif" font-size="10.00">qOS</text>
</g>
<!-- Node1&#45;&gt;Node3 -->
<g id="edge2" class="edge">
<title>Node1&#45;&gt;Node3</title>
<path fill="none" stroke="blueviolet" stroke-dasharray="5,2" d="M185.46,-225.36C194.8,-254.54 226.77,-340.42 288,-373.5 294.4,-376.96 301.51,-379.78 308.64,-382.08"/>
<text text-anchor="middle" x="260" y="-361.5" font-family="Helvetica,sans-Serif" font-size="10.00">qOS</text>
</g>
<!-- Node1&#45;&gt;Node5 -->
<g id="edge4" class="edge">
<title>Node1&#45;&gt;Node5</title>
<path fill="none" stroke="blueviolet" stroke-dasharray="5,2" d="M187.57,-225.15C200.6,-248.84 237.78,-309.85 288,-336.5 303,-344.46 321.78,-349.1 335.72,-351.66"/>
<text text-anchor="middle" x="260" y="-327.5" font-family="Helvetica,sans-Serif" font-size="10.00">qOS</text>
</g>
<!-- Node1&#45;&gt;Node6 -->
<g id="edge5" class="edge">
<title>Node1&#45;&gt;Node6</title>
<path fill="none" stroke="blueviolet" stroke-dasharray="5,2" d="M191.73,-225.11C208.99,-242.53 248.06,-279.39 288,-299.5 298.29,-304.68 310.24,-308.5 321.2,-311.25"/>
<text text-anchor="middle" x="260" y="-291.5" font-family="Helvetica,sans-Serif" font-size="10.00">qOS</text>
</g>
<!-- Node1&#45;&gt;Node7 -->
<g id="edge6" class="edge">
<title>Node1&#45;&gt;Node7</title>
<path fill="none" stroke="blueviolet" stroke-dasharray="5,2" d="M202.4,-225.15C223.36,-235.09 257.51,-250.62 288,-261.5 302.68,-266.74 319.55,-271.49 332.76,-274.93"/>
<text text-anchor="middle" x="260" y="-256.5" font-family="Helvetica,sans-Serif" font-size="10.00">qOS</text>
</g>
<!-- Node1&#45;&gt;Node8 -->
<g id="edge7" class="edge">
<title>Node1&#45;&gt;Node8</title>
<path fill="none" stroke="blueviolet" stroke-dasharray="5,2" d="M232.07,-221.8C255.24,-224.75 282.75,-228.25 305.92,-231.19"/>
<text text-anchor="middle" x="260" y="-229.5" font-family="Helvetica,sans-Serif" font-size="10.00">qOS</text>
</g>
<!-- Node1&#45;&gt;Node9 -->
<g id="edge8" class="edge">
<title>Node1&#45;&gt;Node9</title>
<path fill="none" stroke="blueviolet" stroke-dasharray="5,2" d="M232.21,-207.01C238.2,-206.1 244.23,-205.24 250,-204.5 266.7,-202.35 284.94,-200.46 301.48,-198.92"/>
<text text-anchor="middle" x="260" y="-207.5" font-family="Helvetica,sans-Serif" font-size="10.00">qOS</text>
</g>
<!-- Node1&#45;&gt;Node14 -->
<g id="edge13" class="edge">
<title>Node1&#45;&gt;Node14</title>
<path fill="none" stroke="blueviolet" stroke-dasharray="5,2" d="M204.2,-205.93C217.34,-200.28 234.5,-193.15 250,-187.5 266.64,-181.43 270.99,-180.45 288,-175.5 301.74,-171.5 317.16,-167.36 329.78,-164.07"/>
<text text-anchor="middle" x="260" y="-190.5" font-family="Helvetica,sans-Serif" font-size="10.00">qOS</text>
</g>
<!-- Node1&#45;&gt;Node10 -->
<g id="edge9" class="edge">
<title>Node1&#45;&gt;Node10</title>
<path fill="none" stroke="blueviolet" stroke-dasharray="5,2" d="M192.73,-205.98C210.67,-189.79 249.53,-156.87 288,-138.5 301.68,-131.97 318.09,-127.52 331.31,-124.68"/>
<text text-anchor="middle" x="260" y="-163.5" font-family="Helvetica,sans-Serif" font-size="10.00">qOS</text>
</g>
<!-- Node1&#45;&gt;Node11 -->
<g id="edge10" class="edge">
<title>Node1&#45;&gt;Node11</title>
<path fill="none" stroke="blueviolet" stroke-dasharray="5,2" d="M188.18,-205.83C202.01,-183.25 239.88,-127.03 288,-101.5 294.64,-97.98 302.03,-95.1 309.4,-92.77"/>
<text text-anchor="middle" x="260" y="-132.5" font-family="Helvetica,sans-Serif" font-size="10.00">qOS</text>
</g>
<!-- Node1&#45;&gt;Node13 -->
<g id="edge12" class="edge">
<title>Node1&#45;&gt;Node13</title>
<path fill="none" stroke="blueviolet" stroke-dasharray="5,2" d="M185.82,-205.8C195.94,-177.88 229.37,-97.26 288,-64.5 295.31,-60.42 303.58,-57.23 311.76,-54.75"/>
<text text-anchor="middle" x="260" y="-95.5" font-family="Helvetica,sans-Serif" font-size="10.00">qOS</text>
</g>
<!-- Node12 -->
<g id="node14" class="node">
<title>Node12</title>
<g id="a_node14"><a xlink:href="group__qtaskmanip.html" target="_top" xlink:title="API interface to manage tasks.">
<polygon fill="white" stroke="black" points="399,-19 314,-19 314,0 399,0 399,-19"/>
<text text-anchor="middle" x="356.5" y="-7" font-family="Helvetica,sans-Serif" font-size="10.00">Managing tasks</text>
</a>
</g>
</g>
<!-- Node1&#45;&gt;Node12 -->
<g id="edge11" class="edge">
<title>Node1&#45;&gt;Node12</title>
<path fill="none" stroke="blueviolet" stroke-dasharray="5,2" d="M185.29,-205.93C192.88,-180.9 215.67,-112.08 250,-63.5 263.43,-44.5 267.69,-38.85 288,-27.5 295.94,-23.06 305.02,-19.68 313.89,-17.12"/>
<text text-anchor="middle" x="260" y="-66.5" font-family="Helvetica,sans-Serif" font-size="10.00">qOS</text>
</g>
</g>
</svg>
