<?xml version="1.0" encoding="UTF-8" standalone="no"?>
<!DOCTYPE svg PUBLIC "-//W3C//DTD SVG 1.1//EN"
 "http://www.w3.org/Graphics/SVG/1.1/DTD/svg11.dtd">
<!-- Generated by graphviz version 12.1.2 (20240928.0832)
 -->
<!-- Title: Utilities Pages: 1 -->
<svg width="202pt" height="224pt"
 viewBox="0.00 0.00 202.00 224.25" xmlns="http://www.w3.org/2000/svg" xmlns:xlink="http://www.w3.org/1999/xlink">
<g id="graph0" class="graph" transform="scale(1 1) rotate(0) translate(4 220.25)">
<title>Utilities</title>
<!-- Node3 -->
<g id="Node000003" class="node">
<title>Node3</title>
<g id="a_Node000003"><a xlink:href="group__qbsbuffers.html" target="_top" xlink:title="An interrupt&#45;safe byte&#45;sized ring buffer interface.">
<polygon fill="white" stroke="#666666" points="186.5,-216.25 92.5,-216.25 92.5,-197 186.5,-197 186.5,-216.25"/>
<text text-anchor="middle" x="139.5" y="-202.75" font-family="Helvetica,sans-Serif" font-size="10.00">Byte&#45;Sized buffers</text>
</a>
</g>
</g>
<!-- Node7 -->
<g id="Node000007" class="node">
<title>Node7</title>
<g id="a_Node000007"><a xlink:href="group__qflm.html" target="_top" xlink:title=" ">
<polygon fill="white" stroke="#666666" points="182.75,-179.25 96.25,-179.25 96.25,-160 182.75,-160 182.75,-179.25"/>
<text text-anchor="middle" x="139.5" y="-165.75" font-family="Helvetica,sans-Serif" font-size="10.00">Helper functions</text>
</a>
</g>
</g>
<!-- Node4 -->
<g id="Node000004" class="node">
<title>Node4</title>
<g id="a_Node000004"><a xlink:href="group__qinput.html" target="_top" xlink:title="A comprehensive event class for efficient, maintainable working with input channels.">
<polygon fill="white" stroke="#666666" points="192.12,-142.25 86.88,-142.25 86.88,-123 192.12,-123 192.12,-142.25"/>
<text text-anchor="middle" x="139.5" y="-128.75" font-family="Helvetica,sans-Serif" font-size="10.00">Input channel events</text>
</a>
</g>
</g>
<!-- Node5 -->
<g id="Node000005" class="node">
<title>Node5</title>
<g id="a_Node000005"><a xlink:href="group__qioutils.html" target="_top" xlink:title="API for input/output utilities and safe string interfaces.">
<polygon fill="white" stroke="#666666" points="165.5,-105.25 113.5,-105.25 113.5,-86 165.5,-86 165.5,-105.25"/>
<text text-anchor="middle" x="139.5" y="-91.75" font-family="Helvetica,sans-Serif" font-size="10.00">I/O Utils</text>
</a>
</g>
</g>
<!-- Node2 -->
<g id="Node000002" class="node">
<title>Node2</title>
<g id="a_Node000002"><a xlink:href="group__qlists.html" target="_top" xlink:title="The provided list implementation uses a generic doubly&#45;linked approach in which each node,...">
<polygon fill="white" stroke="#666666" points="194,-67.88 85,-67.88 85,-37.38 194,-37.38 194,-67.88"/>
<text text-anchor="start" x="93" y="-54.38" font-family="Helvetica,sans-Serif" font-size="10.00">Generic double&#45;linked</text>
<text text-anchor="middle" x="139.5" y="-43.12" font-family="Helvetica,sans-Serif" font-size="10.00"> lists</text>
</a>
</g>
</g>
<!-- Node6 -->
<g id="Node000006" class="node">
<title>Node6</title>
<g id="a_Node000006"><a xlink:href="group__qresponse.html" target="_top" xlink:title="API to simplify the handling of requested responses from terminal interfaces.">
<polygon fill="white" stroke="#666666" points="186.12,-19.25 92.88,-19.25 92.88,0 186.12,0 186.12,-19.25"/>
<text text-anchor="middle" x="139.5" y="-5.75" font-family="Helvetica,sans-Serif" font-size="10.00">Response handler</text>
</a>
</g>
</g>
<!-- Node1 -->
<g id="Node000001" class="node">
<title>Node1</title>
<g id="a_Node000001"><a xlink:title=" ">
<polygon fill="#999999" stroke="#666666" points="49,-123.25 0,-123.25 0,-104 49,-104 49,-123.25"/>
<text text-anchor="middle" x="24.5" y="-109.75" font-family="Helvetica,sans-Serif" font-size="10.00">Utilities</text>
</a>
</g>
</g>
<!-- Node1&#45;&gt;Node3 -->
<g id="edge2" class="edge">
<title>Node1&#45;&gt;Node3</title>
<path fill="none" stroke="black" d="M36.5,-133.11C46.96,-150.01 64.16,-173.99 85,-188.62 89.49,-191.78 94.58,-194.42 99.78,-196.61"/>
<polygon fill="black" stroke="black" points="39.77,-131.77 31.66,-124.96 33.75,-135.34 39.77,-131.77"/>
</g>
<!-- Node1&#45;&gt;Node7 -->
<g id="edge6" class="edge">
<title>Node1&#45;&gt;Node7</title>
<path fill="none" stroke="black" d="M48.57,-130.22C59.3,-137.44 72.43,-145.61 85,-151.62 91.1,-154.54 97.8,-157.2 104.33,-159.52"/>
<polygon fill="black" stroke="black" points="50.59,-127.36 40.37,-124.55 46.61,-133.12 50.59,-127.36"/>
</g>
<!-- Node1&#45;&gt;Node4 -->
<g id="edge3" class="edge">
<title>Node1&#45;&gt;Node4</title>
<path fill="none" stroke="black" d="M60.58,-119.52C68.85,-120.91 77.84,-122.43 86.67,-123.91"/>
<polygon fill="black" stroke="black" points="61.4,-116.11 50.96,-117.91 60.24,-123.02 61.4,-116.11"/>
</g>
<!-- Node1&#45;&gt;Node5 -->
<g id="edge4" class="edge">
<title>Node1&#45;&gt;Node5</title>
<path fill="none" stroke="black" d="M60.71,-108.02C77.78,-105.3 97.9,-102.09 113.4,-99.62"/>
<polygon fill="black" stroke="black" points="60.28,-104.54 50.96,-109.57 61.39,-111.45 60.28,-104.54"/>
</g>
<!-- Node1&#45;&gt;Node2 -->
<g id="edge1" class="edge">
<title>Node1&#45;&gt;Node2</title>
<path fill="none" stroke="black" d="M49.77,-97.5C60.39,-90.72 73.12,-82.95 85,-76.62 90.39,-73.76 96.2,-70.91 101.92,-68.24"/>
<polygon fill="black" stroke="black" points="48.09,-94.42 41.6,-102.8 51.9,-100.29 48.09,-94.42"/>
</g>
<!-- Node1&#45;&gt;Node6 -->
<g id="edge5" class="edge">
<title>Node1&#45;&gt;Node6</title>
<path fill="none" stroke="black" d="M34.87,-93.67C44.82,-74.5 62.24,-45.95 85,-28.62 89.71,-25.04 95.14,-22.1 100.71,-19.68"/>
<polygon fill="black" stroke="black" points="31.87,-91.85 30.57,-102.37 38.14,-94.96 31.87,-91.85"/>
</g>
</g>
</svg>
