<?xml version="1.0" encoding="UTF-8" standalone="no"?>
<!DOCTYPE svg PUBLIC "-//W3C//DTD SVG 1.1//EN"
 "http://www.w3.org/Graphics/SVG/1.1/DTD/svg11.dtd">
<!-- Generated by graphviz version 9.0.0 (20230911.1827)
 -->
<!-- Title: Notifications Pages: 1 -->
<svg width="243pt" height="64pt"
 viewBox="0.00 0.00 242.50 64.25" xmlns="http://www.w3.org/2000/svg" xmlns:xlink="http://www.w3.org/1999/xlink">
<g id="graph0" class="graph" transform="scale(1 1) rotate(0) translate(4 60.25)">
<title>Notifications</title>
<!-- Node1 -->
<g id="Node000001" class="node">
<title>Node1</title>
<g id="a_Node000001"><a xlink:title="API interface for task Notifications.">
<polygon fill="#999999" stroke="#666666" points="234.5,-37.25 164.5,-37.25 164.5,-18 234.5,-18 234.5,-37.25"/>
<text text-anchor="middle" x="199.5" y="-23.75" font-family="Helvetica,sans-Serif" font-size="10.00">Notifications</text>
</a>
</g>
</g>
<!-- Node2 -->
<g id="Node000002" class="node">
<title>Node2</title>
<g id="a_Node000002"><a xlink:href="group__qpriv.html" target="_top" xlink:title="Inter&#45;Task communication primitives : Queues, Notifications and Event&#45;flags.">
<polygon fill="white" stroke="#666666" points="128.5,-56.25 0,-56.25 0,-37 128.5,-37 128.5,-56.25"/>
<text text-anchor="middle" x="64.25" y="-42.75" font-family="Helvetica,sans-Serif" font-size="10.00">Inter&#45;Task communication</text>
</a>
</g>
</g>
<!-- Node2&#45;&gt;Node1 -->
<g id="edge1" class="edge">
<title>Node2&#45;&gt;Node1</title>
<path fill="none" stroke="black" d="M139.9,-35.98C148.33,-34.78 156.59,-33.6 164.13,-32.53"/>
<polygon fill="black" stroke="black" points="139.66,-32.48 130.25,-37.36 140.65,-39.41 139.66,-32.48"/>
</g>
<!-- Node3 -->
<g id="Node000003" class="node">
<title>Node3</title>
<g id="a_Node000003"><a xlink:href="group__qtaskcreation.html" target="_top" xlink:title="Kernel API interface to create/remove tasks and perform special OS operations.">
<polygon fill="white" stroke="#666666" points="114.25,-19.25 14.25,-19.25 14.25,0 114.25,0 114.25,-19.25"/>
<text text-anchor="middle" x="64.25" y="-5.75" font-family="Helvetica,sans-Serif" font-size="10.00">Scheduler Interface</text>
</a>
</g>
</g>
<!-- Node3&#45;&gt;Node1 -->
<g id="edge2" class="edge">
<title>Node3&#45;&gt;Node1</title>
<path fill="none" stroke="black" d="M125.86,-17.81C138.95,-19.58 152.35,-21.39 164.02,-22.97"/>
<polygon fill="black" stroke="black" points="126.37,-14.35 115.99,-16.48 125.43,-21.29 126.37,-14.35"/>
</g>
</g>
</svg>
