<?xml version="1.0" encoding="UTF-8" standalone="no"?>
<!DOCTYPE svg PUBLIC "-//W3C//DTD SVG 1.1//EN"
 "http://www.w3.org/Graphics/SVG/1.1/DTD/svg11.dtd">
<!-- Generated by graphviz version 2.49.3 (20211027.1534)
 -->
<!-- Title: Finite State Machines Pages: 1 -->
<svg width="441pt" height="409pt"
 viewBox="0.00 0.00 441.00 409.00" xmlns="http://www.w3.org/2000/svg" xmlns:xlink="http://www.w3.org/1999/xlink">
<g id="graph0" class="graph" transform="scale(1 1) rotate(0) translate(4 405)">
<title>Finite State Machines</title>
<polygon fill="white" stroke="transparent" points="-4,4 -4,-405 437,-405 437,4 -4,4"/>
<!-- Node4 -->
<g id="node1" class="node">
<title>Node4</title>
<g id="a_node1"><a xlink:href="group__qatcli.html" target="_top" xlink:title="API for the AT Command Line Interface extension.">
<polygon fill="white" stroke="black" points="433,-401 296,-401 296,-382 433,-382 433,-401"/>
<text text-anchor="middle" x="364.5" y="-389" font-family="Helvetica,sans-Serif" font-size="10.00">AT Command Line Interface</text>
</a>
</g>
</g>
<!-- Node3 -->
<g id="node2" class="node">
<title>Node3</title>
<g id="a_node2"><a xlink:href="group__qbsbuffers.html" target="_top" xlink:title="An interrupt&#45;safe byte&#45;sized ring buffer interface.">
<polygon fill="white" stroke="black" points="412,-364 317,-364 317,-345 412,-345 412,-364"/>
<text text-anchor="middle" x="364.5" y="-352" font-family="Helvetica,sans-Serif" font-size="10.00">Byte&#45;Sized buffers</text>
</a>
</g>
</g>
<!-- Node5 -->
<g id="node3" class="node">
<title>Node5</title>
<g id="a_node3"><a xlink:href="group__qclock.html" target="_top" xlink:title="Clock and time manipulation interface used by the entire OS.">
<polygon fill="white" stroke="black" points="385,-327 344,-327 344,-308 385,-308 385,-327"/>
<text text-anchor="middle" x="364.5" y="-315" font-family="Helvetica,sans-Serif" font-size="10.00">Clock</text>
</a>
</g>
</g>
<!-- Node6 -->
<g id="node4" class="node">
<title>Node6</title>
<g id="a_node4"><a xlink:href="group__qcoroutines.html" target="_top" xlink:title="API interface for the Co&#45;Routines extension.">
<polygon fill="white" stroke="black" points="399.5,-290 329.5,-290 329.5,-271 399.5,-271 399.5,-290"/>
<text text-anchor="middle" x="364.5" y="-278" font-family="Helvetica,sans-Serif" font-size="10.00">Co&#45;Routines</text>
</a>
</g>
</g>
<!-- Node7 -->
<g id="node5" class="node">
<title>Node7</title>
<g id="a_node5"><a xlink:href="group__qcritical.html" target="_top" xlink:title="APIs to handle entry/exit actions in Critical sections.">
<polygon fill="white" stroke="black" points="388,-253 341,-253 341,-234 388,-234 388,-253"/>
<text text-anchor="middle" x="364.5" y="-241" font-family="Helvetica,sans-Serif" font-size="10.00">Critical</text>
</a>
</g>
</g>
<!-- Node8 -->
<g id="node6" class="node">
<title>Node8</title>
<g id="a_node6"><a xlink:href="group__qedgecheck.html" target="_top" xlink:title="An interface to manage and simplify the value(with edge&#45;checking) of incoming digital&#45;signal groups.">
<polygon fill="white" stroke="black" points="415,-215.5 314,-215.5 314,-185.5 415,-185.5 415,-215.5"/>
<text text-anchor="start" x="322" y="-203.5" font-family="Helvetica,sans-Serif" font-size="10.00">I/O Groups for edge</text>
<text text-anchor="middle" x="364.5" y="-192.5" font-family="Helvetica,sans-Serif" font-size="10.00"> checking</text>
</a>
</g>
</g>
<!-- Node1 -->
<g id="node7" class="node">
<title>Node1</title>
<g id="a_node7"><a xlink:title="API interface of the Finite State Machines (FSM) extension.">
<polygon fill="#bfbfbf" stroke="black" points="240,-210 130,-210 130,-191 240,-191 240,-210"/>
<text text-anchor="middle" x="185" y="-198" font-family="Helvetica,sans-Serif" font-size="10.00">Finite State Machines</text>
</a>
</g>
</g>
<!-- Node1&#45;&gt;Node4 -->
<g id="edge3" class="edge">
<title>Node1&#45;&gt;Node4</title>
<path fill="none" stroke="blueviolet" stroke-dasharray="5,2" d="M189.69,-210.2C198.91,-233.69 224.64,-294.95 258,-338.5 271.96,-356.73 275.88,-362.44 296,-373.5 302.16,-376.89 309,-379.66 315.89,-381.93"/>
<text text-anchor="middle" x="268" y="-364.5" font-family="Helvetica,sans-Serif" font-size="10.00">qOS</text>
</g>
<!-- Node1&#45;&gt;Node3 -->
<g id="edge2" class="edge">
<title>Node1&#45;&gt;Node3</title>
<path fill="none" stroke="blueviolet" stroke-dasharray="5,2" d="M190.49,-210.21C202.99,-235.99 240.91,-306.23 296,-336.5 302.48,-340.06 309.71,-342.95 316.96,-345.28"/>
<text text-anchor="middle" x="268" y="-326.5" font-family="Helvetica,sans-Serif" font-size="10.00">qOS</text>
</g>
<!-- Node1&#45;&gt;Node5 -->
<g id="edge4" class="edge">
<title>Node1&#45;&gt;Node5</title>
<path fill="none" stroke="blueviolet" stroke-dasharray="5,2" d="M193.65,-210.18C210.09,-230.26 250.93,-276.47 296,-299.5 311.12,-307.23 329.89,-311.89 343.8,-314.52"/>
<text text-anchor="middle" x="268" y="-289.5" font-family="Helvetica,sans-Serif" font-size="10.00">qOS</text>
</g>
<!-- Node1&#45;&gt;Node6 -->
<g id="edge5" class="edge">
<title>Node1&#45;&gt;Node6</title>
<path fill="none" stroke="blueviolet" stroke-dasharray="5,2" d="M200.35,-210.16C220.8,-223.55 259.86,-247.78 296,-262.5 306.56,-266.8 318.46,-270.37 329.3,-273.17"/>
<text text-anchor="middle" x="268" y="-256.5" font-family="Helvetica,sans-Serif" font-size="10.00">qOS</text>
</g>
<!-- Node1&#45;&gt;Node7 -->
<g id="edge6" class="edge">
<title>Node1&#45;&gt;Node7</title>
<path fill="none" stroke="blueviolet" stroke-dasharray="5,2" d="M225.39,-210.04C260.83,-218.63 311.67,-230.94 340.76,-237.99"/>
<text text-anchor="middle" x="268" y="-225.5" font-family="Helvetica,sans-Serif" font-size="10.00">qOS</text>
</g>
<!-- Node1&#45;&gt;Node8 -->
<g id="edge7" class="edge">
<title>Node1&#45;&gt;Node8</title>
<path fill="none" stroke="blueviolet" stroke-dasharray="5,2" d="M240.22,-200.5C263.67,-200.5 290.93,-200.5 313.84,-200.5"/>
<text text-anchor="middle" x="268" y="-203.5" font-family="Helvetica,sans-Serif" font-size="10.00">qOS</text>
</g>
<!-- Node13 -->
<g id="node8" class="node">
<title>Node13</title>
<g id="a_node8"><a xlink:href="group__qioutils.html" target="_top" xlink:title="API for input/output utilities and safe string interfaces.">
<polygon fill="white" stroke="black" points="391,-167 338,-167 338,-148 391,-148 391,-167"/>
<text text-anchor="middle" x="364.5" y="-155" font-family="Helvetica,sans-Serif" font-size="10.00">I/O Utils</text>
</a>
</g>
</g>
<!-- Node1&#45;&gt;Node13 -->
<g id="edge12" class="edge">
<title>Node1&#45;&gt;Node13</title>
<path fill="none" stroke="blueviolet" stroke-dasharray="5,2" d="M225.39,-190.96C259.71,-182.64 308.46,-170.83 337.93,-163.7"/>
<text text-anchor="middle" x="268" y="-186.5" font-family="Helvetica,sans-Serif" font-size="10.00">qOS</text>
</g>
<!-- Node9 -->
<g id="node10" class="node">
<title>Node9</title>
<g id="a_node10"><a xlink:href="group__qqueues.html" target="_top" xlink:title="API interface to create and handle Queues.">
<polygon fill="white" stroke="black" points="389.5,-130 339.5,-130 339.5,-111 389.5,-111 389.5,-130"/>
<text text-anchor="middle" x="364.5" y="-118" font-family="Helvetica,sans-Serif" font-size="10.00">Queues</text>
</a>
</g>
</g>
<!-- Node1&#45;&gt;Node9 -->
<g id="edge8" class="edge">
<title>Node1&#45;&gt;Node9</title>
<path fill="none" stroke="blueviolet" stroke-dasharray="5,2" d="M200.35,-190.84C220.8,-177.45 259.86,-153.22 296,-138.5 309.93,-132.83 326.2,-128.42 339.28,-125.4"/>
<text text-anchor="middle" x="268" y="-159.5" font-family="Helvetica,sans-Serif" font-size="10.00">qOS</text>
</g>
<!-- Node10 -->
<g id="node11" class="node">
<title>Node10</title>
<g id="a_node11"><a xlink:href="group__qresponse.html" target="_top" xlink:title="API to simplify the handling of requested responses from terminal interfaces.">
<polygon fill="white" stroke="black" points="411.5,-93 317.5,-93 317.5,-74 411.5,-74 411.5,-93"/>
<text text-anchor="middle" x="364.5" y="-81" font-family="Helvetica,sans-Serif" font-size="10.00">Response handler</text>
</a>
</g>
</g>
<!-- Node1&#45;&gt;Node10 -->
<g id="edge9" class="edge">
<title>Node1&#45;&gt;Node10</title>
<path fill="none" stroke="blueviolet" stroke-dasharray="5,2" d="M193.65,-190.82C210.09,-170.74 250.93,-124.53 296,-101.5 302.7,-98.08 310.11,-95.26 317.5,-92.95"/>
<text text-anchor="middle" x="268" y="-129.5" font-family="Helvetica,sans-Serif" font-size="10.00">qOS</text>
</g>
<!-- Node12 -->
<g id="node12" class="node">
<title>Node12</title>
<g id="a_node12"><a xlink:href="group__qstimers.html" target="_top" xlink:title="API interface for the STimers extension.">
<polygon fill="white" stroke="black" points="409,-56 320,-56 320,-37 409,-37 409,-56"/>
<text text-anchor="middle" x="364.5" y="-44" font-family="Helvetica,sans-Serif" font-size="10.00">Software&#45;Timers</text>
</a>
</g>
</g>
<!-- Node1&#45;&gt;Node12 -->
<g id="edge11" class="edge">
<title>Node1&#45;&gt;Node12</title>
<path fill="none" stroke="blueviolet" stroke-dasharray="5,2" d="M190.49,-190.79C202.99,-165.01 240.91,-94.77 296,-64.5 303.33,-60.47 311.62,-57.3 319.81,-54.83"/>
<text text-anchor="middle" x="268" y="-96.5" font-family="Helvetica,sans-Serif" font-size="10.00">qOS</text>
</g>
<!-- Node11 -->
<g id="node13" class="node">
<title>Node11</title>
<g id="a_node13"><a xlink:href="group__qtaskmanip.html" target="_top" xlink:title="API interface to manage tasks.">
<polygon fill="white" stroke="black" points="407,-19 322,-19 322,0 407,0 407,-19"/>
<text text-anchor="middle" x="364.5" y="-7" font-family="Helvetica,sans-Serif" font-size="10.00">Managing tasks</text>
</a>
</g>
</g>
<!-- Node1&#45;&gt;Node11 -->
<g id="edge10" class="edge">
<title>Node1&#45;&gt;Node11</title>
<path fill="none" stroke="blueviolet" stroke-dasharray="5,2" d="M189.69,-190.8C198.91,-167.31 224.64,-106.05 258,-62.5 271.96,-44.27 275.88,-38.56 296,-27.5 303.97,-23.12 313.07,-19.76 321.94,-17.2"/>
<text text-anchor="middle" x="268" y="-65.5" font-family="Helvetica,sans-Serif" font-size="10.00">qOS</text>
</g>
<!-- Node2 -->
<g id="node9" class="node">
<title>Node2</title>
<g id="a_node9"><a xlink:href="group__qmodules.html" target="_top" xlink:title=" ">
<polygon fill="white" stroke="black" points="93,-210 0,-210 0,-191 93,-191 93,-210"/>
<text text-anchor="middle" x="46.5" y="-198" font-family="Helvetica,sans-Serif" font-size="10.00">Kernel extensions</text>
</a>
</g>
</g>
<!-- Node2&#45;&gt;Node1 -->
<g id="edge1" class="edge">
<title>Node2&#45;&gt;Node1</title>
<path fill="none" stroke="black" d="M103.61,-200.5C112.18,-200.5 121.01,-200.5 129.54,-200.5"/>
<polygon fill="black" stroke="black" points="103.33,-197 93.33,-200.5 103.33,-204 103.33,-197"/>
</g>
</g>
</svg>
