<?xml version="1.0" encoding="UTF-8" standalone="no"?>
<!DOCTYPE svg PUBLIC "-//W3C//DTD SVG 1.1//EN"
 "http://www.w3.org/Graphics/SVG/1.1/DTD/svg11.dtd">
<!-- Generated by graphviz version 2.49.3 (20211027.1534)
 -->
<!-- Title: Finite State Machines Pages: 1 -->
<svg width="441pt" height="446pt"
 viewBox="0.00 0.00 441.00 446.00" xmlns="http://www.w3.org/2000/svg" xmlns:xlink="http://www.w3.org/1999/xlink">
<g id="graph0" class="graph" transform="scale(1 1) rotate(0) translate(4 442)">
<title>Finite State Machines</title>
<polygon fill="white" stroke="transparent" points="-4,4 -4,-442 437,-442 437,4 -4,4"/>
<!-- Node4 -->
<g id="node1" class="node">
<title>Node4</title>
<g id="a_node1"><a xlink:href="group__qatcli.html" target="_top" xlink:title="API for the AT Command Line Interface extension.">
<polygon fill="white" stroke="black" points="433,-438 296,-438 296,-419 433,-419 433,-438"/>
<text text-anchor="middle" x="364.5" y="-426" font-family="Helvetica,sans-Serif" font-size="10.00">AT Command Line Interface</text>
</a>
</g>
</g>
<!-- Node3 -->
<g id="node2" class="node">
<title>Node3</title>
<g id="a_node2"><a xlink:href="group__qbsbuffers.html" target="_top" xlink:title="An interrupt&#45;safe byte&#45;sized ring buffer interface.">
<polygon fill="white" stroke="black" points="412,-401 317,-401 317,-382 412,-382 412,-401"/>
<text text-anchor="middle" x="364.5" y="-389" font-family="Helvetica,sans-Serif" font-size="10.00">Byte&#45;Sized buffers</text>
</a>
</g>
</g>
<!-- Node5 -->
<g id="node3" class="node">
<title>Node5</title>
<g id="a_node3"><a xlink:href="group__qclock.html" target="_top" xlink:title="Clock and time manipulation interface used by the entire OS.">
<polygon fill="white" stroke="black" points="385,-364 344,-364 344,-345 385,-345 385,-364"/>
<text text-anchor="middle" x="364.5" y="-352" font-family="Helvetica,sans-Serif" font-size="10.00">Clock</text>
</a>
</g>
</g>
<!-- Node6 -->
<g id="node4" class="node">
<title>Node6</title>
<g id="a_node4"><a xlink:href="group__qcoroutines.html" target="_top" xlink:title="API interface for the Co&#45;Routines extension.">
<polygon fill="white" stroke="black" points="399.5,-327 329.5,-327 329.5,-308 399.5,-308 399.5,-327"/>
<text text-anchor="middle" x="364.5" y="-315" font-family="Helvetica,sans-Serif" font-size="10.00">Co&#45;Routines</text>
</a>
</g>
</g>
<!-- Node7 -->
<g id="node5" class="node">
<title>Node7</title>
<g id="a_node5"><a xlink:href="group__qcritical.html" target="_top" xlink:title="APIs to handle entry/exit actions in Critical sections.">
<polygon fill="white" stroke="black" points="388,-290 341,-290 341,-271 388,-271 388,-290"/>
<text text-anchor="middle" x="364.5" y="-278" font-family="Helvetica,sans-Serif" font-size="10.00">Critical</text>
</a>
</g>
</g>
<!-- Node8 -->
<g id="node6" class="node">
<title>Node8</title>
<g id="a_node6"><a xlink:href="group__qedgecheck.html" target="_top" xlink:title="An interface to manage and simplify the value(with edge&#45;checking) of incoming digital&#45;signal groups.">
<polygon fill="white" stroke="black" points="415,-252.5 314,-252.5 314,-222.5 415,-222.5 415,-252.5"/>
<text text-anchor="start" x="322" y="-240.5" font-family="Helvetica,sans-Serif" font-size="10.00">I/O Groups for edge</text>
<text text-anchor="middle" x="364.5" y="-229.5" font-family="Helvetica,sans-Serif" font-size="10.00"> checking</text>
</a>
</g>
</g>
<!-- Node1 -->
<g id="node7" class="node">
<title>Node1</title>
<g id="a_node7"><a xlink:title="API interface of the Finite State Machines (FSM) extension.">
<polygon fill="#bfbfbf" stroke="black" points="240,-225 130,-225 130,-206 240,-206 240,-225"/>
<text text-anchor="middle" x="185" y="-213" font-family="Helvetica,sans-Serif" font-size="10.00">Finite State Machines</text>
</a>
</g>
</g>
<!-- Node1&#45;&gt;Node4 -->
<g id="edge3" class="edge">
<title>Node1&#45;&gt;Node4</title>
<path fill="none" stroke="blueviolet" stroke-dasharray="5,2" d="M188.96,-225.04C197.18,-250.66 222.09,-322.47 258,-373.5 271.56,-392.78 275.5,-398.86 296,-410.5 302.01,-413.91 308.69,-416.7 315.45,-418.97"/>
<text text-anchor="middle" x="268" y="-400.5" font-family="Helvetica,sans-Serif" font-size="10.00">qOS</text>
</g>
<!-- Node1&#45;&gt;Node3 -->
<g id="edge2" class="edge">
<title>Node1&#45;&gt;Node3</title>
<path fill="none" stroke="blueviolet" stroke-dasharray="5,2" d="M189.25,-225.32C199.46,-254.38 233.95,-339.98 296,-373.5 302.4,-376.96 309.51,-379.78 316.64,-382.08"/>
<text text-anchor="middle" x="268" y="-361.5" font-family="Helvetica,sans-Serif" font-size="10.00">qOS</text>
</g>
<!-- Node1&#45;&gt;Node5 -->
<g id="edge4" class="edge">
<title>Node1&#45;&gt;Node5</title>
<path fill="none" stroke="blueviolet" stroke-dasharray="5,2" d="M191.44,-225.09C205.37,-248.64 244.84,-309.35 296,-336.5 311,-344.46 329.78,-349.1 343.72,-351.66"/>
<text text-anchor="middle" x="268" y="-327.5" font-family="Helvetica,sans-Serif" font-size="10.00">qOS</text>
</g>
<!-- Node1&#45;&gt;Node6 -->
<g id="edge5" class="edge">
<title>Node1&#45;&gt;Node6</title>
<path fill="none" stroke="blueviolet" stroke-dasharray="5,2" d="M195.71,-225.08C213.85,-242.47 254.8,-279.27 296,-299.5 306.34,-304.58 318.3,-308.37 329.26,-311.12"/>
<text text-anchor="middle" x="268" y="-291.5" font-family="Helvetica,sans-Serif" font-size="10.00">qOS</text>
</g>
<!-- Node1&#45;&gt;Node7 -->
<g id="edge6" class="edge">
<title>Node1&#45;&gt;Node7</title>
<path fill="none" stroke="blueviolet" stroke-dasharray="5,2" d="M206.79,-225.09C228.69,-234.98 264.33,-250.47 296,-261.5 310.72,-266.63 327.59,-271.38 340.79,-274.84"/>
<text text-anchor="middle" x="268" y="-257.5" font-family="Helvetica,sans-Serif" font-size="10.00">qOS</text>
</g>
<!-- Node1&#45;&gt;Node8 -->
<g id="edge7" class="edge">
<title>Node1&#45;&gt;Node8</title>
<path fill="none" stroke="blueviolet" stroke-dasharray="5,2" d="M240.22,-222.22C263.67,-225.13 290.93,-228.51 313.84,-231.35"/>
<text text-anchor="middle" x="268" y="-229.5" font-family="Helvetica,sans-Serif" font-size="10.00">qOS</text>
</g>
<!-- Node14 -->
<g id="node8" class="node">
<title>Node14</title>
<g id="a_node8"><a xlink:href="group__qioutils.html" target="_top" xlink:title="API for input/output utilities and safe string interfaces.">
<polygon fill="white" stroke="black" points="391,-204 338,-204 338,-185 391,-185 391,-204"/>
<text text-anchor="middle" x="364.5" y="-192" font-family="Helvetica,sans-Serif" font-size="10.00">I/O Utils</text>
</a>
</g>
</g>
<!-- Node1&#45;&gt;Node14 -->
<g id="edge13" class="edge">
<title>Node1&#45;&gt;Node14</title>
<path fill="none" stroke="blueviolet" stroke-dasharray="5,2" d="M240.21,-206.88C246.2,-206.03 252.23,-205.21 258,-204.5 285.21,-201.14 316.48,-198.3 337.87,-196.52"/>
<text text-anchor="middle" x="268" y="-207.5" font-family="Helvetica,sans-Serif" font-size="10.00">qOS</text>
</g>
<!-- Node10 -->
<g id="node10" class="node">
<title>Node10</title>
<g id="a_node10"><a xlink:href="group__qqueues.html" target="_top" xlink:title="API interface to create and handle Queues.">
<polygon fill="white" stroke="black" points="389.5,-167 339.5,-167 339.5,-148 389.5,-148 389.5,-167"/>
<text text-anchor="middle" x="364.5" y="-155" font-family="Helvetica,sans-Serif" font-size="10.00">Queues</text>
</a>
</g>
</g>
<!-- Node1&#45;&gt;Node10 -->
<g id="edge9" class="edge">
<title>Node1&#45;&gt;Node10</title>
<path fill="none" stroke="blueviolet" stroke-dasharray="5,2" d="M209.53,-205.9C223.52,-200.31 241.68,-193.24 258,-187.5 274.71,-181.62 278.99,-180.45 296,-175.5 310.32,-171.33 326.47,-167.01 339.37,-163.65"/>
<text text-anchor="middle" x="268" y="-190.5" font-family="Helvetica,sans-Serif" font-size="10.00">qOS</text>
</g>
<!-- Node11 -->
<g id="node11" class="node">
<title>Node11</title>
<g id="a_node11"><a xlink:href="group__qresponse.html" target="_top" xlink:title="API to simplify the handling of requested responses from terminal interfaces.">
<polygon fill="white" stroke="black" points="411.5,-130 317.5,-130 317.5,-111 411.5,-111 411.5,-130"/>
<text text-anchor="middle" x="364.5" y="-118" font-family="Helvetica,sans-Serif" font-size="10.00">Response handler</text>
</a>
</g>
</g>
<!-- Node1&#45;&gt;Node11 -->
<g id="edge10" class="edge">
<title>Node1&#45;&gt;Node11</title>
<path fill="none" stroke="blueviolet" stroke-dasharray="5,2" d="M197.05,-205.74C216,-189.5 256.48,-156.9 296,-138.5 303.15,-135.17 311.02,-132.38 318.78,-130.05"/>
<text text-anchor="middle" x="268" y="-161.5" font-family="Helvetica,sans-Serif" font-size="10.00">qOS</text>
</g>
<!-- Node13 -->
<g id="node12" class="node">
<title>Node13</title>
<g id="a_node12"><a xlink:href="group__qstimers.html" target="_top" xlink:title="API interface for the STimers extension.">
<polygon fill="white" stroke="black" points="409,-93 320,-93 320,-74 409,-74 409,-93"/>
<text text-anchor="middle" x="364.5" y="-81" font-family="Helvetica,sans-Serif" font-size="10.00">Software&#45;Timers</text>
</a>
</g>
</g>
<!-- Node1&#45;&gt;Node13 -->
<g id="edge12" class="edge">
<title>Node1&#45;&gt;Node13</title>
<path fill="none" stroke="blueviolet" stroke-dasharray="5,2" d="M192.07,-205.9C206.81,-183.46 246.92,-127.54 296,-101.5 303.39,-97.58 311.7,-94.46 319.9,-92"/>
<text text-anchor="middle" x="268" y="-129.5" font-family="Helvetica,sans-Serif" font-size="10.00">qOS</text>
</g>
<!-- Node9 -->
<g id="node13" class="node">
<title>Node9</title>
<g id="a_node13"><a xlink:href="group__qtaskcreation.html" target="_top" xlink:title="Kernel API interface to create/remove tasks and perform special OS operations.">
<polygon fill="white" stroke="black" points="415,-56 314,-56 314,-37 415,-37 415,-56"/>
<text text-anchor="middle" x="364.5" y="-44" font-family="Helvetica,sans-Serif" font-size="10.00">Scheduler Interface</text>
</a>
</g>
</g>
<!-- Node1&#45;&gt;Node9 -->
<g id="edge8" class="edge">
<title>Node1&#45;&gt;Node9</title>
<path fill="none" stroke="blueviolet" stroke-dasharray="5,2" d="M189.57,-205.76C200.44,-177.74 236.07,-96.87 296,-64.5 302.3,-61.1 309.28,-58.31 316.29,-56.03"/>
<text text-anchor="middle" x="268" y="-95.5" font-family="Helvetica,sans-Serif" font-size="10.00">qOS</text>
</g>
<!-- Node12 -->
<g id="node14" class="node">
<title>Node12</title>
<g id="a_node14"><a xlink:href="group__qtaskmanip.html" target="_top" xlink:title="API interface to manage tasks.">
<polygon fill="white" stroke="black" points="407,-19 322,-19 322,0 407,0 407,-19"/>
<text text-anchor="middle" x="364.5" y="-7" font-family="Helvetica,sans-Serif" font-size="10.00">Managing tasks</text>
</a>
</g>
</g>
<!-- Node1&#45;&gt;Node12 -->
<g id="edge11" class="edge">
<title>Node1&#45;&gt;Node12</title>
<path fill="none" stroke="blueviolet" stroke-dasharray="5,2" d="M189.13,-205.94C197.58,-180.95 222.69,-112.2 258,-63.5 271.66,-44.67 275.69,-38.85 296,-27.5 303.94,-23.06 313.02,-19.68 321.89,-17.12"/>
<text text-anchor="middle" x="268" y="-66.5" font-family="Helvetica,sans-Serif" font-size="10.00">qOS</text>
</g>
<!-- Node2 -->
<g id="node9" class="node">
<title>Node2</title>
<g id="a_node9"><a xlink:href="group__qmodules.html" target="_top" xlink:title=" ">
<polygon fill="white" stroke="black" points="93,-225 0,-225 0,-206 93,-206 93,-225"/>
<text text-anchor="middle" x="46.5" y="-213" font-family="Helvetica,sans-Serif" font-size="10.00">Kernel extensions</text>
</a>
</g>
</g>
<!-- Node2&#45;&gt;Node1 -->
<g id="edge1" class="edge">
<title>Node2&#45;&gt;Node1</title>
<path fill="none" stroke="black" d="M103.61,-215.5C112.18,-215.5 121.01,-215.5 129.54,-215.5"/>
<polygon fill="black" stroke="black" points="103.33,-212 93.33,-215.5 103.33,-219 103.33,-212"/>
</g>
</g>
</svg>
