<?xml version="1.0" encoding="UTF-8" standalone="no"?>
<!DOCTYPE svg PUBLIC "-//W3C//DTD SVG 1.1//EN"
 "http://www.w3.org/Graphics/SVG/1.1/DTD/svg11.dtd">
<!-- Generated by graphviz version 2.49.3 (20211027.1534)
 -->
<!-- Title: Event Flags Pages: 1 -->
<svg width="241pt" height="101pt"
 viewBox="0.00 0.00 241.00 101.00" xmlns="http://www.w3.org/2000/svg" xmlns:xlink="http://www.w3.org/1999/xlink">
<g id="graph0" class="graph" transform="scale(1 1) rotate(0) translate(4 97)">
<title>Event Flags</title>
<polygon fill="white" stroke="transparent" points="-4,4 -4,-97 237,-97 237,4 -4,4"/>
<!-- Node1 -->
<g id="node1" class="node">
<title>Node1</title>
<g id="a_node1"><a xlink:title="API interface for the built&#45;in&#45;task Event Flags.">
<polygon fill="#bfbfbf" stroke="black" points="233,-56 165,-56 165,-37 233,-37 233,-56"/>
<text text-anchor="middle" x="199" y="-44" font-family="Helvetica,sans-Serif" font-size="10.00">Event Flags</text>
</a>
</g>
</g>
<!-- Node2 -->
<g id="node2" class="node">
<title>Node2</title>
<g id="a_node2"><a xlink:href="group__qpriv.html" target="_top" xlink:title="Inter&#45;Task communication primitives : Queues, Notifications and Event&#45;flags.">
<polygon fill="white" stroke="black" points="129,-93 0,-93 0,-74 129,-74 129,-93"/>
<text text-anchor="middle" x="64.5" y="-81" font-family="Helvetica,sans-Serif" font-size="10.00">Inter&#45;Task communication</text>
</a>
</g>
</g>
<!-- Node2&#45;&gt;Node1 -->
<g id="edge1" class="edge">
<title>Node2&#45;&gt;Node1</title>
<path fill="none" stroke="black" d="M109.38,-71.25C127.48,-66.19 148.11,-60.43 164.91,-55.74"/>
<polygon fill="black" stroke="black" points="108.31,-67.91 99.62,-73.97 110.19,-74.65 108.31,-67.91"/>
</g>
<!-- Node3 -->
<g id="node3" class="node">
<title>Node3</title>
<g id="a_node3"><a xlink:href="group__qtaskcreation.html" target="_top" xlink:title="Kernel API interface to create/remove tasks and perform special OS operations.">
<polygon fill="white" stroke="black" points="115,-56 14,-56 14,-37 115,-37 115,-56"/>
<text text-anchor="middle" x="64.5" y="-44" font-family="Helvetica,sans-Serif" font-size="10.00">Scheduler Interface</text>
</a>
</g>
</g>
<!-- Node3&#45;&gt;Node1 -->
<g id="edge2" class="edge">
<title>Node3&#45;&gt;Node1</title>
<path fill="none" stroke="black" d="M125.47,-46.5C139.03,-46.5 152.94,-46.5 164.9,-46.5"/>
<polygon fill="black" stroke="black" points="125.22,-43 115.22,-46.5 125.22,-50 125.22,-43"/>
</g>
<!-- Node4 -->
<g id="node4" class="node">
<title>Node4</title>
<g id="a_node4"><a xlink:href="group__qtaskmanip.html" target="_top" xlink:title="API interface to manage tasks.">
<polygon fill="white" stroke="black" points="107,-19 22,-19 22,0 107,0 107,-19"/>
<text text-anchor="middle" x="64.5" y="-7" font-family="Helvetica,sans-Serif" font-size="10.00">Managing tasks</text>
</a>
</g>
</g>
<!-- Node4&#45;&gt;Node1 -->
<g id="edge3" class="edge">
<title>Node4&#45;&gt;Node1</title>
<path fill="none" stroke="black" d="M109.38,-21.75C127.48,-26.81 148.11,-32.57 164.91,-37.26"/>
<polygon fill="black" stroke="black" points="110.19,-18.35 99.62,-19.03 108.31,-25.09 110.19,-18.35"/>
</g>
</g>
</svg>
