<?xml version="1.0" encoding="UTF-8" standalone="no"?>
<!DOCTYPE svg PUBLIC "-//W3C//DTD SVG 1.1//EN"
 "http://www.w3.org/Graphics/SVG/1.1/DTD/svg11.dtd">
<!-- Generated by graphviz version 2.49.3 (20211027.1534)
 -->
<!-- Title: Scheduler Interface Pages: 1 -->
<svg width="346pt" height="64pt"
 viewBox="0.00 0.00 346.00 64.00" xmlns="http://www.w3.org/2000/svg" xmlns:xlink="http://www.w3.org/1999/xlink">
<g id="graph0" class="graph" transform="scale(1 1) rotate(0) translate(4 60)">
<title>Scheduler Interface</title>
<polygon fill="white" stroke="transparent" points="-4,4 -4,-60 342,-60 342,4 -4,4"/>
<!-- Node4 -->
<g id="node1" class="node">
<title>Node4</title>
<g id="a_node1"><a xlink:href="group__qeventflags.html" target="_top" xlink:title="API interface for the built&#45;in&#45;task Event Flags.">
<polygon fill="white" stroke="black" points="336.5,-56 268.5,-56 268.5,-37 336.5,-37 336.5,-56"/>
<text text-anchor="middle" x="302.5" y="-44" font-family="Helvetica,sans-Serif" font-size="10.00">Event Flags</text>
</a>
</g>
</g>
<!-- Node3 -->
<g id="node2" class="node">
<title>Node3</title>
<g id="a_node2"><a xlink:href="group__qnot.html" target="_top" xlink:title="API interface for task Notifications.">
<polygon fill="white" stroke="black" points="338,-19 267,-19 267,0 338,0 338,-19"/>
<text text-anchor="middle" x="302.5" y="-7" font-family="Helvetica,sans-Serif" font-size="10.00">Notifications</text>
</a>
</g>
</g>
<!-- Node2 -->
<g id="node3" class="node">
<title>Node2</title>
<g id="a_node3"><a xlink:href="group__qos.html" target="_top" xlink:title=" ">
<polygon fill="white" stroke="black" points="94,-37 0,-37 0,-18 94,-18 94,-37"/>
<text text-anchor="middle" x="47" y="-25" font-family="Helvetica,sans-Serif" font-size="10.00">Operative System</text>
</a>
</g>
</g>
<!-- Node1 -->
<g id="node4" class="node">
<title>Node1</title>
<g id="a_node4"><a xlink:title="Kernel API interface to create/remove tasks and perform special OS operations.">
<polygon fill="#bfbfbf" stroke="black" points="231,-37 130,-37 130,-18 231,-18 231,-37"/>
<text text-anchor="middle" x="180.5" y="-25" font-family="Helvetica,sans-Serif" font-size="10.00">Scheduler Interface</text>
</a>
</g>
</g>
<!-- Node2&#45;&gt;Node1 -->
<g id="edge1" class="edge">
<title>Node2&#45;&gt;Node1</title>
<path fill="none" stroke="black" d="M104.55,-27.5C113.01,-27.5 121.68,-27.5 129.99,-27.5"/>
<polygon fill="black" stroke="black" points="104.36,-24 94.36,-27.5 104.36,-31 104.36,-24"/>
</g>
<!-- Node1&#45;&gt;Node4 -->
<g id="edge3" class="edge">
<title>Node1&#45;&gt;Node4</title>
<path fill="none" stroke="black" d="M241.07,-36.93C250.4,-38.41 259.74,-39.89 268.19,-41.23"/>
<polygon fill="black" stroke="black" points="241.43,-33.44 231,-35.34 240.33,-40.36 241.43,-33.44"/>
</g>
<!-- Node1&#45;&gt;Node3 -->
<g id="edge2" class="edge">
<title>Node1&#45;&gt;Node3</title>
<path fill="none" stroke="black" d="M240.94,-18.58C249.79,-17.26 258.65,-15.93 266.76,-14.71"/>
<polygon fill="black" stroke="black" points="240.37,-15.13 231,-20.07 241.41,-22.05 240.37,-15.13"/>
</g>
</g>
</svg>
