<?xml version="1.0" encoding="UTF-8" standalone="no"?>
<!DOCTYPE svg PUBLIC "-//W3C//DTD SVG 1.1//EN"
 "http://www.w3.org/Graphics/SVG/1.1/DTD/svg11.dtd">
<!-- Generated by graphviz version 2.49.3 (20211027.1534)
 -->
<!-- Title: Response handler Pages: 1 -->
<svg width="382pt" height="409pt"
 viewBox="0.00 0.00 382.00 409.00" xmlns="http://www.w3.org/2000/svg" xmlns:xlink="http://www.w3.org/1999/xlink">
<g id="graph0" class="graph" transform="scale(1 1) rotate(0) translate(4 405)">
<title>Response handler</title>
<polygon fill="white" stroke="transparent" points="-4,4 -4,-405 378,-405 378,4 -4,4"/>
<!-- Node4 -->
<g id="node1" class="node">
<title>Node4</title>
<g id="a_node1"><a xlink:href="group__qatcli.html" target="_top" xlink:title="API for the AT Command Line Interface extension.">
<polygon fill="white" stroke="black" points="374,-401 237,-401 237,-382 374,-382 374,-401"/>
<text text-anchor="middle" x="305.5" y="-389" font-family="Helvetica,sans-Serif" font-size="10.00">AT Command Line Interface</text>
</a>
</g>
</g>
<!-- Node3 -->
<g id="node2" class="node">
<title>Node3</title>
<g id="a_node2"><a xlink:href="group__qbsbuffers.html" target="_top" xlink:title="An interrupt&#45;safe byte&#45;sized ring buffer interface.">
<polygon fill="white" stroke="black" points="353,-364 258,-364 258,-345 353,-345 353,-364"/>
<text text-anchor="middle" x="305.5" y="-352" font-family="Helvetica,sans-Serif" font-size="10.00">Byte&#45;Sized buffers</text>
</a>
</g>
</g>
<!-- Node5 -->
<g id="node3" class="node">
<title>Node5</title>
<g id="a_node3"><a xlink:href="group__qclock.html" target="_top" xlink:title="Clock and time manipulation interface used by the entire OS.">
<polygon fill="white" stroke="black" points="326,-327 285,-327 285,-308 326,-308 326,-327"/>
<text text-anchor="middle" x="305.5" y="-315" font-family="Helvetica,sans-Serif" font-size="10.00">Clock</text>
</a>
</g>
</g>
<!-- Node6 -->
<g id="node4" class="node">
<title>Node6</title>
<g id="a_node4"><a xlink:href="group__qcoroutines.html" target="_top" xlink:title="API interface for the Co&#45;Routines extension.">
<polygon fill="white" stroke="black" points="340.5,-290 270.5,-290 270.5,-271 340.5,-271 340.5,-290"/>
<text text-anchor="middle" x="305.5" y="-278" font-family="Helvetica,sans-Serif" font-size="10.00">Co&#45;Routines</text>
</a>
</g>
</g>
<!-- Node7 -->
<g id="node5" class="node">
<title>Node7</title>
<g id="a_node5"><a xlink:href="group__qcritical.html" target="_top" xlink:title="APIs to handle entry/exit actions in Critical sections.">
<polygon fill="white" stroke="black" points="329,-253 282,-253 282,-234 329,-234 329,-253"/>
<text text-anchor="middle" x="305.5" y="-241" font-family="Helvetica,sans-Serif" font-size="10.00">Critical</text>
</a>
</g>
</g>
<!-- Node8 -->
<g id="node6" class="node">
<title>Node8</title>
<g id="a_node6"><a xlink:href="group__qedgecheck.html" target="_top" xlink:title="An interface to manage and simplify the value(with edge&#45;checking) of incoming digital&#45;signal groups.">
<polygon fill="white" stroke="black" points="356,-215.5 255,-215.5 255,-185.5 356,-185.5 356,-215.5"/>
<text text-anchor="start" x="263" y="-203.5" font-family="Helvetica,sans-Serif" font-size="10.00">I/O Groups for edge</text>
<text text-anchor="middle" x="305.5" y="-192.5" font-family="Helvetica,sans-Serif" font-size="10.00"> checking</text>
</a>
</g>
</g>
<!-- Node9 -->
<g id="node7" class="node">
<title>Node9</title>
<g id="a_node7"><a xlink:href="group__qfsm.html" target="_top" xlink:title="API interface of the Finite State Machines (FSM) extension.">
<polygon fill="white" stroke="black" points="360.5,-167 250.5,-167 250.5,-148 360.5,-148 360.5,-167"/>
<text text-anchor="middle" x="305.5" y="-155" font-family="Helvetica,sans-Serif" font-size="10.00">Finite State Machines</text>
</a>
</g>
</g>
<!-- Node13 -->
<g id="node8" class="node">
<title>Node13</title>
<g id="a_node8"><a xlink:href="group__qioutils.html" target="_top" xlink:title="API for input/output utilities and safe string interfaces.">
<polygon fill="white" stroke="black" points="332,-130 279,-130 279,-111 332,-111 332,-130"/>
<text text-anchor="middle" x="305.5" y="-118" font-family="Helvetica,sans-Serif" font-size="10.00">I/O Utils</text>
</a>
</g>
</g>
<!-- Node10 -->
<g id="node9" class="node">
<title>Node10</title>
<g id="a_node9"><a xlink:href="group__qqueues.html" target="_top" xlink:title="API interface to create and handle Queues.">
<polygon fill="white" stroke="black" points="330.5,-93 280.5,-93 280.5,-74 330.5,-74 330.5,-93"/>
<text text-anchor="middle" x="305.5" y="-81" font-family="Helvetica,sans-Serif" font-size="10.00">Queues</text>
</a>
</g>
</g>
<!-- Node1 -->
<g id="node10" class="node">
<title>Node1</title>
<g id="a_node10"><a xlink:title="API to simplify the handling of requested responses from terminal interfaces.">
<polygon fill="#bfbfbf" stroke="black" points="181,-210 87,-210 87,-191 181,-191 181,-210"/>
<text text-anchor="middle" x="134" y="-198" font-family="Helvetica,sans-Serif" font-size="10.00">Response handler</text>
</a>
</g>
</g>
<!-- Node1&#45;&gt;Node4 -->
<g id="edge3" class="edge">
<title>Node1&#45;&gt;Node4</title>
<path fill="none" stroke="blueviolet" stroke-dasharray="5,2" d="M138.03,-210.23C145.67,-233.79 167.4,-295.19 199,-338.5 212.53,-357.05 216.88,-362.44 237,-373.5 243.16,-376.89 250,-379.66 256.89,-381.93"/>
<text text-anchor="middle" x="209" y="-364.5" font-family="Helvetica,sans-Serif" font-size="10.00">qOS</text>
</g>
<!-- Node1&#45;&gt;Node3 -->
<g id="edge2" class="edge">
<title>Node1&#45;&gt;Node3</title>
<path fill="none" stroke="blueviolet" stroke-dasharray="5,2" d="M138.9,-210.31C149.81,-236.32 183.46,-307.08 237,-336.5 243.48,-340.06 250.71,-342.95 257.96,-345.28"/>
<text text-anchor="middle" x="209" y="-326.5" font-family="Helvetica,sans-Serif" font-size="10.00">qOS</text>
</g>
<!-- Node1&#45;&gt;Node5 -->
<g id="edge4" class="edge">
<title>Node1&#45;&gt;Node5</title>
<path fill="none" stroke="blueviolet" stroke-dasharray="5,2" d="M141.89,-210.27C156.72,-230.52 193.88,-277.04 237,-299.5 252.06,-307.34 270.83,-311.99 284.76,-314.59"/>
<text text-anchor="middle" x="209" y="-289.5" font-family="Helvetica,sans-Serif" font-size="10.00">qOS</text>
</g>
<!-- Node1&#45;&gt;Node6 -->
<g id="edge5" class="edge">
<title>Node1&#45;&gt;Node6</title>
<path fill="none" stroke="blueviolet" stroke-dasharray="5,2" d="M147.87,-210C166.61,-223.43 202.88,-247.94 237,-262.5 247.49,-266.98 259.37,-270.59 270.22,-273.37"/>
<text text-anchor="middle" x="209" y="-255.5" font-family="Helvetica,sans-Serif" font-size="10.00">qOS</text>
</g>
<!-- Node1&#45;&gt;Node7 -->
<g id="edge6" class="edge">
<title>Node1&#45;&gt;Node7</title>
<path fill="none" stroke="blueviolet" stroke-dasharray="5,2" d="M172.62,-210.04C205.97,-218.51 253.61,-230.59 281.57,-237.68"/>
<text text-anchor="middle" x="209" y="-224.5" font-family="Helvetica,sans-Serif" font-size="10.00">qOS</text>
</g>
<!-- Node1&#45;&gt;Node8 -->
<g id="edge7" class="edge">
<title>Node1&#45;&gt;Node8</title>
<path fill="none" stroke="blueviolet" stroke-dasharray="5,2" d="M181.32,-200.5C204.16,-200.5 231.72,-200.5 254.98,-200.5"/>
<text text-anchor="middle" x="209" y="-203.5" font-family="Helvetica,sans-Serif" font-size="10.00">qOS</text>
</g>
<!-- Node1&#45;&gt;Node9 -->
<g id="edge8" class="edge">
<title>Node1&#45;&gt;Node9</title>
<path fill="none" stroke="blueviolet" stroke-dasharray="5,2" d="M172.62,-190.96C200.71,-183.83 238.92,-174.14 266.99,-167.02"/>
<text text-anchor="middle" x="209" y="-187.5" font-family="Helvetica,sans-Serif" font-size="10.00">qOS</text>
</g>
<!-- Node1&#45;&gt;Node13 -->
<g id="edge12" class="edge">
<title>Node1&#45;&gt;Node13</title>
<path fill="none" stroke="blueviolet" stroke-dasharray="5,2" d="M147.87,-191C166.61,-177.57 202.88,-153.06 237,-138.5 250.39,-132.79 266.05,-128.47 278.92,-125.51"/>
<text text-anchor="middle" x="209" y="-161.5" font-family="Helvetica,sans-Serif" font-size="10.00">qOS</text>
</g>
<!-- Node1&#45;&gt;Node10 -->
<g id="edge9" class="edge">
<title>Node1&#45;&gt;Node10</title>
<path fill="none" stroke="blueviolet" stroke-dasharray="5,2" d="M141.89,-190.73C156.72,-170.48 193.88,-123.96 237,-101.5 250.55,-94.44 267.12,-89.97 280.44,-87.25"/>
<text text-anchor="middle" x="209" y="-128.5" font-family="Helvetica,sans-Serif" font-size="10.00">qOS</text>
</g>
<!-- Node12 -->
<g id="node11" class="node">
<title>Node12</title>
<g id="a_node11"><a xlink:href="group__qstimers.html" target="_top" xlink:title="API interface for the STimers extension.">
<polygon fill="white" stroke="black" points="350,-56 261,-56 261,-37 350,-37 350,-56"/>
<text text-anchor="middle" x="305.5" y="-44" font-family="Helvetica,sans-Serif" font-size="10.00">Software&#45;Timers</text>
</a>
</g>
</g>
<!-- Node1&#45;&gt;Node12 -->
<g id="edge11" class="edge">
<title>Node1&#45;&gt;Node12</title>
<path fill="none" stroke="blueviolet" stroke-dasharray="5,2" d="M138.9,-190.69C149.81,-164.68 183.46,-93.92 237,-64.5 244.33,-60.47 252.62,-57.3 260.81,-54.83"/>
<text text-anchor="middle" x="209" y="-96.5" font-family="Helvetica,sans-Serif" font-size="10.00">qOS</text>
</g>
<!-- Node11 -->
<g id="node12" class="node">
<title>Node11</title>
<g id="a_node12"><a xlink:href="group__qtaskmanip.html" target="_top" xlink:title="API interface to manage tasks.">
<polygon fill="white" stroke="black" points="348,-19 263,-19 263,0 348,0 348,-19"/>
<text text-anchor="middle" x="305.5" y="-7" font-family="Helvetica,sans-Serif" font-size="10.00">Managing tasks</text>
</a>
</g>
</g>
<!-- Node1&#45;&gt;Node11 -->
<g id="edge10" class="edge">
<title>Node1&#45;&gt;Node11</title>
<path fill="none" stroke="blueviolet" stroke-dasharray="5,2" d="M138.03,-190.77C145.67,-167.21 167.4,-105.81 199,-62.5 212.53,-43.95 216.88,-38.56 237,-27.5 244.97,-23.12 254.07,-19.76 262.94,-17.2"/>
<text text-anchor="middle" x="209" y="-65.5" font-family="Helvetica,sans-Serif" font-size="10.00">qOS</text>
</g>
<!-- Node2 -->
<g id="node13" class="node">
<title>Node2</title>
<g id="a_node13"><a xlink:href="group__qutility.html" target="_top" xlink:title=" ">
<polygon fill="white" stroke="black" points="50,-210 0,-210 0,-191 50,-191 50,-210"/>
<text text-anchor="middle" x="25" y="-198" font-family="Helvetica,sans-Serif" font-size="10.00">Utilities</text>
</a>
</g>
</g>
<!-- Node2&#45;&gt;Node1 -->
<g id="edge1" class="edge">
<title>Node2&#45;&gt;Node1</title>
<path fill="none" stroke="black" d="M60.22,-200.5C68.64,-200.5 77.81,-200.5 86.7,-200.5"/>
<polygon fill="black" stroke="black" points="60.01,-197 50.01,-200.5 60.01,-204 60.01,-197"/>
</g>
</g>
</svg>
