<?xml version="1.0" encoding="UTF-8" standalone="no"?>
<!DOCTYPE svg PUBLIC "-//W3C//DTD SVG 1.1//EN"
 "http://www.w3.org/Graphics/SVG/1.1/DTD/svg11.dtd">
<!-- Generated by graphviz version 12.2.1 (20241206.2353)
 -->
<!-- Title: Managing tasks Pages: 1 -->
<svg width="325pt" height="27pt"
 viewBox="0.00 0.00 324.50 27.25" xmlns="http://www.w3.org/2000/svg" xmlns:xlink="http://www.w3.org/1999/xlink">
<g id="graph0" class="graph" transform="scale(1 1) rotate(0) translate(4 23.25)">
<title>Managing tasks</title>
<!-- Node3 -->
<g id="Node000003" class="node">
<title>Node3</title>
<g id="a_Node000003"><a xlink:href="group__qeventflags.html" target="_top" xlink:title="API interface for the built&#45;in&#45;task Event Flags.">
<polygon fill="white" stroke="#666666" points="316.5,-19.25 249.5,-19.25 249.5,0 316.5,0 316.5,-19.25"/>
<text text-anchor="middle" x="283" y="-5.75" font-family="Helvetica,sans-Serif" font-size="10.00">Event Flags</text>
</a>
</g>
</g>
<!-- Node2 -->
<g id="Node000002" class="node">
<title>Node2</title>
<g id="a_Node000002"><a xlink:href="group__qos.html" target="_top" xlink:title=" ">
<polygon fill="white" stroke="#666666" points="93.25,-19.25 0,-19.25 0,0 93.25,0 93.25,-19.25"/>
<text text-anchor="middle" x="46.62" y="-5.75" font-family="Helvetica,sans-Serif" font-size="10.00">Operative System</text>
</a>
</g>
</g>
<!-- Node1 -->
<g id="Node000001" class="node">
<title>Node1</title>
<g id="a_Node000001"><a xlink:title="API interface to manage tasks.">
<polygon fill="#999999" stroke="#666666" points="213.5,-19.25 129.25,-19.25 129.25,0 213.5,0 213.5,-19.25"/>
<text text-anchor="middle" x="171.38" y="-5.75" font-family="Helvetica,sans-Serif" font-size="10.00">Managing tasks</text>
</a>
</g>
</g>
<!-- Node2&#45;&gt;Node1 -->
<g id="edge1" class="edge">
<title>Node2&#45;&gt;Node1</title>
<path fill="none" stroke="black" d="M104.97,-9.62C113.05,-9.62 121.21,-9.62 128.91,-9.62"/>
<polygon fill="black" stroke="black" points="105.2,-6.13 95.2,-9.63 105.2,-13.13 105.2,-6.13"/>
</g>
<!-- Node1&#45;&gt;Node3 -->
<g id="edge2" class="edge">
<title>Node1&#45;&gt;Node3</title>
<path fill="none" stroke="black" d="M225.2,-9.62C233.32,-9.62 241.51,-9.62 249.03,-9.62"/>
<polygon fill="black" stroke="black" points="225.33,-6.13 215.33,-9.63 225.33,-13.13 225.33,-6.13"/>
</g>
</g>
</svg>
