<?xml version="1.0" encoding="UTF-8" standalone="no"?>
<!DOCTYPE svg PUBLIC "-//W3C//DTD SVG 1.1//EN"
 "http://www.w3.org/Graphics/SVG/1.1/DTD/svg11.dtd">
<!-- Generated by graphviz version 9.0.0 (20230911.1827)
 -->
<!-- Title: Event Flags Pages: 1 -->
<svg width="240pt" height="101pt"
 viewBox="0.00 0.00 239.50 101.25" xmlns="http://www.w3.org/2000/svg" xmlns:xlink="http://www.w3.org/1999/xlink">
<g id="graph0" class="graph" transform="scale(1 1) rotate(0) translate(4 97.25)">
<title>Event Flags</title>
<!-- Node1 -->
<g id="Node000001" class="node">
<title>Node1</title>
<g id="a_Node000001"><a xlink:title="API interface for the built&#45;in&#45;task Event Flags.">
<polygon fill="#999999" stroke="#666666" points="231.5,-56.25 164.5,-56.25 164.5,-37 231.5,-37 231.5,-56.25"/>
<text text-anchor="middle" x="198" y="-42.75" font-family="Helvetica,sans-Serif" font-size="10.00">Event Flags</text>
</a>
</g>
</g>
<!-- Node2 -->
<g id="Node000002" class="node">
<title>Node2</title>
<g id="a_Node000002"><a xlink:href="group__qpriv.html" target="_top" xlink:title="Inter&#45;Task communication primitives : Queues, Notifications and Event&#45;flags.">
<polygon fill="white" stroke="#666666" points="128.5,-93.25 0,-93.25 0,-74 128.5,-74 128.5,-93.25"/>
<text text-anchor="middle" x="64.25" y="-79.75" font-family="Helvetica,sans-Serif" font-size="10.00">Inter&#45;Task communication</text>
</a>
</g>
</g>
<!-- Node2&#45;&gt;Node1 -->
<g id="edge1" class="edge">
<title>Node2&#45;&gt;Node1</title>
<path fill="none" stroke="black" d="M112.23,-70.43C129.43,-65.6 148.51,-60.24 164.2,-55.84"/>
<polygon fill="black" stroke="black" points="111.39,-67.03 102.71,-73.11 113.28,-73.77 111.39,-67.03"/>
</g>
<!-- Node3 -->
<g id="Node000003" class="node">
<title>Node3</title>
<g id="a_Node000003"><a xlink:href="group__qtaskcreation.html" target="_top" xlink:title="Kernel API interface to create/remove tasks and perform special OS operations.">
<polygon fill="white" stroke="#666666" points="114.25,-56.25 14.25,-56.25 14.25,-37 114.25,-37 114.25,-56.25"/>
<text text-anchor="middle" x="64.25" y="-42.75" font-family="Helvetica,sans-Serif" font-size="10.00">Scheduler Interface</text>
</a>
</g>
</g>
<!-- Node3&#45;&gt;Node1 -->
<g id="edge2" class="edge">
<title>Node3&#45;&gt;Node1</title>
<path fill="none" stroke="black" d="M126.07,-46.62C139.17,-46.62 152.54,-46.62 164.09,-46.62"/>
<polygon fill="black" stroke="black" points="126.2,-43.13 116.2,-46.63 126.2,-50.13 126.2,-43.13"/>
</g>
<!-- Node4 -->
<g id="Node000004" class="node">
<title>Node4</title>
<g id="a_Node000004"><a xlink:href="group__qtaskmanip.html" target="_top" xlink:title="API interface to manage tasks.">
<polygon fill="white" stroke="#666666" points="106.38,-19.25 22.12,-19.25 22.12,0 106.38,0 106.38,-19.25"/>
<text text-anchor="middle" x="64.25" y="-5.75" font-family="Helvetica,sans-Serif" font-size="10.00">Managing tasks</text>
</a>
</g>
</g>
<!-- Node4&#45;&gt;Node1 -->
<g id="edge3" class="edge">
<title>Node4&#45;&gt;Node1</title>
<path fill="none" stroke="black" d="M112.23,-22.82C129.43,-27.65 148.51,-33.01 164.2,-37.41"/>
<polygon fill="black" stroke="black" points="113.28,-19.48 102.71,-20.14 111.39,-26.22 113.28,-19.48"/>
</g>
</g>
</svg>
