<?xml version="1.0" encoding="UTF-8" standalone="no"?>
<!DOCTYPE svg PUBLIC "-//W3C//DTD SVG 1.1//EN"
 "http://www.w3.org/Graphics/SVG/1.1/DTD/svg11.dtd">
<!-- Generated by graphviz version 2.49.3 (20211027.1534)
 -->
<!-- Title: Clock Pages: 1 -->
<svg width="373pt" height="409pt"
 viewBox="0.00 0.00 373.00 409.00" xmlns="http://www.w3.org/2000/svg" xmlns:xlink="http://www.w3.org/1999/xlink">
<g id="graph0" class="graph" transform="scale(1 1) rotate(0) translate(4 405)">
<title>Clock</title>
<polygon fill="white" stroke="transparent" points="-4,4 -4,-405 369,-405 369,4 -4,4"/>
<!-- Node4 -->
<g id="node1" class="node">
<title>Node4</title>
<g id="a_node1"><a xlink:href="group__qatcli.html" target="_top" xlink:title="API for the AT Command Line Interface extension.">
<polygon fill="white" stroke="black" points="365,-401 228,-401 228,-382 365,-382 365,-401"/>
<text text-anchor="middle" x="296.5" y="-389" font-family="Helvetica,sans-Serif" font-size="10.00">AT Command Line Interface</text>
</a>
</g>
</g>
<!-- Node3 -->
<g id="node2" class="node">
<title>Node3</title>
<g id="a_node2"><a xlink:href="group__qbsbuffers.html" target="_top" xlink:title="An interrupt&#45;safe byte&#45;sized ring buffer interface.">
<polygon fill="white" stroke="black" points="344,-364 249,-364 249,-345 344,-345 344,-364"/>
<text text-anchor="middle" x="296.5" y="-352" font-family="Helvetica,sans-Serif" font-size="10.00">Byte&#45;Sized buffers</text>
</a>
</g>
</g>
<!-- Node1 -->
<g id="node3" class="node">
<title>Node1</title>
<g id="a_node3"><a xlink:title="Clock and time manipulation interface used by the entire OS.">
<polygon fill="#bfbfbf" stroke="black" points="172,-204 131,-204 131,-185 172,-185 172,-204"/>
<text text-anchor="middle" x="151.5" y="-192" font-family="Helvetica,sans-Serif" font-size="10.00">Clock</text>
</a>
</g>
</g>
<!-- Node1&#45;&gt;Node4 -->
<g id="edge3" class="edge">
<title>Node1&#45;&gt;Node4</title>
<path fill="none" stroke="blueviolet" stroke-dasharray="5,2" d="M153.16,-204.32C155.17,-228.7 162.88,-293.31 190,-338.5 201.82,-358.19 207.88,-362.44 228,-373.5 234.16,-376.89 241,-379.66 247.89,-381.93"/>
<text text-anchor="middle" x="200" y="-364.5" font-family="Helvetica,sans-Serif" font-size="10.00">qOS</text>
</g>
<!-- Node1&#45;&gt;Node3 -->
<g id="edge2" class="edge">
<title>Node1&#45;&gt;Node3</title>
<path fill="none" stroke="blueviolet" stroke-dasharray="5,2" d="M154.4,-204.13C158.52,-223.44 169.6,-267.74 190,-299.5 202.74,-319.33 207.5,-324.86 228,-336.5 234.43,-340.15 241.63,-343.09 248.87,-345.44"/>
<text text-anchor="middle" x="200" y="-326.5" font-family="Helvetica,sans-Serif" font-size="10.00">qOS</text>
</g>
<!-- Node5 -->
<g id="node4" class="node">
<title>Node5</title>
<g id="a_node4"><a xlink:href="group__qcoroutines.html" target="_top" xlink:title="API interface for the Co&#45;Routines extension.">
<polygon fill="white" stroke="black" points="331.5,-327 261.5,-327 261.5,-308 331.5,-308 331.5,-327"/>
<text text-anchor="middle" x="296.5" y="-315" font-family="Helvetica,sans-Serif" font-size="10.00">Co&#45;Routines</text>
</a>
</g>
</g>
<!-- Node1&#45;&gt;Node5 -->
<g id="edge4" class="edge">
<title>Node1&#45;&gt;Node5</title>
<path fill="none" stroke="blueviolet" stroke-dasharray="5,2" d="M156.11,-204.27C164.7,-225.95 188.65,-277.87 228,-299.5 238.2,-305.11 250.25,-309.04 261.32,-311.77"/>
<text text-anchor="middle" x="200" y="-287.5" font-family="Helvetica,sans-Serif" font-size="10.00">qOS</text>
</g>
<!-- Node6 -->
<g id="node5" class="node">
<title>Node6</title>
<g id="a_node5"><a xlink:href="group__qcritical.html" target="_top" xlink:title="APIs to handle entry/exit actions in Critical sections.">
<polygon fill="white" stroke="black" points="320,-290 273,-290 273,-271 320,-271 320,-290"/>
<text text-anchor="middle" x="296.5" y="-278" font-family="Helvetica,sans-Serif" font-size="10.00">Critical</text>
</a>
</g>
</g>
<!-- Node1&#45;&gt;Node6 -->
<g id="edge5" class="edge">
<title>Node1&#45;&gt;Node6</title>
<path fill="none" stroke="blueviolet" stroke-dasharray="5,2" d="M160.66,-204.43C173.41,-219.26 199.58,-247.02 228,-261.5 242.1,-268.69 259.29,-273.47 272.79,-276.45"/>
<text text-anchor="middle" x="200" y="-252.5" font-family="Helvetica,sans-Serif" font-size="10.00">qOS</text>
</g>
<!-- Node7 -->
<g id="node6" class="node">
<title>Node7</title>
<g id="a_node6"><a xlink:href="group__qedgecheck.html" target="_top" xlink:title="An interface to manage and simplify the value(with edge&#45;checking) of incoming digital&#45;signal groups.">
<polygon fill="white" stroke="black" points="347,-252.5 246,-252.5 246,-222.5 347,-222.5 347,-252.5"/>
<text text-anchor="start" x="254" y="-240.5" font-family="Helvetica,sans-Serif" font-size="10.00">I/O Groups for edge</text>
<text text-anchor="middle" x="296.5" y="-229.5" font-family="Helvetica,sans-Serif" font-size="10.00"> checking</text>
</a>
</g>
</g>
<!-- Node1&#45;&gt;Node7 -->
<g id="edge6" class="edge">
<title>Node1&#45;&gt;Node7</title>
<path fill="none" stroke="blueviolet" stroke-dasharray="5,2" d="M172.19,-202.89C177.88,-205.18 184.14,-207.56 190,-209.5 207.99,-215.46 228.02,-221.04 245.76,-225.62"/>
<text text-anchor="middle" x="200" y="-219.5" font-family="Helvetica,sans-Serif" font-size="10.00">qOS</text>
</g>
<!-- Node8 -->
<g id="node7" class="node">
<title>Node8</title>
<g id="a_node7"><a xlink:href="group__qfsm.html" target="_top" xlink:title="API interface of the Finite State Machines (FSM) extension.">
<polygon fill="white" stroke="black" points="351.5,-204 241.5,-204 241.5,-185 351.5,-185 351.5,-204"/>
<text text-anchor="middle" x="296.5" y="-192" font-family="Helvetica,sans-Serif" font-size="10.00">Finite State Machines</text>
</a>
</g>
</g>
<!-- Node1&#45;&gt;Node8 -->
<g id="edge7" class="edge">
<title>Node1&#45;&gt;Node8</title>
<path fill="none" stroke="blueviolet" stroke-dasharray="5,2" d="M172.08,-194.5C189.91,-194.5 217.07,-194.5 241.37,-194.5"/>
<text text-anchor="middle" x="200" y="-197.5" font-family="Helvetica,sans-Serif" font-size="10.00">qOS</text>
</g>
<!-- Node13 -->
<g id="node8" class="node">
<title>Node13</title>
<g id="a_node8"><a xlink:href="group__qioutils.html" target="_top" xlink:title="API for input/output utilities and safe string interfaces.">
<polygon fill="white" stroke="black" points="323,-167 270,-167 270,-148 323,-148 323,-167"/>
<text text-anchor="middle" x="296.5" y="-155" font-family="Helvetica,sans-Serif" font-size="10.00">I/O Utils</text>
</a>
</g>
</g>
<!-- Node1&#45;&gt;Node13 -->
<g id="edge12" class="edge">
<title>Node1&#45;&gt;Node13</title>
<path fill="none" stroke="blueviolet" stroke-dasharray="5,2" d="M172.12,-185.9C177.82,-183.61 184.09,-181.28 190,-179.5 216.69,-171.45 248.05,-165.32 269.6,-161.6"/>
<text text-anchor="middle" x="200" y="-182.5" font-family="Helvetica,sans-Serif" font-size="10.00">qOS</text>
</g>
<!-- Node9 -->
<g id="node10" class="node">
<title>Node9</title>
<g id="a_node10"><a xlink:href="group__qqueues.html" target="_top" xlink:title="API interface to create and handle Queues.">
<polygon fill="white" stroke="black" points="321.5,-130 271.5,-130 271.5,-111 321.5,-111 321.5,-130"/>
<text text-anchor="middle" x="296.5" y="-118" font-family="Helvetica,sans-Serif" font-size="10.00">Queues</text>
</a>
</g>
</g>
<!-- Node1&#45;&gt;Node9 -->
<g id="edge8" class="edge">
<title>Node1&#45;&gt;Node9</title>
<path fill="none" stroke="blueviolet" stroke-dasharray="5,2" d="M161.49,-184.9C168.76,-177.45 179.48,-167.14 190,-159.5 205.62,-148.16 210.1,-145.71 228,-138.5 241.95,-132.88 258.22,-128.48 271.3,-125.44"/>
<text text-anchor="middle" x="200" y="-162.5" font-family="Helvetica,sans-Serif" font-size="10.00">qOS</text>
</g>
<!-- Node10 -->
<g id="node11" class="node">
<title>Node10</title>
<g id="a_node11"><a xlink:href="group__qresponse.html" target="_top" xlink:title="API to simplify the handling of requested responses from terminal interfaces.">
<polygon fill="white" stroke="black" points="343.5,-93 249.5,-93 249.5,-74 343.5,-74 343.5,-93"/>
<text text-anchor="middle" x="296.5" y="-81" font-family="Helvetica,sans-Serif" font-size="10.00">Response handler</text>
</a>
</g>
</g>
<!-- Node1&#45;&gt;Node10 -->
<g id="edge9" class="edge">
<title>Node1&#45;&gt;Node10</title>
<path fill="none" stroke="blueviolet" stroke-dasharray="5,2" d="M157.16,-184.58C163.48,-171.73 175.65,-149.02 190,-132.5 204.29,-116.05 208.59,-111.42 228,-101.5 234.7,-98.08 242.11,-95.26 249.5,-92.95"/>
<text text-anchor="middle" x="200" y="-135.5" font-family="Helvetica,sans-Serif" font-size="10.00">qOS</text>
</g>
<!-- Node12 -->
<g id="node12" class="node">
<title>Node12</title>
<g id="a_node12"><a xlink:href="group__qstimers.html" target="_top" xlink:title="API interface for the STimers extension.">
<polygon fill="white" stroke="black" points="341,-56 252,-56 252,-37 341,-37 341,-56"/>
<text text-anchor="middle" x="296.5" y="-44" font-family="Helvetica,sans-Serif" font-size="10.00">Software&#45;Timers</text>
</a>
</g>
</g>
<!-- Node1&#45;&gt;Node12 -->
<g id="edge11" class="edge">
<title>Node1&#45;&gt;Node12</title>
<path fill="none" stroke="blueviolet" stroke-dasharray="5,2" d="M154.56,-184.95C158.83,-166.67 169.97,-126.02 190,-97.5 202.86,-79.2 208.24,-74.98 228,-64.5 235.39,-60.58 243.7,-57.46 251.9,-55"/>
<text text-anchor="middle" x="200" y="-100.5" font-family="Helvetica,sans-Serif" font-size="10.00">qOS</text>
</g>
<!-- Node11 -->
<g id="node13" class="node">
<title>Node11</title>
<g id="a_node13"><a xlink:href="group__qtaskmanip.html" target="_top" xlink:title="API interface to manage tasks.">
<polygon fill="white" stroke="black" points="339,-19 254,-19 254,0 339,0 339,-19"/>
<text text-anchor="middle" x="296.5" y="-7" font-family="Helvetica,sans-Serif" font-size="10.00">Managing tasks</text>
</a>
</g>
</g>
<!-- Node1&#45;&gt;Node11 -->
<g id="edge10" class="edge">
<title>Node1&#45;&gt;Node11</title>
<path fill="none" stroke="blueviolet" stroke-dasharray="5,2" d="M153.28,-184.98C155.56,-161.92 163.77,-101.94 190,-60.5 201.96,-41.6 208.24,-37.98 228,-27.5 235.93,-23.29 244.91,-20.01 253.68,-17.48"/>
<text text-anchor="middle" x="200" y="-63.5" font-family="Helvetica,sans-Serif" font-size="10.00">qOS</text>
</g>
<!-- Node2 -->
<g id="node9" class="node">
<title>Node2</title>
<g id="a_node9"><a xlink:href="group__qos.html" target="_top" xlink:title=" ">
<polygon fill="white" stroke="black" points="94,-204 0,-204 0,-185 94,-185 94,-204"/>
<text text-anchor="middle" x="47" y="-192" font-family="Helvetica,sans-Serif" font-size="10.00">Operative System</text>
</a>
</g>
</g>
<!-- Node2&#45;&gt;Node1 -->
<g id="edge1" class="edge">
<title>Node2&#45;&gt;Node1</title>
<path fill="none" stroke="black" d="M104.43,-194.5C113.87,-194.5 123.08,-194.5 130.75,-194.5"/>
<polygon fill="black" stroke="black" points="104.15,-191 94.15,-194.5 104.15,-198 104.15,-191"/>
</g>
</g>
</svg>
