<?xml version="1.0" encoding="UTF-8" standalone="no"?>
<!DOCTYPE svg PUBLIC "-//W3C//DTD SVG 1.1//EN"
 "http://www.w3.org/Graphics/SVG/1.1/DTD/svg11.dtd">
<!-- Generated by graphviz version 2.49.3 (20211027.1534)
 -->
<!-- Title: Critical Pages: 1 -->
<svg width="379pt" height="409pt"
 viewBox="0.00 0.00 379.00 409.00" xmlns="http://www.w3.org/2000/svg" xmlns:xlink="http://www.w3.org/1999/xlink">
<g id="graph0" class="graph" transform="scale(1 1) rotate(0) translate(4 405)">
<title>Critical</title>
<polygon fill="white" stroke="transparent" points="-4,4 -4,-405 375,-405 375,4 -4,4"/>
<!-- Node4 -->
<g id="node1" class="node">
<title>Node4</title>
<g id="a_node1"><a xlink:href="group__qatcli.html" target="_top" xlink:title="API for the AT Command Line Interface extension.">
<polygon fill="white" stroke="black" points="371,-401 234,-401 234,-382 371,-382 371,-401"/>
<text text-anchor="middle" x="302.5" y="-389" font-family="Helvetica,sans-Serif" font-size="10.00">AT Command Line Interface</text>
</a>
</g>
</g>
<!-- Node3 -->
<g id="node2" class="node">
<title>Node3</title>
<g id="a_node2"><a xlink:href="group__qbsbuffers.html" target="_top" xlink:title="An interrupt&#45;safe byte&#45;sized ring buffer interface.">
<polygon fill="white" stroke="black" points="350,-364 255,-364 255,-345 350,-345 350,-364"/>
<text text-anchor="middle" x="302.5" y="-352" font-family="Helvetica,sans-Serif" font-size="10.00">Byte&#45;Sized buffers</text>
</a>
</g>
</g>
<!-- Node5 -->
<g id="node3" class="node">
<title>Node5</title>
<g id="a_node3"><a xlink:href="group__qclock.html" target="_top" xlink:title="Clock and time manipulation interface used by the entire OS.">
<polygon fill="white" stroke="black" points="323,-327 282,-327 282,-308 323,-308 323,-327"/>
<text text-anchor="middle" x="302.5" y="-315" font-family="Helvetica,sans-Serif" font-size="10.00">Clock</text>
</a>
</g>
</g>
<!-- Node6 -->
<g id="node4" class="node">
<title>Node6</title>
<g id="a_node4"><a xlink:href="group__qcoroutines.html" target="_top" xlink:title="API interface for the Co&#45;Routines extension.">
<polygon fill="white" stroke="black" points="337.5,-290 267.5,-290 267.5,-271 337.5,-271 337.5,-290"/>
<text text-anchor="middle" x="302.5" y="-278" font-family="Helvetica,sans-Serif" font-size="10.00">Co&#45;Routines</text>
</a>
</g>
</g>
<!-- Node1 -->
<g id="node5" class="node">
<title>Node1</title>
<g id="a_node5"><a xlink:title="APIs to handle entry/exit actions in Critical sections.">
<polygon fill="#bfbfbf" stroke="black" points="178,-204 131,-204 131,-185 178,-185 178,-204"/>
<text text-anchor="middle" x="154.5" y="-192" font-family="Helvetica,sans-Serif" font-size="10.00">Critical</text>
</a>
</g>
</g>
<!-- Node1&#45;&gt;Node4 -->
<g id="edge3" class="edge">
<title>Node1&#45;&gt;Node4</title>
<path fill="none" stroke="blueviolet" stroke-dasharray="5,2" d="M156.4,-204.32C159.03,-228.71 168.29,-293.34 196,-338.5 208.01,-358.07 213.88,-362.44 234,-373.5 240.16,-376.89 247,-379.66 253.89,-381.93"/>
<text text-anchor="middle" x="206" y="-364.5" font-family="Helvetica,sans-Serif" font-size="10.00">qOS</text>
</g>
<!-- Node1&#45;&gt;Node3 -->
<g id="edge2" class="edge">
<title>Node1&#45;&gt;Node3</title>
<path fill="none" stroke="blueviolet" stroke-dasharray="5,2" d="M157.73,-204.13C162.5,-223.42 175.01,-267.7 196,-299.5 208.99,-319.17 213.5,-324.86 234,-336.5 240.43,-340.15 247.63,-343.09 254.87,-345.44"/>
<text text-anchor="middle" x="206" y="-326.5" font-family="Helvetica,sans-Serif" font-size="10.00">qOS</text>
</g>
<!-- Node1&#45;&gt;Node5 -->
<g id="edge4" class="edge">
<title>Node1&#45;&gt;Node5</title>
<path fill="none" stroke="blueviolet" stroke-dasharray="5,2" d="M159.4,-204.23C168.63,-225.82 194.11,-277.58 234,-299.5 248.99,-307.74 267.94,-312.36 281.95,-314.85"/>
<text text-anchor="middle" x="206" y="-287.5" font-family="Helvetica,sans-Serif" font-size="10.00">qOS</text>
</g>
<!-- Node1&#45;&gt;Node6 -->
<g id="edge5" class="edge">
<title>Node1&#45;&gt;Node6</title>
<path fill="none" stroke="blueviolet" stroke-dasharray="5,2" d="M164.1,-204.35C177.53,-219.08 204.95,-246.69 234,-261.5 244.3,-266.75 256.26,-270.72 267.21,-273.64"/>
<text text-anchor="middle" x="206" y="-252.5" font-family="Helvetica,sans-Serif" font-size="10.00">qOS</text>
</g>
<!-- Node7 -->
<g id="node6" class="node">
<title>Node7</title>
<g id="a_node6"><a xlink:href="group__qedgecheck.html" target="_top" xlink:title="An interface to manage and simplify the value(with edge&#45;checking) of incoming digital&#45;signal groups.">
<polygon fill="white" stroke="black" points="353,-252.5 252,-252.5 252,-222.5 353,-222.5 353,-252.5"/>
<text text-anchor="start" x="260" y="-240.5" font-family="Helvetica,sans-Serif" font-size="10.00">I/O Groups for edge</text>
<text text-anchor="middle" x="302.5" y="-229.5" font-family="Helvetica,sans-Serif" font-size="10.00"> checking</text>
</a>
</g>
</g>
<!-- Node1&#45;&gt;Node7 -->
<g id="edge6" class="edge">
<title>Node1&#45;&gt;Node7</title>
<path fill="none" stroke="blueviolet" stroke-dasharray="5,2" d="M178.07,-203.29C183.88,-205.43 190.14,-207.64 196,-209.5 214.06,-215.23 234.11,-220.75 251.84,-225.36"/>
<text text-anchor="middle" x="206" y="-219.5" font-family="Helvetica,sans-Serif" font-size="10.00">qOS</text>
</g>
<!-- Node8 -->
<g id="node7" class="node">
<title>Node8</title>
<g id="a_node7"><a xlink:href="group__qfsm.html" target="_top" xlink:title="API interface of the Finite State Machines (FSM) extension.">
<polygon fill="white" stroke="black" points="357.5,-204 247.5,-204 247.5,-185 357.5,-185 357.5,-204"/>
<text text-anchor="middle" x="302.5" y="-192" font-family="Helvetica,sans-Serif" font-size="10.00">Finite State Machines</text>
</a>
</g>
</g>
<!-- Node1&#45;&gt;Node8 -->
<g id="edge7" class="edge">
<title>Node1&#45;&gt;Node8</title>
<path fill="none" stroke="blueviolet" stroke-dasharray="5,2" d="M178.31,-194.5C196.76,-194.5 223.49,-194.5 247.34,-194.5"/>
<text text-anchor="middle" x="206" y="-197.5" font-family="Helvetica,sans-Serif" font-size="10.00">qOS</text>
</g>
<!-- Node13 -->
<g id="node8" class="node">
<title>Node13</title>
<g id="a_node8"><a xlink:href="group__qioutils.html" target="_top" xlink:title="API for input/output utilities and safe string interfaces.">
<polygon fill="white" stroke="black" points="329,-167 276,-167 276,-148 329,-148 329,-167"/>
<text text-anchor="middle" x="302.5" y="-155" font-family="Helvetica,sans-Serif" font-size="10.00">I/O Utils</text>
</a>
</g>
</g>
<!-- Node1&#45;&gt;Node13 -->
<g id="edge12" class="edge">
<title>Node1&#45;&gt;Node13</title>
<path fill="none" stroke="blueviolet" stroke-dasharray="5,2" d="M178.01,-185.49C183.81,-183.35 190.09,-181.2 196,-179.5 222.79,-171.79 254.13,-165.6 275.66,-161.78"/>
<text text-anchor="middle" x="206" y="-182.5" font-family="Helvetica,sans-Serif" font-size="10.00">qOS</text>
</g>
<!-- Node9 -->
<g id="node10" class="node">
<title>Node9</title>
<g id="a_node10"><a xlink:href="group__qqueues.html" target="_top" xlink:title="API interface to create and handle Queues.">
<polygon fill="white" stroke="black" points="327.5,-130 277.5,-130 277.5,-111 327.5,-111 327.5,-130"/>
<text text-anchor="middle" x="302.5" y="-118" font-family="Helvetica,sans-Serif" font-size="10.00">Queues</text>
</a>
</g>
</g>
<!-- Node1&#45;&gt;Node9 -->
<g id="edge8" class="edge">
<title>Node1&#45;&gt;Node9</title>
<path fill="none" stroke="blueviolet" stroke-dasharray="5,2" d="M165.34,-184.96C173.26,-177.55 184.87,-167.26 196,-159.5 211.83,-148.47 216.1,-145.71 234,-138.5 247.95,-132.88 264.22,-128.48 277.3,-125.44"/>
<text text-anchor="middle" x="206" y="-162.5" font-family="Helvetica,sans-Serif" font-size="10.00">qOS</text>
</g>
<!-- Node10 -->
<g id="node11" class="node">
<title>Node10</title>
<g id="a_node11"><a xlink:href="group__qresponse.html" target="_top" xlink:title="API to simplify the handling of requested responses from terminal interfaces.">
<polygon fill="white" stroke="black" points="349.5,-93 255.5,-93 255.5,-74 349.5,-74 349.5,-93"/>
<text text-anchor="middle" x="302.5" y="-81" font-family="Helvetica,sans-Serif" font-size="10.00">Response handler</text>
</a>
</g>
</g>
<!-- Node1&#45;&gt;Node10 -->
<g id="edge9" class="edge">
<title>Node1&#45;&gt;Node10</title>
<path fill="none" stroke="blueviolet" stroke-dasharray="5,2" d="M160.18,-184.98C170.43,-165.3 196.94,-120.44 234,-101.5 240.7,-98.08 248.11,-95.26 255.5,-92.95"/>
<text text-anchor="middle" x="206" y="-133.5" font-family="Helvetica,sans-Serif" font-size="10.00">qOS</text>
</g>
<!-- Node12 -->
<g id="node12" class="node">
<title>Node12</title>
<g id="a_node12"><a xlink:href="group__qstimers.html" target="_top" xlink:title="API interface for the STimers extension.">
<polygon fill="white" stroke="black" points="347,-56 258,-56 258,-37 347,-37 347,-56"/>
<text text-anchor="middle" x="302.5" y="-44" font-family="Helvetica,sans-Serif" font-size="10.00">Software&#45;Timers</text>
</a>
</g>
</g>
<!-- Node1&#45;&gt;Node12 -->
<g id="edge11" class="edge">
<title>Node1&#45;&gt;Node12</title>
<path fill="none" stroke="blueviolet" stroke-dasharray="5,2" d="M158.11,-184.93C163.29,-167 176.15,-127.62 196,-99.5 209.24,-80.74 213.88,-75.56 234,-64.5 241.33,-60.47 249.62,-57.3 257.81,-54.83"/>
<text text-anchor="middle" x="206" y="-102.5" font-family="Helvetica,sans-Serif" font-size="10.00">qOS</text>
</g>
<!-- Node11 -->
<g id="node13" class="node">
<title>Node11</title>
<g id="a_node13"><a xlink:href="group__qtaskmanip.html" target="_top" xlink:title="API interface to manage tasks.">
<polygon fill="white" stroke="black" points="345,-19 260,-19 260,0 345,0 345,-19"/>
<text text-anchor="middle" x="302.5" y="-7" font-family="Helvetica,sans-Serif" font-size="10.00">Managing tasks</text>
</a>
</g>
</g>
<!-- Node1&#45;&gt;Node11 -->
<g id="edge10" class="edge">
<title>Node1&#45;&gt;Node11</title>
<path fill="none" stroke="blueviolet" stroke-dasharray="5,2" d="M156.64,-184.73C159.71,-161.65 169.76,-102.59 196,-61.5 208.2,-42.4 214.06,-38.27 234,-27.5 242,-23.18 251.11,-19.84 259.99,-17.29"/>
<text text-anchor="middle" x="206" y="-64.5" font-family="Helvetica,sans-Serif" font-size="10.00">qOS</text>
</g>
<!-- Node2 -->
<g id="node9" class="node">
<title>Node2</title>
<g id="a_node9"><a xlink:href="group__qos.html" target="_top" xlink:title=" ">
<polygon fill="white" stroke="black" points="94,-204 0,-204 0,-185 94,-185 94,-204"/>
<text text-anchor="middle" x="47" y="-192" font-family="Helvetica,sans-Serif" font-size="10.00">Operative System</text>
</a>
</g>
</g>
<!-- Node2&#45;&gt;Node1 -->
<g id="edge1" class="edge">
<title>Node2&#45;&gt;Node1</title>
<path fill="none" stroke="black" d="M104.47,-194.5C113.87,-194.5 123.1,-194.5 130.98,-194.5"/>
<polygon fill="black" stroke="black" points="104.27,-191 94.27,-194.5 104.27,-198 104.27,-191"/>
</g>
</g>
</svg>
