<?xml version="1.0" encoding="UTF-8" standalone="no"?>
<!DOCTYPE svg PUBLIC "-//W3C//DTD SVG 1.1//EN"
 "http://www.w3.org/Graphics/SVG/1.1/DTD/svg11.dtd">
<!-- Generated by graphviz version 11.0.0 (20240428.1522)
 -->
<!-- Title: Operative System Pages: 1 -->
<svg width="266pt" height="249pt"
 viewBox="0.00 0.00 265.75 249.25" xmlns="http://www.w3.org/2000/svg" xmlns:xlink="http://www.w3.org/1999/xlink">
<g id="graph0" class="graph" transform="scale(1 1) rotate(0) translate(4 245.25)">
<title>Operative System</title>
<!-- Node5 -->
<g id="Node000005" class="node">
<title>Node5</title>
<g id="a_Node000005"><a xlink:href="group__qclock.html" target="_top" xlink:title="Clock and time manipulation interface used by the entire OS.">
<polygon fill="white" stroke="#666666" points="213.88,-241.25 173.12,-241.25 173.12,-222 213.88,-222 213.88,-241.25"/>
<text text-anchor="middle" x="193.5" y="-227.75" font-family="Helvetica,sans-Serif" font-size="10.00">Clock</text>
</a>
</g>
</g>
<!-- Node7 -->
<g id="Node000007" class="node">
<title>Node7</title>
<g id="a_Node000007"><a xlink:href="group__qconfiguration.html" target="_top" xlink:title="Some OS features can be customized using a set of macros located in the header file config....">
<polygon fill="white" stroke="#666666" points="229.62,-204.25 157.38,-204.25 157.38,-185 229.62,-185 229.62,-204.25"/>
<text text-anchor="middle" x="193.5" y="-190.75" font-family="Helvetica,sans-Serif" font-size="10.00">Configuration</text>
</a>
</g>
</g>
<!-- Node6 -->
<g id="Node000006" class="node">
<title>Node6</title>
<g id="a_Node000006"><a xlink:href="group__qcritical.html" target="_top" xlink:title="APIs to handle entry/exit actions in Critical sections.">
<polygon fill="white" stroke="#666666" points="216.5,-167.25 170.5,-167.25 170.5,-148 216.5,-148 216.5,-167.25"/>
<text text-anchor="middle" x="193.5" y="-153.75" font-family="Helvetica,sans-Serif" font-size="10.00">Critical</text>
</a>
</g>
</g>
<!-- Node1 -->
<g id="Node000001" class="node">
<title>Node1</title>
<g id="a_Node000001"><a xlink:title=" ">
<polygon fill="#999999" stroke="#666666" points="93.25,-130.25 0,-130.25 0,-111 93.25,-111 93.25,-130.25"/>
<text text-anchor="middle" x="46.62" y="-116.75" font-family="Helvetica,sans-Serif" font-size="10.00">Operative System</text>
</a>
</g>
</g>
<!-- Node1&#45;&gt;Node5 -->
<g id="edge4" class="edge">
<title>Node1&#45;&gt;Node5</title>
<path fill="none" stroke="black" d="M59.85,-140.3C74.01,-161.48 99.27,-194.67 129.25,-213.62 142.47,-221.98 159.65,-226.55 172.77,-228.99"/>
<polygon fill="black" stroke="black" points="62.85,-138.49 54.48,-131.99 56.97,-142.29 62.85,-138.49"/>
</g>
<!-- Node1&#45;&gt;Node7 -->
<g id="edge6" class="edge">
<title>Node1&#45;&gt;Node7</title>
<path fill="none" stroke="black" d="M68.48,-137.76C84.33,-150.05 107.1,-166.21 129.25,-176.62 137.93,-180.7 147.72,-184.04 156.97,-186.69"/>
<polygon fill="black" stroke="black" points="70.78,-135.11 60.77,-131.64 66.42,-140.6 70.78,-135.11"/>
</g>
<!-- Node1&#45;&gt;Node6 -->
<g id="edge5" class="edge">
<title>Node1&#45;&gt;Node6</title>
<path fill="none" stroke="black" d="M98.18,-133.54C122.72,-139.8 150.95,-147.01 170.08,-151.9"/>
<polygon fill="black" stroke="black" points="99.23,-130.19 88.68,-131.11 97.5,-136.98 99.23,-130.19"/>
</g>
<!-- Node4 -->
<g id="Node000004" class="node">
<title>Node4</title>
<g id="a_Node000004"><a xlink:href="group__qpriv.html" target="_top" xlink:title="Inter&#45;Task communication primitives : Queues, Notifications and Event&#45;flags.">
<polygon fill="white" stroke="#666666" points="257.75,-130.25 129.25,-130.25 129.25,-111 257.75,-111 257.75,-130.25"/>
<text text-anchor="middle" x="193.5" y="-116.75" font-family="Helvetica,sans-Serif" font-size="10.00">Inter&#45;Task communication</text>
</a>
</g>
</g>
<!-- Node1&#45;&gt;Node4 -->
<g id="edge3" class="edge">
<title>Node1&#45;&gt;Node4</title>
<path fill="none" stroke="black" d="M104.84,-120.62C112.76,-120.62 120.93,-120.62 128.96,-120.62"/>
<polygon fill="black" stroke="black" points="104.98,-117.13 94.98,-120.63 104.98,-124.13 104.98,-117.13"/>
</g>
<!-- Node2 -->
<g id="Node000002" class="node">
<title>Node2</title>
<g id="a_Node000002"><a xlink:href="group__qtaskcreation.html" target="_top" xlink:title="Kernel API interface to create/remove tasks and perform special OS operations.">
<polygon fill="white" stroke="#666666" points="243.5,-93.25 143.5,-93.25 143.5,-74 243.5,-74 243.5,-93.25"/>
<text text-anchor="middle" x="193.5" y="-79.75" font-family="Helvetica,sans-Serif" font-size="10.00">Scheduler Interface</text>
</a>
</g>
</g>
<!-- Node1&#45;&gt;Node2 -->
<g id="edge1" class="edge">
<title>Node1&#45;&gt;Node2</title>
<path fill="none" stroke="black" d="M98.36,-107.67C116.26,-103.1 136.12,-98.02 152.96,-93.72"/>
<polygon fill="black" stroke="black" points="97.5,-104.27 88.68,-110.14 99.23,-111.06 97.5,-104.27"/>
</g>
<!-- Node3 -->
<g id="Node000003" class="node">
<title>Node3</title>
<g id="a_Node000003"><a xlink:href="group__qtaskmanip.html" target="_top" xlink:title="API interface to manage tasks.">
<polygon fill="white" stroke="#666666" points="235.62,-56.25 151.38,-56.25 151.38,-37 235.62,-37 235.62,-56.25"/>
<text text-anchor="middle" x="193.5" y="-42.75" font-family="Helvetica,sans-Serif" font-size="10.00">Managing tasks</text>
</a>
</g>
</g>
<!-- Node1&#45;&gt;Node3 -->
<g id="edge2" class="edge">
<title>Node1&#45;&gt;Node3</title>
<path fill="none" stroke="black" d="M68.48,-103.49C84.33,-91.2 107.1,-75.04 129.25,-64.62 136.07,-61.42 143.58,-58.67 150.96,-56.36"/>
<polygon fill="black" stroke="black" points="66.42,-100.65 60.77,-109.61 70.78,-106.14 66.42,-100.65"/>
</g>
<!-- Node8 -->
<g id="Node000008" class="node">
<title>Node8</title>
<g id="a_Node000008"><a xlink:href="group__qtypes.html" target="_top" xlink:title="Sets of types having specified widths used to design the entire OS. It also define macros directives ...">
<polygon fill="white" stroke="#666666" points="240.88,-19.25 146.12,-19.25 146.12,0 240.88,0 240.88,-19.25"/>
<text text-anchor="middle" x="193.5" y="-5.75" font-family="Helvetica,sans-Serif" font-size="10.00">Types and macros</text>
</a>
</g>
</g>
<!-- Node1&#45;&gt;Node8 -->
<g id="edge7" class="edge">
<title>Node1&#45;&gt;Node8</title>
<path fill="none" stroke="black" d="M59.85,-100.95C74.01,-79.77 99.27,-46.58 129.25,-27.62 134.36,-24.39 140.07,-21.72 145.91,-19.53"/>
<polygon fill="black" stroke="black" points="56.97,-98.96 54.48,-109.26 62.85,-102.76 56.97,-98.96"/>
</g>
</g>
</svg>
