<?xml version="1.0" encoding="UTF-8" standalone="no"?>
<!DOCTYPE svg PUBLIC "-//W3C//DTD SVG 1.1//EN"
 "http://www.w3.org/Graphics/SVG/1.1/DTD/svg11.dtd">
<!-- Generated by graphviz version 2.49.3 (20211027.1534)
 -->
<!-- Title: Operative System Pages: 1 -->
<svg width="267pt" height="249pt"
 viewBox="0.00 0.00 267.00 249.00" xmlns="http://www.w3.org/2000/svg" xmlns:xlink="http://www.w3.org/1999/xlink">
<g id="graph0" class="graph" transform="scale(1 1) rotate(0) translate(4 245)">
<title>Operative System</title>
<polygon fill="white" stroke="transparent" points="-4,4 -4,-245 263,-245 263,4 -4,4"/>
<!-- Node5 -->
<g id="node1" class="node">
<title>Node5</title>
<g id="a_node1"><a xlink:href="group__qclock.html" target="_top" xlink:title="Clock and time manipulation interface used by the entire OS.">
<polygon fill="white" stroke="black" points="215,-241 174,-241 174,-222 215,-222 215,-241"/>
<text text-anchor="middle" x="194.5" y="-229" font-family="Helvetica,sans-Serif" font-size="10.00">Clock</text>
</a>
</g>
</g>
<!-- Node7 -->
<g id="node2" class="node">
<title>Node7</title>
<g id="a_node2"><a xlink:href="group__qconfiguration.html" target="_top" xlink:title="Some OS features can be customized using a set of macros located in the header file config....">
<polygon fill="white" stroke="black" points="231,-204 158,-204 158,-185 231,-185 231,-204"/>
<text text-anchor="middle" x="194.5" y="-192" font-family="Helvetica,sans-Serif" font-size="10.00">Configuration</text>
</a>
</g>
</g>
<!-- Node6 -->
<g id="node3" class="node">
<title>Node6</title>
<g id="a_node3"><a xlink:href="group__qcritical.html" target="_top" xlink:title="APIs to handle entry/exit actions in Critical sections.">
<polygon fill="white" stroke="black" points="218,-167 171,-167 171,-148 218,-148 218,-167"/>
<text text-anchor="middle" x="194.5" y="-155" font-family="Helvetica,sans-Serif" font-size="10.00">Critical</text>
</a>
</g>
</g>
<!-- Node1 -->
<g id="node4" class="node">
<title>Node1</title>
<g id="a_node4"><a xlink:title=" ">
<polygon fill="#bfbfbf" stroke="black" points="94,-130 0,-130 0,-111 94,-111 94,-130"/>
<text text-anchor="middle" x="47" y="-118" font-family="Helvetica,sans-Serif" font-size="10.00">Operative System</text>
</a>
</g>
</g>
<!-- Node1&#45;&gt;Node5 -->
<g id="edge4" class="edge">
<title>Node1&#45;&gt;Node5</title>
<path fill="none" stroke="black" d="M59.28,-138.67C73.31,-159.75 99.2,-194.1 130,-213.5 143.38,-221.93 160.79,-226.5 173.99,-228.93"/>
<polygon fill="black" stroke="black" points="62.06,-136.52 53.7,-130.01 56.18,-140.31 62.06,-136.52"/>
</g>
<!-- Node1&#45;&gt;Node7 -->
<g id="edge6" class="edge">
<title>Node1&#45;&gt;Node7</title>
<path fill="none" stroke="black" d="M67.52,-136.52C83.48,-148.93 107.08,-165.77 130,-176.5 138.72,-180.58 148.55,-183.92 157.83,-186.57"/>
<polygon fill="black" stroke="black" points="69.5,-133.62 59.49,-130.14 65.14,-139.1 69.5,-133.62"/>
</g>
<!-- Node1&#45;&gt;Node6 -->
<g id="edge5" class="edge">
<title>Node1&#45;&gt;Node6</title>
<path fill="none" stroke="black" d="M95.26,-132.52C120.55,-138.95 150.55,-146.58 170.69,-151.7"/>
<polygon fill="black" stroke="black" points="96.02,-129.1 85.47,-130.03 94.3,-135.89 96.02,-129.1"/>
</g>
<!-- Node4 -->
<g id="node5" class="node">
<title>Node4</title>
<g id="a_node5"><a xlink:href="group__qpriv.html" target="_top" xlink:title="Inter&#45;Task communication primitives : Queues, Notifications and Event&#45;flags.">
<polygon fill="white" stroke="black" points="259,-130 130,-130 130,-111 259,-111 259,-130"/>
<text text-anchor="middle" x="194.5" y="-118" font-family="Helvetica,sans-Serif" font-size="10.00">Inter&#45;Task communication</text>
</a>
</g>
</g>
<!-- Node1&#45;&gt;Node4 -->
<g id="edge3" class="edge">
<title>Node1&#45;&gt;Node4</title>
<path fill="none" stroke="black" d="M104.15,-120.5C112.6,-120.5 121.36,-120.5 129.95,-120.5"/>
<polygon fill="black" stroke="black" points="104.04,-117 94.04,-120.5 104.04,-124 104.04,-117"/>
</g>
<!-- Node2 -->
<g id="node6" class="node">
<title>Node2</title>
<g id="a_node6"><a xlink:href="group__qtaskcreation.html" target="_top" xlink:title="Kernel API interface to create/remove tasks and perform special OS operations.">
<polygon fill="white" stroke="black" points="245,-93 144,-93 144,-74 245,-74 245,-93"/>
<text text-anchor="middle" x="194.5" y="-81" font-family="Helvetica,sans-Serif" font-size="10.00">Scheduler Interface</text>
</a>
</g>
</g>
<!-- Node1&#45;&gt;Node2 -->
<g id="edge1" class="edge">
<title>Node1&#45;&gt;Node2</title>
<path fill="none" stroke="black" d="M95.16,-108.51C114.84,-103.5 137.37,-97.77 155.9,-93.06"/>
<polygon fill="black" stroke="black" points="94.3,-105.11 85.47,-110.97 96.02,-111.9 94.3,-105.11"/>
</g>
<!-- Node3 -->
<g id="node7" class="node">
<title>Node3</title>
<g id="a_node7"><a xlink:href="group__qtaskmanip.html" target="_top" xlink:title="API interface to manage tasks.">
<polygon fill="white" stroke="black" points="237,-56 152,-56 152,-37 237,-37 237,-56"/>
<text text-anchor="middle" x="194.5" y="-44" font-family="Helvetica,sans-Serif" font-size="10.00">Managing tasks</text>
</a>
</g>
</g>
<!-- Node1&#45;&gt;Node3 -->
<g id="edge2" class="edge">
<title>Node1&#45;&gt;Node3</title>
<path fill="none" stroke="black" d="M67.88,-104.67C83.89,-92.56 107.37,-76.18 130,-65.5 137.81,-61.82 146.49,-58.66 154.86,-56.04"/>
<polygon fill="black" stroke="black" points="65.59,-102.02 59.81,-110.89 69.87,-107.56 65.59,-102.02"/>
</g>
<!-- Node8 -->
<g id="node8" class="node">
<title>Node8</title>
<g id="a_node8"><a xlink:href="group__qtypes.html" target="_top" xlink:title="Sets of types having specified widths used to design the entire OS. It also define macros directives ...">
<polygon fill="white" stroke="black" points="242,-19 147,-19 147,0 242,0 242,-19"/>
<text text-anchor="middle" x="194.5" y="-7" font-family="Helvetica,sans-Serif" font-size="10.00">Types and macros</text>
</a>
</g>
</g>
<!-- Node1&#45;&gt;Node8 -->
<g id="edge7" class="edge">
<title>Node1&#45;&gt;Node8</title>
<path fill="none" stroke="black" d="M59.6,-102.29C73.77,-81.48 99.63,-47.83 130,-28.5 136.02,-24.67 142.85,-21.58 149.74,-19.1"/>
<polygon fill="black" stroke="black" points="56.54,-100.58 53.94,-110.85 62.37,-104.44 56.54,-100.58"/>
</g>
</g>
</svg>
