<?xml version="1.0" encoding="UTF-8" standalone="no"?>
<!DOCTYPE svg PUBLIC "-//W3C//DTD SVG 1.1//EN"
 "http://www.w3.org/Graphics/SVG/1.1/DTD/svg11.dtd">
<!-- Generated by graphviz version 2.49.3 (20211027.1534)
 -->
<!-- Title: Co&#45;Routines Pages: 1 -->
<svg width="401pt" height="409pt"
 viewBox="0.00 0.00 401.00 409.00" xmlns="http://www.w3.org/2000/svg" xmlns:xlink="http://www.w3.org/1999/xlink">
<g id="graph0" class="graph" transform="scale(1 1) rotate(0) translate(4 405)">
<title>Co&#45;Routines</title>
<polygon fill="white" stroke="transparent" points="-4,4 -4,-405 397,-405 397,4 -4,4"/>
<!-- Node4 -->
<g id="node1" class="node">
<title>Node4</title>
<g id="a_node1"><a xlink:href="group__qatcli.html" target="_top" xlink:title="API for the AT Command Line Interface extension.">
<polygon fill="white" stroke="black" points="393,-401 256,-401 256,-382 393,-382 393,-401"/>
<text text-anchor="middle" x="324.5" y="-389" font-family="Helvetica,sans-Serif" font-size="10.00">AT Command Line Interface</text>
</a>
</g>
</g>
<!-- Node3 -->
<g id="node2" class="node">
<title>Node3</title>
<g id="a_node2"><a xlink:href="group__qbsbuffers.html" target="_top" xlink:title="An interrupt&#45;safe byte&#45;sized ring buffer interface.">
<polygon fill="white" stroke="black" points="372,-364 277,-364 277,-345 372,-345 372,-364"/>
<text text-anchor="middle" x="324.5" y="-352" font-family="Helvetica,sans-Serif" font-size="10.00">Byte&#45;Sized buffers</text>
</a>
</g>
</g>
<!-- Node5 -->
<g id="node3" class="node">
<title>Node5</title>
<g id="a_node3"><a xlink:href="group__qclock.html" target="_top" xlink:title="Clock and time manipulation interface used by the entire OS.">
<polygon fill="white" stroke="black" points="345,-327 304,-327 304,-308 345,-308 345,-327"/>
<text text-anchor="middle" x="324.5" y="-315" font-family="Helvetica,sans-Serif" font-size="10.00">Clock</text>
</a>
</g>
</g>
<!-- Node1 -->
<g id="node4" class="node">
<title>Node1</title>
<g id="a_node4"><a xlink:title="API interface for the Co&#45;Routines extension.">
<polygon fill="#bfbfbf" stroke="black" points="200,-204 130,-204 130,-185 200,-185 200,-204"/>
<text text-anchor="middle" x="165" y="-192" font-family="Helvetica,sans-Serif" font-size="10.00">Co&#45;Routines</text>
</a>
</g>
</g>
<!-- Node1&#45;&gt;Node4 -->
<g id="edge3" class="edge">
<title>Node1&#45;&gt;Node4</title>
<path fill="none" stroke="blueviolet" stroke-dasharray="5,2" d="M167.85,-204.32C172.79,-228.71 187.99,-293.34 218,-338.5 230.71,-357.62 235.88,-362.44 256,-373.5 262.16,-376.89 269,-379.66 275.89,-381.93"/>
<text text-anchor="middle" x="228" y="-364.5" font-family="Helvetica,sans-Serif" font-size="10.00">qOS</text>
</g>
<!-- Node1&#45;&gt;Node3 -->
<g id="edge2" class="edge">
<title>Node1&#45;&gt;Node3</title>
<path fill="none" stroke="blueviolet" stroke-dasharray="5,2" d="M168.58,-204.13C176.38,-231.07 202.54,-307.12 256,-336.5 262.48,-340.06 269.71,-342.95 276.96,-345.28"/>
<text text-anchor="middle" x="228" y="-326.5" font-family="Helvetica,sans-Serif" font-size="10.00">qOS</text>
</g>
<!-- Node1&#45;&gt;Node5 -->
<g id="edge4" class="edge">
<title>Node1&#45;&gt;Node5</title>
<path fill="none" stroke="blueviolet" stroke-dasharray="5,2" d="M170.97,-204.1C182.58,-225.43 213.75,-276.68 256,-299.5 271.05,-307.63 289.99,-312.26 303.98,-314.79"/>
<text text-anchor="middle" x="228" y="-289.5" font-family="Helvetica,sans-Serif" font-size="10.00">qOS</text>
</g>
<!-- Node6 -->
<g id="node5" class="node">
<title>Node6</title>
<g id="a_node5"><a xlink:href="group__qcritical.html" target="_top" xlink:title="APIs to handle entry/exit actions in Critical sections.">
<polygon fill="white" stroke="black" points="348,-290 301,-290 301,-271 348,-271 348,-290"/>
<text text-anchor="middle" x="324.5" y="-278" font-family="Helvetica,sans-Serif" font-size="10.00">Critical</text>
</a>
</g>
</g>
<!-- Node1&#45;&gt;Node6 -->
<g id="edge5" class="edge">
<title>Node1&#45;&gt;Node6</title>
<path fill="none" stroke="blueviolet" stroke-dasharray="5,2" d="M176.24,-204.14C192.12,-218.59 224.19,-245.85 256,-261.5 270.2,-268.49 287.39,-273.28 300.86,-276.3"/>
<text text-anchor="middle" x="228" y="-253.5" font-family="Helvetica,sans-Serif" font-size="10.00">qOS</text>
</g>
<!-- Node7 -->
<g id="node6" class="node">
<title>Node7</title>
<g id="a_node6"><a xlink:href="group__qedgecheck.html" target="_top" xlink:title="An interface to manage and simplify the value(with edge&#45;checking) of incoming digital&#45;signal groups.">
<polygon fill="white" stroke="black" points="375,-252.5 274,-252.5 274,-222.5 375,-222.5 375,-252.5"/>
<text text-anchor="start" x="282" y="-240.5" font-family="Helvetica,sans-Serif" font-size="10.00">I/O Groups for edge</text>
<text text-anchor="middle" x="324.5" y="-229.5" font-family="Helvetica,sans-Serif" font-size="10.00"> checking</text>
</a>
</g>
</g>
<!-- Node1&#45;&gt;Node7 -->
<g id="edge6" class="edge">
<title>Node1&#45;&gt;Node7</title>
<path fill="none" stroke="blueviolet" stroke-dasharray="5,2" d="M198.7,-204.05C205.09,-205.88 211.75,-207.77 218,-209.5 236.17,-214.53 256.16,-219.88 273.8,-224.54"/>
<text text-anchor="middle" x="228" y="-217.5" font-family="Helvetica,sans-Serif" font-size="10.00">qOS</text>
</g>
<!-- Node8 -->
<g id="node7" class="node">
<title>Node8</title>
<g id="a_node7"><a xlink:href="group__qfsm.html" target="_top" xlink:title="API interface of the Finite State Machines (FSM) extension.">
<polygon fill="white" stroke="black" points="379.5,-204 269.5,-204 269.5,-185 379.5,-185 379.5,-204"/>
<text text-anchor="middle" x="324.5" y="-192" font-family="Helvetica,sans-Serif" font-size="10.00">Finite State Machines</text>
</a>
</g>
</g>
<!-- Node1&#45;&gt;Node8 -->
<g id="edge7" class="edge">
<title>Node1&#45;&gt;Node8</title>
<path fill="none" stroke="blueviolet" stroke-dasharray="5,2" d="M200.18,-194.5C220.35,-194.5 246.35,-194.5 269.26,-194.5"/>
<text text-anchor="middle" x="228" y="-197.5" font-family="Helvetica,sans-Serif" font-size="10.00">qOS</text>
</g>
<!-- Node13 -->
<g id="node8" class="node">
<title>Node13</title>
<g id="a_node8"><a xlink:href="group__qioutils.html" target="_top" xlink:title="API for input/output utilities and safe string interfaces.">
<polygon fill="white" stroke="black" points="351,-167 298,-167 298,-148 351,-148 351,-167"/>
<text text-anchor="middle" x="324.5" y="-155" font-family="Helvetica,sans-Serif" font-size="10.00">I/O Utils</text>
</a>
</g>
</g>
<!-- Node1&#45;&gt;Node13 -->
<g id="edge12" class="edge">
<title>Node1&#45;&gt;Node13</title>
<path fill="none" stroke="blueviolet" stroke-dasharray="5,2" d="M197.52,-185C204.25,-183.08 211.34,-181.15 218,-179.5 245.06,-172.79 276.36,-166.44 297.8,-162.3"/>
<text text-anchor="middle" x="228" y="-182.5" font-family="Helvetica,sans-Serif" font-size="10.00">qOS</text>
</g>
<!-- Node9 -->
<g id="node10" class="node">
<title>Node9</title>
<g id="a_node10"><a xlink:href="group__qqueues.html" target="_top" xlink:title="API interface to create and handle Queues.">
<polygon fill="white" stroke="black" points="349.5,-130 299.5,-130 299.5,-111 349.5,-111 349.5,-130"/>
<text text-anchor="middle" x="324.5" y="-118" font-family="Helvetica,sans-Serif" font-size="10.00">Queues</text>
</a>
</g>
</g>
<!-- Node1&#45;&gt;Node9 -->
<g id="edge8" class="edge">
<title>Node1&#45;&gt;Node9</title>
<path fill="none" stroke="blueviolet" stroke-dasharray="5,2" d="M178.39,-184.93C195.11,-172.47 226.25,-150.82 256,-138.5 269.89,-132.74 286.17,-128.34 299.25,-125.33"/>
<text text-anchor="middle" x="228" y="-160.5" font-family="Helvetica,sans-Serif" font-size="10.00">qOS</text>
</g>
<!-- Node10 -->
<g id="node11" class="node">
<title>Node10</title>
<g id="a_node11"><a xlink:href="group__qresponse.html" target="_top" xlink:title="API to simplify the handling of requested responses from terminal interfaces.">
<polygon fill="white" stroke="black" points="371.5,-93 277.5,-93 277.5,-74 371.5,-74 371.5,-93"/>
<text text-anchor="middle" x="324.5" y="-81" font-family="Helvetica,sans-Serif" font-size="10.00">Response handler</text>
</a>
</g>
</g>
<!-- Node1&#45;&gt;Node10 -->
<g id="edge9" class="edge">
<title>Node1&#45;&gt;Node10</title>
<path fill="none" stroke="blueviolet" stroke-dasharray="5,2" d="M172.05,-184.87C184.86,-165.41 216.79,-121.54 256,-101.5 262.7,-98.08 270.11,-95.26 277.5,-92.95"/>
<text text-anchor="middle" x="228" y="-131.5" font-family="Helvetica,sans-Serif" font-size="10.00">qOS</text>
</g>
<!-- Node12 -->
<g id="node12" class="node">
<title>Node12</title>
<g id="a_node12"><a xlink:href="group__qstimers.html" target="_top" xlink:title="API interface for the STimers extension.">
<polygon fill="white" stroke="black" points="369,-56 280,-56 280,-37 369,-37 369,-56"/>
<text text-anchor="middle" x="324.5" y="-44" font-family="Helvetica,sans-Serif" font-size="10.00">Software&#45;Timers</text>
</a>
</g>
</g>
<!-- Node1&#45;&gt;Node12 -->
<g id="edge11" class="edge">
<title>Node1&#45;&gt;Node12</title>
<path fill="none" stroke="blueviolet" stroke-dasharray="5,2" d="M169.31,-184.72C178.44,-159.45 206.63,-92.08 256,-64.5 263.31,-60.42 271.58,-57.23 279.76,-54.75"/>
<text text-anchor="middle" x="228" y="-97.5" font-family="Helvetica,sans-Serif" font-size="10.00">qOS</text>
</g>
<!-- Node11 -->
<g id="node13" class="node">
<title>Node11</title>
<g id="a_node13"><a xlink:href="group__qtaskmanip.html" target="_top" xlink:title="API interface to manage tasks.">
<polygon fill="white" stroke="black" points="367,-19 282,-19 282,0 367,0 367,-19"/>
<text text-anchor="middle" x="324.5" y="-7" font-family="Helvetica,sans-Serif" font-size="10.00">Managing tasks</text>
</a>
</g>
</g>
<!-- Node1&#45;&gt;Node11 -->
<g id="edge10" class="edge">
<title>Node1&#45;&gt;Node11</title>
<path fill="none" stroke="blueviolet" stroke-dasharray="5,2" d="M168.41,-184.7C174.27,-162.09 190.83,-105.11 218,-64.5 231.11,-44.91 235.5,-39.14 256,-27.5 263.91,-23.01 272.98,-19.6 281.85,-17.04"/>
<text text-anchor="middle" x="228" y="-67.5" font-family="Helvetica,sans-Serif" font-size="10.00">qOS</text>
</g>
<!-- Node2 -->
<g id="node9" class="node">
<title>Node2</title>
<g id="a_node9"><a xlink:href="group__qmodules.html" target="_top" xlink:title=" ">
<polygon fill="white" stroke="black" points="93,-204 0,-204 0,-185 93,-185 93,-204"/>
<text text-anchor="middle" x="46.5" y="-192" font-family="Helvetica,sans-Serif" font-size="10.00">Kernel extensions</text>
</a>
</g>
</g>
<!-- Node2&#45;&gt;Node1 -->
<g id="edge1" class="edge">
<title>Node2&#45;&gt;Node1</title>
<path fill="none" stroke="black" d="M103.38,-194.5C112.45,-194.5 121.6,-194.5 129.95,-194.5"/>
<polygon fill="black" stroke="black" points="103.21,-191 93.21,-194.5 103.21,-198 103.21,-191"/>
</g>
</g>
</svg>
