<?xml version="1.0" encoding="UTF-8" standalone="no"?>
<!DOCTYPE svg PUBLIC "-//W3C//DTD SVG 1.1//EN"
 "http://www.w3.org/Graphics/SVG/1.1/DTD/svg11.dtd">
<!-- Generated by graphviz version 2.49.3 (20211027.1534)
 -->
<!-- Title: Utilities Pages: 1 -->
<svg width="204pt" height="273pt"
 viewBox="0.00 0.00 204.00 273.00" xmlns="http://www.w3.org/2000/svg" xmlns:xlink="http://www.w3.org/1999/xlink">
<g id="graph0" class="graph" transform="scale(1 1) rotate(0) translate(4 269)">
<title>Utilities</title>
<polygon fill="white" stroke="transparent" points="-4,4 -4,-269 200,-269 200,4 -4,4"/>
<!-- Node3 -->
<g id="node1" class="node">
<title>Node3</title>
<g id="a_node1"><a xlink:href="group__qbsbuffers.html" target="_top" xlink:title="An interrupt&#45;safe byte&#45;sized ring buffer interface.">
<polygon fill="white" stroke="black" points="188.5,-265 93.5,-265 93.5,-246 188.5,-246 188.5,-265"/>
<text text-anchor="middle" x="141" y="-253" font-family="Helvetica,sans-Serif" font-size="10.00">Byte&#45;Sized buffers</text>
</a>
</g>
</g>
<!-- Node4 -->
<g id="node2" class="node">
<title>Node4</title>
<g id="a_node2"><a xlink:href="group__qedgecheck.html" target="_top" xlink:title="An interface to manage and simplify the value(with edge&#45;checking) of incoming digital&#45;signal groups.">
<polygon fill="white" stroke="black" points="191.5,-227.5 90.5,-227.5 90.5,-197.5 191.5,-197.5 191.5,-227.5"/>
<text text-anchor="start" x="98.5" y="-215.5" font-family="Helvetica,sans-Serif" font-size="10.00">I/O Groups for edge</text>
<text text-anchor="middle" x="141" y="-204.5" font-family="Helvetica,sans-Serif" font-size="10.00"> checking</text>
</a>
</g>
</g>
<!-- Node8 -->
<g id="node3" class="node">
<title>Node8</title>
<g id="a_node3"><a xlink:href="group__qflm.html" target="_top" xlink:title=" ">
<polygon fill="white" stroke="black" points="184.5,-179 97.5,-179 97.5,-160 184.5,-160 184.5,-179"/>
<text text-anchor="middle" x="141" y="-167" font-family="Helvetica,sans-Serif" font-size="10.00">Helper functions</text>
</a>
</g>
</g>
<!-- Node5 -->
<g id="node4" class="node">
<title>Node5</title>
<g id="a_node4"><a xlink:href="group__qioutils.html" target="_top" xlink:title="API for input/output utilities and safe string interfaces.">
<polygon fill="white" stroke="black" points="167.5,-142 114.5,-142 114.5,-123 167.5,-123 167.5,-142"/>
<text text-anchor="middle" x="141" y="-130" font-family="Helvetica,sans-Serif" font-size="10.00">I/O Utils</text>
</a>
</g>
</g>
<!-- Node2 -->
<g id="node5" class="node">
<title>Node2</title>
<g id="a_node5"><a xlink:href="group__qlists.html" target="_top" xlink:title="The provided list implementation uses a generic doubly&#45;linked approach in which each node,...">
<polygon fill="white" stroke="black" points="196,-104.5 86,-104.5 86,-74.5 196,-74.5 196,-104.5"/>
<text text-anchor="start" x="94" y="-92.5" font-family="Helvetica,sans-Serif" font-size="10.00">Generic double&#45;linked</text>
<text text-anchor="middle" x="141" y="-81.5" font-family="Helvetica,sans-Serif" font-size="10.00"> lists</text>
</a>
</g>
</g>
<!-- Node6 -->
<g id="node6" class="node">
<title>Node6</title>
<g id="a_node6"><a xlink:href="group__qresponse.html" target="_top" xlink:title="API to simplify the handling of requested responses from terminal interfaces.">
<polygon fill="white" stroke="black" points="188,-56 94,-56 94,-37 188,-37 188,-56"/>
<text text-anchor="middle" x="141" y="-44" font-family="Helvetica,sans-Serif" font-size="10.00">Response handler</text>
</a>
</g>
</g>
<!-- Node7 -->
<g id="node7" class="node">
<title>Node7</title>
<g id="a_node7"><a xlink:href="group__qtrace.html" target="_top" xlink:title=" ">
<polygon fill="white" stroke="black" points="161.5,-19 120.5,-19 120.5,0 161.5,0 161.5,-19"/>
<text text-anchor="middle" x="141" y="-7" font-family="Helvetica,sans-Serif" font-size="10.00">Trace</text>
</a>
</g>
</g>
<!-- Node1 -->
<g id="node8" class="node">
<title>Node1</title>
<g id="a_node8"><a xlink:title=" ">
<polygon fill="#bfbfbf" stroke="black" points="50,-142 0,-142 0,-123 50,-123 50,-142"/>
<text text-anchor="middle" x="25" y="-130" font-family="Helvetica,sans-Serif" font-size="10.00">Utilities</text>
</a>
</g>
</g>
<!-- Node1&#45;&gt;Node3 -->
<g id="edge2" class="edge">
<title>Node1&#45;&gt;Node3</title>
<path fill="none" stroke="black" d="M32.39,-151.78C41.03,-175.01 58.59,-213.74 86,-236.5 90.66,-240.37 96.17,-243.48 101.86,-245.96"/>
<polygon fill="black" stroke="black" points="35.58,-150.3 28.95,-142.04 28.98,-152.63 35.58,-150.3"/>
</g>
<!-- Node1&#45;&gt;Node4 -->
<g id="edge3" class="edge">
<title>Node1&#45;&gt;Node4</title>
<path fill="none" stroke="black" d="M41.61,-149.86C53.04,-161.83 69.39,-177.51 86,-188.5 90.88,-191.73 96.26,-194.71 101.68,-197.39"/>
<polygon fill="black" stroke="black" points="43.91,-147.2 34.54,-142.26 38.79,-151.97 43.91,-147.2"/>
</g>
<!-- Node1&#45;&gt;Node8 -->
<g id="edge7" class="edge">
<title>Node1&#45;&gt;Node8</title>
<path fill="none" stroke="black" d="M59.78,-143.46C75.92,-148.7 95.06,-154.91 110.6,-159.96"/>
<polygon fill="black" stroke="black" points="60.77,-140.1 50.18,-140.35 58.61,-146.76 60.77,-140.1"/>
</g>
<!-- Node1&#45;&gt;Node5 -->
<g id="edge4" class="edge">
<title>Node1&#45;&gt;Node5</title>
<path fill="none" stroke="black" d="M60.45,-132.5C77.76,-132.5 98.37,-132.5 114.27,-132.5"/>
<polygon fill="black" stroke="black" points="60.18,-129 50.18,-132.5 60.18,-136 60.18,-129"/>
</g>
<!-- Node1&#45;&gt;Node2 -->
<g id="edge1" class="edge">
<title>Node1&#45;&gt;Node2</title>
<path fill="none" stroke="black" d="M59.87,-119.72C72.53,-114.95 87.01,-109.49 100.16,-104.53"/>
<polygon fill="black" stroke="black" points="58.3,-116.58 50.18,-123.38 60.77,-123.13 58.3,-116.58"/>
</g>
<!-- Node1&#45;&gt;Node6 -->
<g id="edge5" class="edge">
<title>Node1&#45;&gt;Node6</title>
<path fill="none" stroke="black" d="M38.17,-114.46C49.11,-99.48 66.44,-78.58 86,-65.5 91.7,-61.69 98.25,-58.55 104.78,-56"/>
<polygon fill="black" stroke="black" points="35.12,-112.71 32.22,-122.9 40.84,-116.75 35.12,-112.71"/>
</g>
<!-- Node1&#45;&gt;Node7 -->
<g id="edge6" class="edge">
<title>Node1&#45;&gt;Node7</title>
<path fill="none" stroke="black" d="M32.39,-113.22C41.03,-89.99 58.59,-51.26 86,-28.5 95.79,-20.37 109.29,-15.62 120.34,-12.91"/>
<polygon fill="black" stroke="black" points="28.98,-112.37 28.95,-122.96 35.58,-114.7 28.98,-112.37"/>
</g>
</g>
</svg>
