<?xml version="1.0" encoding="UTF-8" standalone="no"?>
<!DOCTYPE svg PUBLIC "-//W3C//DTD SVG 1.1//EN"
 "http://www.w3.org/Graphics/SVG/1.1/DTD/svg11.dtd">
<!-- Generated by graphviz version 2.49.3 (20211027.1534)
 -->
<!-- Title: I/O Groups for edge checking Pages: 1 -->
<svg width="389pt" height="434pt"
 viewBox="0.00 0.00 389.00 434.00" xmlns="http://www.w3.org/2000/svg" xmlns:xlink="http://www.w3.org/1999/xlink">
<g id="graph0" class="graph" transform="scale(1 1) rotate(0) translate(4 430)">
<title>I/O Groups for edge checking</title>
<polygon fill="white" stroke="transparent" points="-4,4 -4,-430 385,-430 385,4 -4,4"/>
<!-- Node4 -->
<g id="node1" class="node">
<title>Node4</title>
<g id="a_node1"><a xlink:href="group__qatcli.html" target="_top" xlink:title="API for the AT Command Line Interface extension.">
<polygon fill="white" stroke="black" points="381,-426 244,-426 244,-407 381,-407 381,-426"/>
<text text-anchor="middle" x="312.5" y="-414" font-family="Helvetica,sans-Serif" font-size="10.00">AT Command Line Interface</text>
</a>
</g>
</g>
<!-- Node3 -->
<g id="node2" class="node">
<title>Node3</title>
<g id="a_node2"><a xlink:href="group__qbsbuffers.html" target="_top" xlink:title="An interrupt&#45;safe byte&#45;sized ring buffer interface.">
<polygon fill="white" stroke="black" points="360,-389 265,-389 265,-370 360,-370 360,-389"/>
<text text-anchor="middle" x="312.5" y="-377" font-family="Helvetica,sans-Serif" font-size="10.00">Byte&#45;Sized buffers</text>
</a>
</g>
</g>
<!-- Node5 -->
<g id="node3" class="node">
<title>Node5</title>
<g id="a_node3"><a xlink:href="group__qclock.html" target="_top" xlink:title="Clock and time manipulation interface used by the entire OS.">
<polygon fill="white" stroke="black" points="333,-352 292,-352 292,-333 333,-333 333,-352"/>
<text text-anchor="middle" x="312.5" y="-340" font-family="Helvetica,sans-Serif" font-size="10.00">Clock</text>
</a>
</g>
</g>
<!-- Node6 -->
<g id="node4" class="node">
<title>Node6</title>
<g id="a_node4"><a xlink:href="group__qcoroutines.html" target="_top" xlink:title="API interface for the Co&#45;Routines extension.">
<polygon fill="white" stroke="black" points="347.5,-315 277.5,-315 277.5,-296 347.5,-296 347.5,-315"/>
<text text-anchor="middle" x="312.5" y="-303" font-family="Helvetica,sans-Serif" font-size="10.00">Co&#45;Routines</text>
</a>
</g>
</g>
<!-- Node7 -->
<g id="node5" class="node">
<title>Node7</title>
<g id="a_node5"><a xlink:href="group__qcritical.html" target="_top" xlink:title="APIs to handle entry/exit actions in Critical sections.">
<polygon fill="white" stroke="black" points="336,-278 289,-278 289,-259 336,-259 336,-278"/>
<text text-anchor="middle" x="312.5" y="-266" font-family="Helvetica,sans-Serif" font-size="10.00">Critical</text>
</a>
</g>
</g>
<!-- Node1 -->
<g id="node6" class="node">
<title>Node1</title>
<g id="a_node6"><a xlink:title="An interface to manage and simplify the value(with edge&#45;checking) of incoming digital&#45;signal groups.">
<polygon fill="#bfbfbf" stroke="black" points="188,-227.5 87,-227.5 87,-197.5 188,-197.5 188,-227.5"/>
<text text-anchor="start" x="95" y="-215.5" font-family="Helvetica,sans-Serif" font-size="10.00">I/O Groups for edge</text>
<text text-anchor="middle" x="137.5" y="-204.5" font-family="Helvetica,sans-Serif" font-size="10.00"> checking</text>
</a>
</g>
</g>
<!-- Node1&#45;&gt;Node4 -->
<g id="edge3" class="edge">
<title>Node1&#45;&gt;Node4</title>
<path fill="none" stroke="blueviolet" stroke-dasharray="5,2" d="M143.09,-227.56C152.16,-255.78 174.25,-317.8 206,-362.5 219.47,-381.47 223.69,-387.15 244,-398.5 250.04,-401.87 256.73,-404.63 263.49,-406.89"/>
<text text-anchor="middle" x="216" y="-388.5" font-family="Helvetica,sans-Serif" font-size="10.00">qOS</text>
</g>
<!-- Node1&#45;&gt;Node3 -->
<g id="edge2" class="edge">
<title>Node1&#45;&gt;Node3</title>
<path fill="none" stroke="blueviolet" stroke-dasharray="5,2" d="M144.04,-227.74C156.4,-259.23 189.49,-331.05 244,-361.5 250.46,-365.11 257.67,-368.02 264.91,-370.36"/>
<text text-anchor="middle" x="216" y="-350.5" font-family="Helvetica,sans-Serif" font-size="10.00">qOS</text>
</g>
<!-- Node1&#45;&gt;Node5 -->
<g id="edge4" class="edge">
<title>Node1&#45;&gt;Node5</title>
<path fill="none" stroke="blueviolet" stroke-dasharray="5,2" d="M147.97,-227.89C164.21,-252.82 199.94,-301.55 244,-324.5 259.06,-332.34 277.83,-336.99 291.76,-339.59"/>
<text text-anchor="middle" x="216" y="-313.5" font-family="Helvetica,sans-Serif" font-size="10.00">qOS</text>
</g>
<!-- Node1&#45;&gt;Node6 -->
<g id="edge5" class="edge">
<title>Node1&#45;&gt;Node6</title>
<path fill="none" stroke="blueviolet" stroke-dasharray="5,2" d="M155.57,-227.6C175.49,-244.49 210.03,-271.54 244,-287.5 254.43,-292.4 266.41,-296.14 277.36,-298.91"/>
<text text-anchor="middle" x="216" y="-280.5" font-family="Helvetica,sans-Serif" font-size="10.00">qOS</text>
</g>
<!-- Node1&#45;&gt;Node7 -->
<g id="edge6" class="edge">
<title>Node1&#45;&gt;Node7</title>
<path fill="none" stroke="blueviolet" stroke-dasharray="5,2" d="M177.81,-227.56C197.54,-234.89 221.89,-243.58 244,-250.5 258.82,-255.13 275.69,-259.63 288.86,-262.98"/>
<text text-anchor="middle" x="216" y="-246.5" font-family="Helvetica,sans-Serif" font-size="10.00">qOS</text>
</g>
<!-- Node8 -->
<g id="node7" class="node">
<title>Node8</title>
<g id="a_node7"><a xlink:href="group__qfsm.html" target="_top" xlink:title="API interface of the Finite State Machines (FSM) extension.">
<polygon fill="white" stroke="black" points="367.5,-241 257.5,-241 257.5,-222 367.5,-222 367.5,-241"/>
<text text-anchor="middle" x="312.5" y="-229" font-family="Helvetica,sans-Serif" font-size="10.00">Finite State Machines</text>
</a>
</g>
</g>
<!-- Node1&#45;&gt;Node8 -->
<g id="edge7" class="edge">
<title>Node1&#45;&gt;Node8</title>
<path fill="none" stroke="blueviolet" stroke-dasharray="5,2" d="M188.07,-217.94C209.74,-220.32 235.21,-223.12 257.37,-225.56"/>
<text text-anchor="middle" x="216" y="-224.5" font-family="Helvetica,sans-Serif" font-size="10.00">qOS</text>
</g>
<!-- Node14 -->
<g id="node8" class="node">
<title>Node14</title>
<g id="a_node8"><a xlink:href="group__qioutils.html" target="_top" xlink:title="API for input/output utilities and safe string interfaces.">
<polygon fill="white" stroke="black" points="339,-204 286,-204 286,-185 339,-185 339,-204"/>
<text text-anchor="middle" x="312.5" y="-192" font-family="Helvetica,sans-Serif" font-size="10.00">I/O Utils</text>
</a>
</g>
</g>
<!-- Node1&#45;&gt;Node14 -->
<g id="edge13" class="edge">
<title>Node1&#45;&gt;Node14</title>
<path fill="none" stroke="blueviolet" stroke-dasharray="5,2" d="M188.11,-201.23C194.11,-200.16 200.18,-199.21 206,-198.5 233.11,-195.2 264.4,-194.38 285.82,-194.28"/>
<text text-anchor="middle" x="216" y="-201.5" font-family="Helvetica,sans-Serif" font-size="10.00">qOS</text>
</g>
<!-- Node10 -->
<g id="node9" class="node">
<title>Node10</title>
<g id="a_node9"><a xlink:href="group__qqueues.html" target="_top" xlink:title="API interface to create and handle Queues.">
<polygon fill="white" stroke="black" points="337.5,-167 287.5,-167 287.5,-148 337.5,-148 337.5,-167"/>
<text text-anchor="middle" x="312.5" y="-155" font-family="Helvetica,sans-Serif" font-size="10.00">Queues</text>
</a>
</g>
</g>
<!-- Node1&#45;&gt;Node10 -->
<g id="edge9" class="edge">
<title>Node1&#45;&gt;Node10</title>
<path fill="none" stroke="blueviolet" stroke-dasharray="5,2" d="M169.27,-197.38C180.63,-192.18 193.73,-186.64 206,-182.5 233.29,-173.29 265.64,-166.16 287.26,-161.91"/>
<text text-anchor="middle" x="216" y="-185.5" font-family="Helvetica,sans-Serif" font-size="10.00">qOS</text>
</g>
<!-- Node11 -->
<g id="node10" class="node">
<title>Node11</title>
<g id="a_node10"><a xlink:href="group__qresponse.html" target="_top" xlink:title="API to simplify the handling of requested responses from terminal interfaces.">
<polygon fill="white" stroke="black" points="359.5,-130 265.5,-130 265.5,-111 359.5,-111 359.5,-130"/>
<text text-anchor="middle" x="312.5" y="-118" font-family="Helvetica,sans-Serif" font-size="10.00">Response handler</text>
</a>
</g>
</g>
<!-- Node1&#45;&gt;Node11 -->
<g id="edge10" class="edge">
<title>Node1&#45;&gt;Node11</title>
<path fill="none" stroke="blueviolet" stroke-dasharray="5,2" d="M155.07,-197.5C174.79,-180.49 209.42,-153.22 244,-138.5 251.7,-135.22 260.15,-132.4 268.39,-130.04"/>
<text text-anchor="middle" x="216" y="-162.5" font-family="Helvetica,sans-Serif" font-size="10.00">qOS</text>
</g>
<!-- Node13 -->
<g id="node11" class="node">
<title>Node13</title>
<g id="a_node11"><a xlink:href="group__qstimers.html" target="_top" xlink:title="API interface for the STimers extension.">
<polygon fill="white" stroke="black" points="357,-93 268,-93 268,-74 357,-74 357,-93"/>
<text text-anchor="middle" x="312.5" y="-81" font-family="Helvetica,sans-Serif" font-size="10.00">Software&#45;Timers</text>
</a>
</g>
</g>
<!-- Node1&#45;&gt;Node13 -->
<g id="edge12" class="edge">
<title>Node1&#45;&gt;Node13</title>
<path fill="none" stroke="blueviolet" stroke-dasharray="5,2" d="M148.01,-197.27C164.32,-172.59 200.14,-124.35 244,-101.5 251.42,-97.63 259.75,-94.54 267.95,-92.09"/>
<text text-anchor="middle" x="216" y="-131.5" font-family="Helvetica,sans-Serif" font-size="10.00">qOS</text>
</g>
<!-- Node9 -->
<g id="node12" class="node">
<title>Node9</title>
<g id="a_node12"><a xlink:href="group__qtaskcreation.html" target="_top" xlink:title="Kernel API interface to create/remove tasks and perform special OS operations.">
<polygon fill="white" stroke="black" points="363,-56 262,-56 262,-37 363,-37 363,-56"/>
<text text-anchor="middle" x="312.5" y="-44" font-family="Helvetica,sans-Serif" font-size="10.00">Scheduler Interface</text>
</a>
</g>
</g>
<!-- Node1&#45;&gt;Node9 -->
<g id="edge8" class="edge">
<title>Node1&#45;&gt;Node9</title>
<path fill="none" stroke="blueviolet" stroke-dasharray="5,2" d="M144.08,-197.37C156.51,-166.12 189.73,-94.82 244,-64.5 250.04,-61.13 256.73,-58.37 263.49,-56.11"/>
<text text-anchor="middle" x="216" y="-94.5" font-family="Helvetica,sans-Serif" font-size="10.00">qOS</text>
</g>
<!-- Node12 -->
<g id="node13" class="node">
<title>Node12</title>
<g id="a_node13"><a xlink:href="group__qtaskmanip.html" target="_top" xlink:title="API interface to manage tasks.">
<polygon fill="white" stroke="black" points="355,-19 270,-19 270,0 355,0 355,-19"/>
<text text-anchor="middle" x="312.5" y="-7" font-family="Helvetica,sans-Serif" font-size="10.00">Managing tasks</text>
</a>
</g>
</g>
<!-- Node1&#45;&gt;Node12 -->
<g id="edge11" class="edge">
<title>Node1&#45;&gt;Node12</title>
<path fill="none" stroke="blueviolet" stroke-dasharray="5,2" d="M143.26,-197.11C152.45,-168.88 174.53,-107.68 206,-63.5 219.5,-44.55 223.69,-38.85 244,-27.5 251.94,-23.06 261.02,-19.68 269.89,-17.12"/>
<text text-anchor="middle" x="216" y="-66.5" font-family="Helvetica,sans-Serif" font-size="10.00">qOS</text>
</g>
<!-- Node2 -->
<g id="node14" class="node">
<title>Node2</title>
<g id="a_node14"><a xlink:href="group__qutility.html" target="_top" xlink:title=" ">
<polygon fill="white" stroke="black" points="50,-222 0,-222 0,-203 50,-203 50,-222"/>
<text text-anchor="middle" x="25" y="-210" font-family="Helvetica,sans-Serif" font-size="10.00">Utilities</text>
</a>
</g>
</g>
<!-- Node2&#45;&gt;Node1 -->
<g id="edge1" class="edge">
<title>Node2&#45;&gt;Node1</title>
<path fill="none" stroke="black" d="M60.41,-212.5C68.81,-212.5 77.97,-212.5 86.92,-212.5"/>
<polygon fill="black" stroke="black" points="60.25,-209 50.25,-212.5 60.25,-216 60.25,-209"/>
</g>
</g>
</svg>
