<?xml version="1.0" encoding="UTF-8" standalone="no"?>
<!DOCTYPE svg PUBLIC "-//W3C//DTD SVG 1.1//EN"
 "http://www.w3.org/Graphics/SVG/1.1/DTD/svg11.dtd">
<!-- Generated by graphviz version 2.49.3 (20211027.1534)
 -->
<!-- Title: Byte&#45;Sized buffers Pages: 1 -->
<svg width="383pt" height="446pt"
 viewBox="0.00 0.00 383.00 446.00" xmlns="http://www.w3.org/2000/svg" xmlns:xlink="http://www.w3.org/1999/xlink">
<g id="graph0" class="graph" transform="scale(1 1) rotate(0) translate(4 442)">
<title>Byte&#45;Sized buffers</title>
<polygon fill="white" stroke="transparent" points="-4,4 -4,-442 379,-442 379,4 -4,4"/>
<!-- Node3 -->
<g id="node1" class="node">
<title>Node3</title>
<g id="a_node1"><a xlink:href="group__qatcli.html" target="_top" xlink:title="API for the AT Command Line Interface extension.">
<polygon fill="white" stroke="black" points="375,-438 238,-438 238,-419 375,-419 375,-438"/>
<text text-anchor="middle" x="306.5" y="-426" font-family="Helvetica,sans-Serif" font-size="10.00">AT Command Line Interface</text>
</a>
</g>
</g>
<!-- Node1 -->
<g id="node2" class="node">
<title>Node1</title>
<g id="a_node2"><a xlink:title="An interrupt&#45;safe byte&#45;sized ring buffer interface.">
<polygon fill="#bfbfbf" stroke="black" points="182,-222 87,-222 87,-203 182,-203 182,-222"/>
<text text-anchor="middle" x="134.5" y="-210" font-family="Helvetica,sans-Serif" font-size="10.00">Byte&#45;Sized buffers</text>
</a>
</g>
</g>
<!-- Node1&#45;&gt;Node3 -->
<g id="edge2" class="edge">
<title>Node1&#45;&gt;Node3</title>
<path fill="none" stroke="blueviolet" stroke-dasharray="5,2" d="M137.62,-222.13C143.79,-248.64 163.66,-324.26 200,-376.5 212.94,-395.1 218.06,-399.73 238,-410.5 244.3,-413.9 251.28,-416.69 258.29,-418.97"/>
<text text-anchor="middle" x="210" y="-401.5" font-family="Helvetica,sans-Serif" font-size="10.00">qOS</text>
</g>
<!-- Node4 -->
<g id="node3" class="node">
<title>Node4</title>
<g id="a_node3"><a xlink:href="group__qclock.html" target="_top" xlink:title="Clock and time manipulation interface used by the entire OS.">
<polygon fill="white" stroke="black" points="327,-401 286,-401 286,-382 327,-382 327,-401"/>
<text text-anchor="middle" x="306.5" y="-389" font-family="Helvetica,sans-Serif" font-size="10.00">Clock</text>
</a>
</g>
</g>
<!-- Node1&#45;&gt;Node4 -->
<g id="edge3" class="edge">
<title>Node1&#45;&gt;Node4</title>
<path fill="none" stroke="blueviolet" stroke-dasharray="5,2" d="M138.96,-222.11C147.22,-244.28 169.71,-300.09 200,-339.5 213.81,-357.47 218.06,-362.73 238,-373.5 253.05,-381.63 271.99,-386.26 285.98,-388.79"/>
<text text-anchor="middle" x="210" y="-364.5" font-family="Helvetica,sans-Serif" font-size="10.00">qOS</text>
</g>
<!-- Node5 -->
<g id="node4" class="node">
<title>Node5</title>
<g id="a_node4"><a xlink:href="group__qcoroutines.html" target="_top" xlink:title="API interface for the Co&#45;Routines extension.">
<polygon fill="white" stroke="black" points="341.5,-364 271.5,-364 271.5,-345 341.5,-345 341.5,-364"/>
<text text-anchor="middle" x="306.5" y="-352" font-family="Helvetica,sans-Serif" font-size="10.00">Co&#45;Routines</text>
</a>
</g>
</g>
<!-- Node1&#45;&gt;Node5 -->
<g id="edge4" class="edge">
<title>Node1&#45;&gt;Node5</title>
<path fill="none" stroke="blueviolet" stroke-dasharray="5,2" d="M140.11,-222.02C152.28,-246 187.82,-308.93 238,-336.5 248.2,-342.11 260.25,-346.04 271.32,-348.77"/>
<text text-anchor="middle" x="210" y="-327.5" font-family="Helvetica,sans-Serif" font-size="10.00">qOS</text>
</g>
<!-- Node6 -->
<g id="node5" class="node">
<title>Node6</title>
<g id="a_node5"><a xlink:href="group__qcritical.html" target="_top" xlink:title="APIs to handle entry/exit actions in Critical sections.">
<polygon fill="white" stroke="black" points="330,-327 283,-327 283,-308 330,-308 330,-327"/>
<text text-anchor="middle" x="306.5" y="-315" font-family="Helvetica,sans-Serif" font-size="10.00">Critical</text>
</a>
</g>
</g>
<!-- Node1&#45;&gt;Node6 -->
<g id="edge5" class="edge">
<title>Node1&#45;&gt;Node6</title>
<path fill="none" stroke="blueviolet" stroke-dasharray="5,2" d="M144.12,-222.03C160.63,-239.7 198.57,-277.66 238,-298.5 251.99,-305.9 269.18,-310.68 282.71,-313.6"/>
<text text-anchor="middle" x="210" y="-289.5" font-family="Helvetica,sans-Serif" font-size="10.00">qOS</text>
</g>
<!-- Node7 -->
<g id="node6" class="node">
<title>Node7</title>
<g id="a_node6"><a xlink:href="group__qedgecheck.html" target="_top" xlink:title="An interface to manage and simplify the value(with edge&#45;checking) of incoming digital&#45;signal groups.">
<polygon fill="white" stroke="black" points="357,-289.5 256,-289.5 256,-259.5 357,-259.5 357,-289.5"/>
<text text-anchor="start" x="264" y="-277.5" font-family="Helvetica,sans-Serif" font-size="10.00">I/O Groups for edge</text>
<text text-anchor="middle" x="306.5" y="-266.5" font-family="Helvetica,sans-Serif" font-size="10.00"> checking</text>
</a>
</g>
</g>
<!-- Node1&#45;&gt;Node7 -->
<g id="edge6" class="edge">
<title>Node1&#45;&gt;Node7</title>
<path fill="none" stroke="blueviolet" stroke-dasharray="5,2" d="M161.23,-222.1C173.04,-226.49 187.23,-231.77 200,-236.5 216.88,-242.75 221.08,-244.37 238,-250.5 246.07,-253.42 254.69,-256.51 262.98,-259.47"/>
<text text-anchor="middle" x="210" y="-247.5" font-family="Helvetica,sans-Serif" font-size="10.00">qOS</text>
</g>
<!-- Node8 -->
<g id="node7" class="node">
<title>Node8</title>
<g id="a_node7"><a xlink:href="group__qfsm.html" target="_top" xlink:title="API interface of the Finite State Machines (FSM) extension.">
<polygon fill="white" stroke="black" points="361.5,-241 251.5,-241 251.5,-222 361.5,-222 361.5,-241"/>
<text text-anchor="middle" x="306.5" y="-229" font-family="Helvetica,sans-Serif" font-size="10.00">Finite State Machines</text>
</a>
</g>
</g>
<!-- Node1&#45;&gt;Node8 -->
<g id="edge7" class="edge">
<title>Node1&#45;&gt;Node8</title>
<path fill="none" stroke="blueviolet" stroke-dasharray="5,2" d="M182.4,-217.74C203.73,-220.13 229.09,-222.96 251.24,-225.44"/>
<text text-anchor="middle" x="210" y="-224.5" font-family="Helvetica,sans-Serif" font-size="10.00">qOS</text>
</g>
<!-- Node14 -->
<g id="node8" class="node">
<title>Node14</title>
<g id="a_node8"><a xlink:href="group__qioutils.html" target="_top" xlink:title="API for input/output utilities and safe string interfaces.">
<polygon fill="white" stroke="black" points="333,-204 280,-204 280,-185 333,-185 333,-204"/>
<text text-anchor="middle" x="306.5" y="-192" font-family="Helvetica,sans-Serif" font-size="10.00">I/O Utils</text>
</a>
</g>
</g>
<!-- Node1&#45;&gt;Node14 -->
<g id="edge13" class="edge">
<title>Node1&#45;&gt;Node14</title>
<path fill="none" stroke="blueviolet" stroke-dasharray="5,2" d="M174.19,-202.95C182.65,-201.18 191.59,-199.56 200,-198.5 227.09,-195.07 258.39,-194.28 279.82,-194.22"/>
<text text-anchor="middle" x="210" y="-201.5" font-family="Helvetica,sans-Serif" font-size="10.00">qOS</text>
</g>
<!-- Node10 -->
<g id="node9" class="node">
<title>Node10</title>
<g id="a_node9"><a xlink:href="group__qqueues.html" target="_top" xlink:title="API interface to create and handle Queues.">
<polygon fill="white" stroke="black" points="331.5,-167 281.5,-167 281.5,-148 331.5,-148 331.5,-167"/>
<text text-anchor="middle" x="306.5" y="-155" font-family="Helvetica,sans-Serif" font-size="10.00">Queues</text>
</a>
</g>
</g>
<!-- Node1&#45;&gt;Node10 -->
<g id="edge9" class="edge">
<title>Node1&#45;&gt;Node10</title>
<path fill="none" stroke="blueviolet" stroke-dasharray="5,2" d="M153.44,-202.96C166.16,-196.49 183.78,-188.13 200,-182.5 227.21,-173.06 259.58,-165.97 281.22,-161.8"/>
<text text-anchor="middle" x="210" y="-185.5" font-family="Helvetica,sans-Serif" font-size="10.00">qOS</text>
</g>
<!-- Node11 -->
<g id="node10" class="node">
<title>Node11</title>
<g id="a_node10"><a xlink:href="group__qresponse.html" target="_top" xlink:title="API to simplify the handling of requested responses from terminal interfaces.">
<polygon fill="white" stroke="black" points="353.5,-130 259.5,-130 259.5,-111 353.5,-111 353.5,-130"/>
<text text-anchor="middle" x="306.5" y="-118" font-family="Helvetica,sans-Serif" font-size="10.00">Response handler</text>
</a>
</g>
</g>
<!-- Node1&#45;&gt;Node11 -->
<g id="edge10" class="edge">
<title>Node1&#45;&gt;Node11</title>
<path fill="none" stroke="blueviolet" stroke-dasharray="5,2" d="M145.59,-202.77C162.95,-186.65 200.24,-154.58 238,-138.5 245.7,-135.22 254.15,-132.4 262.39,-130.04"/>
<text text-anchor="middle" x="210" y="-161.5" font-family="Helvetica,sans-Serif" font-size="10.00">qOS</text>
</g>
<!-- Node13 -->
<g id="node11" class="node">
<title>Node13</title>
<g id="a_node11"><a xlink:href="group__qstimers.html" target="_top" xlink:title="API interface for the STimers extension.">
<polygon fill="white" stroke="black" points="351,-93 262,-93 262,-74 351,-74 351,-93"/>
<text text-anchor="middle" x="306.5" y="-81" font-family="Helvetica,sans-Serif" font-size="10.00">Software&#45;Timers</text>
</a>
</g>
</g>
<!-- Node1&#45;&gt;Node13 -->
<g id="edge12" class="edge">
<title>Node1&#45;&gt;Node13</title>
<path fill="none" stroke="blueviolet" stroke-dasharray="5,2" d="M141.19,-202.7C154.72,-180.39 191.24,-125.86 238,-101.5 245.42,-97.63 253.75,-94.54 261.95,-92.09"/>
<text text-anchor="middle" x="210" y="-131.5" font-family="Helvetica,sans-Serif" font-size="10.00">qOS</text>
</g>
<!-- Node9 -->
<g id="node12" class="node">
<title>Node9</title>
<g id="a_node12"><a xlink:href="group__qtaskcreation.html" target="_top" xlink:title="Kernel API interface to create/remove tasks and perform special OS operations.">
<polygon fill="white" stroke="black" points="357,-56 256,-56 256,-37 357,-37 357,-56"/>
<text text-anchor="middle" x="306.5" y="-44" font-family="Helvetica,sans-Serif" font-size="10.00">Scheduler Interface</text>
</a>
</g>
</g>
<!-- Node1&#45;&gt;Node9 -->
<g id="edge8" class="edge">
<title>Node1&#45;&gt;Node9</title>
<path fill="none" stroke="blueviolet" stroke-dasharray="5,2" d="M138.69,-202.98C148.43,-175.6 180.7,-96.51 238,-64.5 244.04,-61.13 250.73,-58.37 257.49,-56.11"/>
<text text-anchor="middle" x="210" y="-98.5" font-family="Helvetica,sans-Serif" font-size="10.00">qOS</text>
</g>
<!-- Node12 -->
<g id="node13" class="node">
<title>Node12</title>
<g id="a_node13"><a xlink:href="group__qtaskmanip.html" target="_top" xlink:title="API interface to manage tasks.">
<polygon fill="white" stroke="black" points="349,-19 264,-19 264,0 349,0 349,-19"/>
<text text-anchor="middle" x="306.5" y="-7" font-family="Helvetica,sans-Serif" font-size="10.00">Managing tasks</text>
</a>
</g>
</g>
<!-- Node1&#45;&gt;Node12 -->
<g id="edge11" class="edge">
<title>Node1&#45;&gt;Node12</title>
<path fill="none" stroke="blueviolet" stroke-dasharray="5,2" d="M138.22,-202.75C145.44,-177.91 166.87,-110.85 200,-63.5 213.34,-44.44 217.69,-38.85 238,-27.5 245.94,-23.06 255.02,-19.68 263.89,-17.12"/>
<text text-anchor="middle" x="210" y="-66.5" font-family="Helvetica,sans-Serif" font-size="10.00">qOS</text>
</g>
<!-- Node2 -->
<g id="node14" class="node">
<title>Node2</title>
<g id="a_node14"><a xlink:href="group__qutility.html" target="_top" xlink:title=" ">
<polygon fill="white" stroke="black" points="50,-222 0,-222 0,-203 50,-203 50,-222"/>
<text text-anchor="middle" x="25" y="-210" font-family="Helvetica,sans-Serif" font-size="10.00">Utilities</text>
</a>
</g>
</g>
<!-- Node2&#45;&gt;Node1 -->
<g id="edge1" class="edge">
<title>Node2&#45;&gt;Node1</title>
<path fill="none" stroke="black" d="M60.38,-212.5C68.84,-212.5 78.05,-212.5 86.98,-212.5"/>
<polygon fill="black" stroke="black" points="60.13,-209 50.13,-212.5 60.13,-216 60.13,-209"/>
</g>
</g>
</svg>
