<?xml version="1.0" encoding="UTF-8" standalone="no"?>
<!DOCTYPE svg PUBLIC "-//W3C//DTD SVG 1.1//EN"
 "http://www.w3.org/Graphics/SVG/1.1/DTD/svg11.dtd">
<!-- Generated by graphviz version 2.49.3 (20211027.1534)
 -->
<!-- Title: Queues Pages: 1 -->
<svg width="417pt" height="409pt"
 viewBox="0.00 0.00 417.00 409.00" xmlns="http://www.w3.org/2000/svg" xmlns:xlink="http://www.w3.org/1999/xlink">
<g id="graph0" class="graph" transform="scale(1 1) rotate(0) translate(4 405)">
<title>Queues</title>
<polygon fill="white" stroke="transparent" points="-4,4 -4,-405 413,-405 413,4 -4,4"/>
<!-- Node4 -->
<g id="node1" class="node">
<title>Node4</title>
<g id="a_node1"><a xlink:href="group__qatcli.html" target="_top" xlink:title="API for the AT Command Line Interface extension.">
<polygon fill="white" stroke="black" points="409,-401 272,-401 272,-382 409,-382 409,-401"/>
<text text-anchor="middle" x="340.5" y="-389" font-family="Helvetica,sans-Serif" font-size="10.00">AT Command Line Interface</text>
</a>
</g>
</g>
<!-- Node3 -->
<g id="node2" class="node">
<title>Node3</title>
<g id="a_node2"><a xlink:href="group__qbsbuffers.html" target="_top" xlink:title="An interrupt&#45;safe byte&#45;sized ring buffer interface.">
<polygon fill="white" stroke="black" points="388,-364 293,-364 293,-345 388,-345 388,-364"/>
<text text-anchor="middle" x="340.5" y="-352" font-family="Helvetica,sans-Serif" font-size="10.00">Byte&#45;Sized buffers</text>
</a>
</g>
</g>
<!-- Node5 -->
<g id="node3" class="node">
<title>Node5</title>
<g id="a_node3"><a xlink:href="group__qclock.html" target="_top" xlink:title="Clock and time manipulation interface used by the entire OS.">
<polygon fill="white" stroke="black" points="361,-327 320,-327 320,-308 361,-308 361,-327"/>
<text text-anchor="middle" x="340.5" y="-315" font-family="Helvetica,sans-Serif" font-size="10.00">Clock</text>
</a>
</g>
</g>
<!-- Node6 -->
<g id="node4" class="node">
<title>Node6</title>
<g id="a_node4"><a xlink:href="group__qcoroutines.html" target="_top" xlink:title="API interface for the Co&#45;Routines extension.">
<polygon fill="white" stroke="black" points="375.5,-290 305.5,-290 305.5,-271 375.5,-271 375.5,-290"/>
<text text-anchor="middle" x="340.5" y="-278" font-family="Helvetica,sans-Serif" font-size="10.00">Co&#45;Routines</text>
</a>
</g>
</g>
<!-- Node7 -->
<g id="node5" class="node">
<title>Node7</title>
<g id="a_node5"><a xlink:href="group__qcritical.html" target="_top" xlink:title="APIs to handle entry/exit actions in Critical sections.">
<polygon fill="white" stroke="black" points="364,-253 317,-253 317,-234 364,-234 364,-253"/>
<text text-anchor="middle" x="340.5" y="-241" font-family="Helvetica,sans-Serif" font-size="10.00">Critical</text>
</a>
</g>
</g>
<!-- Node8 -->
<g id="node6" class="node">
<title>Node8</title>
<g id="a_node6"><a xlink:href="group__qedgecheck.html" target="_top" xlink:title="An interface to manage and simplify the value(with edge&#45;checking) of incoming digital&#45;signal groups.">
<polygon fill="white" stroke="black" points="391,-215.5 290,-215.5 290,-185.5 391,-185.5 391,-215.5"/>
<text text-anchor="start" x="298" y="-203.5" font-family="Helvetica,sans-Serif" font-size="10.00">I/O Groups for edge</text>
<text text-anchor="middle" x="340.5" y="-192.5" font-family="Helvetica,sans-Serif" font-size="10.00"> checking</text>
</a>
</g>
</g>
<!-- Node9 -->
<g id="node7" class="node">
<title>Node9</title>
<g id="a_node7"><a xlink:href="group__qfsm.html" target="_top" xlink:title="API interface of the Finite State Machines (FSM) extension.">
<polygon fill="white" stroke="black" points="395.5,-167 285.5,-167 285.5,-148 395.5,-148 395.5,-167"/>
<text text-anchor="middle" x="340.5" y="-155" font-family="Helvetica,sans-Serif" font-size="10.00">Finite State Machines</text>
</a>
</g>
</g>
<!-- Node13 -->
<g id="node8" class="node">
<title>Node13</title>
<g id="a_node8"><a xlink:href="group__qioutils.html" target="_top" xlink:title="API for input/output utilities and safe string interfaces.">
<polygon fill="white" stroke="black" points="367,-130 314,-130 314,-111 367,-111 367,-130"/>
<text text-anchor="middle" x="340.5" y="-118" font-family="Helvetica,sans-Serif" font-size="10.00">I/O Utils</text>
</a>
</g>
</g>
<!-- Node2 -->
<g id="node9" class="node">
<title>Node2</title>
<g id="a_node9"><a xlink:href="group__qpriv.html" target="_top" xlink:title="Inter&#45;Task communication primitives : Queues, Notifications and Event&#45;flags.">
<polygon fill="white" stroke="black" points="129,-210 0,-210 0,-191 129,-191 129,-210"/>
<text text-anchor="middle" x="64.5" y="-198" font-family="Helvetica,sans-Serif" font-size="10.00">Inter&#45;Task communication</text>
</a>
</g>
</g>
<!-- Node1 -->
<g id="node10" class="node">
<title>Node1</title>
<g id="a_node10"><a xlink:title="API interface to create and handle Queues.">
<polygon fill="#bfbfbf" stroke="black" points="216,-210 166,-210 166,-191 216,-191 216,-210"/>
<text text-anchor="middle" x="191" y="-198" font-family="Helvetica,sans-Serif" font-size="10.00">Queues</text>
</a>
</g>
</g>
<!-- Node2&#45;&gt;Node1 -->
<g id="edge1" class="edge">
<title>Node2&#45;&gt;Node1</title>
<path fill="none" stroke="black" d="M139.24,-200.5C148.77,-200.5 157.94,-200.5 165.79,-200.5"/>
<polygon fill="black" stroke="black" points="139.21,-197 129.21,-200.5 139.21,-204 139.21,-197"/>
</g>
<!-- Node1&#45;&gt;Node4 -->
<g id="edge3" class="edge">
<title>Node1&#45;&gt;Node4</title>
<path fill="none" stroke="blueviolet" stroke-dasharray="5,2" d="M193.18,-210.26C196.39,-233.9 206.95,-295.45 234,-338.5 246.22,-357.94 251.88,-362.44 272,-373.5 278.16,-376.89 285,-379.66 291.89,-381.93"/>
<text text-anchor="middle" x="244" y="-364.5" font-family="Helvetica,sans-Serif" font-size="10.00">qOS</text>
</g>
<!-- Node1&#45;&gt;Node3 -->
<g id="edge2" class="edge">
<title>Node1&#45;&gt;Node3</title>
<path fill="none" stroke="blueviolet" stroke-dasharray="5,2" d="M194.62,-210.26C199.95,-228.95 213.33,-270.61 234,-300.5 247.23,-319.63 251.69,-325.15 272,-336.5 278.46,-340.11 285.67,-343.02 292.91,-345.36"/>
<text text-anchor="middle" x="244" y="-326.5" font-family="Helvetica,sans-Serif" font-size="10.00">qOS</text>
</g>
<!-- Node1&#45;&gt;Node5 -->
<g id="edge4" class="edge">
<title>Node1&#45;&gt;Node5</title>
<path fill="none" stroke="blueviolet" stroke-dasharray="5,2" d="M196.51,-210.28C206.63,-230.98 233.35,-278.99 272,-299.5 287,-307.46 305.78,-312.1 319.72,-314.66"/>
<text text-anchor="middle" x="244" y="-288.5" font-family="Helvetica,sans-Serif" font-size="10.00">qOS</text>
</g>
<!-- Node1&#45;&gt;Node6 -->
<g id="edge5" class="edge">
<title>Node1&#45;&gt;Node6</title>
<path fill="none" stroke="blueviolet" stroke-dasharray="5,2" d="M201.37,-210.16C215.38,-224.01 243.25,-249.31 272,-262.5 282.47,-267.31 294.47,-271.02 305.41,-273.8"/>
<text text-anchor="middle" x="244" y="-254.5" font-family="Helvetica,sans-Serif" font-size="10.00">qOS</text>
</g>
<!-- Node1&#45;&gt;Node7 -->
<g id="edge6" class="edge">
<title>Node1&#45;&gt;Node7</title>
<path fill="none" stroke="blueviolet" stroke-dasharray="5,2" d="M216.31,-209.57C222.08,-211.62 228.23,-213.71 234,-215.5 262.23,-224.27 295.23,-232.75 316.71,-238.04"/>
<text text-anchor="middle" x="244" y="-224.5" font-family="Helvetica,sans-Serif" font-size="10.00">qOS</text>
</g>
<!-- Node1&#45;&gt;Node8 -->
<g id="edge7" class="edge">
<title>Node1&#45;&gt;Node8</title>
<path fill="none" stroke="blueviolet" stroke-dasharray="5,2" d="M216.03,-200.5C235.95,-200.5 264.92,-200.5 289.8,-200.5"/>
<text text-anchor="middle" x="244" y="-203.5" font-family="Helvetica,sans-Serif" font-size="10.00">qOS</text>
</g>
<!-- Node1&#45;&gt;Node9 -->
<g id="edge8" class="edge">
<title>Node1&#45;&gt;Node9</title>
<path fill="none" stroke="blueviolet" stroke-dasharray="5,2" d="M216.31,-191.43C222.08,-189.38 228.23,-187.29 234,-185.5 255.72,-178.75 280.25,-172.18 300.2,-167.1"/>
<text text-anchor="middle" x="244" y="-188.5" font-family="Helvetica,sans-Serif" font-size="10.00">qOS</text>
</g>
<!-- Node1&#45;&gt;Node13 -->
<g id="edge12" class="edge">
<title>Node1&#45;&gt;Node13</title>
<path fill="none" stroke="blueviolet" stroke-dasharray="5,2" d="M201.4,-190.91C215.45,-177.14 243.37,-151.95 272,-138.5 285.17,-132.31 300.83,-127.97 313.74,-125.1"/>
<text text-anchor="middle" x="244" y="-165.5" font-family="Helvetica,sans-Serif" font-size="10.00">qOS</text>
</g>
<!-- Node10 -->
<g id="node11" class="node">
<title>Node10</title>
<g id="a_node11"><a xlink:href="group__qresponse.html" target="_top" xlink:title="API to simplify the handling of requested responses from terminal interfaces.">
<polygon fill="white" stroke="black" points="387.5,-93 293.5,-93 293.5,-74 387.5,-74 387.5,-93"/>
<text text-anchor="middle" x="340.5" y="-81" font-family="Helvetica,sans-Serif" font-size="10.00">Response handler</text>
</a>
</g>
</g>
<!-- Node1&#45;&gt;Node10 -->
<g id="edge9" class="edge">
<title>Node1&#45;&gt;Node10</title>
<path fill="none" stroke="blueviolet" stroke-dasharray="5,2" d="M196.51,-190.72C206.63,-170.02 233.35,-122.01 272,-101.5 278.64,-97.98 286.03,-95.1 293.4,-92.77"/>
<text text-anchor="middle" x="244" y="-135.5" font-family="Helvetica,sans-Serif" font-size="10.00">qOS</text>
</g>
<!-- Node12 -->
<g id="node12" class="node">
<title>Node12</title>
<g id="a_node12"><a xlink:href="group__qstimers.html" target="_top" xlink:title="API interface for the STimers extension.">
<polygon fill="white" stroke="black" points="385,-56 296,-56 296,-37 385,-37 385,-56"/>
<text text-anchor="middle" x="340.5" y="-44" font-family="Helvetica,sans-Serif" font-size="10.00">Software&#45;Timers</text>
</a>
</g>
</g>
<!-- Node1&#45;&gt;Node12 -->
<g id="edge11" class="edge">
<title>Node1&#45;&gt;Node12</title>
<path fill="none" stroke="blueviolet" stroke-dasharray="5,2" d="M194.62,-190.74C199.95,-172.05 213.33,-130.39 234,-100.5 247.23,-81.37 251.69,-75.85 272,-64.5 279.31,-60.42 287.58,-57.23 295.76,-54.75"/>
<text text-anchor="middle" x="244" y="-103.5" font-family="Helvetica,sans-Serif" font-size="10.00">qOS</text>
</g>
<!-- Node11 -->
<g id="node13" class="node">
<title>Node11</title>
<g id="a_node13"><a xlink:href="group__qtaskmanip.html" target="_top" xlink:title="API interface to manage tasks.">
<polygon fill="white" stroke="black" points="383,-19 298,-19 298,0 383,0 383,-19"/>
<text text-anchor="middle" x="340.5" y="-7" font-family="Helvetica,sans-Serif" font-size="10.00">Managing tasks</text>
</a>
</g>
</g>
<!-- Node1&#45;&gt;Node11 -->
<g id="edge10" class="edge">
<title>Node1&#45;&gt;Node11</title>
<path fill="none" stroke="blueviolet" stroke-dasharray="5,2" d="M193.18,-190.74C196.39,-167.1 206.95,-105.55 234,-62.5 246.22,-43.06 251.88,-38.56 272,-27.5 279.97,-23.12 289.07,-19.76 297.94,-17.2"/>
<text text-anchor="middle" x="244" y="-65.5" font-family="Helvetica,sans-Serif" font-size="10.00">qOS</text>
</g>
</g>
</svg>
