<?xml version="1.0" encoding="UTF-8" standalone="no"?>
<!DOCTYPE svg PUBLIC "-//W3C//DTD SVG 1.1//EN"
 "http://www.w3.org/Graphics/SVG/1.1/DTD/svg11.dtd">
<!-- Generated by graphviz version 12.2.1 (20241206.2353)
 -->
<!-- Title: Graphical Class Hierarchy Pages: 1 -->
<svg width="421pt" height="360pt"
 viewBox="0.00 0.00 420.50 360.25" xmlns="http://www.w3.org/2000/svg" xmlns:xlink="http://www.w3.org/1999/xlink">
<g id="graph0" class="graph" transform="scale(1 1) rotate(0) translate(4 356.25)">
<title>Graphical Class Hierarchy</title>
<!-- Node0 -->
<g id="Node000000" class="node">
<title>Node0</title>
<g id="a_Node000000"><a xlink:title=" ">
<polygon fill="#e0e0e0" stroke="#999999" points="61.38,-204.25 10.12,-204.25 10.12,-185 61.38,-185 61.38,-204.25"/>
<text text-anchor="middle" x="35.75" y="-190.75" font-family="Helvetica,sans-Serif" font-size="10.00">cli::input</text>
</a>
</g>
</g>
<!-- Node1 -->
<g id="Node000001" class="node">
<title>Node1</title>
<g id="a_Node000001"><a xlink:href="classq_o_s_1_1command_line_interface.html" target="_top" xlink:title="An AT Command Line Interface (CLI) object.">
<polygon fill="white" stroke="#666666" points="247.25,-204.25 107.5,-204.25 107.5,-185 247.25,-185 247.25,-204.25"/>
<text text-anchor="middle" x="177.38" y="-190.75" font-family="Helvetica,sans-Serif" font-size="10.00">qOS::commandLineInterface</text>
</a>
</g>
</g>
<!-- Node0&#45;&gt;Node1 -->
<g id="edge1_Node000000_Node000001" class="edge">
<title>Node0&#45;&gt;Node1</title>
<g id="a_edge1_Node000000_Node000001"><a xlink:title=" ">
<path fill="none" stroke="darkgreen" d="M72.98,-194.62C83.53,-194.62 95.43,-194.62 107.3,-194.62"/>
<polygon fill="darkgreen" stroke="darkgreen" points="73.23,-191.13 63.23,-194.63 73.23,-198.13 73.23,-191.13"/>
</a>
</g>
</g>
<!-- Node5 -->
<g id="Node000005" class="node">
<title>Node5</title>
<g id="a_Node000005"><a xlink:href="classq_o_s_1_1node.html" target="_top" xlink:title="A list&#45;node object (Used internally)">
<polygon fill="white" stroke="#666666" points="66.25,-296.25 5.25,-296.25 5.25,-277 66.25,-277 66.25,-296.25"/>
<text text-anchor="middle" x="35.75" y="-282.75" font-family="Helvetica,sans-Serif" font-size="10.00">qOS::node</text>
</a>
</g>
</g>
<!-- Node4 -->
<g id="Node000004" class="node">
<title>Node4</title>
<g id="a_Node000004"><a xlink:href="classq_o_s_1_1cli_1_1command.html" target="_top" xlink:title="An AT&#45;Command object.">
<polygon fill="white" stroke="#666666" points="225.88,-278.25 128.88,-278.25 128.88,-259 225.88,-259 225.88,-278.25"/>
<text text-anchor="middle" x="177.38" y="-264.75" font-family="Helvetica,sans-Serif" font-size="10.00">qOS::cli::command</text>
</a>
</g>
</g>
<!-- Node5&#45;&gt;Node4 -->
<g id="edge2_Node000005_Node000004" class="edge">
<title>Node5&#45;&gt;Node4</title>
<g id="a_edge2_Node000005_Node000004"><a xlink:title=" ">
<path fill="none" stroke="darkgreen" d="M77.82,-281.33C93.75,-279.28 112.1,-276.91 128.62,-274.78"/>
<polygon fill="darkgreen" stroke="darkgreen" points="77.67,-277.82 68.2,-282.57 78.57,-284.76 77.67,-277.82"/>
</a>
</g>
</g>
<!-- Node6 -->
<g id="Node000006" class="node">
<title>Node6</title>
<g id="a_Node000006"><a xlink:href="classq_o_s_1_1input_1_1channel.html" target="_top" xlink:title=" ">
<polygon fill="white" stroke="#666666" points="227,-315.25 127.75,-315.25 127.75,-296 227,-296 227,-315.25"/>
<text text-anchor="middle" x="177.38" y="-301.75" font-family="Helvetica,sans-Serif" font-size="10.00">qOS::input::channel</text>
</a>
</g>
</g>
<!-- Node5&#45;&gt;Node6 -->
<g id="edge3_Node000005_Node000006" class="edge">
<title>Node5&#45;&gt;Node6</title>
<g id="a_edge3_Node000005_Node000006"><a xlink:title=" ">
<path fill="none" stroke="darkgreen" d="M78.07,-292.25C93.59,-294.36 111.38,-296.78 127.52,-298.98"/>
<polygon fill="darkgreen" stroke="darkgreen" points="78.58,-288.79 68.2,-290.91 77.64,-295.72 78.58,-288.79"/>
</a>
</g>
</g>
<!-- Node9 -->
<g id="Node000009" class="node">
<title>Node9</title>
<g id="a_Node000009"><a xlink:href="classq_o_s_1_1list.html" target="_top" xlink:title="A list object (Generic double&#45;linked)">
<polygon fill="white" stroke="#666666" points="203.75,-352.25 151,-352.25 151,-333 203.75,-333 203.75,-352.25"/>
<text text-anchor="middle" x="177.38" y="-338.75" font-family="Helvetica,sans-Serif" font-size="10.00">qOS::list</text>
</a>
</g>
</g>
<!-- Node5&#45;&gt;Node9 -->
<g id="edge6_Node000005_Node000009" class="edge">
<title>Node5&#45;&gt;Node9</title>
<g id="a_edge6_Node000005_Node000009"><a xlink:title=" ">
<path fill="none" stroke="darkgreen" d="M62.53,-302.39C75.64,-309.9 92.04,-318.55 107.5,-324.62 121.42,-330.09 137.57,-334.41 150.73,-337.45"/>
<polygon fill="darkgreen" stroke="darkgreen" points="64.5,-299.49 54.11,-297.44 60.96,-305.52 64.5,-299.49"/>
</a>
</g>
</g>
<!-- Node10 -->
<g id="Node000010" class="node">
<title>Node10</title>
<g id="a_Node000010"><a xlink:href="classq_o_s_1_1task.html" target="_top" xlink:title="A task node object.">
<polygon fill="white" stroke="#666666" points="206.75,-241.25 148,-241.25 148,-222 206.75,-222 206.75,-241.25"/>
<text text-anchor="middle" x="177.38" y="-227.75" font-family="Helvetica,sans-Serif" font-size="10.00">qOS::task</text>
</a>
</g>
</g>
<!-- Node5&#45;&gt;Node10 -->
<g id="edge7_Node000005_Node000010" class="edge">
<title>Node5&#45;&gt;Node10</title>
<g id="a_edge7_Node000005_Node000010"><a xlink:title=" ">
<path fill="none" stroke="darkgreen" d="M63.1,-271.02C76.14,-263.78 92.3,-255.5 107.5,-249.62 120.41,-244.64 135.21,-240.57 147.77,-237.57"/>
<polygon fill="darkgreen" stroke="darkgreen" points="61.68,-267.81 54.72,-275.79 65.14,-273.89 61.68,-267.81"/>
</a>
</g>
</g>
<!-- Node7 -->
<g id="Node000007" class="node">
<title>Node7</title>
<g id="a_Node000007"><a xlink:href="classq_o_s_1_1input_1_1analog_channel.html" target="_top" xlink:title="An analog input&#45;channel object.">
<polygon fill="white" stroke="#666666" points="412.5,-333.25 283.25,-333.25 283.25,-314 412.5,-314 412.5,-333.25"/>
<text text-anchor="middle" x="347.88" y="-319.75" font-family="Helvetica,sans-Serif" font-size="10.00">qOS::input::analogChannel</text>
</a>
</g>
</g>
<!-- Node6&#45;&gt;Node7 -->
<g id="edge4_Node000006_Node000007" class="edge">
<title>Node6&#45;&gt;Node7</title>
<g id="a_edge4_Node000006_Node000007"><a xlink:title=" ">
<path fill="none" stroke="#63b8ff" d="M238.42,-312.04C252.83,-313.58 268.28,-315.23 282.87,-316.79"/>
<polygon fill="#63b8ff" stroke="#63b8ff" points="238.93,-308.57 228.62,-310.99 238.19,-315.53 238.93,-308.57"/>
</a>
</g>
</g>
<!-- Node8 -->
<g id="Node000008" class="node">
<title>Node8</title>
<g id="a_Node000008"><a xlink:href="classq_o_s_1_1input_1_1digital_channel.html" target="_top" xlink:title="A digital input&#45;channel object.">
<polygon fill="white" stroke="#666666" points="411,-296.25 284.75,-296.25 284.75,-277 411,-277 411,-296.25"/>
<text text-anchor="middle" x="347.88" y="-282.75" font-family="Helvetica,sans-Serif" font-size="10.00">qOS::input::digitalChannel</text>
</a>
</g>
</g>
<!-- Node6&#45;&gt;Node8 -->
<g id="edge5_Node000006_Node000008" class="edge">
<title>Node6&#45;&gt;Node8</title>
<g id="a_edge5_Node000006_Node000008"><a xlink:title=" ">
<path fill="none" stroke="#63b8ff" d="M238.3,-298.87C253.26,-297.18 269.34,-295.37 284.42,-293.67"/>
<polygon fill="#63b8ff" stroke="#63b8ff" points="238.16,-295.36 228.62,-299.96 238.95,-302.32 238.16,-295.36"/>
</a>
</g>
</g>
<!-- Node2 -->
<g id="Node000002" class="node">
<title>Node2</title>
<g id="a_Node000002"><a xlink:title=" ">
<polygon fill="#e0e0e0" stroke="#999999" points="71.5,-149.25 0,-149.25 0,-130 71.5,-130 71.5,-149.25"/>
<text text-anchor="middle" x="35.75" y="-135.75" font-family="Helvetica,sans-Serif" font-size="10.00">nonCopyable</text>
</a>
</g>
</g>
<!-- Node2&#45;&gt;Node1 -->
<g id="edge10_Node000002_Node000001" class="edge">
<title>Node2&#45;&gt;Node1</title>
<g id="a_edge10_Node000002_Node000001"><a xlink:title=" ">
<path fill="none" stroke="#8b1a1a" d="M63.1,-155.23C76.14,-162.47 92.3,-170.75 107.5,-176.62 115.22,-179.61 123.62,-182.26 131.81,-184.56"/>
<polygon fill="#8b1a1a" stroke="#8b1a1a" points="65.14,-152.36 54.72,-150.46 61.68,-158.44 65.14,-152.36"/>
</a>
</g>
</g>
<!-- Node2&#45;&gt;Node4 -->
<g id="edge9_Node000002_Node000004" class="edge">
<title>Node2&#45;&gt;Node4</title>
<g id="a_edge9_Node000002_Node000004"><a xlink:title=" ">
<path fill="none" stroke="#8b1a1a" d="M56.14,-157.45C61.51,-162.96 67.07,-169.26 71.5,-175.62 92.61,-205.98 78.97,-227.11 107.5,-250.62 113.6,-255.66 120.96,-259.3 128.56,-261.93"/>
<polygon fill="#8b1a1a" stroke="#8b1a1a" points="58.73,-155.09 49.13,-150.6 53.84,-160.1 58.73,-155.09"/>
</a>
</g>
</g>
<!-- Node2&#45;&gt;Node10 -->
<g id="edge15_Node000002_Node000010" class="edge">
<title>Node2&#45;&gt;Node10</title>
<g id="a_edge15_Node000002_Node000010"><a xlink:title=" ">
<path fill="none" stroke="#8b1a1a" d="M54.48,-157.93C59.95,-163.59 65.98,-169.86 71.5,-175.62 87.58,-192.44 87.47,-201.78 107.5,-213.62 119.63,-220.8 134.61,-225.15 147.5,-227.77"/>
<polygon fill="#8b1a1a" stroke="#8b1a1a" points="57.03,-155.53 47.56,-150.78 52,-160.4 57.03,-155.53"/>
</a>
</g>
</g>
<!-- Node3 -->
<g id="Node000003" class="node">
<title>Node3</title>
<g id="a_Node000003"><a xlink:href="classq_o_s_1_1byte_buffer.html" target="_top" xlink:title="A Byte&#45;sized buffer object.">
<polygon fill="white" stroke="#666666" points="219.12,-93.25 135.62,-93.25 135.62,-74 219.12,-74 219.12,-93.25"/>
<text text-anchor="middle" x="177.38" y="-79.75" font-family="Helvetica,sans-Serif" font-size="10.00">qOS::byteBuffer</text>
</a>
</g>
</g>
<!-- Node2&#45;&gt;Node3 -->
<g id="edge8_Node000002_Node000003" class="edge">
<title>Node2&#45;&gt;Node3</title>
<g id="a_edge8_Node000002_Node000003"><a xlink:title=" ">
<path fill="none" stroke="#8b1a1a" d="M62.53,-123.86C75.64,-116.35 92.04,-107.7 107.5,-101.62 116.36,-98.15 126.12,-95.13 135.44,-92.62"/>
<polygon fill="#8b1a1a" stroke="#8b1a1a" points="60.96,-120.73 54.11,-128.81 64.5,-126.76 60.96,-120.73"/>
</a>
</g>
</g>
<!-- Node11 -->
<g id="Node000011" class="node">
<title>Node11</title>
<g id="a_Node000011"><a xlink:href="classq_o_s_1_1core.html" target="_top" xlink:title="The class to interface the OS.">
<polygon fill="white" stroke="#666666" points="206.75,-19.25 148,-19.25 148,0 206.75,0 206.75,-19.25"/>
<text text-anchor="middle" x="177.38" y="-5.75" font-family="Helvetica,sans-Serif" font-size="10.00">qOS::core</text>
</a>
</g>
</g>
<!-- Node2&#45;&gt;Node11 -->
<g id="edge11_Node000002_Node000011" class="edge">
<title>Node2&#45;&gt;Node11</title>
<g id="a_edge11_Node000002_Node000011"><a xlink:title=" ">
<path fill="none" stroke="#8b1a1a" d="M44.17,-119.2C54.45,-93.83 75.45,-51.07 107.5,-27.62 119.17,-19.09 134.56,-14.59 147.83,-12.23"/>
<polygon fill="#8b1a1a" stroke="#8b1a1a" points="40.96,-117.79 40.64,-128.38 47.5,-120.3 40.96,-117.79"/>
</a>
</g>
</g>
<!-- Node13 -->
<g id="Node000013" class="node">
<title>Node13</title>
<g id="a_Node000013"><a xlink:href="classq_o_s_1_1input_1_1watcher.html" target="_top" xlink:title="The digital input&#45;channel watcher class.">
<polygon fill="white" stroke="#666666" points="227.38,-56.25 127.38,-56.25 127.38,-37 227.38,-37 227.38,-56.25"/>
<text text-anchor="middle" x="177.38" y="-42.75" font-family="Helvetica,sans-Serif" font-size="10.00">qOS::input::watcher</text>
</a>
</g>
</g>
<!-- Node2&#45;&gt;Node13 -->
<g id="edge12_Node000002_Node000013" class="edge">
<title>Node2&#45;&gt;Node13</title>
<g id="a_edge12_Node000002_Node000013"><a xlink:title=" ">
<path fill="none" stroke="#8b1a1a" d="M49.83,-120.58C62.6,-103.44 83.56,-78.82 107.5,-64.62 113.56,-61.03 120.34,-58.15 127.21,-55.83"/>
<polygon fill="#8b1a1a" stroke="#8b1a1a" points="47.17,-118.28 44.19,-128.45 52.86,-122.37 47.17,-118.28"/>
</a>
</g>
</g>
<!-- Node14 -->
<g id="Node000014" class="node">
<title>Node14</title>
<g id="a_Node000014"><a xlink:href="classq_o_s_1_1queue.html" target="_top" xlink:title="A Queue object.">
<polygon fill="white" stroke="#666666" points="210.5,-167.25 144.25,-167.25 144.25,-148 210.5,-148 210.5,-167.25"/>
<text text-anchor="middle" x="177.38" y="-153.75" font-family="Helvetica,sans-Serif" font-size="10.00">qOS::queue</text>
</a>
</g>
</g>
<!-- Node2&#45;&gt;Node14 -->
<g id="edge13_Node000002_Node000014" class="edge">
<title>Node2&#45;&gt;Node14</title>
<g id="a_edge13_Node000002_Node000014"><a xlink:title=" ">
<path fill="none" stroke="#8b1a1a" d="M83.32,-145.63C103.24,-148.2 126,-151.13 144.02,-153.45"/>
<polygon fill="#8b1a1a" stroke="#8b1a1a" points="83.85,-142.17 73.48,-144.36 82.95,-149.11 83.85,-142.17"/>
</a>
</g>
</g>
<!-- Node15 -->
<g id="Node000015" class="node">
<title>Node15</title>
<g id="a_Node000015"><a xlink:href="classq_o_s_1_1response.html" target="_top" xlink:title="A Response Handler object.">
<polygon fill="white" stroke="#666666" points="217.25,-130.25 137.5,-130.25 137.5,-111 217.25,-111 217.25,-130.25"/>
<text text-anchor="middle" x="177.38" y="-116.75" font-family="Helvetica,sans-Serif" font-size="10.00">qOS::response</text>
</a>
</g>
</g>
<!-- Node2&#45;&gt;Node15 -->
<g id="edge14_Node000002_Node000015" class="edge">
<title>Node2&#45;&gt;Node15</title>
<g id="a_edge14_Node000002_Node000015"><a xlink:title=" ">
<path fill="none" stroke="#8b1a1a" d="M83.38,-133.28C100.84,-130.9 120.49,-128.23 137.21,-125.95"/>
<polygon fill="#8b1a1a" stroke="#8b1a1a" points="82.92,-129.81 73.48,-134.63 83.86,-136.75 82.92,-129.81"/>
</a>
</g>
</g>
<!-- Node12 -->
<g id="Node000012" class="node">
<title>Node12</title>
<g id="a_Node000012"><a xlink:title=" ">
<polygon fill="#e0e0e0" stroke="#999999" points="65.5,-19.25 6,-19.25 6,0 65.5,0 65.5,-19.25"/>
<text text-anchor="middle" x="35.75" y="-5.75" font-family="Helvetica,sans-Serif" font-size="10.00">taskEvent</text>
</a>
</g>
</g>
<!-- Node12&#45;&gt;Node11 -->
<g id="edge16_Node000012_Node000011" class="edge">
<title>Node12&#45;&gt;Node11</title>
<g id="a_edge16_Node000012_Node000011"><a xlink:title=" ">
<path fill="none" stroke="darkgreen" d="M77.02,-9.62C99.73,-9.62 127.54,-9.62 147.96,-9.62"/>
<polygon fill="darkgreen" stroke="darkgreen" points="77.19,-6.13 67.19,-9.63 77.19,-13.13 77.19,-6.13"/>
</a>
</g>
</g>
</g>
</svg>
