<?xml version="1.0" encoding="UTF-8" standalone="no"?>
<!DOCTYPE svg PUBLIC "-//W3C//DTD SVG 1.1//EN"
 "http://www.w3.org/Graphics/SVG/1.1/DTD/svg11.dtd">
<!-- Generated by graphviz version 12.2.1 (20241206.2353)
 -->
<!-- Title: Graphical Class Hierarchy Pages: 1 -->
<svg width="421pt" height="360pt"
 viewBox="0.00 0.00 420.50 360.25" xmlns="http://www.w3.org/2000/svg" xmlns:xlink="http://www.w3.org/1999/xlink">
<g id="graph0" class="graph" transform="scale(1 1) rotate(0) translate(4 356.25)">
<title>Graphical Class Hierarchy</title>
<!-- Node0 -->
<g id="Node000000" class="node">
<title>Node0</title>
<g id="a_Node000000"><a xlink:title=" ">
<polygon fill="#e0e0e0" stroke="#999999" points="61.38,-352.25 10.12,-352.25 10.12,-333 61.38,-333 61.38,-352.25"/>
<text text-anchor="middle" x="35.75" y="-338.75" font-family="Helvetica,sans-Serif" font-size="10.00">cli::input</text>
</a>
</g>
</g>
<!-- Node1 -->
<g id="Node000001" class="node">
<title>Node1</title>
<g id="a_Node000001"><a xlink:href="classq_o_s_1_1command_line_interface.html" target="_top" xlink:title="An AT Command Line Interface (CLI) object.">
<polygon fill="white" stroke="#666666" points="247.25,-352.25 107.5,-352.25 107.5,-333 247.25,-333 247.25,-352.25"/>
<text text-anchor="middle" x="177.38" y="-338.75" font-family="Helvetica,sans-Serif" font-size="10.00">qOS::commandLineInterface</text>
</a>
</g>
</g>
<!-- Node0&#45;&gt;Node1 -->
<g id="edge1_Node000000_Node000001" class="edge">
<title>Node0&#45;&gt;Node1</title>
<g id="a_edge1_Node000000_Node000001"><a xlink:title=" ">
<path fill="none" stroke="darkgreen" d="M72.98,-342.62C83.53,-342.62 95.43,-342.62 107.3,-342.62"/>
<polygon fill="darkgreen" stroke="darkgreen" points="73.23,-339.13 63.23,-342.63 73.23,-346.13 73.23,-339.13"/>
</a>
</g>
</g>
<!-- Node5 -->
<g id="Node000005" class="node">
<title>Node5</title>
<g id="a_Node000005"><a xlink:href="classq_o_s_1_1node.html" target="_top" xlink:title="A list&#45;node object (Used internally)">
<polygon fill="white" stroke="#666666" points="66.25,-241.25 5.25,-241.25 5.25,-222 66.25,-222 66.25,-241.25"/>
<text text-anchor="middle" x="35.75" y="-227.75" font-family="Helvetica,sans-Serif" font-size="10.00">qOS::node</text>
</a>
</g>
</g>
<!-- Node4 -->
<g id="Node000004" class="node">
<title>Node4</title>
<g id="a_Node000004"><a xlink:href="classq_o_s_1_1cli_1_1command.html" target="_top" xlink:title="An AT&#45;Command object.">
<polygon fill="white" stroke="#666666" points="225.88,-241.25 128.88,-241.25 128.88,-222 225.88,-222 225.88,-241.25"/>
<text text-anchor="middle" x="177.38" y="-227.75" font-family="Helvetica,sans-Serif" font-size="10.00">qOS::cli::command</text>
</a>
</g>
</g>
<!-- Node5&#45;&gt;Node4 -->
<g id="edge2_Node000005_Node000004" class="edge">
<title>Node5&#45;&gt;Node4</title>
<g id="a_edge2_Node000005_Node000004"><a xlink:title=" ">
<path fill="none" stroke="darkgreen" d="M77.82,-231.62C93.75,-231.62 112.1,-231.62 128.62,-231.62"/>
<polygon fill="darkgreen" stroke="darkgreen" points="78.22,-228.13 68.22,-231.63 78.22,-235.13 78.22,-228.13"/>
</a>
</g>
</g>
<!-- Node6 -->
<g id="Node000006" class="node">
<title>Node6</title>
<g id="a_Node000006"><a xlink:href="classq_o_s_1_1input_1_1channel.html" target="_top" xlink:title=" ">
<polygon fill="white" stroke="#666666" points="227,-278.25 127.75,-278.25 127.75,-259 227,-259 227,-278.25"/>
<text text-anchor="middle" x="177.38" y="-264.75" font-family="Helvetica,sans-Serif" font-size="10.00">qOS::input::channel</text>
</a>
</g>
</g>
<!-- Node5&#45;&gt;Node6 -->
<g id="edge3_Node000005_Node000006" class="edge">
<title>Node5&#45;&gt;Node6</title>
<g id="a_edge3_Node000005_Node000006"><a xlink:title=" ">
<path fill="none" stroke="darkgreen" d="M77.76,-242.69C87.51,-245.3 97.87,-248.07 107.5,-250.62 117.3,-253.22 127.88,-256 137.75,-258.58"/>
<polygon fill="darkgreen" stroke="darkgreen" points="78.72,-239.32 68.15,-240.11 76.9,-246.08 78.72,-239.32"/>
</a>
</g>
</g>
<!-- Node9 -->
<g id="Node000009" class="node">
<title>Node9</title>
<g id="a_Node000009"><a xlink:href="classq_o_s_1_1input_1_1watcher.html" target="_top" xlink:title="The digital input&#45;channel watcher class.">
<polygon fill="white" stroke="#666666" points="227.38,-204.25 127.38,-204.25 127.38,-185 227.38,-185 227.38,-204.25"/>
<text text-anchor="middle" x="177.38" y="-190.75" font-family="Helvetica,sans-Serif" font-size="10.00">qOS::input::watcher</text>
</a>
</g>
</g>
<!-- Node5&#45;&gt;Node9 -->
<g id="edge6_Node000005_Node000009" class="edge">
<title>Node5&#45;&gt;Node9</title>
<g id="a_edge6_Node000005_Node000009"><a xlink:title=" ">
<path fill="none" stroke="darkgreen" d="M77.76,-220.56C87.51,-217.95 97.87,-215.18 107.5,-212.62 117.3,-210.03 127.88,-207.25 137.75,-204.67"/>
<polygon fill="darkgreen" stroke="darkgreen" points="76.9,-217.17 68.15,-223.14 78.72,-223.93 76.9,-217.17"/>
</a>
</g>
</g>
<!-- Node10 -->
<g id="Node000010" class="node">
<title>Node10</title>
<g id="a_Node000010"><a xlink:href="classq_o_s_1_1list.html" target="_top" xlink:title="A list object (Generic double&#45;linked)">
<polygon fill="white" stroke="#666666" points="203.75,-315.25 151,-315.25 151,-296 203.75,-296 203.75,-315.25"/>
<text text-anchor="middle" x="177.38" y="-301.75" font-family="Helvetica,sans-Serif" font-size="10.00">qOS::list</text>
</a>
</g>
</g>
<!-- Node5&#45;&gt;Node10 -->
<g id="edge7_Node000005_Node000010" class="edge">
<title>Node5&#45;&gt;Node10</title>
<g id="a_edge7_Node000005_Node000010"><a xlink:title=" ">
<path fill="none" stroke="darkgreen" d="M54.68,-249.31C68.18,-261.7 87.68,-277.74 107.5,-287.62 120.99,-294.35 137.27,-298.76 150.61,-301.52"/>
<polygon fill="darkgreen" stroke="darkgreen" points="57.14,-246.81 47.47,-242.48 52.32,-251.89 57.14,-246.81"/>
</a>
</g>
</g>
<!-- Node11 -->
<g id="Node000011" class="node">
<title>Node11</title>
<g id="a_Node000011"><a xlink:href="classq_o_s_1_1task.html" target="_top" xlink:title="A task node object.">
<polygon fill="white" stroke="#666666" points="206.75,-167.25 148,-167.25 148,-148 206.75,-148 206.75,-167.25"/>
<text text-anchor="middle" x="177.38" y="-153.75" font-family="Helvetica,sans-Serif" font-size="10.00">qOS::task</text>
</a>
</g>
</g>
<!-- Node5&#45;&gt;Node11 -->
<g id="edge8_Node000005_Node000011" class="edge">
<title>Node5&#45;&gt;Node11</title>
<g id="a_edge8_Node000005_Node000011"><a xlink:title=" ">
<path fill="none" stroke="darkgreen" d="M54.68,-213.94C68.18,-201.55 87.68,-185.51 107.5,-175.62 120,-169.39 134.88,-165.16 147.61,-162.37"/>
<polygon fill="darkgreen" stroke="darkgreen" points="52.32,-211.36 47.47,-220.77 57.14,-216.44 52.32,-211.36"/>
</a>
</g>
</g>
<!-- Node7 -->
<g id="Node000007" class="node">
<title>Node7</title>
<g id="a_Node000007"><a xlink:href="classq_o_s_1_1input_1_1analog_channel.html" target="_top" xlink:title="An analog input&#45;channel object.">
<polygon fill="white" stroke="#666666" points="412.5,-296.25 283.25,-296.25 283.25,-277 412.5,-277 412.5,-296.25"/>
<text text-anchor="middle" x="347.88" y="-282.75" font-family="Helvetica,sans-Serif" font-size="10.00">qOS::input::analogChannel</text>
</a>
</g>
</g>
<!-- Node6&#45;&gt;Node7 -->
<g id="edge4_Node000006_Node000007" class="edge">
<title>Node6&#45;&gt;Node7</title>
<g id="a_edge4_Node000006_Node000007"><a xlink:title=" ">
<path fill="none" stroke="#63b8ff" d="M238.42,-275.04C252.83,-276.58 268.28,-278.23 282.87,-279.79"/>
<polygon fill="#63b8ff" stroke="#63b8ff" points="238.93,-271.57 228.62,-273.99 238.19,-278.53 238.93,-271.57"/>
</a>
</g>
</g>
<!-- Node8 -->
<g id="Node000008" class="node">
<title>Node8</title>
<g id="a_Node000008"><a xlink:href="classq_o_s_1_1input_1_1digital_channel.html" target="_top" xlink:title="A digital input&#45;channel object.">
<polygon fill="white" stroke="#666666" points="411,-259.25 284.75,-259.25 284.75,-240 411,-240 411,-259.25"/>
<text text-anchor="middle" x="347.88" y="-245.75" font-family="Helvetica,sans-Serif" font-size="10.00">qOS::input::digitalChannel</text>
</a>
</g>
</g>
<!-- Node6&#45;&gt;Node8 -->
<g id="edge5_Node000006_Node000008" class="edge">
<title>Node6&#45;&gt;Node8</title>
<g id="a_edge5_Node000006_Node000008"><a xlink:title=" ">
<path fill="none" stroke="#63b8ff" d="M238.3,-261.87C253.26,-260.18 269.34,-258.37 284.42,-256.67"/>
<polygon fill="#63b8ff" stroke="#63b8ff" points="238.16,-258.36 228.62,-262.96 238.95,-265.32 238.16,-258.36"/>
</a>
</g>
</g>
<!-- Node2 -->
<g id="Node000002" class="node">
<title>Node2</title>
<g id="a_Node000002"><a xlink:title=" ">
<polygon fill="#e0e0e0" stroke="#999999" points="71.5,-149.25 0,-149.25 0,-130 71.5,-130 71.5,-149.25"/>
<text text-anchor="middle" x="35.75" y="-135.75" font-family="Helvetica,sans-Serif" font-size="10.00">nonCopyable</text>
</a>
</g>
</g>
<!-- Node2&#45;&gt;Node1 -->
<g id="edge11_Node000002_Node000001" class="edge">
<title>Node2&#45;&gt;Node1</title>
<g id="a_edge11_Node000002_Node000001"><a xlink:title=" ">
<path fill="none" stroke="#8b1a1a" d="M46.94,-159.19C54.28,-173.71 64.16,-194.12 71.5,-212.62 90.78,-261.23 69.52,-288.69 107.5,-324.62 110.82,-327.77 114.62,-330.38 118.69,-332.54"/>
<polygon fill="#8b1a1a" stroke="#8b1a1a" points="50.27,-158.01 42.59,-150.7 44.04,-161.2 50.27,-158.01"/>
</a>
</g>
</g>
<!-- Node2&#45;&gt;Node4 -->
<g id="edge10_Node000002_Node000004" class="edge">
<title>Node2&#45;&gt;Node4</title>
<g id="a_edge10_Node000002_Node000004"><a xlink:title=" ">
<path fill="none" stroke="#8b1a1a" d="M50.1,-158.68C62.92,-175.58 83.81,-199.69 107.5,-213.62 114,-217.45 121.31,-220.47 128.68,-222.86"/>
<polygon fill="#8b1a1a" stroke="#8b1a1a" points="53.14,-156.92 44.41,-150.92 47.49,-161.05 53.14,-156.92"/>
</a>
</g>
</g>
<!-- Node2&#45;&gt;Node9 -->
<g id="edge13_Node000002_Node000009" class="edge">
<title>Node2&#45;&gt;Node9</title>
<g id="a_edge13_Node000002_Node000009"><a xlink:title=" ">
<path fill="none" stroke="#8b1a1a" d="M63.1,-155.23C76.14,-162.47 92.3,-170.75 107.5,-176.62 115.22,-179.61 123.62,-182.26 131.81,-184.56"/>
<polygon fill="#8b1a1a" stroke="#8b1a1a" points="65.14,-152.36 54.72,-150.46 61.68,-158.44 65.14,-152.36"/>
</a>
</g>
</g>
<!-- Node2&#45;&gt;Node11 -->
<g id="edge16_Node000002_Node000011" class="edge">
<title>Node2&#45;&gt;Node11</title>
<g id="a_edge16_Node000002_Node000011"><a xlink:title=" ">
<path fill="none" stroke="#8b1a1a" d="M83.12,-145.6C104.47,-148.36 129.13,-151.53 147.73,-153.93"/>
<polygon fill="#8b1a1a" stroke="#8b1a1a" points="83.85,-142.17 73.48,-144.36 82.95,-149.11 83.85,-142.17"/>
</a>
</g>
</g>
<!-- Node3 -->
<g id="Node000003" class="node">
<title>Node3</title>
<g id="a_Node000003"><a xlink:href="classq_o_s_1_1byte_buffer.html" target="_top" xlink:title="A Byte&#45;sized buffer object.">
<polygon fill="white" stroke="#666666" points="219.12,-130.25 135.62,-130.25 135.62,-111 219.12,-111 219.12,-130.25"/>
<text text-anchor="middle" x="177.38" y="-116.75" font-family="Helvetica,sans-Serif" font-size="10.00">qOS::byteBuffer</text>
</a>
</g>
</g>
<!-- Node2&#45;&gt;Node3 -->
<g id="edge9_Node000002_Node000003" class="edge">
<title>Node2&#45;&gt;Node3</title>
<g id="a_edge9_Node000002_Node000003"><a xlink:title=" ">
<path fill="none" stroke="#8b1a1a" d="M83.24,-133.3C100.04,-131.01 118.88,-128.45 135.2,-126.23"/>
<polygon fill="#8b1a1a" stroke="#8b1a1a" points="82.92,-129.81 73.48,-134.63 83.86,-136.75 82.92,-129.81"/>
</a>
</g>
</g>
<!-- Node12 -->
<g id="Node000012" class="node">
<title>Node12</title>
<g id="a_Node000012"><a xlink:href="classq_o_s_1_1core.html" target="_top" xlink:title="The class to interface the OS.">
<polygon fill="white" stroke="#666666" points="206.75,-19.25 148,-19.25 148,0 206.75,0 206.75,-19.25"/>
<text text-anchor="middle" x="177.38" y="-5.75" font-family="Helvetica,sans-Serif" font-size="10.00">qOS::core</text>
</a>
</g>
</g>
<!-- Node2&#45;&gt;Node12 -->
<g id="edge12_Node000002_Node000012" class="edge">
<title>Node2&#45;&gt;Node12</title>
<g id="a_edge12_Node000002_Node000012"><a xlink:title=" ">
<path fill="none" stroke="#8b1a1a" d="M44.17,-119.2C54.45,-93.83 75.45,-51.07 107.5,-27.62 119.17,-19.09 134.56,-14.59 147.83,-12.23"/>
<polygon fill="#8b1a1a" stroke="#8b1a1a" points="40.96,-117.79 40.64,-128.38 47.5,-120.3 40.96,-117.79"/>
</a>
</g>
</g>
<!-- Node14 -->
<g id="Node000014" class="node">
<title>Node14</title>
<g id="a_Node000014"><a xlink:href="classq_o_s_1_1queue.html" target="_top" xlink:title="A Queue object.">
<polygon fill="white" stroke="#666666" points="210.5,-93.25 144.25,-93.25 144.25,-74 210.5,-74 210.5,-93.25"/>
<text text-anchor="middle" x="177.38" y="-79.75" font-family="Helvetica,sans-Serif" font-size="10.00">qOS::queue</text>
</a>
</g>
</g>
<!-- Node2&#45;&gt;Node14 -->
<g id="edge14_Node000002_Node000014" class="edge">
<title>Node2&#45;&gt;Node14</title>
<g id="a_edge14_Node000002_Node000014"><a xlink:title=" ">
<path fill="none" stroke="#8b1a1a" d="M62.53,-123.86C75.64,-116.35 92.04,-107.7 107.5,-101.62 119.12,-97.06 132.29,-93.3 143.98,-90.41"/>
<polygon fill="#8b1a1a" stroke="#8b1a1a" points="60.96,-120.73 54.11,-128.81 64.5,-126.76 60.96,-120.73"/>
</a>
</g>
</g>
<!-- Node15 -->
<g id="Node000015" class="node">
<title>Node15</title>
<g id="a_Node000015"><a xlink:href="classq_o_s_1_1response.html" target="_top" xlink:title="A Response Handler object.">
<polygon fill="white" stroke="#666666" points="217.25,-56.25 137.5,-56.25 137.5,-37 217.25,-37 217.25,-56.25"/>
<text text-anchor="middle" x="177.38" y="-42.75" font-family="Helvetica,sans-Serif" font-size="10.00">qOS::response</text>
</a>
</g>
</g>
<!-- Node2&#45;&gt;Node15 -->
<g id="edge15_Node000002_Node000015" class="edge">
<title>Node2&#45;&gt;Node15</title>
<g id="a_edge15_Node000002_Node000015"><a xlink:title=" ">
<path fill="none" stroke="#8b1a1a" d="M49.83,-120.58C62.6,-103.44 83.56,-78.82 107.5,-64.62 116.54,-59.27 127.17,-55.48 137.33,-52.82"/>
<polygon fill="#8b1a1a" stroke="#8b1a1a" points="47.17,-118.28 44.19,-128.45 52.86,-122.37 47.17,-118.28"/>
</a>
</g>
</g>
<!-- Node13 -->
<g id="Node000013" class="node">
<title>Node13</title>
<g id="a_Node000013"><a xlink:title=" ">
<polygon fill="#e0e0e0" stroke="#999999" points="65.5,-19.25 6,-19.25 6,0 65.5,0 65.5,-19.25"/>
<text text-anchor="middle" x="35.75" y="-5.75" font-family="Helvetica,sans-Serif" font-size="10.00">taskEvent</text>
</a>
</g>
</g>
<!-- Node13&#45;&gt;Node12 -->
<g id="edge17_Node000013_Node000012" class="edge">
<title>Node13&#45;&gt;Node12</title>
<g id="a_edge17_Node000013_Node000012"><a xlink:title=" ">
<path fill="none" stroke="darkgreen" d="M77.02,-9.62C99.73,-9.62 127.54,-9.62 147.96,-9.62"/>
<polygon fill="darkgreen" stroke="darkgreen" points="77.19,-6.13 67.19,-9.63 77.19,-13.13 77.19,-6.13"/>
</a>
</g>
</g>
</g>
</svg>
