<?xml version="1.0" encoding="UTF-8" standalone="no"?>
<!DOCTYPE svg PUBLIC "-//W3C//DTD SVG 1.1//EN"
 "http://www.w3.org/Graphics/SVG/1.1/DTD/svg11.dtd">
<!-- Generated by graphviz version 9.0.0 (20230911.1827)
 -->
<!-- Title: Graphical Class Hierarchy Pages: 1 -->
<svg width="202pt" height="138pt"
 viewBox="0.00 0.00 202.00 138.25" xmlns="http://www.w3.org/2000/svg" xmlns:xlink="http://www.w3.org/1999/xlink">
<g id="graph0" class="graph" transform="scale(1 1) rotate(0) translate(4 134.25)">
<title>Graphical Class Hierarchy</title>
<!-- Node0 -->
<g id="Node000000" class="node">
<title>Node0</title>
<g id="a_Node000000"><a xlink:href="classq_o_s_1_1node.html" target="_top" xlink:title="A list&#45;node object (Used internally)">
<polygon fill="white" stroke="#666666" points="61,-74.25 0,-74.25 0,-55 61,-55 61,-74.25"/>
<text text-anchor="middle" x="30.5" y="-60.75" font-family="Helvetica,sans-Serif" font-size="10.00">qOS::node</text>
</a>
</g>
</g>
<!-- Node1 -->
<g id="Node000001" class="node">
<title>Node1</title>
<g id="a_Node000001"><a xlink:href="classq_o_s_1_1cli_1_1command.html" target="_top" xlink:title="An AT&#45;Command object.">
<polygon fill="white" stroke="#666666" points="194,-130.25 97,-130.25 97,-111 194,-111 194,-130.25"/>
<text text-anchor="middle" x="145.5" y="-116.75" font-family="Helvetica,sans-Serif" font-size="10.00">qOS::cli::command</text>
</a>
</g>
</g>
<!-- Node0&#45;&gt;Node1 -->
<g id="edge2_Node000000_Node000001" class="edge">
<title>Node0&#45;&gt;Node1</title>
<g id="a_edge2_Node000000_Node000001"><a xlink:title=" ">
<path fill="none" stroke="darkgreen" d="M56.96,-80.7C68.88,-87.88 83.41,-96.16 97,-102.62 102.89,-105.43 109.35,-108.11 115.55,-110.52"/>
<polygon fill="darkgreen" stroke="darkgreen" points="58.9,-77.78 48.55,-75.54 55.24,-83.75 58.9,-77.78"/>
</a>
</g>
</g>
<!-- Node2 -->
<g id="Node000002" class="node">
<title>Node2</title>
<g id="a_Node000002"><a xlink:href="classq_o_s_1_1ec_1_1in_node.html" target="_top" xlink:title="An input node object for edge checking.">
<polygon fill="white" stroke="#666666" points="188.38,-93.25 102.62,-93.25 102.62,-74 188.38,-74 188.38,-93.25"/>
<text text-anchor="middle" x="145.5" y="-79.75" font-family="Helvetica,sans-Serif" font-size="10.00">qOS::ec::inNode</text>
</a>
</g>
</g>
<!-- Node0&#45;&gt;Node2 -->
<g id="edge3_Node000000_Node000002" class="edge">
<title>Node0&#45;&gt;Node2</title>
<g id="a_edge3_Node000000_Node000002"><a xlink:title=" ">
<path fill="none" stroke="darkgreen" d="M72.54,-71.52C82.28,-73.16 92.68,-74.91 102.46,-76.56"/>
<polygon fill="darkgreen" stroke="darkgreen" points="73.42,-68.12 62.98,-69.92 72.26,-75.03 73.42,-68.12"/>
</a>
</g>
</g>
<!-- Node3 -->
<g id="Node000003" class="node">
<title>Node3</title>
<g id="a_Node000003"><a xlink:href="classq_o_s_1_1list.html" target="_top" xlink:title="A list object (Generic double&#45;linked)">
<polygon fill="white" stroke="#666666" points="171.88,-56.25 119.12,-56.25 119.12,-37 171.88,-37 171.88,-56.25"/>
<text text-anchor="middle" x="145.5" y="-42.75" font-family="Helvetica,sans-Serif" font-size="10.00">qOS::list</text>
</a>
</g>
</g>
<!-- Node0&#45;&gt;Node3 -->
<g id="edge4_Node000000_Node000003" class="edge">
<title>Node0&#45;&gt;Node3</title>
<g id="a_edge4_Node000000_Node000003"><a xlink:title=" ">
<path fill="none" stroke="darkgreen" d="M72.43,-58.1C87.99,-55.63 105.25,-52.88 118.98,-50.69"/>
<polygon fill="darkgreen" stroke="darkgreen" points="72.3,-54.58 62.98,-59.61 73.41,-61.49 72.3,-54.58"/>
</a>
</g>
</g>
<!-- Node4 -->
<g id="Node000004" class="node">
<title>Node4</title>
<g id="a_Node000004"><a xlink:href="classq_o_s_1_1task.html" target="_top" xlink:title="A task node object.">
<polygon fill="white" stroke="#666666" points="174.88,-19.25 116.12,-19.25 116.12,0 174.88,0 174.88,-19.25"/>
<text text-anchor="middle" x="145.5" y="-5.75" font-family="Helvetica,sans-Serif" font-size="10.00">qOS::task</text>
</a>
</g>
</g>
<!-- Node0&#45;&gt;Node4 -->
<g id="edge5_Node000000_Node000004" class="edge">
<title>Node0&#45;&gt;Node4</title>
<g id="a_edge5_Node000000_Node000004"><a xlink:title=" ">
<path fill="none" stroke="darkgreen" d="M57.25,-48.88C69.13,-41.93 83.55,-33.93 97,-27.62 102.99,-24.82 109.55,-22.11 115.82,-19.69"/>
<polygon fill="darkgreen" stroke="darkgreen" points="55.66,-45.75 48.86,-53.87 59.24,-51.77 55.66,-45.75"/>
</a>
</g>
</g>
</g>
</svg>
