<?xml version="1.0" encoding="UTF-8" standalone="no"?>
<!DOCTYPE svg PUBLIC "-//W3C//DTD SVG 1.1//EN"
 "http://www.w3.org/Graphics/SVG/1.1/DTD/svg11.dtd">
<!-- Generated by graphviz version 12.2.1 (20241206.2353)
 -->
<!-- Title: Graphical Class Hierarchy Pages: 1 -->
<svg width="421pt" height="415pt"
 viewBox="0.00 0.00 420.50 415.25" xmlns="http://www.w3.org/2000/svg" xmlns:xlink="http://www.w3.org/1999/xlink">
<g id="graph0" class="graph" transform="scale(1 1) rotate(0) translate(4 411.25)">
<title>Graphical Class Hierarchy</title>
<!-- Node0 -->
<g id="Node000000" class="node">
<title>Node0</title>
<g id="a_Node000000"><a xlink:title=" ">
<polygon fill="#e0e0e0" stroke="#999999" points="61.38,-241.25 10.12,-241.25 10.12,-222 61.38,-222 61.38,-241.25"/>
<text text-anchor="middle" x="35.75" y="-227.75" font-family="Helvetica,sans-Serif" font-size="10.00">cli::input</text>
</a>
</g>
</g>
<!-- Node1 -->
<g id="Node000001" class="node">
<title>Node1</title>
<g id="a_Node000001"><a xlink:href="classq_o_s_1_1command_line_interface.html" target="_top" xlink:title="An AT Command Line Interface (CLI) object.">
<polygon fill="white" stroke="#666666" points="247.25,-241.25 107.5,-241.25 107.5,-222 247.25,-222 247.25,-241.25"/>
<text text-anchor="middle" x="177.38" y="-227.75" font-family="Helvetica,sans-Serif" font-size="10.00">qOS::commandLineInterface</text>
</a>
</g>
</g>
<!-- Node0&#45;&gt;Node1 -->
<g id="edge1_Node000000_Node000001" class="edge">
<title>Node0&#45;&gt;Node1</title>
<g id="a_edge1_Node000000_Node000001"><a xlink:title=" ">
<path fill="none" stroke="darkgreen" d="M72.98,-231.62C83.53,-231.62 95.43,-231.62 107.3,-231.62"/>
<polygon fill="darkgreen" stroke="darkgreen" points="73.23,-228.13 63.23,-231.63 73.23,-235.13 73.23,-228.13"/>
</a>
</g>
</g>
<!-- Node5 -->
<g id="Node000005" class="node">
<title>Node5</title>
<g id="a_Node000005"><a xlink:href="classq_o_s_1_1node.html" target="_top" xlink:title="A list&#45;node object (Used internally)">
<polygon fill="white" stroke="#666666" points="66.25,-333.25 5.25,-333.25 5.25,-314 66.25,-314 66.25,-333.25"/>
<text text-anchor="middle" x="35.75" y="-319.75" font-family="Helvetica,sans-Serif" font-size="10.00">qOS::node</text>
</a>
</g>
</g>
<!-- Node4 -->
<g id="Node000004" class="node">
<title>Node4</title>
<g id="a_Node000004"><a xlink:href="classq_o_s_1_1cli_1_1command.html" target="_top" xlink:title="An AT&#45;Command object.">
<polygon fill="white" stroke="#666666" points="225.88,-278.25 128.88,-278.25 128.88,-259 225.88,-259 225.88,-278.25"/>
<text text-anchor="middle" x="177.38" y="-264.75" font-family="Helvetica,sans-Serif" font-size="10.00">qOS::cli::command</text>
</a>
</g>
</g>
<!-- Node5&#45;&gt;Node4 -->
<g id="edge2_Node000005_Node000004" class="edge">
<title>Node5&#45;&gt;Node4</title>
<g id="a_edge2_Node000005_Node000004"><a xlink:title=" ">
<path fill="none" stroke="darkgreen" d="M63.1,-308.02C76.14,-300.78 92.3,-292.5 107.5,-286.62 115.22,-283.64 123.62,-280.99 131.81,-278.69"/>
<polygon fill="darkgreen" stroke="darkgreen" points="61.68,-304.81 54.72,-312.79 65.14,-310.89 61.68,-304.81"/>
</a>
</g>
</g>
<!-- Node6 -->
<g id="Node000006" class="node">
<title>Node6</title>
<g id="a_Node000006"><a xlink:href="classq_o_s_1_1input_1_1channel.html" target="_top" xlink:title=" ">
<polygon fill="white" stroke="#666666" points="227,-389.25 127.75,-389.25 127.75,-370 227,-370 227,-389.25"/>
<text text-anchor="middle" x="177.38" y="-375.75" font-family="Helvetica,sans-Serif" font-size="10.00">qOS::input::channel</text>
</a>
</g>
</g>
<!-- Node5&#45;&gt;Node6 -->
<g id="edge3_Node000005_Node000006" class="edge">
<title>Node5&#45;&gt;Node6</title>
<g id="a_edge3_Node000005_Node000006"><a xlink:title=" ">
<path fill="none" stroke="darkgreen" d="M62.53,-339.39C75.64,-346.9 92.04,-355.55 107.5,-361.62 115.09,-364.61 123.35,-367.25 131.42,-369.53"/>
<polygon fill="darkgreen" stroke="darkgreen" points="64.5,-336.49 54.11,-334.44 60.96,-342.52 64.5,-336.49"/>
</a>
</g>
</g>
<!-- Node9 -->
<g id="Node000009" class="node">
<title>Node9</title>
<g id="a_Node000009"><a xlink:href="classq_o_s_1_1list.html" target="_top" xlink:title="A list object (Generic double&#45;linked)">
<polygon fill="white" stroke="#666666" points="203.75,-352.25 151,-352.25 151,-333 203.75,-333 203.75,-352.25"/>
<text text-anchor="middle" x="177.38" y="-338.75" font-family="Helvetica,sans-Serif" font-size="10.00">qOS::list</text>
</a>
</g>
</g>
<!-- Node5&#45;&gt;Node9 -->
<g id="edge6_Node000005_Node000009" class="edge">
<title>Node5&#45;&gt;Node9</title>
<g id="a_edge6_Node000005_Node000009"><a xlink:title=" ">
<path fill="none" stroke="darkgreen" d="M77.8,-329.21C101.39,-332.42 130.3,-336.35 150.69,-339.13"/>
<polygon fill="darkgreen" stroke="darkgreen" points="78.58,-325.79 68.2,-327.91 77.64,-332.72 78.58,-325.79"/>
</a>
</g>
</g>
<!-- Node10 -->
<g id="Node000010" class="node">
<title>Node10</title>
<g id="a_Node000010"><a xlink:href="classq_o_s_1_1task.html" target="_top" xlink:title="A task node object.">
<polygon fill="white" stroke="#666666" points="206.75,-315.25 148,-315.25 148,-296 206.75,-296 206.75,-315.25"/>
<text text-anchor="middle" x="177.38" y="-301.75" font-family="Helvetica,sans-Serif" font-size="10.00">qOS::task</text>
</a>
</g>
</g>
<!-- Node5&#45;&gt;Node10 -->
<g id="edge7_Node000005_Node000010" class="edge">
<title>Node5&#45;&gt;Node10</title>
<g id="a_edge7_Node000005_Node000010"><a xlink:title=" ">
<path fill="none" stroke="darkgreen" d="M77.97,-318.31C100.48,-315.41 127.77,-311.89 147.9,-309.3"/>
<polygon fill="darkgreen" stroke="darkgreen" points="77.67,-314.82 68.2,-319.57 78.57,-321.76 77.67,-314.82"/>
</a>
</g>
</g>
<!-- Node7 -->
<g id="Node000007" class="node">
<title>Node7</title>
<g id="a_Node000007"><a xlink:href="classq_o_s_1_1input_1_1analog_channel.html" target="_top" xlink:title="An analog input&#45;channel object.">
<polygon fill="white" stroke="#666666" points="412.5,-407.25 283.25,-407.25 283.25,-388 412.5,-388 412.5,-407.25"/>
<text text-anchor="middle" x="347.88" y="-393.75" font-family="Helvetica,sans-Serif" font-size="10.00">qOS::input::analogChannel</text>
</a>
</g>
</g>
<!-- Node6&#45;&gt;Node7 -->
<g id="edge4_Node000006_Node000007" class="edge">
<title>Node6&#45;&gt;Node7</title>
<g id="a_edge4_Node000006_Node000007"><a xlink:title=" ">
<path fill="none" stroke="#63b8ff" d="M238.42,-386.04C252.83,-387.58 268.28,-389.23 282.87,-390.79"/>
<polygon fill="#63b8ff" stroke="#63b8ff" points="238.93,-382.57 228.62,-384.99 238.19,-389.53 238.93,-382.57"/>
</a>
</g>
</g>
<!-- Node8 -->
<g id="Node000008" class="node">
<title>Node8</title>
<g id="a_Node000008"><a xlink:href="classq_o_s_1_1input_1_1digital_channel.html" target="_top" xlink:title="A digital input&#45;channel object.">
<polygon fill="white" stroke="#666666" points="411,-370.25 284.75,-370.25 284.75,-351 411,-351 411,-370.25"/>
<text text-anchor="middle" x="347.88" y="-356.75" font-family="Helvetica,sans-Serif" font-size="10.00">qOS::input::digitalChannel</text>
</a>
</g>
</g>
<!-- Node6&#45;&gt;Node8 -->
<g id="edge5_Node000006_Node000008" class="edge">
<title>Node6&#45;&gt;Node8</title>
<g id="a_edge5_Node000006_Node000008"><a xlink:title=" ">
<path fill="none" stroke="#63b8ff" d="M238.3,-372.87C253.26,-371.18 269.34,-369.37 284.42,-367.67"/>
<polygon fill="#63b8ff" stroke="#63b8ff" points="238.16,-369.36 228.62,-373.96 238.95,-376.32 238.16,-369.36"/>
</a>
</g>
</g>
<!-- Node2 -->
<g id="Node000002" class="node">
<title>Node2</title>
<g id="a_Node000002"><a xlink:title=" ">
<polygon fill="#e0e0e0" stroke="#999999" points="71.5,-167.25 0,-167.25 0,-148 71.5,-148 71.5,-167.25"/>
<text text-anchor="middle" x="35.75" y="-153.75" font-family="Helvetica,sans-Serif" font-size="10.00">nonCopyable</text>
</a>
</g>
</g>
<!-- Node2&#45;&gt;Node1 -->
<g id="edge10_Node000002_Node000001" class="edge">
<title>Node2&#45;&gt;Node1</title>
<g id="a_edge10_Node000002_Node000001"><a xlink:title=" ">
<path fill="none" stroke="#8b1a1a" d="M54.68,-175.31C68.18,-187.7 87.68,-203.74 107.5,-213.62 113.8,-216.77 120.72,-219.4 127.65,-221.6"/>
<polygon fill="#8b1a1a" stroke="#8b1a1a" points="57.14,-172.81 47.47,-168.48 52.32,-177.89 57.14,-172.81"/>
</a>
</g>
</g>
<!-- Node2&#45;&gt;Node4 -->
<g id="edge9_Node000002_Node000004" class="edge">
<title>Node2&#45;&gt;Node4</title>
<g id="a_edge9_Node000002_Node000004"><a xlink:title=" ">
<path fill="none" stroke="#8b1a1a" d="M49.32,-177.07C65.37,-201.33 92.8,-240.83 107.5,-250.62 113.88,-254.88 121.2,-258.12 128.65,-260.6"/>
<polygon fill="#8b1a1a" stroke="#8b1a1a" points="52.45,-175.45 44.04,-169 46.59,-179.29 52.45,-175.45"/>
</a>
</g>
</g>
<!-- Node2&#45;&gt;Node10 -->
<g id="edge16_Node000002_Node000010" class="edge">
<title>Node2&#45;&gt;Node10</title>
<g id="a_edge16_Node000002_Node000010"><a xlink:title=" ">
<path fill="none" stroke="#8b1a1a" d="M49.7,-176.89C56.49,-187.3 64.77,-200.47 71.5,-212.62 89.4,-244.98 78.97,-264.11 107.5,-287.62 118.75,-296.9 134.27,-301.45 147.72,-303.66"/>
<polygon fill="#8b1a1a" stroke="#8b1a1a" points="52.79,-175.22 44.35,-168.81 46.95,-179.08 52.79,-175.22"/>
</a>
</g>
</g>
<!-- Node3 -->
<g id="Node000003" class="node">
<title>Node3</title>
<g id="a_Node000003"><a xlink:href="classq_o_s_1_1byte_buffer.html" target="_top" xlink:title="A Byte&#45;sized buffer object.">
<polygon fill="white" stroke="#666666" points="219.12,-93.25 135.62,-93.25 135.62,-74 219.12,-74 219.12,-93.25"/>
<text text-anchor="middle" x="177.38" y="-79.75" font-family="Helvetica,sans-Serif" font-size="10.00">qOS::byteBuffer</text>
</a>
</g>
</g>
<!-- Node2&#45;&gt;Node3 -->
<g id="edge8_Node000002_Node000003" class="edge">
<title>Node2&#45;&gt;Node3</title>
<g id="a_edge8_Node000002_Node000003"><a xlink:title=" ">
<path fill="none" stroke="#8b1a1a" d="M54.68,-139.94C68.18,-127.55 87.68,-111.51 107.5,-101.62 116.13,-97.32 125.89,-93.97 135.3,-91.39"/>
<polygon fill="#8b1a1a" stroke="#8b1a1a" points="52.32,-137.36 47.47,-146.77 57.14,-142.44 52.32,-137.36"/>
</a>
</g>
</g>
<!-- Node11 -->
<g id="Node000011" class="node">
<title>Node11</title>
<g id="a_Node000011"><a xlink:href="classq_o_s_1_1core.html" target="_top" xlink:title="The class to interface the OS.">
<polygon fill="white" stroke="#666666" points="206.75,-19.25 148,-19.25 148,0 206.75,0 206.75,-19.25"/>
<text text-anchor="middle" x="177.38" y="-5.75" font-family="Helvetica,sans-Serif" font-size="10.00">qOS::core</text>
</a>
</g>
</g>
<!-- Node2&#45;&gt;Node11 -->
<g id="edge11_Node000002_Node000011" class="edge">
<title>Node2&#45;&gt;Node11</title>
<g id="a_edge11_Node000002_Node000011"><a xlink:title=" ">
<path fill="none" stroke="#8b1a1a" d="M42.35,-136.87C51.23,-107.94 71.38,-55.89 107.5,-27.62 118.89,-18.71 134.25,-14.19 147.58,-11.9"/>
<polygon fill="#8b1a1a" stroke="#8b1a1a" points="39.05,-135.68 39.63,-146.26 45.77,-137.62 39.05,-135.68"/>
</a>
</g>
</g>
<!-- Node13 -->
<g id="Node000013" class="node">
<title>Node13</title>
<g id="a_Node000013"><a xlink:href="classq_o_s_1_1critical_1_1lock.html" target="_top" xlink:title="Scoped critical section lock.">
<polygon fill="white" stroke="#666666" points="222.88,-56.25 131.88,-56.25 131.88,-37 222.88,-37 222.88,-56.25"/>
<text text-anchor="middle" x="177.38" y="-42.75" font-family="Helvetica,sans-Serif" font-size="10.00">qOS::critical::lock</text>
</a>
</g>
</g>
<!-- Node2&#45;&gt;Node13 -->
<g id="edge12_Node000002_Node000013" class="edge">
<title>Node2&#45;&gt;Node13</title>
<g id="a_edge12_Node000002_Node000013"><a xlink:title=" ">
<path fill="none" stroke="#8b1a1a" d="M46.77,-137.55C58.45,-116.24 79.74,-83.13 107.5,-64.62 114.7,-59.83 123.11,-56.31 131.53,-53.72"/>
<polygon fill="#8b1a1a" stroke="#8b1a1a" points="43.68,-135.92 42.13,-146.4 49.87,-139.17 43.68,-135.92"/>
</a>
</g>
</g>
<!-- Node14 -->
<g id="Node000014" class="node">
<title>Node14</title>
<g id="a_Node000014"><a xlink:href="classq_o_s_1_1input_1_1watcher.html" target="_top" xlink:title="The digital input&#45;channel watcher class.">
<polygon fill="white" stroke="#666666" points="227.38,-204.25 127.38,-204.25 127.38,-185 227.38,-185 227.38,-204.25"/>
<text text-anchor="middle" x="177.38" y="-190.75" font-family="Helvetica,sans-Serif" font-size="10.00">qOS::input::watcher</text>
</a>
</g>
</g>
<!-- Node2&#45;&gt;Node14 -->
<g id="edge13_Node000002_Node000014" class="edge">
<title>Node2&#45;&gt;Node14</title>
<g id="a_edge13_Node000002_Node000014"><a xlink:title=" ">
<path fill="none" stroke="#8b1a1a" d="M82.67,-170C90.93,-172.22 99.47,-174.5 107.5,-176.62 117.3,-179.22 127.88,-182 137.75,-184.58"/>
<polygon fill="#8b1a1a" stroke="#8b1a1a" points="83.67,-166.65 73.11,-167.44 81.86,-173.41 83.67,-166.65"/>
</a>
</g>
</g>
<!-- Node15 -->
<g id="Node000015" class="node">
<title>Node15</title>
<g id="a_Node000015"><a xlink:href="classq_o_s_1_1queue.html" target="_top" xlink:title="A Queue object.">
<polygon fill="white" stroke="#666666" points="210.5,-167.25 144.25,-167.25 144.25,-148 210.5,-148 210.5,-167.25"/>
<text text-anchor="middle" x="177.38" y="-153.75" font-family="Helvetica,sans-Serif" font-size="10.00">qOS::queue</text>
</a>
</g>
</g>
<!-- Node2&#45;&gt;Node15 -->
<g id="edge14_Node000002_Node000015" class="edge">
<title>Node2&#45;&gt;Node15</title>
<g id="a_edge14_Node000002_Node000015"><a xlink:title=" ">
<path fill="none" stroke="#8b1a1a" d="M83.32,-157.62C103.24,-157.62 126,-157.62 144.02,-157.62"/>
<polygon fill="#8b1a1a" stroke="#8b1a1a" points="83.5,-154.13 73.5,-157.63 83.5,-161.13 83.5,-154.13"/>
</a>
</g>
</g>
<!-- Node16 -->
<g id="Node000016" class="node">
<title>Node16</title>
<g id="a_Node000016"><a xlink:href="classq_o_s_1_1response.html" target="_top" xlink:title="A Response Handler object.">
<polygon fill="white" stroke="#666666" points="217.25,-130.25 137.5,-130.25 137.5,-111 217.25,-111 217.25,-130.25"/>
<text text-anchor="middle" x="177.38" y="-116.75" font-family="Helvetica,sans-Serif" font-size="10.00">qOS::response</text>
</a>
</g>
</g>
<!-- Node2&#45;&gt;Node16 -->
<g id="edge15_Node000002_Node000016" class="edge">
<title>Node2&#45;&gt;Node16</title>
<g id="a_edge15_Node000002_Node000016"><a xlink:title=" ">
<path fill="none" stroke="#8b1a1a" d="M82.67,-145.25C90.93,-143.03 99.47,-140.75 107.5,-138.62 117.3,-136.03 127.88,-133.25 137.75,-130.67"/>
<polygon fill="#8b1a1a" stroke="#8b1a1a" points="81.86,-141.84 73.11,-147.81 83.67,-148.6 81.86,-141.84"/>
</a>
</g>
</g>
<!-- Node12 -->
<g id="Node000012" class="node">
<title>Node12</title>
<g id="a_Node000012"><a xlink:title=" ">
<polygon fill="#e0e0e0" stroke="#999999" points="65.5,-19.25 6,-19.25 6,0 65.5,0 65.5,-19.25"/>
<text text-anchor="middle" x="35.75" y="-5.75" font-family="Helvetica,sans-Serif" font-size="10.00">taskEvent</text>
</a>
</g>
</g>
<!-- Node12&#45;&gt;Node11 -->
<g id="edge17_Node000012_Node000011" class="edge">
<title>Node12&#45;&gt;Node11</title>
<g id="a_edge17_Node000012_Node000011"><a xlink:title=" ">
<path fill="none" stroke="darkgreen" d="M77.02,-9.62C99.73,-9.62 127.54,-9.62 147.96,-9.62"/>
<polygon fill="darkgreen" stroke="darkgreen" points="77.19,-6.13 67.19,-9.63 77.19,-13.13 77.19,-6.13"/>
</a>
</g>
</g>
</g>
</svg>
