<?xml version="1.0" encoding="UTF-8" standalone="no"?>
<!DOCTYPE svg PUBLIC "-//W3C//DTD SVG 1.1//EN"
 "http://www.w3.org/Graphics/SVG/1.1/DTD/svg11.dtd">
<!-- Generated by graphviz version 9.0.0 (20230911.1827)
 -->
<!-- Title: Graphical Class Hierarchy Pages: 1 -->
<svg width="204pt" height="138pt"
 viewBox="0.00 0.00 204.25 138.25" xmlns="http://www.w3.org/2000/svg" xmlns:xlink="http://www.w3.org/1999/xlink">
<g id="graph0" class="graph" transform="scale(1 1) rotate(0) translate(4 134.25)">
<title>Graphical Class Hierarchy</title>
<!-- Node0 -->
<g id="Node000000" class="node">
<title>Node0</title>
<g id="a_Node000000"><a xlink:href="classq_o_s_1_1node.html" target="_top" xlink:title="A list&#45;node object (Used internally)">
<polygon fill="white" stroke="#666666" points="61,-74.25 0,-74.25 0,-55 61,-55 61,-74.25"/>
<text text-anchor="middle" x="30.5" y="-60.75" font-family="Helvetica,sans-Serif" font-size="10.00">qOS::node</text>
</a>
</g>
</g>
<!-- Node1 -->
<g id="Node000001" class="node">
<title>Node1</title>
<g id="a_Node000001"><a xlink:href="classq_o_s_1_1cli_1_1command.html" target="_top" xlink:title="An AT&#45;Command object.">
<polygon fill="white" stroke="#666666" points="195.12,-130.25 98.12,-130.25 98.12,-111 195.12,-111 195.12,-130.25"/>
<text text-anchor="middle" x="146.62" y="-116.75" font-family="Helvetica,sans-Serif" font-size="10.00">qOS::cli::command</text>
</a>
</g>
</g>
<!-- Node0&#45;&gt;Node1 -->
<g id="edge2_Node000000_Node000001" class="edge">
<title>Node0&#45;&gt;Node1</title>
<g id="a_edge2_Node000000_Node000001"><a xlink:title=" ">
<path fill="none" stroke="darkgreen" d="M56.7,-80.6C68.65,-87.83 83.29,-96.17 97,-102.62 103.03,-105.46 109.63,-108.16 115.98,-110.57"/>
<polygon fill="darkgreen" stroke="darkgreen" points="58.61,-77.67 48.26,-75.41 54.95,-83.63 58.61,-77.67"/>
</a>
</g>
</g>
<!-- Node2 -->
<g id="Node000002" class="node">
<title>Node2</title>
<g id="a_Node000002"><a xlink:href="classq_o_s_1_1input_1_1channel.html" target="_top" xlink:title="An input channel object.">
<polygon fill="white" stroke="#666666" points="196.25,-93.25 97,-93.25 97,-74 196.25,-74 196.25,-93.25"/>
<text text-anchor="middle" x="146.62" y="-79.75" font-family="Helvetica,sans-Serif" font-size="10.00">qOS::input::channel</text>
</a>
</g>
</g>
<!-- Node0&#45;&gt;Node2 -->
<g id="edge3_Node000000_Node000002" class="edge">
<title>Node0&#45;&gt;Node2</title>
<g id="a_edge3_Node000000_Node000002"><a xlink:title=" ">
<path fill="none" stroke="darkgreen" d="M72.62,-71.47C80.48,-72.78 88.79,-74.16 96.86,-75.51"/>
<polygon fill="darkgreen" stroke="darkgreen" points="73.42,-68.06 62.98,-69.87 72.27,-74.96 73.42,-68.06"/>
</a>
</g>
</g>
<!-- Node3 -->
<g id="Node000003" class="node">
<title>Node3</title>
<g id="a_Node000003"><a xlink:href="classq_o_s_1_1list.html" target="_top" xlink:title="A list object (Generic double&#45;linked)">
<polygon fill="white" stroke="#666666" points="173,-56.25 120.25,-56.25 120.25,-37 173,-37 173,-56.25"/>
<text text-anchor="middle" x="146.62" y="-42.75" font-family="Helvetica,sans-Serif" font-size="10.00">qOS::list</text>
</a>
</g>
</g>
<!-- Node0&#45;&gt;Node3 -->
<g id="edge4_Node000000_Node000003" class="edge">
<title>Node0&#45;&gt;Node3</title>
<g id="a_edge4_Node000000_Node000003"><a xlink:title=" ">
<path fill="none" stroke="darkgreen" d="M72.64,-58.14C88.49,-55.64 106.13,-52.85 120.09,-50.65"/>
<polygon fill="darkgreen" stroke="darkgreen" points="72.31,-54.64 62.98,-59.66 73.4,-61.56 72.31,-54.64"/>
</a>
</g>
</g>
<!-- Node4 -->
<g id="Node000004" class="node">
<title>Node4</title>
<g id="a_Node000004"><a xlink:href="classq_o_s_1_1task.html" target="_top" xlink:title="A task node object.">
<polygon fill="white" stroke="#666666" points="176,-19.25 117.25,-19.25 117.25,0 176,0 176,-19.25"/>
<text text-anchor="middle" x="146.62" y="-5.75" font-family="Helvetica,sans-Serif" font-size="10.00">qOS::task</text>
</a>
</g>
</g>
<!-- Node0&#45;&gt;Node4 -->
<g id="edge5_Node000000_Node000004" class="edge">
<title>Node0&#45;&gt;Node4</title>
<g id="a_edge5_Node000000_Node000004"><a xlink:title=" ">
<path fill="none" stroke="darkgreen" d="M57.23,-48.83C69.1,-41.87 83.53,-33.87 97,-27.62 103.29,-24.71 110.19,-21.92 116.77,-19.44"/>
<polygon fill="darkgreen" stroke="darkgreen" points="55.64,-45.71 48.84,-53.83 59.22,-51.72 55.64,-45.71"/>
</a>
</g>
</g>
</g>
</svg>
