<?xml version="1.0" encoding="UTF-8" standalone="no"?>
<!DOCTYPE svg PUBLIC "-//W3C//DTD SVG 1.1//EN"
 "http://www.w3.org/Graphics/SVG/1.1/DTD/svg11.dtd">
<!-- Generated by graphviz version 2.49.3 (20211027.1534)
 -->
<!-- Title: Graphical Class Hierarchy Pages: 1 -->
<svg width="204pt" height="142pt"
 viewBox="0.00 0.00 204.00 142.00" xmlns="http://www.w3.org/2000/svg" xmlns:xlink="http://www.w3.org/1999/xlink">
<g id="graph0" class="graph" transform="scale(1 1) rotate(0) translate(4 138)">
<title>Graphical Class Hierarchy</title>
<polygon fill="white" stroke="transparent" points="-4,4 -4,-138 200,-138 200,4 -4,4"/>
<!-- Node0 -->
<g id="node1" class="node">
<title>Node0</title>
<g id="a_node1"><a xlink:href="classq_o_s_1_1node.html" target="_top" xlink:title="A list&#45;node object (Used internally)">
<polygon fill="white" stroke="black" points="0,-57.5 0,-76.5 62,-76.5 62,-57.5 0,-57.5"/>
<text text-anchor="middle" x="31" y="-64.5" font-family="Helvetica,sans-Serif" font-size="10.00">qOS::node</text>
</a>
</g>
</g>
<!-- Node1 -->
<g id="node2" class="node">
<title>Node1</title>
<g id="a_node2"><a xlink:href="classq_o_s_1_1cli_1_1command.html" target="_top" xlink:title="An AT&#45;Command object.">
<polygon fill="white" stroke="black" points="98,-114.5 98,-133.5 196,-133.5 196,-114.5 98,-114.5"/>
<text text-anchor="middle" x="147" y="-121.5" font-family="Helvetica,sans-Serif" font-size="10.00">qOS::cli::command</text>
</a>
</g>
</g>
<!-- Node0&#45;&gt;Node1 -->
<g id="edge1" class="edge">
<title>Node0&#45;&gt;Node1</title>
<path fill="none" stroke="darkgreen" d="M55.89,-81.88C68.23,-89.27 83.67,-98.08 98,-105 104.94,-108.35 112.64,-111.59 119.79,-114.42"/>
<polygon fill="darkgreen" stroke="darkgreen" points="57.49,-78.76 47.13,-76.55 53.86,-84.74 57.49,-78.76"/>
</g>
<!-- Node2 -->
<g id="node3" class="node">
<title>Node2</title>
<g id="a_node3"><a xlink:href="classq_o_s_1_1ec_1_1in_node.html" target="_top" xlink:title="An input node object for edge checking.">
<polygon fill="white" stroke="black" points="104,-76.5 104,-95.5 190,-95.5 190,-76.5 104,-76.5"/>
<text text-anchor="middle" x="147" y="-83.5" font-family="Helvetica,sans-Serif" font-size="10.00">qOS::ec::inNode</text>
</a>
</g>
</g>
<!-- Node0&#45;&gt;Node2 -->
<g id="edge2" class="edge">
<title>Node0&#45;&gt;Node2</title>
<path fill="none" stroke="darkgreen" d="M72.12,-73.69C82.31,-75.39 93.29,-77.22 103.59,-78.93"/>
<polygon fill="darkgreen" stroke="darkgreen" points="72.69,-70.23 62.25,-72.04 71.54,-77.14 72.69,-70.23"/>
</g>
<!-- Node3 -->
<g id="node4" class="node">
<title>Node3</title>
<g id="a_node4"><a xlink:href="classq_o_s_1_1list.html" target="_top" xlink:title="A list object (Generic double&#45;linked)">
<polygon fill="white" stroke="black" points="120.5,-38.5 120.5,-57.5 173.5,-57.5 173.5,-38.5 120.5,-38.5"/>
<text text-anchor="middle" x="147" y="-45.5" font-family="Helvetica,sans-Serif" font-size="10.00">qOS::list</text>
</a>
</g>
</g>
<!-- Node0&#45;&gt;Node3 -->
<g id="edge3" class="edge">
<title>Node0&#45;&gt;Node3</title>
<path fill="none" stroke="darkgreen" d="M72.38,-60.27C88.31,-57.62 106.13,-54.64 120.25,-52.29"/>
<polygon fill="darkgreen" stroke="darkgreen" points="71.54,-56.86 62.25,-61.96 72.69,-63.77 71.54,-56.86"/>
</g>
<!-- Node4 -->
<g id="node5" class="node">
<title>Node4</title>
<g id="a_node5"><a xlink:href="classq_o_s_1_1task.html" target="_top" xlink:title="A task node object.">
<polygon fill="white" stroke="black" points="117.5,-0.5 117.5,-19.5 176.5,-19.5 176.5,-0.5 117.5,-0.5"/>
<text text-anchor="middle" x="147" y="-7.5" font-family="Helvetica,sans-Serif" font-size="10.00">qOS::task</text>
</a>
</g>
</g>
<!-- Node0&#45;&gt;Node4 -->
<g id="edge4" class="edge">
<title>Node0&#45;&gt;Node4</title>
<path fill="none" stroke="darkgreen" d="M55.89,-52.12C68.23,-44.73 83.67,-35.92 98,-29 104.94,-25.65 112.64,-22.41 119.79,-19.58"/>
<polygon fill="darkgreen" stroke="darkgreen" points="53.86,-49.26 47.13,-57.45 57.49,-55.24 53.86,-49.26"/>
</g>
</g>
</svg>
