<?xml version="1.0" encoding="UTF-8" standalone="no"?>
<!DOCTYPE svg PUBLIC "-//W3C//DTD SVG 1.1//EN"
 "http://www.w3.org/Graphics/SVG/1.1/DTD/svg11.dtd">
<!-- Generated by graphviz version 9.0.0 (20230911.1827)
 -->
<!-- Title: Graphical Class Hierarchy Pages: 1 -->
<svg width="205pt" height="175pt"
 viewBox="0.00 0.00 205.00 175.25" xmlns="http://www.w3.org/2000/svg" xmlns:xlink="http://www.w3.org/1999/xlink">
<g id="graph0" class="graph" transform="scale(1 1) rotate(0) translate(4 171.25)">
<title>Graphical Class Hierarchy</title>
<!-- Node0 -->
<g id="Node000000" class="node">
<title>Node0</title>
<g id="a_Node000000"><a xlink:href="classq_o_s_1_1node.html" target="_top" xlink:title="A list&#45;node object (Used internally)">
<polygon fill="white" stroke="#666666" points="61,-93.25 0,-93.25 0,-74 61,-74 61,-93.25"/>
<text text-anchor="middle" x="30.5" y="-79.75" font-family="Helvetica,sans-Serif" font-size="10.00">qOS::node</text>
</a>
</g>
</g>
<!-- Node1 -->
<g id="Node000001" class="node">
<title>Node1</title>
<g id="a_Node000001"><a xlink:href="classq_o_s_1_1cli_1_1command.html" target="_top" xlink:title="An AT&#45;Command object.">
<polygon fill="white" stroke="#666666" points="195.5,-167.25 98.5,-167.25 98.5,-148 195.5,-148 195.5,-167.25"/>
<text text-anchor="middle" x="147" y="-153.75" font-family="Helvetica,sans-Serif" font-size="10.00">qOS::cli::command</text>
</a>
</g>
</g>
<!-- Node0&#45;&gt;Node1 -->
<g id="edge2_Node000000_Node000001" class="edge">
<title>Node0&#45;&gt;Node1</title>
<g id="a_edge2_Node000000_Node000001"><a xlink:title=" ">
<path fill="none" stroke="darkgreen" d="M48.95,-101.59C61.44,-113.64 79.13,-129.16 97,-139.62 102.16,-142.65 107.92,-145.31 113.62,-147.59"/>
<polygon fill="darkgreen" stroke="darkgreen" points="51.49,-99.18 41.93,-94.62 46.56,-104.15 51.49,-99.18"/>
</a>
</g>
</g>
<!-- Node2 -->
<g id="Node000002" class="node">
<title>Node2</title>
<g id="a_Node000002"><a xlink:href="classq_o_s_1_1input_1_1channel.html" target="_top" xlink:title="An input&#45;channel object, could be either analog or digital.">
<polygon fill="white" stroke="#666666" points="196.62,-130.25 97.38,-130.25 97.38,-111 196.62,-111 196.62,-130.25"/>
<text text-anchor="middle" x="147" y="-116.75" font-family="Helvetica,sans-Serif" font-size="10.00">qOS::input::channel</text>
</a>
</g>
</g>
<!-- Node0&#45;&gt;Node2 -->
<g id="edge3_Node000000_Node000002" class="edge">
<title>Node0&#45;&gt;Node2</title>
<g id="a_edge3_Node000000_Node000002"><a xlink:title=" ">
<path fill="none" stroke="darkgreen" d="M72.14,-96.76C86.15,-101.29 101.62,-106.28 114.76,-110.53"/>
<polygon fill="darkgreen" stroke="darkgreen" points="73.32,-93.46 62.72,-93.72 71.16,-100.12 73.32,-93.46"/>
</a>
</g>
</g>
<!-- Node3 -->
<g id="Node000003" class="node">
<title>Node3</title>
<g id="a_Node000003"><a xlink:href="classq_o_s_1_1input_1_1watcher.html" target="_top" xlink:title="The digital input&#45;channel watcher class.">
<polygon fill="white" stroke="#666666" points="197,-93.25 97,-93.25 97,-74 197,-74 197,-93.25"/>
<text text-anchor="middle" x="147" y="-79.75" font-family="Helvetica,sans-Serif" font-size="10.00">qOS::input::watcher</text>
</a>
</g>
</g>
<!-- Node0&#45;&gt;Node3 -->
<g id="edge4_Node000000_Node000003" class="edge">
<title>Node0&#45;&gt;Node3</title>
<g id="a_edge4_Node000000_Node000003"><a xlink:title=" ">
<path fill="none" stroke="darkgreen" d="M72.74,-83.62C80.56,-83.62 88.81,-83.62 96.85,-83.62"/>
<polygon fill="darkgreen" stroke="darkgreen" points="72.8,-80.13 62.8,-83.63 72.8,-87.13 72.8,-80.13"/>
</a>
</g>
</g>
<!-- Node4 -->
<g id="Node000004" class="node">
<title>Node4</title>
<g id="a_Node000004"><a xlink:href="classq_o_s_1_1list.html" target="_top" xlink:title="A list object (Generic double&#45;linked)">
<polygon fill="white" stroke="#666666" points="173.38,-56.25 120.62,-56.25 120.62,-37 173.38,-37 173.38,-56.25"/>
<text text-anchor="middle" x="147" y="-42.75" font-family="Helvetica,sans-Serif" font-size="10.00">qOS::list</text>
</a>
</g>
</g>
<!-- Node0&#45;&gt;Node4 -->
<g id="edge5_Node000000_Node000004" class="edge">
<title>Node0&#45;&gt;Node4</title>
<g id="a_edge5_Node000000_Node000004"><a xlink:title=" ">
<path fill="none" stroke="darkgreen" d="M72.02,-70.53C88.07,-65.35 106.04,-59.54 120.25,-54.95"/>
<polygon fill="darkgreen" stroke="darkgreen" points="71.16,-67.13 62.72,-73.53 73.32,-73.79 71.16,-67.13"/>
</a>
</g>
</g>
<!-- Node5 -->
<g id="Node000005" class="node">
<title>Node5</title>
<g id="a_Node000005"><a xlink:href="classq_o_s_1_1task.html" target="_top" xlink:title="A task node object.">
<polygon fill="white" stroke="#666666" points="176.38,-19.25 117.62,-19.25 117.62,0 176.38,0 176.38,-19.25"/>
<text text-anchor="middle" x="147" y="-5.75" font-family="Helvetica,sans-Serif" font-size="10.00">qOS::task</text>
</a>
</g>
</g>
<!-- Node0&#45;&gt;Node5 -->
<g id="edge6_Node000000_Node000005" class="edge">
<title>Node0&#45;&gt;Node5</title>
<g id="a_edge6_Node000000_Node000005"><a xlink:title=" ">
<path fill="none" stroke="darkgreen" d="M48.95,-65.66C61.44,-53.61 79.13,-38.09 97,-27.62 103.26,-23.96 110.39,-20.83 117.24,-18.26"/>
<polygon fill="darkgreen" stroke="darkgreen" points="46.56,-63.1 41.93,-72.63 51.49,-68.07 46.56,-63.1"/>
</a>
</g>
</g>
</g>
</svg>
