<?xml version="1.0" encoding="UTF-8" standalone="no"?>
<!DOCTYPE svg PUBLIC "-//W3C//DTD SVG 1.1//EN"
 "http://www.w3.org/Graphics/SVG/1.1/DTD/svg11.dtd">
<!-- Generated by graphviz version 2.49.3 (20211027.1534)
 -->
<!-- Title: qOS::sm::_transition_s Pages: 1 -->
<svg width="245pt" height="184pt"
 viewBox="0.00 0.00 244.50 184.00" xmlns="http://www.w3.org/2000/svg" xmlns:xlink="http://www.w3.org/1999/xlink">
<g id="graph0" class="graph" transform="scale(1 1) rotate(0) translate(4 180)">
<title>qOS::sm::_transition_s</title>
<polygon fill="white" stroke="transparent" points="-4,4 -4,-180 240.5,-180 240.5,4 -4,4"/>
<!-- Node1 -->
<g id="node1" class="node">
<title>Node1</title>
<g id="a_node1"><a xlink:title=" ">
<polygon fill="#bfbfbf" stroke="black" points="0,-0.5 0,-19.5 114,-19.5 114,-0.5 0,-0.5"/>
<text text-anchor="middle" x="57" y="-7.5" font-family="Helvetica,sans-Serif" font-size="10.00">qOS::sm::_transition_s</text>
</a>
</g>
</g>
<!-- Node2 -->
<g id="node2" class="node">
<title>Node2</title>
<g id="a_node2"><a xlink:href="classq_o_s_1_1sm_1_1___handler.html" target="_top" xlink:title=" ">
<polygon fill="white" stroke="black" points="110,-67.5 110,-86.5 208,-86.5 208,-67.5 110,-67.5"/>
<text text-anchor="middle" x="159" y="-74.5" font-family="Helvetica,sans-Serif" font-size="10.00">qOS::sm::_Handler</text>
</a>
</g>
</g>
<!-- Node2&#45;&gt;Node1 -->
<g id="edge1" class="edge">
<title>Node2&#45;&gt;Node1</title>
<path fill="none" stroke="#9a32cd" stroke-dasharray="5,2" d="M136.67,-61.77C116.48,-48.9 87.41,-30.38 70.54,-19.63"/>
<polygon fill="#9a32cd" stroke="#9a32cd" points="134.93,-64.81 145.24,-67.23 138.69,-58.91 134.93,-64.81"/>
<text text-anchor="middle" x="127.5" y="-41" font-family="Helvetica,sans-Serif" font-size="10.00"> guard</text>
</g>
<!-- Node4 -->
<g id="node4" class="node">
<title>Node4</title>
<g id="a_node4"><a xlink:href="classq_o_s_1_1state_machine.html" target="_top" xlink:title="A FSM(Finite State Machine) object.">
<polygon fill="white" stroke="black" points="137.5,-0.5 137.5,-19.5 236.5,-19.5 236.5,-0.5 137.5,-0.5"/>
<text text-anchor="middle" x="187" y="-7.5" font-family="Helvetica,sans-Serif" font-size="10.00">qOS::stateMachine</text>
</a>
</g>
</g>
<!-- Node2&#45;&gt;Node4 -->
<g id="edge4" class="edge">
<title>Node2&#45;&gt;Node4</title>
<path fill="none" stroke="darkgreen" d="M163.21,-57.59C164.96,-51.24 167.23,-44.18 170,-38 172.9,-31.53 177.15,-24.78 180.68,-19.65"/>
<polygon fill="darkgreen" stroke="darkgreen" points="159.81,-56.75 160.78,-67.31 166.61,-58.45 159.81,-56.75"/>
</g>
<!-- Node3 -->
<g id="node3" class="node">
<title>Node3</title>
<g id="a_node3"><a xlink:href="classq_o_s_1_1sm_1_1state.html" target="_top" xlink:title="A state object.">
<polygon fill="white" stroke="black" points="24,-156.5 24,-175.5 104,-175.5 104,-156.5 24,-156.5"/>
<text text-anchor="middle" x="64" y="-163.5" font-family="Helvetica,sans-Serif" font-size="10.00">qOS::sm::state</text>
</a>
</g>
</g>
<!-- Node3&#45;&gt;Node1 -->
<g id="edge5" class="edge">
<title>Node3&#45;&gt;Node1</title>
<path fill="none" stroke="#9a32cd" stroke-dasharray="5,2" d="M61.85,-146.33C60.15,-130.55 57.91,-107.33 57,-87 55.91,-62.75 56.39,-34.1 56.74,-19.9"/>
<polygon fill="#9a32cd" stroke="#9a32cd" points="58.38,-146.81 62.97,-156.36 65.34,-146.03 58.38,-146.81"/>
<text text-anchor="middle" x="79" y="-74.5" font-family="Helvetica,sans-Serif" font-size="10.00"> nextState</text>
</g>
<!-- Node3&#45;&gt;Node2 -->
<g id="edge2" class="edge">
<title>Node3&#45;&gt;Node2</title>
<path fill="none" stroke="#9a32cd" stroke-dasharray="5,2" d="M80.94,-149.48C100.97,-131.14 133.6,-101.26 149.58,-86.62"/>
<polygon fill="#9a32cd" stroke="#9a32cd" points="78.47,-147.01 73.46,-156.34 83.19,-152.17 78.47,-147.01"/>
<text text-anchor="middle" x="151" y="-130" font-family="Helvetica,sans-Serif" font-size="10.00"> NextState</text>
<text text-anchor="middle" x="151" y="-119" font-family="Helvetica,sans-Serif" font-size="10.00">StartState</text>
<text text-anchor="middle" x="151" y="-108" font-family="Helvetica,sans-Serif" font-size="10.00">State</text>
</g>
<!-- Node4&#45;&gt;Node2 -->
<g id="edge3" class="edge">
<title>Node4&#45;&gt;Node2</title>
<path fill="none" stroke="#9a32cd" stroke-dasharray="5,2" d="M179.23,-29.03C173.87,-41.48 166.97,-57.49 162.78,-67.23"/>
<polygon fill="#9a32cd" stroke="#9a32cd" points="182.54,-30.2 183.28,-19.63 176.11,-27.43 182.54,-30.2"/>
<text text-anchor="middle" x="194" y="-41" font-family="Helvetica,sans-Serif" font-size="10.00"> Machine</text>
</g>
</g>
</svg>
