<?xml version="1.0" encoding="UTF-8" standalone="no"?>
<!DOCTYPE svg PUBLIC "-//W3C//DTD SVG 1.1//EN"
 "http://www.w3.org/Graphics/SVG/1.1/DTD/svg11.dtd">
<!-- Generated by graphviz version 12.2.1 (20241206.2353)
 -->
<!-- Title: qOS::sm::signalQueue&lt; numberOfSignals &gt; Pages: 1 -->
<svg width="187pt" height="161pt"
 viewBox="0.00 0.00 186.62 161.25" xmlns="http://www.w3.org/2000/svg" xmlns:xlink="http://www.w3.org/1999/xlink">
<g id="graph0" class="graph" transform="scale(1 1) rotate(0) translate(4 157.25)">
<title>qOS::sm::signalQueue&lt; numberOfSignals &gt;</title>
<!-- Node1 -->
<g id="Node000001" class="node">
<title>Node1</title>
<g id="a_Node000001"><a xlink:title="The type of a FSM signal&#45;queue.">
<polygon fill="#999999" stroke="#666666" points="139.75,-30.5 27.75,-30.5 27.75,0 139.75,0 139.75,-30.5"/>
<text text-anchor="start" x="35.75" y="-17" font-family="Helvetica,sans-Serif" font-size="10.00">qOS::sm::signalQueue</text>
<text text-anchor="middle" x="83.75" y="-5.75" font-family="Helvetica,sans-Serif" font-size="10.00">&lt; numberOfSignals &gt;</text>
</a>
</g>
</g>
<!-- Node2 -->
<g id="Node000002" class="node">
<title>Node2</title>
<g id="a_Node000002"><a xlink:href="classq_o_s_1_1queue.html" target="_top" xlink:title="A Queue object.">
<polygon fill="white" stroke="#666666" points="68.88,-97 2.62,-97 2.62,-77.75 68.88,-77.75 68.88,-97"/>
<text text-anchor="middle" x="35.75" y="-83.5" font-family="Helvetica,sans-Serif" font-size="10.00">qOS::queue</text>
</a>
</g>
</g>
<!-- Node2&#45;&gt;Node1 -->
<g id="edge1_Node000001_Node000002" class="edge">
<title>Node2&#45;&gt;Node1</title>
<g id="a_edge1_Node000001_Node000002"><a xlink:title=" ">
<path fill="none" stroke="#9a32cd" stroke-dasharray="5,2" d="M48.11,-68.32C56.06,-56.7 66.26,-41.8 73.71,-30.92"/>
<polygon fill="#9a32cd" stroke="#9a32cd" points="45.44,-66.02 42.68,-76.24 51.22,-69.97 45.44,-66.02"/>
</a>
</g>
<text text-anchor="middle" x="64.94" y="-50.25" font-family="Helvetica,sans-Serif" font-size="10.00" fill="grey"> q</text>
</g>
<!-- Node3 -->
<g id="Node000003" class="node">
<title>Node3</title>
<g id="a_Node000003"><a xlink:title=" ">
<polygon fill="white" stroke="#666666" points="71.5,-153.25 0,-153.25 0,-134 71.5,-134 71.5,-153.25"/>
<text text-anchor="middle" x="35.75" y="-139.75" font-family="Helvetica,sans-Serif" font-size="10.00">nonCopyable</text>
</a>
</g>
</g>
<!-- Node3&#45;&gt;Node2 -->
<g id="edge2_Node000002_Node000003" class="edge">
<title>Node3&#45;&gt;Node2</title>
<g id="a_edge2_Node000002_Node000003"><a xlink:title=" ">
<path fill="none" stroke="#8b1a1a" d="M35.75,-122.44C35.75,-113.73 35.75,-103.99 35.75,-97.17"/>
<polygon fill="#8b1a1a" stroke="#8b1a1a" points="32.25,-122.15 35.75,-132.15 39.25,-122.15 32.25,-122.15"/>
</a>
</g>
</g>
<!-- Node4 -->
<g id="Node000004" class="node">
<title>Node4</title>
<g id="a_Node000004"><a xlink:href="structq_o_s_1_1sm_1_1signal__t.html" target="_top" xlink:title="The type to be used as a container variable for a signal.">
<polygon fill="white" stroke="#666666" points="178.62,-97 86.88,-97 86.88,-77.75 178.62,-77.75 178.62,-97"/>
<text text-anchor="middle" x="132.75" y="-83.5" font-family="Helvetica,sans-Serif" font-size="10.00">qOS::sm::signal_t</text>
</a>
</g>
</g>
<!-- Node4&#45;&gt;Node1 -->
<g id="edge3_Node000001_Node000004" class="edge">
<title>Node4&#45;&gt;Node1</title>
<g id="a_edge3_Node000001_Node000004"><a xlink:title=" ">
<path fill="none" stroke="#9a32cd" stroke-dasharray="5,2" d="M120.13,-68.32C112.01,-56.7 101.6,-41.8 94,-30.92"/>
<polygon fill="#9a32cd" stroke="#9a32cd" points="117.08,-70.06 125.68,-76.25 122.82,-66.05 117.08,-70.06"/>
</a>
</g>
<text text-anchor="middle" x="130.58" y="-50.25" font-family="Helvetica,sans-Serif" font-size="10.00" fill="grey"> qStack</text>
</g>
</g>
</svg>
