<?xml version="1.0" encoding="UTF-8" standalone="no"?>
<!DOCTYPE svg PUBLIC "-//W3C//DTD SVG 1.1//EN"
 "http://www.w3.org/Graphics/SVG/1.1/DTD/svg11.dtd">
<!-- Generated by graphviz version 2.49.3 (20211027.1534)
 -->
<!-- Title: qOS::sm::signalQueue&lt; numberOfSignals &gt; Pages: 1 -->
<svg width="186pt" height="106pt"
 viewBox="0.00 0.00 185.50 106.00" xmlns="http://www.w3.org/2000/svg" xmlns:xlink="http://www.w3.org/1999/xlink">
<g id="graph0" class="graph" transform="scale(1 1) rotate(0) translate(4 102)">
<title>qOS::sm::signalQueue&lt; numberOfSignals &gt;</title>
<polygon fill="white" stroke="transparent" points="-4,4 -4,-102 181.5,-102 181.5,4 -4,4"/>
<!-- Node1 -->
<g id="node1" class="node">
<title>Node1</title>
<g id="a_node1"><a xlink:title="The type of a FSM signal&#45;queue.">
<polygon fill="#bfbfbf" stroke="black" points="26,-0.5 26,-30.5 139,-30.5 139,-0.5 26,-0.5"/>
<text text-anchor="start" x="34" y="-18.5" font-family="Helvetica,sans-Serif" font-size="10.00">qOS::sm::signalQueue</text>
<text text-anchor="middle" x="82.5" y="-7.5" font-family="Helvetica,sans-Serif" font-size="10.00">&lt; numberOfSignals &gt;</text>
</a>
</g>
</g>
<!-- Node2 -->
<g id="node2" class="node">
<title>Node2</title>
<g id="a_node2"><a xlink:href="classq_o_s_1_1queue.html" target="_top" xlink:title="A Queue object.">
<polygon fill="white" stroke="black" points="0,-78.5 0,-97.5 67,-97.5 67,-78.5 0,-78.5"/>
<text text-anchor="middle" x="33.5" y="-85.5" font-family="Helvetica,sans-Serif" font-size="10.00">qOS::queue</text>
</a>
</g>
</g>
<!-- Node2&#45;&gt;Node1 -->
<g id="edge1" class="edge">
<title>Node2&#45;&gt;Node1</title>
<path fill="none" stroke="#9a32cd" stroke-dasharray="5,2" d="M45.29,-70.04C53.68,-57.97 64.82,-41.94 72.72,-30.58"/>
<polygon fill="#9a32cd" stroke="#9a32cd" points="42.34,-68.15 39.51,-78.36 48.09,-72.14 42.34,-68.15"/>
<text text-anchor="middle" x="63.5" y="-52" font-family="Helvetica,sans-Serif" font-size="10.00"> q</text>
</g>
<!-- Node3 -->
<g id="node3" class="node">
<title>Node3</title>
<g id="a_node3"><a xlink:href="structq_o_s_1_1sm_1_1signal__t.html" target="_top" xlink:title="The type to be used as a container variable for a signal.">
<polygon fill="white" stroke="black" points="85.5,-78.5 85.5,-97.5 177.5,-97.5 177.5,-78.5 85.5,-78.5"/>
<text text-anchor="middle" x="131.5" y="-85.5" font-family="Helvetica,sans-Serif" font-size="10.00">qOS::sm::signal_t</text>
</a>
</g>
</g>
<!-- Node3&#45;&gt;Node1 -->
<g id="edge2" class="edge">
<title>Node3&#45;&gt;Node1</title>
<path fill="none" stroke="#9a32cd" stroke-dasharray="5,2" d="M119.71,-70.04C111.32,-57.97 100.18,-41.94 92.28,-30.58"/>
<polygon fill="#9a32cd" stroke="#9a32cd" points="116.91,-72.14 125.49,-78.36 122.66,-68.15 116.91,-72.14"/>
<text text-anchor="middle" x="127.5" y="-52" font-family="Helvetica,sans-Serif" font-size="10.00"> qStack</text>
</g>
</g>
</svg>
