<?xml version="1.0" encoding="UTF-8" standalone="no"?>
<!DOCTYPE svg PUBLIC "-//W3C//DTD SVG 1.1//EN"
 "http://www.w3.org/Graphics/SVG/1.1/DTD/svg11.dtd">
<!-- Generated by graphviz version 2.49.3 (20211027.1534)
 -->
<!-- Title: qOS::sm::signalQueue&lt; N &gt; Pages: 1 -->
<svg width="186pt" height="95pt"
 viewBox="0.00 0.00 185.50 95.00" xmlns="http://www.w3.org/2000/svg" xmlns:xlink="http://www.w3.org/1999/xlink">
<g id="graph0" class="graph" transform="scale(1 1) rotate(0) translate(4 91)">
<title>qOS::sm::signalQueue&lt; N &gt;</title>
<polygon fill="white" stroke="transparent" points="-4,4 -4,-91 181.5,-91 181.5,4 -4,4"/>
<!-- Node1 -->
<g id="node1" class="node">
<title>Node1</title>
<g id="a_node1"><a xlink:title="The type of a FSM signal&#45;queue.">
<polygon fill="#bfbfbf" stroke="black" points="14,-0.5 14,-19.5 151,-19.5 151,-0.5 14,-0.5"/>
<text text-anchor="middle" x="82.5" y="-7.5" font-family="Helvetica,sans-Serif" font-size="10.00">qOS::sm::signalQueue&lt; N &gt;</text>
</a>
</g>
</g>
<!-- Node2 -->
<g id="node2" class="node">
<title>Node2</title>
<g id="a_node2"><a xlink:href="classq_o_s_1_1queue.html" target="_top" xlink:title="A Queue object.">
<polygon fill="white" stroke="black" points="0,-67.5 0,-86.5 67,-86.5 67,-67.5 0,-67.5"/>
<text text-anchor="middle" x="33.5" y="-74.5" font-family="Helvetica,sans-Serif" font-size="10.00">qOS::queue</text>
</a>
</g>
</g>
<!-- Node2&#45;&gt;Node1 -->
<g id="edge1" class="edge">
<title>Node2&#45;&gt;Node1</title>
<path fill="none" stroke="#9a32cd" stroke-dasharray="5,2" d="M46.39,-58.9C55.91,-46.27 68.48,-29.6 76,-19.63"/>
<polygon fill="#9a32cd" stroke="#9a32cd" points="43.33,-57.14 40.11,-67.23 48.92,-61.36 43.33,-57.14"/>
<text text-anchor="middle" x="65.5" y="-41" font-family="Helvetica,sans-Serif" font-size="10.00"> q</text>
</g>
<!-- Node3 -->
<g id="node3" class="node">
<title>Node3</title>
<g id="a_node3"><a xlink:href="structq_o_s_1_1sm_1_1signal__t.html" target="_top" xlink:title="The type to be used as a container variable for a signal.">
<polygon fill="white" stroke="black" points="85.5,-67.5 85.5,-86.5 177.5,-86.5 177.5,-67.5 85.5,-67.5"/>
<text text-anchor="middle" x="131.5" y="-74.5" font-family="Helvetica,sans-Serif" font-size="10.00">qOS::sm::signal_t</text>
</a>
</g>
</g>
<!-- Node3&#45;&gt;Node1 -->
<g id="edge2" class="edge">
<title>Node3&#45;&gt;Node1</title>
<path fill="none" stroke="#9a32cd" stroke-dasharray="5,2" d="M118.61,-58.9C109.09,-46.27 96.52,-29.6 89,-19.63"/>
<polygon fill="#9a32cd" stroke="#9a32cd" points="116.08,-61.36 124.89,-67.23 121.67,-57.14 116.08,-61.36"/>
<text text-anchor="middle" x="126.5" y="-41" font-family="Helvetica,sans-Serif" font-size="10.00"> qStack</text>
</g>
</g>
</svg>
