<?xml version="1.0" encoding="UTF-8" standalone="no"?>
<!DOCTYPE svg PUBLIC "-//W3C//DTD SVG 1.1//EN"
 "http://www.w3.org/Graphics/SVG/1.1/DTD/svg11.dtd">
<!-- Generated by graphviz version 11.0.0 (20240428.1522)
 -->
<!-- Title: qOS::sm::signalQueue&lt; numberOfSignals &gt; Pages: 1 -->
<svg width="184pt" height="105pt"
 viewBox="0.00 0.00 184.00 105.00" xmlns="http://www.w3.org/2000/svg" xmlns:xlink="http://www.w3.org/1999/xlink">
<g id="graph0" class="graph" transform="scale(1 1) rotate(0) translate(4 101)">
<title>qOS::sm::signalQueue&lt; numberOfSignals &gt;</title>
<!-- Node1 -->
<g id="Node000001" class="node">
<title>Node1</title>
<g id="a_Node000001"><a xlink:title="The type of a FSM signal&#45;queue.">
<polygon fill="#999999" stroke="#666666" points="137.12,-30.5 25.13,-30.5 25.13,0 137.12,0 137.12,-30.5"/>
<text text-anchor="start" x="33.12" y="-17" font-family="Helvetica,sans-Serif" font-size="10.00">qOS::sm::signalQueue</text>
<text text-anchor="middle" x="81.12" y="-5.75" font-family="Helvetica,sans-Serif" font-size="10.00">&lt; numberOfSignals &gt;</text>
</a>
</g>
</g>
<!-- Node2 -->
<g id="Node000002" class="node">
<title>Node2</title>
<g id="a_Node000002"><a xlink:href="classq_o_s_1_1queue.html" target="_top" xlink:title="A Queue object.">
<polygon fill="white" stroke="#666666" points="66.25,-97 0,-97 0,-77.75 66.25,-77.75 66.25,-97"/>
<text text-anchor="middle" x="33.12" y="-83.5" font-family="Helvetica,sans-Serif" font-size="10.00">qOS::queue</text>
</a>
</g>
</g>
<!-- Node2&#45;&gt;Node1 -->
<g id="edge1_Node000001_Node000002" class="edge">
<title>Node2&#45;&gt;Node1</title>
<g id="a_edge1_Node000001_Node000002"><a xlink:title=" ">
<path fill="none" stroke="#9a32cd" stroke-dasharray="5,2" d="M45.49,-68.32C53.44,-56.7 63.64,-41.8 71.09,-30.92"/>
<polygon fill="#9a32cd" stroke="#9a32cd" points="42.82,-66.02 40.06,-76.24 48.6,-69.97 42.82,-66.02"/>
</a>
</g>
<text text-anchor="middle" x="62.88" y="-50.25" font-family="Helvetica,sans-Serif" font-size="10.00" fill="grey"> q</text>
</g>
<!-- Node3 -->
<g id="Node000003" class="node">
<title>Node3</title>
<g id="a_Node000003"><a xlink:href="structq_o_s_1_1sm_1_1signal__t.html" target="_top" xlink:title="The type to be used as a container variable for a signal.">
<polygon fill="white" stroke="#666666" points="176,-97 84.25,-97 84.25,-77.75 176,-77.75 176,-97"/>
<text text-anchor="middle" x="130.12" y="-83.5" font-family="Helvetica,sans-Serif" font-size="10.00">qOS::sm::signal_t</text>
</a>
</g>
</g>
<!-- Node3&#45;&gt;Node1 -->
<g id="edge2_Node000001_Node000003" class="edge">
<title>Node3&#45;&gt;Node1</title>
<g id="a_edge2_Node000001_Node000003"><a xlink:title=" ">
<path fill="none" stroke="#9a32cd" stroke-dasharray="5,2" d="M117.51,-68.32C109.39,-56.7 98.98,-41.8 91.37,-30.92"/>
<polygon fill="#9a32cd" stroke="#9a32cd" points="114.46,-70.06 123.05,-76.25 120.19,-66.05 114.46,-70.06"/>
</a>
</g>
<text text-anchor="middle" x="127.62" y="-50.25" font-family="Helvetica,sans-Serif" font-size="10.00" fill="grey"> qStack</text>
</g>
</g>
</svg>
